<svg width="25" height="24" viewBox="0 0 25 24" fill="none" xmlns="http://www.w3.org/2000/svg">
<g clip-path="url(#clip0_22602_22104)">
<path d="M20.5 3C21.0046 2.99984 21.4906 3.19041 21.8605 3.5335C22.2305 3.87659 22.4572 4.34684 22.495 4.85L22.5 5V19C22.5002 19.5046 22.3096 19.9906 21.9665 20.3605C21.6234 20.7305 21.1532 20.9572 20.65 20.995L20.5 21H4.5C3.99542 21.0002 3.50943 20.8096 3.13945 20.4665C2.76947 20.1234 2.54284 19.6532 2.505 19.15L2.5 19V5C2.49984 4.49542 2.69041 4.00943 3.0335 3.63945C3.37659 3.26947 3.84684 3.04284 4.35 3.005L4.5 3H20.5ZM10.379 12.05L4.722 17.707C4.65618 17.7731 4.58146 17.8296 4.5 17.875V19H20.5V17.875C20.4185 17.8296 20.3438 17.7731 20.278 17.707L17.45 14.88L16.743 15.587L16.95 15.794C17.0428 15.8869 17.1165 15.9972 17.1667 16.1186C17.2169 16.2399 17.2427 16.37 17.2427 16.5014C17.2427 16.6327 17.2167 16.7628 17.1664 16.8841C17.1161 17.0054 17.0424 17.1157 16.9495 17.2085C16.8566 17.3013 16.7463 17.375 16.6249 17.4252C16.5036 17.4754 16.3735 17.5012 16.2421 17.5012C16.1108 17.5012 15.9807 17.4752 15.8594 17.4249C15.7381 17.3746 15.6278 17.3009 15.535 17.208L10.38 12.05H10.379ZM20.5 5H4.5V15.1L9.495 10.106C9.71274 9.88832 10.0032 9.75865 10.3106 9.74186C10.618 9.72506 10.9208 9.82233 11.161 10.015L11.262 10.105L15.328 14.172L16.566 12.934C16.7837 12.7163 17.0742 12.5866 17.3816 12.5699C17.689 12.5531 17.9918 12.6503 18.232 12.843L18.334 12.934L20.5 15.101V5ZM16 7C16.3978 7 16.7794 7.15804 17.0607 7.43934C17.342 7.72064 17.5 8.10218 17.5 8.5C17.5 8.89782 17.342 9.27936 17.0607 9.56066C16.7794 9.84196 16.3978 10 16 10C15.6022 10 15.2206 9.84196 14.9393 9.56066C14.658 9.27936 14.5 8.89782 14.5 8.5C14.5 8.10218 14.658 7.72064 14.9393 7.43934C15.2206 7.15804 15.6022 7 16 7Z" fill="#6D6D6D"/>
</g>
<defs>
<clipPath id="clip0_22602_22104">
<rect width="24" height="24" fill="white" transform="translate(0.5)"/>
</clipPath>
</defs>
</svg>
