<svg width="40" height="40" viewBox="0 0 40 40" fill="none" xmlns="http://www.w3.org/2000/svg">
<g clip-path="url(#clip0_24515_48959)">
<path fill-rule="evenodd" clip-rule="evenodd" d="M19.9999 3.33337C29.2049 3.33337 36.6666 10.795 36.6666 20C36.6666 29.205 29.2049 36.6667 19.9999 36.6667C10.7949 36.6667 3.33325 29.205 3.33325 20C3.33325 10.795 10.7949 3.33337 19.9999 3.33337ZM19.9999 21.6667C17.9699 21.6645 16.0093 22.4056 14.4883 23.75C14.1567 24.0424 13.9549 24.4546 13.9273 24.8957C13.8996 25.3369 14.0484 25.771 14.3408 26.1025C14.6332 26.4341 15.0453 26.6358 15.4865 26.6635C15.9276 26.6912 16.3617 26.5424 16.6933 26.25C17.6053 25.4426 18.7818 24.9979 19.9999 25C21.2181 24.9971 22.395 25.4419 23.3066 26.25C23.6381 26.5427 24.0723 26.6916 24.5136 26.6641C24.955 26.6366 25.3673 26.4349 25.6599 26.1034C25.9525 25.7719 26.1015 25.3377 26.074 24.8963C26.0465 24.455 25.8448 24.0427 25.5133 23.75C23.9918 22.4052 22.0305 21.6641 19.9999 21.6667ZM11.8433 14.255C11.6459 14.6503 11.6135 15.1076 11.7532 15.5267C11.8929 15.9458 12.1932 16.2923 12.5883 16.49L15.9216 18.1567C16.118 18.2627 16.3338 18.3281 16.556 18.349C16.7782 18.37 17.0024 18.3461 17.2152 18.2788C17.428 18.2115 17.6251 18.1022 17.7949 17.9572C17.9646 17.8123 18.1035 17.6347 18.2034 17.4351C18.3032 17.2355 18.3619 17.0178 18.376 16.795C18.3901 16.5723 18.3593 16.349 18.2855 16.1383C18.2116 15.9277 18.0962 15.734 17.9461 15.5688C17.796 15.4037 17.6142 15.2703 17.4116 15.1767L14.0783 13.51C13.683 13.3127 13.2256 13.2803 12.8066 13.42C12.3875 13.5597 12.041 13.86 11.8433 14.255ZM25.9216 13.51L22.5883 15.1767C22.3856 15.2703 22.2039 15.4037 22.0537 15.5688C21.9036 15.734 21.7882 15.9277 21.7144 16.1383C21.6405 16.349 21.6097 16.5723 21.6238 16.795C21.638 17.0178 21.6967 17.2355 21.7965 17.4351C21.8963 17.6347 22.0352 17.8123 22.2049 17.9572C22.3747 18.1022 22.5718 18.2115 22.7846 18.2788C22.9975 18.3461 23.2216 18.37 23.4438 18.349C23.6661 18.3281 23.8818 18.2627 24.0783 18.1567L27.4116 16.49C27.6142 16.3964 27.796 16.2631 27.9461 16.0979C28.0962 15.9327 28.2116 15.7391 28.2855 15.5284C28.3593 15.3178 28.3901 15.0945 28.376 14.8717C28.3619 14.6489 28.3032 14.4313 28.2034 14.2317C28.1035 14.032 27.9646 13.8545 27.7949 13.7095C27.6251 13.5646 27.428 13.4552 27.2152 13.3879C27.0024 13.3206 26.7782 13.2967 26.556 13.3177C26.3338 13.3387 26.118 13.4041 25.9216 13.51Z" fill="#E5D2D2"/>
</g>
<defs>
<clipPath id="clip0_24515_48959">
<rect width="40" height="40" fill="white"/>
</clipPath>
</defs>
</svg>
