<svg width="40" height="40" viewBox="0 0 40 40" fill="none" xmlns="http://www.w3.org/2000/svg">
<g clip-path="url(#clip0_24515_48999)">
<path fill-rule="evenodd" clip-rule="evenodd" d="M19.9999 3.33337C29.2049 3.33337 36.6666 10.795 36.6666 20C36.6666 29.205 29.2049 36.6667 19.9999 36.6667C10.7949 36.6667 3.33325 29.205 3.33325 20C3.33325 10.795 10.7949 3.33337 19.9999 3.33337ZM19.9999 23.3334C17.9693 23.3306 16.0079 24.0717 14.4866 25.4167C14.1551 25.7093 13.9534 26.1217 13.9259 26.563C13.8984 27.0043 14.0473 27.4385 14.3399 27.77C14.6325 28.1016 15.0449 28.3033 15.4862 28.3308C15.9275 28.3583 16.3617 28.2093 16.6933 27.9167C17.6053 27.1093 18.7818 26.6645 19.9999 26.6667C21.2683 26.6667 22.4249 27.1367 23.3066 27.9167C23.6381 28.2093 24.0723 28.3583 24.5136 28.3308C24.955 28.3033 25.3673 28.1016 25.6599 27.77C25.9525 27.4385 26.1015 27.0043 26.074 26.563C26.0465 26.1217 25.8448 25.7093 25.5133 25.4167C23.9919 24.0717 22.0306 23.3306 19.9999 23.3334ZM14.5116 13.8217C14.2117 13.5228 13.8092 13.3493 13.3859 13.3363C12.9627 13.3234 12.5504 13.4721 12.2328 13.7521C11.9152 14.0322 11.7161 14.4226 11.6759 14.8442C11.6358 15.2657 11.7576 15.6867 12.0166 16.0217L12.1549 16.1784L12.6433 16.6667L12.1549 17.155C11.856 17.455 11.6825 17.8574 11.6695 18.2807C11.6566 18.7039 11.8053 19.1162 12.0853 19.4338C12.3654 19.7514 12.7558 19.9506 13.1774 19.9907C13.5989 20.0309 14.0199 19.9091 14.3549 19.65L14.5116 19.5117L14.9999 19.0234L15.4883 19.5117C15.7882 19.8106 16.1906 19.9842 16.6139 19.9971C17.0371 20.01 17.4494 19.8614 17.767 19.5813C18.0847 19.3012 18.2838 18.9108 18.3239 18.4893C18.3641 18.0677 18.2423 17.6467 17.9833 17.3117L17.8449 17.155L17.3566 16.6667L17.8449 16.1784C18.1438 15.8784 18.3174 15.476 18.3303 15.0527C18.3432 14.6295 18.1946 14.2172 17.9145 13.8996C17.6344 13.582 17.244 13.3829 16.8225 13.3427C16.4009 13.3026 15.9799 13.4244 15.6449 13.6834L15.4883 13.8217L14.9999 14.31L14.5116 13.8217ZM22.1549 13.8217C21.8425 14.1343 21.6669 14.5581 21.6669 15C21.6669 15.442 21.8425 15.8658 22.1549 16.1784L22.6433 16.6667L22.1549 17.155C21.8513 17.4694 21.6833 17.8904 21.6871 18.3274C21.6909 18.7644 21.8662 19.1824 22.1752 19.4914C22.4842 19.8004 22.9023 19.9757 23.3393 19.9795C23.7762 19.9833 24.1972 19.8153 24.5116 19.5117L24.9999 19.0234L25.4883 19.5117C25.8026 19.8153 26.2236 19.9833 26.6606 19.9795C27.0976 19.9757 27.5156 19.8004 27.8246 19.4914C28.1336 19.1824 28.3089 18.7644 28.3127 18.3274C28.3165 17.8904 28.1485 17.4694 27.8449 17.155L27.3566 16.6667L27.8449 16.1784C28.1485 15.864 28.3165 15.443 28.3127 15.006C28.3089 14.569 28.1336 14.151 27.8246 13.842C27.5156 13.533 27.0976 13.3577 26.6606 13.3539C26.2236 13.3501 25.8026 13.5181 25.4883 13.8217L24.9999 14.31L24.5116 13.8217C24.199 13.5093 23.7752 13.3337 23.3333 13.3337C22.8913 13.3337 22.4675 13.5093 22.1549 13.8217Z" fill="#E5D2D2"/>
</g>
<defs>
<clipPath id="clip0_24515_48999">
<rect width="40" height="40" fill="white"/>
</clipPath>
</defs>
</svg>
