<svg width="128" height="116" viewBox="0 0 128 116" fill="none" xmlns="http://www.w3.org/2000/svg">
<g clip-path="url(#clip0_24502_35042)">
<path d="M128.098 77.9601C127.939 73.9172 126.878 70.22 125.074 66.6824C122.5 61.6287 119.449 56.9208 116.053 52.3991C114.806 50.7234 113.718 48.9147 113.002 46.9198C112.073 44.3929 111.755 41.7065 111.171 39.0998C110.694 37.0252 110.375 34.9239 109.818 32.8226C109.022 29.7372 107.961 26.7316 106.448 23.9653C104.087 19.55 101.062 15.64 97.4276 12.1557C94.2703 9.12343 90.6355 6.83597 86.8149 4.76129C84.5332 3.51117 82.0392 2.66002 79.5982 1.88866C77.29 1.17051 74.849 0.771531 72.4346 0.45235C69.6753 0.0533741 66.916 0.000177247 64.1567 0.0533741C60.4953 0.106571 56.8605 0.399153 53.2787 1.43649C50.9439 2.12805 48.6091 2.84621 46.4069 3.77715C40.6495 6.22421 35.9799 10.2672 31.6287 14.6559C30.3021 15.9858 29.2939 17.6083 28.1265 19.0446C26.0836 21.5449 24.5978 24.3909 23.0059 27.1572C20.2996 31.8917 18.4159 37.0518 15.3912 41.6267C13.6401 44.2599 11.6768 46.707 9.81957 49.2338C7.35211 52.6118 4.93772 56.043 2.94783 59.7402C1.24979 62.8788 0.374243 66.3366 0.0558616 69.8476C-0.182925 72.4809 0.666093 75.0875 1.93962 77.3484C3.34581 79.8752 5.30916 82.0031 8.28072 82.934C10.2175 83.5458 12.1013 84.3171 14.1708 84.0246C14.8606 83.9448 14.9933 84.5033 15.0198 84.9555C15.0994 87.243 15.4443 89.5038 15.8688 91.7647C16.1341 93.2276 16.426 94.7437 16.877 96.1002C17.7526 98.7069 18.2832 101.393 19.4506 103.92C20.4058 105.995 21.3609 108.07 22.8998 109.798C24.3855 111.421 26.1897 112.591 28.1265 113.629C29.9572 114.586 31.9736 115.065 33.9105 115.464C35.9003 115.863 38.076 115.517 40.0658 114.879C43.2231 113.868 45.9824 112.112 48.3968 109.745C49.3785 108.788 50.4398 107.777 50.9969 106.686C51.7133 105.25 52.6684 105.277 53.7563 105.41C55.7196 105.649 57.683 105.862 59.6728 105.782C63.4934 105.622 67.2609 106.447 71.0815 106.287C73.2837 106.208 73.3633 106.261 74.2653 108.282C74.3184 108.389 74.3184 108.548 74.3715 108.655C76.096 111.847 78.8819 113.815 82.1984 114.932C84.825 115.81 87.6108 116.102 90.4232 115.943C91.5375 115.889 92.6254 115.57 93.6601 115.304C95.0132 114.985 96.2602 114.161 97.5603 113.496C100.213 112.139 101.965 109.985 103.397 107.511C104.591 105.436 105.546 103.229 106.21 100.915C106.846 98.7335 107.43 96.5524 107.669 94.5575C107.669 93.999 107.642 93.733 107.669 93.467C107.802 91.6583 108.2 91.4455 109.898 92.0573C110.561 92.2967 111.251 92.6691 111.914 92.6159C114.567 92.4031 117.247 92.7488 119.874 91.7381C123.031 90.5146 125.419 88.4665 126.798 85.5141C127.807 83.1468 128.205 80.62 128.098 77.9601Z" fill="#B0DFD1"/>
<path d="M19.8977 4.86816C20.8794 5.9587 21.2243 6.99604 21.6223 7.95358C22.5244 10.1347 24.1428 11.3582 26.2653 12.1029C26.5307 12.1827 26.8225 12.2093 26.849 12.5285C26.8756 13.0605 26.4245 12.8211 26.1857 12.8743C22.657 13.6722 21.5692 14.8426 21.1712 18.2472C21.1182 18.7791 20.7998 19.1515 20.4283 19.2313C19.9242 19.3377 19.9242 18.7791 19.8181 18.4334C19.0752 15.6139 17.3241 13.885 14.4322 13.3797C14.0872 13.3265 13.8219 13.1669 13.8219 12.8211C13.7954 12.3157 14.2464 12.5285 14.4852 12.4221C17.0853 11.305 18.9691 9.62928 19.3671 6.65026C19.4467 6.11829 19.9508 5.74591 19.8977 4.86816Z" fill="#FFCC66"/>
<path d="M15.8132 28.3019C14.1682 28.3019 13.0008 29.552 12.5498 31.8129C12.4967 32.1054 12.709 32.5044 12.2845 32.5842C11.86 32.664 11.7538 32.265 11.5946 31.9193C11.064 30.8553 10.9313 29.5254 9.65782 28.9136C9.07412 28.6477 8.62308 28.1157 7.85366 28.3019C7.53528 28.3817 7.16383 28.0359 7.0577 27.7167C6.95158 27.4241 7.34955 27.2645 7.56181 27.2113C9.79048 26.44 11.0109 24.8175 11.5416 22.5832C11.5946 22.3438 11.5681 21.998 11.9396 21.998C12.2579 21.998 12.4171 22.3172 12.4171 22.5566C12.4437 25.0303 14.1948 26.1208 16.0255 27.1581C16.3173 27.3177 16.8479 27.4773 16.6888 28.0093C16.5296 28.4615 16.1581 28.4083 15.8132 28.3019Z" fill="#FFCC66"/>
<path d="M89.7866 50.5378C85.913 50.4846 82.7822 47.479 82.8088 43.8882C82.8618 40.0847 86.0987 37.1322 90.2111 37.212C93.8725 37.2652 97.0829 40.3506 97.0298 43.7552C96.9768 47.7184 93.8991 50.591 89.7866 50.5378Z" fill="#FFB4B4"/>
<path d="M27.3552 39.8193C27.3817 36.0158 30.2206 33.2229 34.0147 33.2761C37.7556 33.3027 40.9925 36.4679 40.9395 40.0321C40.8864 43.6229 37.9944 46.5222 34.4126 46.4956C30.141 46.4956 27.3286 43.8357 27.3552 39.8193Z" fill="#FFB4B4"/>
<path d="M63.5162 45.085C59.563 45.0318 56.3526 44.0743 53.8586 41.2548C53.1953 40.5101 53.4872 39.8717 54.0178 39.26C54.6281 38.5684 55.1852 38.9142 55.6893 39.4462C58.6874 42.638 64.153 43.4093 68.3185 40.9623C69.194 40.4303 69.8573 40.3505 70.4676 41.2016C71.1043 42.0794 70.388 42.638 69.8573 43.0901C67.894 44.6594 65.5592 44.9786 63.5162 45.085Z" fill="#404948"/>
<path d="M49.7205 28.7802C50.5961 28.727 51.8696 29.3122 52.9309 30.4293C53.3288 30.8549 53.6207 31.3602 53.5942 31.972C53.5942 32.4508 53.3554 32.8231 52.9839 33.1157C52.5594 33.4349 52.2145 33.1157 51.9492 32.8497C49.9062 30.8549 47.8102 31.174 45.6081 32.5838C44.9978 32.9827 44.2019 33.3285 43.5917 32.5306C43.008 31.706 43.6182 31.0943 44.1488 30.5889C45.5285 29.259 47.2265 28.86 49.7205 28.7802Z" fill="#404948"/>
<path d="M76.4678 30.4568C78.9883 30.5366 80.6598 31.5739 81.9599 33.2762C82.517 33.9944 82.1456 34.6061 81.5619 35.1115C80.9782 35.6169 80.6068 35.2711 80.1557 34.7923C78.1128 32.5581 77.1311 32.3719 75.0881 33.755C74.6636 34.0476 74.2126 34.3402 73.7615 34.6327C73.337 34.9253 72.9391 34.8987 72.5411 34.6061C72.1166 34.287 71.9043 33.888 72.0104 33.356C72.09 32.9038 72.3554 32.5581 72.6737 32.2389C73.6024 31.2281 75.3535 30.4568 76.4678 30.4568Z" fill="#404948"/>
<path d="M13.3183 67.1362C13.0265 70.5408 12.3101 79.2651 12.3101 79.2651C12.2836 81.1269 12.3367 82.7229 12.4163 84.0528C12.9734 84.106 13.5571 84.1326 14.1408 84.0528C14.5123 83.9996 14.7245 84.1592 14.8572 84.372L14.9102 84.1858C14.2204 75.0625 16.6083 57.9863 16.6083 57.9863C13.8224 61.8697 13.3183 67.1362 13.3183 67.1362Z" fill="#96BFB2"/>
<path d="M107.111 84.1051C106.793 83.3337 106.448 82.5889 106.076 81.8176C104.299 78.1204 102.229 74.5562 99.9209 71.1782C101.831 76.6841 103.795 82.19 105.731 87.6692C106.474 89.4513 107.164 90.9674 107.801 92.2974C108.066 91.5526 108.597 91.526 109.844 92.0048C110.136 92.1112 110.454 92.2442 110.746 92.3506V92.2974C110.454 90.6217 109.021 88.7332 108.358 87.1373C107.96 86.1265 107.562 85.1158 107.111 84.1051Z" fill="#96BFB2"/>
</g>
<defs>
<clipPath id="clip0_24502_35042">
<rect width="128" height="116" fill="white"/>
</clipPath>
</defs>
</svg>
