<svg width="20" height="20" viewBox="0 0 20 20" fill="none" xmlns="http://www.w3.org/2000/svg">
<g clip-path="url(#clip0_20523_40405)">
<path d="M7.58925 4.53999C8.08759 3.08166 10.1026 3.03749 10.6934 4.40749L10.7434 4.54082L11.4159 6.50749C11.57 6.95852 11.8191 7.37125 12.1463 7.71784C12.4735 8.06444 12.8712 8.33683 13.3126 8.51666L13.4934 8.58416L15.4601 9.25582C16.9184 9.75416 16.9626 11.7692 15.5934 12.36L15.4601 12.41L13.4934 13.0825C13.0422 13.2365 12.6293 13.4855 12.2826 13.8127C11.9359 14.1399 11.6633 14.5377 11.4834 14.9792L11.4159 15.1592L10.7443 17.1267C10.2459 18.585 8.23092 18.6292 7.64092 17.26L7.58925 17.1267L6.91759 15.16C6.76357 14.7088 6.51456 14.2959 6.18737 13.9492C5.86018 13.6024 5.46241 13.3299 5.02092 13.15L4.84092 13.0825L2.87425 12.4108C1.41509 11.9125 1.37092 9.89749 2.74092 9.30749L2.87425 9.25582L4.84092 8.58416C5.29195 8.43004 5.70468 8.18099 6.05127 7.8538C6.39787 7.52661 6.67026 7.1289 6.85009 6.68749L6.91759 6.50749L7.58925 4.53999ZM9.16675 5.07832L8.49509 7.04499C8.26041 7.73274 7.87864 8.36108 7.37637 8.88624C6.87409 9.4114 6.26338 9.82076 5.58675 10.0858L5.37842 10.1617L3.41175 10.8333L5.37842 11.505C6.06617 11.7397 6.69451 12.1214 7.21967 12.6237C7.74483 13.126 8.15419 13.7367 8.41925 14.4133L8.49509 14.6217L9.16675 16.5883L9.83842 14.6217C10.0731 13.9339 10.4549 13.3056 10.9571 12.7804C11.4594 12.2552 12.0701 11.8459 12.7468 11.5808L12.9551 11.5058L14.9218 10.8333L12.9551 10.1617C12.2673 9.92698 11.639 9.54521 11.1138 9.04294C10.5887 8.54066 10.1793 7.92995 9.91426 7.25332L9.83925 7.04499L9.16675 5.07832ZM15.8334 1.66666C15.9893 1.66666 16.1421 1.71039 16.2744 1.79288C16.4067 1.87538 16.5132 1.99333 16.5818 2.13332L16.6218 2.23082L16.9134 3.08582L17.7693 3.37749C17.9255 3.43057 18.0625 3.52884 18.1628 3.65984C18.2631 3.79084 18.3223 3.94867 18.3328 4.11334C18.3434 4.27801 18.3048 4.4421 18.2219 4.58481C18.1391 4.72753 18.0158 4.84244 17.8676 4.91499L17.7693 4.95499L16.9143 5.24666L16.6226 6.10249C16.5694 6.25868 16.4711 6.39557 16.34 6.49582C16.209 6.59606 16.0511 6.65515 15.8865 6.66559C15.7218 6.67603 15.5577 6.63736 15.4151 6.55447C15.2724 6.47158 15.1576 6.34821 15.0851 6.19999L15.0451 6.10249L14.7534 5.24749L13.8976 4.95582C13.7414 4.90274 13.6044 4.80448 13.5041 4.67348C13.4037 4.54248 13.3446 4.38464 13.334 4.21997C13.3235 4.0553 13.3621 3.89121 13.4449 3.7485C13.5277 3.60579 13.6511 3.49087 13.7993 3.41832L13.8976 3.37832L14.7526 3.08666L15.0443 2.23082C15.1004 2.06618 15.2068 1.92325 15.3483 1.82207C15.4898 1.7209 15.6595 1.66655 15.8334 1.66666Z" fill="#454545"/>
</g>
<defs>
<clipPath id="clip0_20523_40405">
<rect width="20" height="20" fill="white"/>
</clipPath>
</defs>
</svg>
