<svg width="20" height="20" viewBox="0 0 20 20" fill="none" xmlns="http://www.w3.org/2000/svg">
<g clip-path="url(#clip0_22631_6575)">
<path fill-rule="evenodd" clip-rule="evenodd" d="M16.5327 3.56833C17.191 4.2275 17.516 4.99417 17.4993 5.835C17.4852 6.63583 17.1618 7.41333 16.7177 8.13833C16.126 9.10667 15.2218 10.1283 14.211 11.1758L13.651 11.75L13.076 12.3283L12.0177 13.385L11.401 13.9933C10.2743 15.0908 9.17599 16.0825 8.13849 16.7175C7.41349 17.1617 6.63599 17.4842 5.83516 17.5C4.99433 17.5167 4.22766 17.1917 3.56849 16.5325C2.57933 15.5433 2.15516 13.7458 2.40433 11.8283C2.64849 9.94833 3.54683 7.82583 5.37516 5.895L5.64433 5.61833C7.64183 3.62667 9.86683 2.65917 11.8277 2.40417C13.7452 2.155 15.5435 2.57917 16.5327 3.56833ZM15.3543 4.7475C14.8702 4.26333 13.681 3.84417 12.0427 4.05667C11.6843 4.10333 11.3102 4.18 10.926 4.29083C11.1427 4.54083 11.426 4.72 11.7877 4.84083C11.8928 4.87438 11.9902 4.92847 12.0743 4.99998C12.1584 5.07148 12.2274 5.15897 12.2774 5.25737C12.3274 5.35577 12.3573 5.46312 12.3654 5.57318C12.3736 5.68324 12.3598 5.79383 12.3249 5.89852C12.2899 6.00321 12.2346 6.09992 12.1619 6.18303C12.0893 6.26614 12.0009 6.334 11.9019 6.38267C11.8028 6.43134 11.6951 6.45985 11.5849 6.46654C11.4748 6.47324 11.3644 6.45798 11.2602 6.42167C10.4185 6.14167 9.77016 5.63667 9.33683 4.93083C8.57913 5.32991 7.87516 5.82358 7.24183 6.4C7.37433 6.5975 7.55183 6.81667 7.76683 7.03167C8.12016 7.38417 8.48183 7.63667 8.74683 7.75083L8.84099 7.7875C9.05074 7.85734 9.22414 8.00764 9.32307 8.20534C9.42199 8.40303 9.43833 8.63193 9.36849 8.84167C9.29865 9.05141 9.14835 9.22482 8.95066 9.32374C8.75296 9.42267 8.52407 9.43901 8.31433 9.36917C7.69933 9.16417 7.07599 8.69667 6.58933 8.21C6.4044 8.02553 6.23128 7.82958 6.07099 7.62333C5.54073 8.2631 5.09434 8.96797 4.74266 9.72083C4.96849 10.2242 5.33933 10.5492 5.89516 10.7342C6.10206 10.8063 6.27224 10.9569 6.36886 11.1536C6.46549 11.3502 6.48078 11.577 6.41142 11.7849C6.34207 11.9927 6.19366 12.1649 5.99831 12.2641C5.80296 12.3633 5.5764 12.3816 5.36766 12.315C4.91218 12.1679 4.48983 11.9332 4.12433 11.6242C4.09766 11.7658 4.07433 11.9058 4.05766 12.0433C3.84433 13.6825 4.26349 14.8708 4.74766 15.355C5.11933 15.7267 5.46099 15.8408 5.80349 15.8342C6.18516 15.8267 6.66433 15.6667 7.26849 15.2967C8.06183 14.8117 8.92516 14.0592 9.87933 13.1467L10.4085 12.6325L11.2377 11.81L12.3643 10.6808L12.8927 10.1425C13.9202 9.08417 14.7668 8.13417 15.296 7.26917C15.666 6.665 15.826 6.18583 15.8335 5.80417C15.8402 5.4625 15.726 5.12 15.3543 4.7475Z" fill="#0F2422"/>
</g>
<defs>
<clipPath id="clip0_22631_6575">
<rect width="20" height="20" fill="white"/>
</clipPath>
</defs>
</svg>
