<svg width="24" height="24" viewBox="0 0 24 24" fill="none" xmlns="http://www.w3.org/2000/svg">
<path fill-rule="evenodd" clip-rule="evenodd" d="M14.1941 2.885C16.4941 2.586 18.6521 3.095 19.8391 4.282C20.6291 5.073 21.0191 5.993 20.9991 7.002C20.9821 7.963 20.5941 8.896 20.0611 9.766C19.2991 11.011 18.1091 12.329 16.7911 13.681L16.0621 14.421L14.4461 16.038L13.7551 16.72C12.3771 18.066 11.0331 19.286 9.7661 20.061C8.8961 20.594 7.9631 20.981 7.0021 21C5.9931 21.02 5.0731 20.63 4.2821 19.839C3.0951 18.652 2.5861 16.495 2.8851 14.194C3.1921 11.834 4.3561 9.159 6.7571 6.757C9.1591 4.357 11.8351 3.192 14.1941 2.885ZM5.6911 11.665C5.35135 12.3928 5.10215 13.1595 4.9491 13.948C5.3691 14.308 5.8681 14.586 6.4411 14.778C6.69279 14.8619 6.96751 14.8425 7.20484 14.7238C7.44217 14.6052 7.62265 14.3972 7.7066 14.1455C7.79054 13.8938 7.77106 13.6191 7.65244 13.3818C7.53382 13.1444 7.32579 12.9639 7.0741 12.88C6.4071 12.658 5.9621 12.268 5.6911 11.664V11.665ZM8.6911 7.679C8.18705 8.13318 7.71712 8.62384 7.2851 9.147C7.4791 9.398 7.6911 9.636 7.9061 9.851C8.4911 10.435 9.2391 10.996 9.9761 11.241C10.2183 11.3228 10.4827 11.3087 10.7149 11.2016C10.9471 11.0945 11.1294 10.9025 11.2244 10.6651C11.3194 10.4277 11.3199 10.163 11.2257 9.92526C11.1315 9.68755 10.9499 9.49493 10.7181 9.387L10.6091 9.344C10.2861 9.237 9.7971 8.914 9.3211 8.437C9.0871 8.20529 8.87611 7.95143 8.6911 7.679ZM13.1111 5.149C12.4931 5.327 11.8521 5.579 11.2041 5.917C11.7241 6.764 12.5031 7.369 13.5121 7.706C13.6372 7.74958 13.7696 7.76789 13.9018 7.75986C14.034 7.75182 14.1633 7.71761 14.2822 7.65921C14.401 7.6008 14.5071 7.51937 14.5942 7.41964C14.6814 7.3199 14.7478 7.20385 14.7897 7.07822C14.8317 6.9526 14.8482 6.81989 14.8384 6.68782C14.8286 6.55575 14.7927 6.42693 14.7327 6.30885C14.6728 6.19077 14.5899 6.08578 14.4891 5.99998C14.3882 5.91417 14.2713 5.84926 14.1451 5.809C13.7111 5.664 13.3711 5.449 13.1111 5.149Z" fill="white"/>
</svg>
