<svg width="37" height="36" viewBox="0 0 37 36" fill="none" xmlns="http://www.w3.org/2000/svg">
<path d="M14 24.75C12.95 24.75 12.0625 24.3875 11.3375 23.6625C10.6125 22.9375 10.25 22.05 10.25 21C10.25 19.95 10.6125 19.0625 11.3375 18.3375C12.0625 17.6125 12.95 17.25 14 17.25C15.05 17.25 15.9375 17.6125 16.6625 18.3375C17.3875 19.0625 17.75 19.95 17.75 21C17.75 22.05 17.3875 22.9375 16.6625 23.6625C15.9375 24.3875 15.05 24.75 14 24.75ZM8 33C7.175 33 6.46875 32.7063 5.88125 32.1188C5.29375 31.5312 5 30.825 5 30V9C5 8.175 5.29375 7.46875 5.88125 6.88125C6.46875 6.29375 7.175 6 8 6H9.5V3H12.5V6H24.5V3H27.5V6H29C29.825 6 30.5312 6.29375 31.1188 6.88125C31.7063 7.46875 32 8.175 32 9V30C32 30.825 31.7063 31.5312 31.1188 32.1188C30.5312 32.7063 29.825 33 29 33H8ZM8 30H29V15H8V30Z" fill="#2F7265"/>
</svg>
