<svg width="40" height="40" viewBox="0 0 40 40" fill="none" xmlns="http://www.w3.org/2000/svg">
<g clip-path="url(#clip0_24515_48989)">
<path fill-rule="evenodd" clip-rule="evenodd" d="M19.9999 3.33337C24.2266 3.33337 28.1033 3.71337 30.9666 4.35004C32.3866 4.66504 33.6499 5.06337 34.5966 5.56004C35.0683 5.81004 35.5449 6.12337 35.9216 6.53337C36.3049 6.95004 36.6666 7.56004 36.6666 8.33337C36.6666 9.10671 36.3066 9.71671 35.9216 10.1334C35.5383 10.5306 35.0903 10.8598 34.5966 11.1067C34.4705 11.1723 34.3427 11.2346 34.2133 11.2934C35.8218 13.9123 36.6712 16.9266 36.6666 20C36.6666 29.205 29.2049 36.6667 19.9999 36.6667C10.7949 36.6667 3.33325 29.205 3.33325 20C3.33325 16.8084 4.22992 13.8284 5.78492 11.2934C5.65609 11.2345 5.52883 11.1722 5.40325 11.1067C4.90957 10.8598 4.4615 10.5306 4.07825 10.1334C3.69492 9.71671 3.33325 9.10671 3.33325 8.33337C3.33325 7.56004 3.69325 6.95004 4.07825 6.53337C4.45492 6.12337 4.93159 5.80837 5.40325 5.56004C6.35159 5.06337 7.61325 4.66504 9.03159 4.35004C11.8966 3.71337 15.7733 3.33337 19.9999 3.33337ZM23.3066 25.4167C22.4233 26.1967 21.2683 26.6667 19.9999 26.6667C18.7818 26.6689 17.6053 26.2241 16.6933 25.4167C16.3617 25.1241 15.9275 24.9751 15.4862 25.0027C15.0449 25.0302 14.6325 25.2319 14.3399 25.5634C14.0473 25.8949 13.8984 26.3291 13.9259 26.7704C13.9534 27.2118 14.1551 27.6241 14.4866 27.9167C16.0082 29.2613 17.9694 30.0024 19.9999 30C22.0305 30.0027 23.9918 29.2616 25.5133 27.9167C25.8448 27.6241 26.0465 27.2118 26.074 26.7704C26.1015 26.3291 25.9525 25.8949 25.6599 25.5634C25.3673 25.2319 24.955 25.0302 24.5136 25.0027C24.0723 24.9751 23.6381 25.1241 23.3066 25.4167ZM14.1666 16.6667C12.3549 16.6667 10.9033 17.8 10.1766 19.2534C9.98555 19.6336 9.94719 20.0725 10.0694 20.4801C10.1915 20.8877 10.465 21.2332 10.8337 21.4456C11.2023 21.6581 11.6383 21.7215 12.0523 21.6229C12.4662 21.5242 12.8267 21.271 13.0599 20.915L13.1566 20.7467C13.4266 20.2067 13.8399 20 14.1666 20C14.4499 20 14.8033 20.1584 15.0683 20.56L15.1766 20.7467C15.2736 20.9441 15.4087 21.1204 15.5742 21.2653C15.7396 21.4102 15.9322 21.521 16.1406 21.5911C16.3491 21.6613 16.5694 21.6895 16.7888 21.6742C17.0082 21.6588 17.2224 21.6002 17.4191 21.5016C17.6157 21.4031 17.7909 21.2666 17.9345 21.1C18.0782 20.9334 18.1874 20.7401 18.256 20.5311C18.3246 20.3221 18.3511 20.1016 18.334 19.8823C18.317 19.663 18.2566 19.4493 18.1566 19.2534C17.4283 17.8017 15.9783 16.6667 14.1666 16.6667ZM25.8333 16.6667C24.0216 16.6667 22.5716 17.8 21.8433 19.2534C21.6522 19.6336 21.6139 20.0725 21.736 20.4801C21.8582 20.8877 22.1317 21.2332 22.5003 21.4456C22.869 21.6581 23.305 21.7215 23.7189 21.6229C24.1329 21.5242 24.4934 21.271 24.7266 20.915L24.8233 20.7467C25.0933 20.2067 25.5066 20 25.8333 20C26.1166 20 26.4699 20.1584 26.7349 20.56L26.8433 20.7467C26.9403 20.9441 27.0754 21.1204 27.2409 21.2653C27.4063 21.4102 27.5988 21.521 27.8073 21.5911C28.0157 21.6613 28.236 21.6895 28.4555 21.6742C28.6749 21.6588 28.8891 21.6002 29.0857 21.5016C29.2824 21.4031 29.4576 21.2666 29.6012 21.1C29.7449 20.9334 29.8541 20.7401 29.9227 20.5311C29.9912 20.3221 30.0177 20.1016 30.0007 19.8823C29.9836 19.663 29.9233 19.4493 29.8233 19.2534C29.0966 17.8017 27.6449 16.6667 25.8333 16.6667ZM19.9999 6.66671C15.9416 6.66671 12.3183 7.03337 9.75492 7.60337L9.03492 7.77337L8.64659 7.88004L8.33325 7.98004C7.63992 8.22837 7.63992 8.43837 8.33325 8.68504L8.64659 8.78671L9.03492 8.89337L9.75492 9.06337C12.3183 9.63337 15.9416 10 19.9999 10C24.0583 10 27.6816 9.63337 30.2449 9.06337L30.9649 8.89337L31.3533 8.78671L31.6666 8.68671C32.3599 8.43837 32.3599 8.22837 31.6666 7.98171L31.3533 7.88004L30.9649 7.77337L30.2449 7.60337C27.6816 7.03337 24.0583 6.66671 19.9999 6.66671Z" fill="#D3DFD3"/>
</g>
<defs>
<clipPath id="clip0_24515_48989">
<rect width="40" height="40" fill="white"/>
</clipPath>
</defs>
</svg>
