<svg width="25" height="24" viewBox="0 0 25 24" fill="none" xmlns="http://www.w3.org/2000/svg">
<g clip-path="url(#clip0_22602_22110)">
<path d="M15.293 3C15.6394 3.00023 15.9751 3.12036 16.243 3.34L16.353 3.44L17.915 5H20.5C21.0046 4.99984 21.4906 5.19041 21.8605 5.5335C22.2305 5.87659 22.4572 6.34684 22.495 6.85L22.5 7V19C22.5002 19.5046 22.3096 19.9906 21.9665 20.3605C21.6234 20.7305 21.1532 20.9572 20.65 20.995L20.5 21H4.5C3.99542 21.0002 3.50943 20.8096 3.13945 20.4665C2.76947 20.1234 2.54284 19.6532 2.505 19.15L2.5 19V7C2.49984 6.49542 2.69041 6.00943 3.0335 5.63945C3.37659 5.26947 3.84684 5.04284 4.35 5.005L4.5 5H7.086L8.646 3.44C8.8911 3.19442 9.21375 3.0414 9.559 3.007L9.707 3H15.293ZM12.5 7.5C11.1739 7.5 9.90215 8.02678 8.96447 8.96447C8.02678 9.90215 7.5 11.1739 7.5 12.5C7.5 13.8261 8.02678 15.0979 8.96447 16.0355C9.90215 16.9732 11.1739 17.5 12.5 17.5C13.8261 17.5 15.0979 16.9732 16.0355 16.0355C16.9732 15.0979 17.5 13.8261 17.5 12.5C17.5 11.1739 16.9732 9.90215 16.0355 8.96447C15.0979 8.02678 13.8261 7.5 12.5 7.5ZM12.5 9.5C12.894 9.5 13.2841 9.5776 13.6481 9.72836C14.012 9.87913 14.3427 10.1001 14.6213 10.3787C14.8999 10.6573 15.1209 10.988 15.2716 11.3519C15.4224 11.7159 15.5 12.106 15.5 12.5C15.5 12.894 15.4224 13.2841 15.2716 13.6481C15.1209 14.012 14.8999 14.3427 14.6213 14.6213C14.3427 14.8999 14.012 15.1209 13.6481 15.2716C13.2841 15.4224 12.894 15.5 12.5 15.5C11.7044 15.5 10.9413 15.1839 10.3787 14.6213C9.81607 14.0587 9.5 13.2956 9.5 12.5C9.5 11.7044 9.81607 10.9413 10.3787 10.3787C10.9413 9.81607 11.7044 9.5 12.5 9.5Z" fill="#6D6D6D"/>
</g>
<defs>
<clipPath id="clip0_22602_22110">
<rect width="24" height="24" fill="white" transform="translate(0.5)"/>
</clipPath>
</defs>
</svg>
