<svg width="24" height="24" viewBox="0 0 24 24" fill="none" xmlns="http://www.w3.org/2000/svg">
<path fill-rule="evenodd" clip-rule="evenodd" d="M11.9999 13.414L17.6569 19.071C17.8455 19.2532 18.0982 19.354 18.3603 19.3517C18.6225 19.3494 18.8734 19.2443 19.0588 19.0588C19.2442 18.8734 19.3493 18.6226 19.3516 18.3604C19.3539 18.0982 19.2531 17.8456 19.0709 17.657L13.4139 12L19.0709 6.34303C19.2531 6.15443 19.3539 5.90182 19.3516 5.63963C19.3493 5.37743 19.2442 5.12662 19.0588 4.94121C18.8734 4.7558 18.6225 4.65063 18.3603 4.64835C18.0982 4.64607 17.8455 4.74687 17.6569 4.92903L11.9999 10.586L6.34295 4.92903C6.15349 4.75137 5.90236 4.65439 5.64268 4.65861C5.38299 4.66283 5.13514 4.76791 4.95155 4.95162C4.76797 5.13533 4.66307 5.38326 4.65903 5.64295C4.655 5.90263 4.75216 6.1537 4.92995 6.34303L10.5859 12L4.92895 17.657C4.83343 17.7493 4.75725 17.8596 4.70484 17.9816C4.65244 18.1036 4.62485 18.2348 4.62369 18.3676C4.62254 18.5004 4.64784 18.6321 4.69812 18.755C4.7484 18.8779 4.82266 18.9895 4.91655 19.0834C5.01044 19.1773 5.1221 19.2516 5.24499 19.3018C5.36789 19.3521 5.49957 19.3774 5.63235 19.3763C5.76513 19.3751 5.89635 19.3475 6.01835 19.2951C6.14035 19.2427 6.2507 19.1665 6.34295 19.071L11.9999 13.414Z" fill="white"/>
</svg>
