<svg width="21" height="13" viewBox="0 0 21 13" fill="none" xmlns="http://www.w3.org/2000/svg">
<path fill-rule="evenodd" clip-rule="evenodd" d="M20.1351 1.68205C20.1351 1.04901 19.6576 0.535828 19.0685 0.535828H18.0018C17.4127 0.535828 16.9351 1.04901 16.9351 1.68205V11.616C16.9351 12.2491 17.4127 12.7622 18.0018 12.7622H19.0685C19.6576 12.7622 20.1351 12.2491 20.1351 11.616V1.68205ZM12.701 2.98111H13.7677C14.3568 2.98111 14.8343 3.50661 14.8343 4.15485V11.5885C14.8343 12.2367 14.3568 12.7622 13.7677 12.7622H12.701C12.1119 12.7622 11.6343 12.2367 11.6343 11.5885V4.15485C11.6343 3.50661 12.1119 2.98111 12.701 2.98111ZM8.36923 5.63016H7.30257C6.71346 5.63016 6.2359 6.16235 6.2359 6.81884V11.5736C6.2359 12.23 6.71346 12.7622 7.30257 12.7622H8.36923C8.95834 12.7622 9.4359 12.23 9.4359 11.5736V6.81884C9.4359 6.16235 8.95834 5.63016 8.36923 5.63016ZM3.06845 8.07545H2.00179C1.41268 8.07545 0.93512 8.60004 0.93512 9.24715V11.5905C0.93512 12.2377 1.41268 12.7622 2.00179 12.7622H3.06845C3.65756 12.7622 4.13512 12.2377 4.13512 11.5905V9.24715C4.13512 8.60004 3.65756 8.07545 3.06845 8.07545Z" fill="#1C1B1F"/>
</svg>
