<svg width="143" height="123" viewBox="0 0 143 123" fill="none" xmlns="http://www.w3.org/2000/svg">
<g clip-path="url(#clip0_20523_39635)">
<path d="M139.587 80.0257C139.527 77.9292 139.107 75.8327 138.448 73.8561C136.888 69.2438 134.189 65.1107 131.729 60.9177C127.471 53.61 123.872 45.8829 121.052 37.8563C118.593 30.8481 116.194 23.8997 110.915 18.3889C105.697 12.9381 99.5184 8.44559 92.6803 5.27091C86.322 2.33583 79.4839 0.478936 72.4659 0.0596383C71.7461 -0.000261366 71.0263 -0.000261365 70.3065 -0.000261365C51.4117 -0.35966 32.517 9.94309 23.2795 26.4155C18.9607 34.2025 16.7413 42.9478 12.5425 50.8546C9.54334 56.545 5.52445 61.6365 2.8252 67.5067C0.125952 73.3769 -1.19368 80.2653 1.50557 86.0756C4.20482 91.8859 11.9427 95.5397 17.4611 92.2453C20.3403 98.1154 23.2795 104.045 26.1587 109.916C27.8383 113.33 29.6378 116.864 32.457 119.44C38.9952 125.25 50.6319 123.513 55.1307 116.025C55.8505 114.887 56.3903 113.629 57.47 112.851C58.7297 111.952 60.3492 111.952 61.8488 111.892C67.4872 111.832 73.1257 111.832 78.7641 111.773C79.7239 111.773 80.8036 111.773 81.6433 112.192C82.903 112.791 83.5628 114.169 84.2826 115.307C88.6014 122.375 99.2184 125.43 105.697 120.278C108.216 118.302 109.835 115.426 111.395 112.671C114.574 107.1 117.753 101.47 120.932 95.8991C121.352 95.1803 122.372 93.9823 122.732 93.2037C123.032 93.3235 123.872 93.8026 124.711 94.1021C124.771 94.1021 124.891 94.162 124.951 94.162C129.93 94.8808 135.148 92.3051 137.668 87.9924C139.167 85.5964 139.647 82.841 139.587 80.0257Z" fill="#B0DFD1"/>
<path d="M46.1902 41.6298C46.1303 45.703 42.4713 49.5965 38.3924 49.3569C33.6537 49.0574 30.4746 46.4218 30.2347 41.0907C30.0547 36.9577 34.3135 33.1241 38.5724 33.2439C42.8912 33.4236 46.2502 37.0775 46.1902 41.6298Z" fill="#FFB4B4"/>
<path d="M107.974 41.3911C107.974 45.644 104.255 49.3578 99.9959 49.4776C96.3969 49.5974 91.7782 44.8054 91.9581 41.2713C92.1381 37.8571 95.1972 33.7839 97.8965 33.7839C104.195 33.7839 107.914 36.5992 107.974 41.3911Z" fill="#FFB4B4"/>
<path d="M69.1666 41.8697C68.3868 41.9296 67.667 41.9296 66.8872 41.8098C64.128 41.3905 61.4887 40.3722 59.6892 37.7965C59.1493 37.0178 58.9694 36.1792 59.9891 35.4005C61.0688 34.502 61.6686 35.4005 62.0885 35.9396C63.6481 37.7965 65.8675 38.5752 67.9069 38.8747C69.7664 39.1143 71.9258 38.4554 73.5454 37.0178C73.9652 36.5985 74.4451 36.2391 74.805 35.7599C75.5848 34.8015 76.4246 34.7416 77.3243 35.5802C78.404 36.4787 77.8642 37.3173 77.2043 38.1559C75.2249 40.8514 72.3457 41.5103 69.1666 41.8697Z" fill="#404948"/>
<path d="M50.87 33.7827C52.6258 33.7827 54.0492 32.3614 54.0492 30.608C54.0492 28.8547 52.6258 27.4333 50.87 27.4333C49.1143 27.4333 47.6909 28.8547 47.6909 30.608C47.6909 32.3614 49.1143 33.7827 50.87 33.7827Z" fill="#404948"/>
<path d="M86.2007 33.7827C87.9564 33.7827 89.3798 32.3614 89.3798 30.608C89.3798 28.8547 87.9564 27.4333 86.2007 27.4333C84.4449 27.4333 83.0215 28.8547 83.0215 30.608C83.0215 32.3614 84.4449 33.7827 86.2007 33.7827Z" fill="#404948"/>
<path d="M17.5148 70.082C15.2355 74.215 14.1558 78.1684 14.1558 78.1684C13.7359 79.7857 13.436 84.1584 13.316 87.2732C13.256 89.3697 13.5559 91.4662 14.3357 93.4428C15.4154 93.2631 16.4351 92.9037 17.3949 92.3647C14.0958 85.8955 17.5148 70.082 17.5148 70.082Z" fill="#96BFB2"/>
<path d="M123.865 93.7426C123.385 93.5031 122.965 93.3235 122.786 93.2038C123.145 93.4433 123.505 93.6229 123.865 93.7426Z" fill="#96BFB2"/>
<path d="M126.866 88.1725C126.747 85.0578 126.507 80.745 126.027 79.0678C126.027 79.0678 124.947 75.1144 122.668 70.9813C122.668 70.9813 126.087 86.7349 122.788 93.2041C122.968 93.264 123.387 93.5036 123.867 93.7432C124.167 93.863 124.467 94.0427 124.827 94.1026C124.887 94.1026 125.007 94.1625 125.067 94.1625C125.247 94.1625 125.367 94.2224 125.547 94.2224C125.667 94.2224 125.787 94.2224 125.907 94.2823C126.627 92.3655 126.926 90.269 126.866 88.1725Z" fill="#96BFB2"/>
<path d="M71.6193 111.773C60.5824 112.193 39.9481 110.156 39.9481 110.156C45.3466 113.211 50.5652 115.008 55.1839 116.026C55.9037 114.888 56.4435 113.63 57.5232 112.852C58.7829 111.953 60.4024 111.953 61.902 111.893C67.5405 111.833 73.1789 111.833 78.8173 111.773C79.7771 111.773 80.8568 111.773 81.6965 112.193C82.9562 112.792 83.616 114.169 84.3358 115.308C84.3958 115.427 84.5158 115.547 84.5757 115.667C95.2528 113.511 102.451 109.258 102.451 109.258C96.4524 111.354 71.6193 111.773 71.6193 111.773Z" fill="#96BFB2"/>
</g>
<defs>
<clipPath id="clip0_20523_39635">
<rect width="142.481" height="123" fill="white"/>
</clipPath>
</defs>
</svg>
