<svg width="32" height="32" viewBox="0 0 32 32" fill="none" xmlns="http://www.w3.org/2000/svg">
<g clip-path="url(#clip0_22549_19799)">
<path d="M17.3333 4C18.0061 3.99979 18.6541 4.25388 19.1474 4.71133C19.6407 5.16878 19.9429 5.79579 19.9933 6.46667L20 6.66667V28H12V6.66667C11.9998 5.9939 12.2539 5.34591 12.7113 4.8526C13.1688 4.35929 13.7958 4.05712 14.4667 4.00667L14.6667 4H17.3333ZM26.6667 10.6667C27.3739 10.6667 28.0522 10.9476 28.5523 11.4477C29.0524 11.9478 29.3333 12.6261 29.3333 13.3333V25.3333C29.3333 26.0406 29.0524 26.7189 28.5523 27.219C28.0522 27.719 27.3739 28 26.6667 28H22.6667V10.6667H26.6667ZM9.33332 14.6667V28H5.33332C4.62608 28 3.9478 27.719 3.4477 27.219C2.94761 26.7189 2.66666 26.0406 2.66666 25.3333V17.3333C2.66666 16.6261 2.94761 15.9478 3.4477 15.4477C3.9478 14.9476 4.62608 14.6667 5.33332 14.6667H9.33332Z" fill="#B0B0B0"/>
</g>
<defs>
<clipPath id="clip0_22549_19799">
<rect width="32" height="32" fill="white"/>
</clipPath>
</defs>
</svg>
