<svg xmlns="http://www.w3.org/2000/svg" width="24" height="24" fill="currentColor" viewBox="0 0 24 24">
  <g clip-path="url(#a)">
    <path fill-rule="evenodd" d="M12 2c5.523 0 10 4.477 10 10a9.996 9.996 0 0 1-5 8.662V13a1 1 0 0 0-2 0v8c0 .182.049.352.133.5-.985.324-2.039.5-3.133.5a9.99 9.99 0 0 1-3.133-.5A.996.996 0 0 0 9 21v-8a1 1 0 1 0-2 0v7.662A9.996 9.996 0 0 1 2 12C2 6.477 6.477 2 12 2Zm-2 6H7a1 1 0 0 0-.117 1.993L7 10h3a1 1 0 0 0 .117-1.993L10 8Zm7 0h-3a1 1 0 1 0 0 2h3a1 1 0 1 0 0-2Z" clip-rule="evenodd"/>
  </g>
  <defs>
    <clipPath id="a">
      <path d="M0 0h24v24H0z"/>
    </clipPath>
  </defs>
</svg>
