<svg width="40" height="40" viewBox="0 0 40 40" fill="none" xmlns="http://www.w3.org/2000/svg">
<g clip-path="url(#clip0_24515_49004)">
<path fill-rule="evenodd" clip-rule="evenodd" d="M19.9999 3.33337C29.2049 3.33337 36.6666 10.795 36.6666 20C36.6678 22.9263 35.8982 25.8012 34.4353 28.3355C32.9724 30.8699 30.8678 32.9742 28.3333 34.4367V21.6667C28.3333 21.2247 28.1577 20.8008 27.8451 20.4882C27.5325 20.1756 27.1086 20 26.6666 20C26.2246 20 25.8006 20.1756 25.4881 20.4882C25.1755 20.8008 24.9999 21.2247 24.9999 21.6667V35C24.9999 35.3034 25.0816 35.5867 25.2216 35.8334C23.5799 36.3734 21.8233 36.6667 19.9999 36.6667C18.2261 36.6688 16.4633 36.3875 14.7783 35.8334C14.9243 35.58 15.0007 35.2925 14.9999 35V21.6667C14.9999 21.2247 14.8243 20.8008 14.5118 20.4882C14.1992 20.1756 13.7753 20 13.3333 20C12.8912 20 12.4673 20.1756 12.1547 20.4882C11.8422 20.8008 11.6666 21.2247 11.6666 21.6667V34.4367C9.13205 32.9742 7.02744 30.8699 5.56454 28.3355C4.10164 25.8012 3.33207 22.9263 3.33325 20C3.33325 10.795 10.7949 3.33337 19.9999 3.33337ZM16.6666 13.3334H11.6666C11.2418 13.3338 10.8332 13.4965 10.5243 13.7881C10.2154 14.0797 10.0295 14.4783 10.0046 14.9024C9.97974 15.3264 10.1177 15.744 10.3904 16.0698C10.663 16.3955 11.0498 16.6049 11.4716 16.655L11.6666 16.6667H16.6666C17.0914 16.6662 17.5 16.5036 17.8089 16.212C18.1178 15.9203 18.3036 15.5218 18.3285 15.0977C18.3534 14.6736 18.2155 14.2561 17.9428 13.9303C17.6702 13.6046 17.2834 13.3952 16.8616 13.345L16.6666 13.3334ZM28.3333 13.3334H23.3333C22.8912 13.3334 22.4673 13.509 22.1547 13.8215C21.8422 14.1341 21.6666 14.558 21.6666 15C21.6666 15.4421 21.8422 15.866 22.1547 16.1786C22.4673 16.4911 22.8912 16.6667 23.3333 16.6667H28.3333C28.7753 16.6667 29.1992 16.4911 29.5118 16.1786C29.8243 15.866 29.9999 15.4421 29.9999 15C29.9999 14.558 29.8243 14.1341 29.5118 13.8215C29.1992 13.509 28.7753 13.3334 28.3333 13.3334Z" fill="#CBDFE6"/>
</g>
<defs>
<clipPath id="clip0_24515_49004">
<rect width="40" height="40" fill="white"/>
</clipPath>
</defs>
</svg>
