<svg width="24" height="24" viewBox="0 0 24 24" fill="none" xmlns="http://www.w3.org/2000/svg">
<g clip-path="url(#clip0_22631_19112)">
<path fill-rule="evenodd" clip-rule="evenodd" d="M11.5 4.71901C12.5151 3.69878 13.8897 3.1171 15.3288 3.09877C16.7679 3.08045 18.1568 3.62694 19.1976 4.621C20.2384 5.61505 20.848 6.97745 20.8958 8.41588C20.9435 9.8543 20.4255 11.2541 19.453 12.315L19.279 12.497L12.562 19.215C12.2079 19.5691 11.7339 19.7775 11.2336 19.799C10.7333 19.8204 10.2431 19.6534 9.85998 19.331L9.73298 19.215L7.96498 17.447L5.84498 19.568C5.66544 19.7493 5.42341 19.855 5.16843 19.8637C4.91345 19.8723 4.66481 19.7832 4.4734 19.6145C4.28199 19.4459 4.16228 19.2104 4.13878 18.9564C4.11527 18.7024 4.18976 18.4489 4.34698 18.248L4.42998 18.154L6.55098 16.032L4.78298 14.265C4.42917 13.911 4.22098 13.4371 4.1995 12.9371C4.17803 12.437 4.34483 11.9471 4.66698 11.564L4.78298 11.436L11.501 4.71901H11.5ZM15.39 9.31501L11.147 13.558C10.9595 13.7457 10.8542 14.0001 10.8543 14.2654C10.8544 14.5306 10.9598 14.785 11.1475 14.9725C11.3351 15.16 11.5896 15.2653 11.8548 15.2652C12.1201 15.2651 12.3745 15.1597 12.562 14.972L16.804 10.729C16.9861 10.5404 17.0869 10.2878 17.0847 10.0256C17.0824 9.76342 16.9772 9.5126 16.7918 9.3272C16.6064 9.14179 16.3556 9.03662 16.0934 9.03434C15.8312 9.03206 15.5786 9.13286 15.39 9.31501ZM14.683 7.19401C14.5109 7.02169 14.2819 6.91807 14.0389 6.90261C13.7958 6.88714 13.5555 6.96089 13.363 7.11001L13.269 7.19401L9.02598 11.436C8.84473 11.6156 8.73895 11.8576 8.7303 12.1126C8.72165 12.3675 8.81078 12.6162 8.97945 12.8076C9.14811 12.999 9.38356 13.1187 9.6376 13.1422C9.89164 13.1657 10.1451 13.0912 10.346 12.934L10.44 12.851L14.683 8.60801C14.8705 8.42049 14.9758 8.16618 14.9758 7.90101C14.9758 7.63585 14.8705 7.38154 14.683 7.19401Z" fill="white"/>
</g>
<defs>
<clipPath id="clip0_22631_19112">
<rect width="24" height="24" fill="white"/>
</clipPath>
</defs>
</svg>
