<svg width="25" height="24" viewBox="0 0 25 24" fill="none" xmlns="http://www.w3.org/2000/svg">
<path fill-rule="evenodd" clip-rule="evenodd" d="M9.33325 5C9.33325 4.20435 9.64932 3.44129 10.2119 2.87868C10.7745 2.31607 11.5376 2 12.3333 2C13.1289 2 13.892 2.31607 14.4546 2.87868C15.0172 3.44129 15.3333 4.20435 15.3333 5H16.3333C17.3941 5 18.4115 5.42143 19.1617 6.17157C19.9118 6.92172 20.3333 7.93913 20.3333 9H4.33325C4.33325 7.93913 4.75468 6.92172 5.50482 6.17157C6.25497 5.42143 7.27239 5 8.33325 5H9.33325ZM12.3333 4C12.5985 4 12.8528 4.10536 13.0404 4.29289C13.2279 4.48043 13.3333 4.73478 13.3333 5H11.3333C11.3333 4.73478 11.4386 4.48043 11.6261 4.29289C11.8137 4.10536 12.068 4 12.3333 4ZM21.3333 10C21.5985 10 21.8528 10.1054 22.0404 10.2929C22.2279 10.4804 22.3333 10.7348 22.3333 11C22.3333 11.2652 22.2279 11.5196 22.0404 11.7071C21.8528 11.8946 21.5985 12 21.3333 12H20.3333V19C20.3333 19.7956 20.0172 20.5587 19.4546 21.1213C18.892 21.6839 18.1289 22 17.3333 22H7.33325C6.5376 22 5.77454 21.6839 5.21193 21.1213C4.64932 20.5587 4.33325 19.7956 4.33325 19V12H3.33325C3.06804 12 2.81368 11.8946 2.62615 11.7071C2.43861 11.5196 2.33325 11.2652 2.33325 11C2.33325 10.7348 2.43861 10.4804 2.62615 10.2929C2.81368 10.1054 3.06804 10 3.33325 10H21.3333ZM12.3333 13C11.5376 13 10.7745 13.3161 10.2119 13.8787C9.64932 14.4413 9.33325 15.2044 9.33325 16C9.33325 16.7956 9.64932 17.5587 10.2119 18.1213C10.7745 18.6839 11.5376 19 12.3333 19C13.1289 19 13.892 18.6839 14.4546 18.1213C15.0172 17.5587 15.3333 16.7956 15.3333 16C15.3333 15.2044 15.0172 14.4413 14.4546 13.8787C13.892 13.3161 13.1289 13 12.3333 13ZM12.3333 15C12.5985 15 12.8528 15.1054 13.0404 15.2929C13.2279 15.4804 13.3333 15.7348 13.3333 16C13.3333 16.2652 13.2279 16.5196 13.0404 16.7071C12.8528 16.8946 12.5985 17 12.3333 17C12.068 17 11.8137 16.8946 11.6261 16.7071C11.4386 16.5196 11.3333 16.2652 11.3333 16C11.3333 15.7348 11.4386 15.4804 11.6261 15.2929C11.8137 15.1054 12.068 15 12.3333 15Z" fill="white"/>
</svg>
