<svg width="128" height="123" viewBox="0 0 128 123" fill="none" xmlns="http://www.w3.org/2000/svg">
<g clip-path="url(#clip0_24502_35141)">
<path d="M123.993 87.5265C123.993 87.4692 123.935 87.412 123.935 87.3547C123.935 87.2401 123.935 87.1255 123.993 86.9537C124.107 86.3809 121.646 79.2207 121.76 78.5906C124.336 77.2731 125.882 76.4712 126.34 73.3207C126.798 70.4566 126.798 70.3993 126.683 67.0197C126.512 63.4682 125.023 60.2604 123.249 57.2245C121.646 54.475 119.699 51.8973 117.867 49.2624C114.891 44.8517 112.544 40.2119 111.399 34.9419C110.597 31.4478 109.452 28.0109 107.964 24.7458C105.503 19.4186 102.068 14.8934 97.66 11.1128C94.2253 8.13411 90.3899 5.84285 86.1537 4.06712C82.2611 2.46323 78.2539 1.3176 74.1323 0.687497C71.5562 0.286525 68.923 0.000116583 66.3469 -0.114447C62.0536 -0.22901 57.8174 0.0573983 53.5813 0.859342C49.1162 1.77585 44.7655 3.03605 40.6439 4.92634C39.041 5.671 37.4382 6.47295 35.8353 7.21761C35.2056 7.73314 34.4614 8.07683 33.7172 8.4778C33.6027 8.53509 33.5455 8.59237 33.431 8.64965C29.0231 11.2846 25.1877 14.5497 21.9248 18.5594C17.8603 23.5429 15.2271 29.2138 13.567 35.3429C11.7351 41.9303 9.50257 48.2886 6.64031 54.5323C4.86572 58.3129 3.20561 62.1507 2.00346 66.1605C0.74407 70.2274 0.114374 74.3517 0.0571289 78.5906C0.0571289 80.6527 0.228864 82.6576 0.572335 84.7197C1.25928 89.0158 2.57591 93.1401 4.63674 97.0353C7.15552 101.618 10.533 105.398 14.8264 108.377C18.7763 111.127 23.1269 113.131 27.7637 114.449C30.0536 115.136 32.4006 115.766 34.7476 115.938C36.6367 116.11 38.2396 116.797 39.7852 117.886C42.4757 119.833 45.4525 121.265 48.7727 121.953C49.4024 121.666 51.9212 122.067 52.6081 121.953C56.1573 121.437 57.8174 120.177 59.9355 117.428C60.1645 117.141 60.3362 116.855 60.5652 116.511C60.5652 116.511 60.5652 116.511 60.6224 116.511C60.9087 116.683 61.1949 116.74 61.4811 116.74C61.4811 116.74 61.4811 116.797 61.4239 116.797C61.5383 116.797 61.5956 116.855 61.7101 116.855C65.202 116.912 68.694 116.626 72.1859 116.339C75.2772 116.053 78.3112 115.709 81.3451 115.136C86.7834 114.162 92.1072 112.845 97.2593 110.84C97.7745 110.668 98.1752 110.668 98.6332 110.84C101.61 111.871 104.701 112.73 107.792 113.189C108.995 113.303 109.338 113.131 110.082 112.96C113.746 112.272 117.009 111.069 119.757 108.606C122.504 106.143 124.508 103.107 125.653 99.6129C126.397 97.3217 126.512 94.6867 126.168 92.3382C126.054 91.4789 125.825 90.677 125.481 89.9323C125.08 89.0731 124.279 88.3285 123.993 87.5265Z" fill="#B0DFD1"/>
<path d="M53.2376 40.0973C53.581 45.8255 48.1428 50.6371 42.819 50.5799C37.0372 50.5226 32.1714 45.94 32.1714 39.9828C32.1714 34.3119 37.2662 29.5575 42.8762 29.6148C48.4862 29.6721 53.5238 34.3691 53.2376 40.0973Z" fill="#FFB4B4"/>
<path d="M105.102 32.3071V32.2498C105.044 32.0207 104.93 31.8489 104.873 31.6197C103.441 28.2974 100.865 26.2925 97.259 25.777C93.5953 25.2615 90.5041 26.4071 88.157 29.2712C87.5846 30.0159 87.1266 30.7605 86.7831 31.5625C85.8672 33.6819 85.7527 36.0877 86.4397 38.2644V38.3217C86.5541 38.6081 86.6114 38.8945 86.7259 39.1236C88.157 42.446 90.7903 44.3936 94.3967 44.8518C98.0604 45.3673 101.152 44.1644 103.441 41.2431C103.957 40.5557 104.415 39.8683 104.701 39.1236C105.731 37.0615 105.846 34.5411 105.102 32.3071Z" fill="#FFB4B4"/>
<path d="M83.4058 26.9799C81.7457 25.8915 81.116 24.2876 81.8029 22.6838C82.3181 21.4808 83.2341 20.7935 84.5507 20.6789C85.9818 20.5643 87.0695 21.1372 87.7564 22.3401C88.4434 23.543 88.3289 24.8032 87.5847 25.8915C87.2412 26.4071 86.7832 26.9226 86.0963 27.1517C85.4094 27.3236 84.7224 27.3236 84.0927 27.2663C83.9782 27.0945 83.8065 27.0945 83.692 27.1517C83.6348 27.0372 83.5203 27.0372 83.4058 26.9799Z" fill="#475251"/>
<path d="M54.4968 26.4644C54.4968 28.2974 53.0657 29.7295 51.1766 29.6722C49.3448 29.6722 47.9137 28.1829 47.9709 26.3498C48.0281 24.2877 49.2303 23.1994 51.4628 23.1994C53.123 23.1421 54.4968 24.6314 54.4968 26.4644Z" fill="#475251"/>
<path d="M57.9931 39.9553C57.7963 39.8891 57.6634 39.7958 57.496 39.6423C57.1904 39.248 57.2535 38.7347 57.6662 38.4847C59.2677 37.4684 59.6605 37.1145 60.151 36.3076C61.2398 34.5357 61.6708 33.4172 61.0736 32.0987C60.6145 31.0211 59.8662 30.4778 59.8662 30.4778C59.4674 30.1979 59.3829 29.635 59.6627 29.2917C59.9424 28.9485 60.5225 28.852 60.9558 29.1921C61.0887 29.2854 62.1374 30.0754 62.8235 31.6182C63.7071 33.7133 62.8444 35.4641 61.8048 37.2526C61.1624 38.3485 60.5485 38.871 58.8046 39.9852C58.5784 40.0064 58.2884 40.0546 57.9931 39.9553Z" fill="#475251"/>
<path d="M66.0489 37.6826C64.4344 37.2962 62.6772 36.5223 61.6477 34.9212C61.3513 34.4379 61.5113 33.7694 61.9943 33.4728C62.4774 33.1761 63.1455 33.336 63.4418 33.8192C64.6697 35.8211 68.3794 36.0611 69.6975 35.9643C74.0283 35.8228 75.312 33.6563 75.3944 33.5582C75.6814 33.0968 76.3181 32.8958 76.7792 33.1828C77.2959 33.4832 77.4543 34.0512 77.2096 34.5816C77.1139 34.7354 75.3675 37.8514 69.7876 38.0473C69.6629 38.0764 67.9418 38.1356 66.0489 37.6826Z" fill="#475251"/>
<path d="M103.272 69.3178C103.223 69.1695 103.074 69.1201 102.976 69.0212C102.926 68.9718 102.827 68.9224 102.778 68.8729C102.778 68.8235 102.778 68.8235 102.778 68.774C102.877 68.6752 102.877 68.5269 102.926 68.3786C102.976 68.2303 103.025 68.1314 102.976 67.9831C102.926 67.8348 102.827 67.7359 102.728 67.6865C102.679 67.6371 102.629 67.5382 102.531 67.4888C102.481 67.3899 102.432 67.2416 102.432 67.1427C102.481 67.0933 102.58 66.9944 102.58 66.945C102.629 66.7967 102.629 66.6484 102.58 66.5001C102.531 66.3518 102.432 66.2529 102.333 66.154C102.234 66.1046 102.135 66.0552 102.036 66.0057C102.036 65.9563 102.086 65.9068 102.086 65.8574C102.135 65.7091 102.234 65.5608 102.185 65.4125C102.135 65.2642 101.937 65.2148 101.838 65.1159C101.74 65.017 101.641 64.9182 101.492 64.9182C101.443 64.9182 101.443 64.9182 101.393 64.9182C101.344 64.8193 101.295 64.7204 101.245 64.671C101.245 64.671 101.245 64.671 101.295 64.6216C101.393 64.5227 101.344 64.3744 101.393 64.2261C101.443 64.0778 101.443 63.9295 101.393 63.8306C101.344 63.6823 101.245 63.5834 101.146 63.534C101.047 63.4351 100.948 63.3857 100.8 63.3363C100.8 63.2374 100.85 63.1385 100.8 63.0397C100.751 62.8913 100.652 62.7925 100.553 62.6936C100.454 62.5947 100.306 62.4959 100.207 62.4959C100.157 62.4959 100.157 62.4959 100.108 62.4959C100.207 62.397 100.256 62.2487 100.256 62.1004C100.306 61.9521 100.207 61.8038 100.157 61.7049C100.108 61.5566 100.058 61.4577 99.9596 61.3589C99.8607 61.26 99.7124 61.26 99.564 61.26C99.4652 61.26 99.4157 61.2106 99.3168 61.2106C99.3663 61.0623 99.3168 60.914 99.2674 60.7657C99.2179 60.6174 99.1191 60.5185 99.0202 60.4196C98.9213 60.3208 98.773 60.2713 98.6741 60.2219C98.5752 60.2219 98.5257 60.2219 98.4269 60.2219C98.328 60.123 98.2785 60.0241 98.1796 59.8758C98.2291 59.777 98.2785 59.7275 98.2785 59.6287C98.2785 59.4804 98.2291 59.3815 98.1796 59.2332C98.1302 59.1343 98.0808 58.9366 97.9324 58.8872C97.8335 58.8377 97.6358 58.8377 97.4875 58.8377H97.438C97.3886 58.7883 97.3886 58.7883 97.3391 58.7389C97.3886 58.64 97.5369 58.5411 97.5369 58.3928C97.5369 58.2445 97.438 58.0962 97.3886 57.9973C97.3391 57.8985 97.1908 57.7996 97.0919 57.7007C96.993 57.6513 96.9436 57.6513 96.8447 57.6019C96.8447 57.6019 96.8447 57.6019 96.8447 57.5524C96.8447 57.4041 96.8447 57.2558 96.7953 57.1075C96.7458 57.0086 96.5975 56.8603 96.4986 56.7615C96.3997 56.712 96.2019 56.7615 96.0536 56.7615C96.0042 56.7615 95.9547 56.7615 95.9547 56.7615C95.8558 56.6626 95.8064 56.5637 95.7075 56.4649C95.7075 56.4649 95.7075 56.4649 95.7075 56.4154C95.757 56.3166 95.8064 56.1683 95.8064 56.02C95.8064 55.8717 95.7075 55.7728 95.6581 55.6739C95.6086 55.575 95.5097 55.4762 95.4109 55.3773C95.312 55.3279 95.2131 55.229 95.0648 55.229C95.0648 55.1301 95.0648 55.0313 95.0153 54.9818C94.9659 54.883 94.8175 54.7841 94.7187 54.6852C94.6198 54.6358 94.4715 54.5369 94.3231 54.5369H94.2737C94.2737 54.4875 94.2242 54.4875 94.2242 54.4381C94.2737 54.3392 94.2242 54.1909 94.2242 54.092C94.2242 53.9437 94.2737 53.7954 94.2242 53.6471C94.1748 53.5482 94.0265 53.3999 93.9276 53.3505C93.8287 53.3011 93.7298 53.2516 93.5815 53.2022C93.5815 53.1528 93.5815 53.1033 93.5815 53.0045C93.5815 52.8561 93.4826 52.7078 93.4332 52.609C93.3837 52.5101 93.2848 52.3618 93.1365 52.2629C93.0376 52.2135 92.8398 52.2629 92.6915 52.2629C92.6421 52.2629 92.5926 52.2629 92.5926 52.2629C92.5926 52.2135 92.5926 52.1146 92.5926 52.0652C92.5926 51.9169 92.4937 51.818 92.4443 51.7192C92.3949 51.6203 92.296 51.5214 92.1971 51.4225C92.1476 51.4225 92.1476 51.3731 92.0982 51.3237C92.0982 51.2248 92.0488 51.1259 91.9993 51.0271C91.9499 50.9282 91.851 50.7799 91.7027 50.7305C91.6038 50.681 91.4554 50.6316 91.3071 50.6316H91.2577C91.3071 50.5822 91.3071 50.5327 91.3071 50.4833C91.3071 50.335 91.2577 50.1867 91.2082 50.0878C91.1588 49.9889 91.0105 49.8901 90.9116 49.8406C90.8127 49.7912 90.6644 49.6923 90.516 49.6923C90.4666 49.6923 90.4172 49.6923 90.3677 49.7418C90.3183 49.6429 90.2194 49.5935 90.1699 49.4946C90.1699 49.4452 90.1699 49.3957 90.1699 49.3463C90.1699 49.198 90.2688 49.0497 90.1699 48.9014C90.1205 48.8025 89.9227 48.7531 89.7744 48.7037C89.6755 48.6542 89.5766 48.5554 89.4777 48.5059C89.4777 48.4565 89.4777 48.3576 89.4777 48.3082C89.4777 48.1599 89.3789 48.061 89.3294 47.9127C89.28 47.8138 89.1811 47.6655 89.0822 47.6161C88.9833 47.5667 88.835 47.5172 88.6867 47.5172C88.5878 47.5172 88.4394 47.5667 88.3406 47.6161C88.2911 47.5667 88.2417 47.5172 88.1428 47.4184C88.1428 47.3195 88.1922 47.1712 88.1428 47.0723C88.0933 46.9734 87.8956 46.924 87.7967 46.8251C87.6978 46.7757 87.5989 46.7263 87.5 46.7263C87.4011 46.6274 87.2528 46.4791 87.1539 46.3802C87.1539 46.3308 87.1539 46.3308 87.1539 46.2814C87.1539 46.1331 87.1045 46.0342 87.055 45.9353C87.0056 45.8365 86.9067 45.7376 86.8078 45.6387C86.709 45.5893 86.5606 45.5398 86.4123 45.5398C86.3629 45.5398 86.3134 45.5398 86.264 45.5893C86.1651 45.4904 86.0662 45.441 85.9673 45.3421C85.9673 45.2927 85.9673 45.2927 85.9673 45.2432C85.9673 45.0949 85.9179 44.9961 85.8684 44.8478C85.819 44.7489 85.7695 44.5512 85.6212 44.5017C85.5223 44.4523 85.3246 44.5017 85.1762 44.5017C85.0773 44.5017 84.929 44.4523 84.8301 44.4523C84.7312 44.4029 84.6818 44.3534 84.5829 44.304C84.5829 44.2051 84.5335 44.1062 84.484 44.0568C84.4346 43.9579 84.3357 43.8591 84.1874 43.7602C84.2368 43.8096 84.0885 43.8096 83.9402 43.8096C83.7918 43.8096 83.6929 43.7602 83.5446 43.8096C83.4952 43.7602 83.4457 43.7602 83.3468 43.7602C83.2974 43.6613 83.248 43.6119 83.1985 43.513C83.1491 43.4142 83.0996 43.2659 82.9513 43.167C82.8524 43.1176 82.7041 43.0681 82.5558 43.0681C82.4074 43.0681 82.2591 43.0681 82.1108 43.1176C82.0613 43.167 82.0119 43.2164 81.913 43.2659C81.8141 43.2659 81.7152 43.2164 81.6164 43.2164C81.5669 43.1176 81.5175 43.0187 81.4186 42.9693C81.3197 42.9198 81.1219 42.9693 80.9736 42.9693C80.8253 42.9693 80.6769 42.9198 80.5781 43.0187C80.5286 43.0187 80.5286 43.0681 80.4792 43.1176C80.3803 43.1176 80.2814 43.1176 80.1331 43.1176C80.0836 43.0681 79.9847 43.0187 79.8859 42.9693C79.9353 42.821 79.787 42.821 79.6386 42.821C79.4903 42.821 79.342 42.7715 79.1937 42.8704C79.0948 42.9198 78.9959 43.1176 78.9465 43.2164H78.897C78.8476 43.2164 78.7981 43.167 78.7487 43.167C78.6498 43.1176 78.5509 43.0187 78.4026 43.0187C78.2543 43.0187 78.1059 43.0187 78.007 43.1176C77.9082 43.167 77.8587 43.3153 77.7598 43.4636C77.7598 43.513 77.7104 43.513 77.7104 43.5625C77.6115 43.513 77.4632 43.513 77.3148 43.513C77.1665 43.513 77.0182 43.4636 76.9193 43.513C76.8204 43.5625 76.6721 43.6613 76.5732 43.8096C76.5238 43.8591 76.5238 43.9579 76.5732 44.0074C76.5238 44.0074 76.4249 43.9579 76.3754 43.9579C76.2271 43.9579 76.1282 44.0568 75.9799 44.1062C75.7821 44.1557 75.6338 44.2051 75.5843 44.304C75.5349 44.304 75.4855 44.2546 75.436 44.2546C75.2877 44.2546 75.1394 44.3534 75.0405 44.4523C74.9416 44.5017 74.8922 44.65 74.7933 44.7983C74.7438 44.8478 74.7438 44.8972 74.6944 44.9466C74.6449 44.9466 74.6449 44.9466 74.5955 44.9466C74.8427 45.5893 74.9416 46.2319 74.991 47.1218C74.991 47.715 74.8922 48.3082 74.7933 48.852C74.7438 49.1486 74.5461 49.4946 74.4472 49.6923C74.3483 49.9395 74.2494 50.335 74.0516 50.5822C73.755 51.0765 73.3594 51.5214 73.0133 51.9663C72.4695 52.5595 71.8267 52.955 71.0851 53.2022C70.5906 53.4988 70.0962 53.5977 69.5523 53.5977C69.1568 53.6965 68.7613 53.746 68.3163 53.6965H68.2668C67.8219 53.6965 67.3769 53.6471 66.9813 53.5482C66.9813 53.6965 66.9319 53.8448 66.9813 53.9437C66.9813 53.9437 66.9319 53.9437 66.9319 53.9931C66.833 54.092 66.7836 54.2403 66.7341 54.3392C66.7341 54.3886 66.6847 54.4381 66.6847 54.5369C66.5363 54.5369 66.4375 54.6852 66.3386 54.7841C66.2397 54.883 66.0914 54.9818 66.0419 55.0807C65.9925 55.229 65.9925 55.3773 65.9925 55.5256C65.9925 55.6739 66.1408 55.7728 66.2397 55.8717C66.2397 55.8717 66.2397 55.9211 66.2891 55.9211C66.2397 56.02 66.1408 56.1188 66.0914 56.1683C66.0419 56.1683 65.9925 56.1188 65.943 56.1683C65.7947 56.1683 65.6958 56.3166 65.5969 56.366C65.498 56.4649 65.3992 56.5637 65.3497 56.6626C65.3003 56.8109 65.2014 56.9098 65.2014 57.0581C65.1025 57.0581 65.0531 57.0581 65.0036 57.1075C64.9047 57.2064 64.9047 57.4041 64.8553 57.503C64.8058 57.6513 64.7564 57.7502 64.7564 57.8985C64.7564 58.0468 64.7564 58.1951 64.8553 58.3434L64.9047 58.3928C64.8553 58.3928 64.8553 58.3928 64.8058 58.3928C64.6575 58.3928 64.5586 58.4917 64.4597 58.5905C64.3609 58.6894 64.2125 58.7389 64.1631 58.8872C64.1137 59.0355 64.1631 59.1343 64.1631 59.2826C64.1631 59.4309 64.1631 59.5792 64.2125 59.6781C64.2125 59.6781 64.262 59.6781 64.262 59.7275C64.262 59.777 64.2125 59.777 64.2125 59.8264C64.0642 59.8264 63.9159 59.8758 63.817 59.9253C63.6687 59.9747 63.5698 60.0736 63.5203 60.2219C63.4215 60.3208 63.3226 60.4196 63.3226 60.5679C63.2731 60.7162 63.2731 60.8645 63.3226 61.0128C63.2237 60.9634 63.1248 60.9634 63.0754 61.0128C62.927 61.0623 62.7787 61.1611 62.7293 61.26C62.6304 61.3589 62.6798 61.5566 62.6798 61.7049C62.6304 61.8532 62.5809 62.0015 62.6304 62.1004C62.6798 62.2487 62.8281 62.2981 62.927 62.397L62.9765 62.4464C62.927 62.4464 62.8281 62.4959 62.7787 62.4959C62.6304 62.5453 62.5315 62.6442 62.4326 62.743C62.3337 62.8419 62.3337 62.9902 62.2843 63.1385C62.2843 63.188 62.2348 63.2868 62.2348 63.3363C61.9876 63.3857 61.8393 63.4846 61.7404 63.5834C61.6415 63.6823 61.5426 63.8306 61.5426 63.9789C61.4932 64.1272 61.5921 64.2755 61.6415 64.4238C61.691 64.5721 61.7898 64.671 61.8887 64.7699C61.9876 64.8193 62.0865 64.8687 62.1854 64.9182C62.1854 64.9676 62.1359 65.017 62.1359 65.1159C61.9876 65.0665 61.8393 65.1159 61.7404 65.1159C61.5921 65.1653 61.4932 65.2642 61.3943 65.3631C61.246 65.3631 61.246 65.5114 61.1965 65.6597C61.1471 65.808 61.1471 65.9068 61.1965 66.0552C61.246 66.154 61.246 66.2035 61.2954 66.2529C61.246 66.3023 61.1471 66.3518 61.0976 66.4012C60.9988 66.5001 60.9493 66.5989 60.8999 66.7472C60.8504 66.8955 60.801 67.0438 60.8504 67.1921C60.8999 67.3404 61.0482 67.4393 61.1471 67.4888C61.0976 67.5876 61.0976 67.6371 61.0482 67.7359C60.9493 67.7359 60.801 67.7854 60.7515 67.8348C60.6527 67.9337 60.6527 68.1314 60.6527 68.2797C60.6032 68.428 60.6032 68.5763 60.6527 68.6752C60.6527 68.7246 60.7021 68.774 60.7021 68.8235C60.6032 68.8729 60.5538 68.9224 60.4549 68.9718C60.356 69.0212 60.2571 69.1201 60.1582 69.2684C60.1088 69.3673 60.0099 69.5156 60.0099 69.6639C60.0099 69.8122 60.0594 69.9605 60.1582 70.0593C60.2077 70.1582 60.3066 70.2076 60.4054 70.2571V70.3065C60.3066 70.3559 60.1582 70.4054 60.0594 70.5537C60.0099 70.6526 59.9605 70.8009 59.9605 70.9492C59.9605 71.0975 59.9605 71.2458 60.0594 71.3941C60.1088 71.4929 60.2077 71.5424 60.2571 71.5918C60.1582 71.6412 59.9605 71.6412 59.8616 71.7895C59.8121 71.8884 59.7627 72.0862 59.7627 72.185C59.7627 72.3333 59.911 72.4322 59.9605 72.5805C60.0099 72.6794 60.0594 72.8277 60.2077 72.8771C60.2571 72.9265 60.3066 72.976 60.4054 72.976C60.4054 73.0254 60.4054 73.0748 60.4054 73.1243C60.356 73.1737 60.3066 73.2231 60.2571 73.2726C60.1582 73.3715 60.0594 73.4703 60.0594 73.6186C60.0594 73.7669 60.1088 73.8658 60.1582 74.0141C60.2571 74.1624 60.2571 74.3601 60.356 74.4096C60.3066 74.459 60.3066 74.5084 60.2571 74.5579C60.2077 74.6567 60.1582 74.8051 60.1582 74.9534C60.1582 75.1017 60.1582 75.2005 60.2571 75.3488C60.3066 75.4477 60.4549 75.5466 60.5538 75.596C60.6527 75.6454 60.7515 75.6454 60.8999 75.6454C60.8999 75.7937 60.8999 75.8926 60.9493 76.0409C60.9988 76.1892 61.1471 76.2387 61.246 76.3375C61.3449 76.4364 61.4932 76.4858 61.6415 76.4858H61.691C61.691 76.4858 61.691 76.4858 61.7404 76.5353C61.691 76.5847 61.691 76.6341 61.691 76.733C61.691 76.8813 61.7404 76.9802 61.7898 77.1285C61.8393 77.2768 61.9382 77.3262 62.0865 77.4251C62.1854 77.5239 62.2843 77.6723 62.4326 77.7217C62.5809 77.7217 62.7787 77.7217 62.8776 77.6228C62.8776 77.6228 62.8776 77.6228 62.927 77.6228V77.6723C62.9765 77.7711 63.0754 77.9194 63.2237 78.0183C63.3226 78.1172 63.5203 78.0183 63.6687 78.0677C63.817 78.0677 63.9653 78.1172 64.0642 78.0677C64.0642 77.9194 64.1631 77.87 64.2125 77.8206C64.2125 77.87 64.2125 77.87 64.262 77.9194C64.3609 78.0183 64.5092 78.0677 64.6575 78.0677C64.8058 78.0677 64.9047 77.9689 65.0531 77.9194C65.1519 77.87 65.2508 77.8206 65.3003 77.7217C65.3497 77.7217 65.3497 77.7217 65.3992 77.7217C65.4486 77.7711 65.498 77.87 65.5475 77.9194C65.6464 78.0183 65.7947 78.0183 65.943 78.0677C66.0914 78.0677 66.1902 78.0183 66.3386 77.9689C66.4375 77.9194 66.6352 77.9194 66.7341 77.8206V77.7711C66.7836 77.87 66.9319 77.9689 67.0802 78.0677C67.1791 78.1666 67.3274 78.1172 67.4758 78.1666C67.6241 78.1666 67.7724 78.216 67.8713 78.1666C67.9702 78.1172 68.1185 78.0183 68.2174 77.9194C68.3163 77.8206 68.3163 77.6723 68.3657 77.5734C68.3657 77.6228 68.4152 77.6723 68.4152 77.6723C68.4646 77.7711 68.5635 77.87 68.7118 77.9689C68.8601 78.0677 68.959 78.1666 69.1074 78.1666C69.2557 78.1666 69.404 78.1172 69.5523 78.0677C69.6512 78.0183 69.7007 77.8206 69.7996 77.7217C69.849 77.6723 69.849 77.6228 69.8984 77.5239C69.9479 77.6228 70.0962 77.6722 70.1951 77.7711C70.3434 77.87 70.3929 77.9689 70.5412 77.9689C70.6895 77.9689 70.8379 77.9194 70.9367 77.87C71.0356 77.8206 71.1345 77.6723 71.184 77.5734C71.184 77.5239 71.2334 77.4745 71.2334 77.4745C71.2828 77.5734 71.3817 77.6228 71.5301 77.7217C71.6784 77.8206 71.7773 77.9194 71.9256 77.9194C72.0739 77.9194 72.2222 77.87 72.3706 77.7711C72.4695 77.7217 72.5683 77.6228 72.6178 77.5239C72.6672 77.5734 72.7167 77.6228 72.7661 77.6723C72.9144 77.7711 73.0133 77.7711 73.1617 77.7711C73.31 77.7711 73.4089 77.7217 73.5572 77.6723C73.6066 77.6228 73.7055 77.6228 73.755 77.5734C73.8539 77.6228 73.9527 77.6228 74.1011 77.6228C74.2494 77.6228 74.3483 77.5734 74.4966 77.5239C74.5955 77.4745 74.6944 77.4251 74.7933 77.3262C74.8922 77.3262 74.991 77.3262 75.0405 77.3262C75.1394 77.4251 75.1888 77.4745 75.2877 77.5239C75.436 77.6228 75.5349 77.5734 75.6832 77.5734C75.8316 77.5734 75.9799 77.6228 76.0788 77.5239C76.1777 77.4745 76.2271 77.3756 76.2765 77.2273C76.3754 77.2273 76.4249 77.2273 76.5238 77.2273C76.5732 77.2768 76.6226 77.3262 76.6721 77.3262C76.8204 77.4251 76.9193 77.4745 77.0676 77.4745C77.216 77.4745 77.3643 77.4745 77.4632 77.4251C77.5621 77.3756 77.6115 77.3262 77.7104 77.2273C77.8093 77.3262 77.8587 77.3756 77.9576 77.4251C78.1059 77.4745 78.2543 77.5239 78.4026 77.5239C78.5509 77.5239 78.6992 77.4745 78.8476 77.3756C78.9465 77.3262 78.9959 77.2273 79.0948 77.079C79.1937 77.1285 79.2926 77.2273 79.3914 77.2768C79.5398 77.3262 79.6881 77.4251 79.8364 77.4251C79.9847 77.4251 80.1331 77.3262 80.232 77.2273C80.3308 77.1779 80.4297 77.079 80.4792 76.9802C80.5286 76.9802 80.5286 76.9802 80.5781 76.9802C80.6275 77.079 80.7264 77.1779 80.8253 77.2273C80.9736 77.2768 81.0725 77.3756 81.2208 77.3756C81.3691 77.3756 81.468 77.2273 81.5669 77.1285C81.6658 77.0296 81.8636 77.0296 81.9625 76.9307C81.9625 76.8813 81.9625 76.8813 81.9625 76.8319C82.0613 76.9307 82.2097 76.9802 82.358 77.0296C82.5063 77.079 82.6052 77.1779 82.7535 77.1779C82.9019 77.1779 83.0502 77.1285 83.1491 77.0296C83.248 76.9307 83.2974 76.8319 83.3963 76.6836C83.3963 76.6836 83.3963 76.6341 83.4457 76.6341C83.4952 76.6341 83.5446 76.6341 83.5446 76.6341C83.5446 76.6341 83.5446 76.6836 83.5941 76.6836C83.6929 76.7824 83.7424 76.9802 83.8413 77.0296C83.9896 77.079 84.1379 77.1285 84.2863 77.079C84.4346 77.079 84.5335 76.9307 84.6818 76.8813C84.7807 76.7824 84.929 76.733 84.9785 76.5847C84.9785 76.5353 84.9785 76.5353 85.0279 76.4858C85.1268 76.5353 85.2257 76.5353 85.3246 76.5847C85.4729 76.6341 85.5718 76.7824 85.7201 76.7824C85.8684 76.7824 85.9673 76.6341 86.0662 76.5353C86.1651 76.4364 86.264 76.387 86.3134 76.2387C86.3134 76.2387 86.3134 76.1892 86.3629 76.1892C86.4617 76.2881 86.5606 76.3375 86.709 76.387C86.8573 76.4364 86.9562 76.4858 87.1045 76.4364C87.2528 76.4364 87.3517 76.3375 87.4506 76.2387C87.5495 76.1892 87.5989 76.1398 87.6978 76.0409C87.7472 76.1398 87.8461 76.1892 87.945 76.2387C88.0933 76.2881 88.2417 76.3375 88.39 76.3375C88.5383 76.3375 88.6372 76.1892 88.7855 76.0903C88.835 76.0409 88.8844 76.0409 88.9339 75.9915C89.0822 76.0409 89.1811 76.0409 89.3294 76.0409C89.4777 76.0409 89.6261 76.0409 89.725 75.942C89.8238 75.8432 89.9722 75.7443 90.0216 75.596V75.5466C90.0711 75.5466 90.1699 75.5466 90.2194 75.4971C90.2688 75.596 90.3183 75.7443 90.4666 75.7937C90.6149 75.8432 90.7632 75.8926 90.9116 75.8926C91.0599 75.8926 91.1588 75.6949 91.2577 75.596C91.3566 75.4971 91.5543 75.4971 91.6532 75.3983V75.3488C91.7521 75.3983 91.851 75.3983 91.9499 75.4477C92.0982 75.4971 92.1971 75.6454 92.3454 75.596C92.4937 75.596 92.6421 75.4971 92.741 75.4477C92.8398 75.3488 92.9882 75.2994 93.0376 75.1511C93.0871 75.1017 93.0871 75.0028 93.0376 74.9039H93.0871C93.1365 74.9534 93.1859 74.9534 93.2354 75.0028C93.3837 75.0522 93.4826 75.0028 93.6309 74.9534C93.7793 74.9039 93.9276 74.9039 94.0265 74.8051C94.0759 74.7556 94.1254 74.6567 94.1254 74.5579C94.2242 74.5084 94.3231 74.5084 94.422 74.459C94.5209 74.5084 94.6198 74.5084 94.7187 74.5084C94.867 74.5579 94.9659 74.5084 95.1142 74.459C95.2625 74.4096 95.4109 74.4096 95.5097 74.3107C95.6086 74.2118 95.6581 74.0635 95.6581 73.9152C95.7075 73.9152 95.7075 73.9152 95.757 73.8658C95.8064 73.8658 95.8558 73.8164 95.9053 73.8164C95.9547 73.8658 96.0042 73.8658 96.0536 73.8658C96.2019 73.9152 96.3503 73.9647 96.4492 73.9647C96.5975 73.9152 96.6469 73.7669 96.7458 73.6186C96.7953 73.5692 96.7953 73.5692 96.8447 73.5198C96.8941 73.5198 96.9436 73.5198 96.993 73.4703C96.993 73.6186 96.993 73.7669 97.0919 73.8164C97.1908 73.9152 97.3391 73.9647 97.4875 73.9647C97.6358 74.0141 97.7841 73.9647 97.9324 73.9152C98.0808 73.8658 98.2291 73.8164 98.328 73.7175C98.3774 73.6186 98.3774 73.5198 98.4269 73.4209C98.5257 73.4703 98.6246 73.4703 98.773 73.4703C98.9213 73.5198 99.0202 73.5198 99.1685 73.4703C99.3168 73.4209 99.3663 73.322 99.4652 73.2231C99.4652 73.2231 99.4652 73.2231 99.4652 73.1737C99.5146 73.1737 99.564 73.1737 99.6135 73.1737C99.6629 73.2231 99.6629 73.2231 99.7124 73.2726C99.8113 73.3715 99.9596 73.3715 100.058 73.4209C100.207 73.4703 100.306 73.5198 100.454 73.4703C100.602 73.4209 100.751 73.4209 100.85 73.2726C100.948 73.1737 100.998 73.0254 100.998 72.8771V72.8277C101.047 72.8771 101.097 72.8771 101.146 72.8771C101.295 72.9265 101.393 72.8771 101.542 72.8277C101.69 72.7782 101.838 72.7782 101.937 72.6794C102.036 72.5805 102.135 72.4322 102.135 72.2839C102.185 72.185 102.086 72.0367 102.036 71.9379C102.135 71.7896 102.234 71.6412 102.382 71.4929C102.481 71.4435 102.58 71.4435 102.679 71.3446C102.778 71.2458 102.827 71.1469 102.877 70.9986C102.926 70.8503 102.827 70.7514 102.778 70.6031C102.827 70.5043 102.827 70.356 102.877 70.2571H102.926C103.074 70.2076 103.124 70.0593 103.223 69.9605C103.322 69.8616 103.421 69.7627 103.47 69.6144C103.322 69.565 103.322 69.4661 103.272 69.3178Z" fill="white"/>
<path d="M74.5461 59.0849C74.5461 59.3321 74.4966 59.777 74.3977 60.2713C74.3483 60.6174 74.1011 61.0129 74.0022 61.4083C73.9528 61.8038 73.9528 62.2487 73.9528 62.5948C73.9033 63.1385 73.9528 63.4846 74.1505 63.6823C74.6944 64.325 74.2494 64.4238 74.1505 65.2642C74.0516 65.8574 73.9528 66.2035 73.9528 66.5001C73.9528 66.9944 73.9033 67.291 73.9528 67.7854C74.0022 68.082 73.9033 68.4775 73.9033 69.0707C73.9033 69.2684 74.0516 69.7133 74.1011 70.1582C74.1505 70.5043 74.1011 70.8997 74.1505 71.2458C74.2 71.7401 74.4472 72.1356 74.3977 72.3333C74.3483 72.7288 74.8922 73.9152 74.645 74.2613C74.3483 74.7556 74.4966 74.9534 74.4472 75.4477C74.3977 75.7938 74.2494 76.1398 74.1011 76.4858C73.9528 76.8319 73.9528 77.2768 73.9033 77.6228C73.9033 77.5734 74.9416 77.5734 74.9911 77.5734C75.436 77.5734 75.8316 77.6228 76.2766 77.5734C76.7216 77.5734 77.1171 77.4745 77.5621 77.4745C78.0071 77.4745 78.4026 77.524 78.8476 77.524C79.2926 77.524 79.6881 77.3262 80.0837 77.2768C80.5286 77.2274 80.9242 77.3262 81.3692 77.3262C81.8141 77.2768 82.2097 77.2274 82.6052 77.2274C83.0008 77.1779 83.4458 77.2768 83.8907 77.2768C84.2863 77.2274 84.7313 77.0296 85.1268 76.9802C85.5223 76.9307 85.9673 76.9802 86.4123 76.9308C86.8573 76.8813 87.3023 76.733 87.6978 76.6341C88.1428 76.5847 88.5878 76.4858 89.0328 76.4364C89.4778 76.3375 89.9227 76.3375 90.3677 76.2387C90.8127 76.1398 91.2577 76.0904 91.6532 75.9421C92.0982 75.8432 92.4938 75.5466 92.8893 75.4477C93.1365 75.3488 93.7793 75.3488 94.3231 75.1511C94.867 74.9534 95.3614 74.5579 95.5098 74.3107C95.5592 74.1624 95.6087 73.6681 95.5098 73.1737C95.4109 72.7288 95.312 72.2839 95.312 72.0862C95.2626 71.6413 95.2131 71.2458 95.1637 70.8009C95.1142 70.356 95.0153 69.9605 94.9659 69.5156C94.9165 68.9224 94.867 68.3292 94.7187 67.7359C94.5209 67.1922 94.422 66.6484 94.2737 66.1046C94.1748 65.7586 94.0759 65.3631 94.0265 65.017C93.977 64.6216 93.7793 64.2755 93.7298 63.8801C93.6804 63.4846 93.8287 63.0891 93.7298 62.7431C93.5815 62.2981 93.4332 61.9027 93.186 61.5072C92.9387 61.1117 92.6421 60.7657 92.4443 60.3702C92.2465 59.9747 92.1477 59.5298 92.1477 59.0849C92.1477 58.8377 92.1971 58.4423 92.1477 58.0962C92.0982 57.7502 91.9499 57.3053 91.851 57.0581C90.9116 57.0087 90.9116 57.2064 89.9722 57.3053C89.5766 57.4041 89.1811 57.4041 88.7361 57.4041C88.3406 57.4536 87.8956 57.4041 87.5001 57.4041C87.0551 57.4536 86.6595 57.6019 86.264 57.6513C85.7696 57.7502 85.3246 57.9479 84.8301 58.0468C84.3357 58.1457 83.8413 58.1457 83.3469 58.2445C82.8524 58.3434 82.358 58.3928 81.8636 58.4423C81.468 58.4917 81.122 58.5411 80.7264 58.5411C80.3309 58.5411 79.9848 58.3434 79.5892 58.3928C79.4409 58.3928 78.9959 58.64 78.3532 58.7389C77.9576 58.7883 77.5126 58.7389 77.1171 58.7883C76.6721 58.8377 76.2766 59.0355 75.881 59.0849C75.0405 59.0849 74.5461 59.0849 74.5461 59.0849Z" fill="#231815"/>
<path d="M31.2555 57.4538C31.2555 57.4538 42.8763 57.912 46.4827 57.8547C46.4827 57.8547 55.5274 56.2509 57.3593 56.2509C57.3593 56.2509 62.2251 55.9644 63.4273 57.0528C63.4273 57.0528 66.633 58.5994 67.4344 60.2606C67.4344 60.2606 70.1822 64.9004 67.7206 69.7693C67.7206 69.7693 64.5722 77.3878 56.3861 80.7101C56.3861 80.7101 41.3879 85.8082 37.0373 83.9179C32.6867 82.0276 17.2305 57.0528 31.2555 57.4538Z" fill="#B0DFD1"/>
<path d="M115.921 55.4488C114.49 55.5061 113.001 55.5634 112.085 55.5061C112.085 55.5061 106.246 54.1313 105.101 54.1313C105.101 54.1313 101.953 53.8449 101.152 54.8187C101.152 54.8187 99.0908 56.1362 98.5756 57.5682C98.5756 57.5682 96.801 61.5207 98.3466 65.7022C98.3466 65.7022 100.35 72.2323 105.674 75.0964C105.674 75.0964 115.348 79.4498 118.211 77.8459C120.214 76.7003 120.386 65.8741 120.329 59.6304C120.271 57.2245 118.325 55.3915 115.921 55.4488Z" fill="#B0DFD1"/>
<path d="M48.5438 121.953C49.1735 121.666 49.9177 121.838 50.5474 121.781C54.0965 121.265 56.7871 119.375 58.9051 116.626C61.0804 113.762 62.2826 110.554 62.6261 107.002C62.9123 104.195 62.6261 101.446 61.4812 98.811C60.05 95.6032 57.703 93.3692 54.1538 92.8537C51.2343 92.3954 48.601 93.3119 46.3685 95.2595C44.5939 96.8061 43.22 98.6964 41.9606 100.644C41.8461 100.816 41.7316 100.988 41.6171 101.16C41.5026 101.331 41.3881 101.561 41.1592 101.446C40.9302 101.389 40.9302 101.102 40.9302 100.93C40.9302 100.014 41.2164 99.212 41.5599 98.41C43.1055 94.9731 45.4525 92.3382 49.0017 91.0207C52.8944 89.5886 56.6153 90.1615 59.9355 92.7964C62.9695 95.2022 64.4007 98.5246 64.8586 102.305C65.3738 106.601 64.6869 110.726 62.6261 114.563C62.2253 115.365 61.7101 116.11 61.2522 116.855C60.2218 117.943 59.1914 119.089 57.932 120.005C55.0697 121.953 51.9212 122.526 48.5438 121.953Z" fill="#96BFB2"/>
<path d="M68.4649 71.6022C67.2055 74.2372 65.1447 76.2993 62.9121 78.1323C60.9085 79.5071 58.905 80.71 56.7297 81.6838C54.0391 82.8867 51.1769 83.6313 48.2574 84.0323C46.6545 84.2614 45.1089 84.376 43.506 84.3187C42.7046 84.2614 41.8459 84.1469 41.0445 83.975C40.8155 83.9178 40.5293 83.9178 40.5293 83.5741C40.5293 83.2877 40.8728 83.2877 41.1017 83.2304C42.1322 83.1158 43.2198 83.0013 44.2502 82.944C49.9175 82.4857 55.0695 80.6527 59.8209 77.5595C62.6831 75.6692 65.0874 73.3779 66.5758 70.1702C67.7207 67.707 68.0642 65.0721 67.2627 62.4371C66.3468 59.5158 64.1143 57.9692 61.1948 57.5109C58.9622 57.1099 56.7869 57.5109 54.6116 57.74C52.608 57.9692 50.6617 58.141 48.6581 58.3701C47.0552 58.542 45.4524 58.542 43.8495 58.4847C43.3343 58.4847 42.5901 58.5993 42.4756 57.9692C42.4184 57.2818 43.2198 57.2818 43.6778 57.1099C46.1966 56.4798 48.7726 56.308 51.2914 55.9643C53.1232 55.7352 54.9551 55.506 56.8441 55.2769C58.3325 55.1051 59.8781 55.1624 61.3665 55.3915C64.4577 55.907 67.0338 57.2818 68.6366 60.0886C68.9801 60.7187 69.2091 61.4061 69.4953 62.0934C69.7815 63.5828 70.0678 65.1294 69.896 66.676C69.5525 68.3371 69.1518 69.9983 68.4649 71.6022Z" fill="#96BFB2"/>
<path d="M102.583 74.0081C101.324 72.9197 100.121 71.7741 99.0911 70.3993C98.5759 69.6547 98.1179 68.8527 97.6599 68.0508C96.3433 65.1294 96.0571 62.0935 96.744 58.943C97.2592 57.5682 97.8889 56.1935 98.9766 55.1624C100.579 53.6158 102.469 52.6993 104.701 52.4129C106.304 52.1265 107.792 52.5274 109.338 52.9284C110.54 53.2148 111.685 53.6158 112.773 54.1313C112.887 54.1886 113.002 54.1886 113.059 54.2459C113.402 54.475 113.86 54.6469 113.746 55.1624C113.631 55.7352 113.116 55.5061 112.773 55.5061C110.998 55.3342 109.223 55.1051 107.449 54.876C103.098 54.4177 99.4345 56.5944 98.8048 61.1197C98.4041 63.8692 99.2055 66.3323 100.751 68.6236C101.782 70.1129 103.041 71.4304 104.415 72.5187C106.075 73.7217 107.907 74.7527 109.796 75.5547C110.941 76.0129 112.143 76.4712 113.345 76.9294C113.631 77.044 113.975 77.1586 113.918 77.5023C113.86 77.9032 113.46 77.8459 113.231 77.8459C112.028 77.9032 110.884 77.6741 109.739 77.3877C107.964 76.9294 106.304 76.2421 104.701 75.3828C104.014 74.9819 103.27 74.4663 102.583 74.0081Z" fill="#96BFB2"/>
<path d="M127.885 91.6508C127.714 90.1042 127.198 88.7295 126.225 87.4693C124.68 85.4071 121.531 84.0896 118.096 85.0634C117.295 85.2926 116.493 85.5217 115.807 85.9799C112.544 88.0994 110.597 91.0207 109.567 94.5722C109.51 94.8586 109.223 95.3169 109.624 95.4887C110.082 95.6605 110.311 95.145 110.483 94.8586C111.284 93.5411 112.2 92.2809 113.231 91.1353C114.49 89.7033 115.807 88.3858 117.638 87.5838C117.753 87.5838 117.81 87.5266 117.925 87.5266C119.184 86.8392 120.443 86.7819 121.703 87.1829C122.848 88.0421 123.764 89.0159 124.336 90.3333C125.595 93.0256 125.653 95.7751 124.908 98.5819C124.565 99.8421 124.107 101.045 123.592 102.248C123.134 103.164 122.561 104.081 121.989 104.997C121.245 106.029 120.443 107.06 119.527 107.976C116.894 110.611 113.746 112.215 110.082 112.902C109.338 113.074 108.365 112.845 107.678 113.189C108.021 113.189 108.536 113.303 108.88 113.303C109.853 113.303 110.769 113.303 111.742 113.246C113.517 113.189 115.177 112.73 116.78 111.986C119.871 110.611 122.161 108.32 124.05 105.513C125.424 103.508 126.454 101.389 127.027 99.1547C127.828 96.7489 128.171 94.2858 127.885 91.6508Z" fill="#96BFB2"/>
</g>
<defs>
<clipPath id="clip0_24502_35141">
<rect width="128" height="122.182" fill="white"/>
</clipPath>
</defs>
</svg>
