<svg width="128" height="123" viewBox="0 0 128 123" fill="none" xmlns="http://www.w3.org/2000/svg">
<g clip-path="url(#clip0_18514_26843)">
<path d="M4.00715 87.5265C4.00715 87.4692 4.0644 87.412 4.0644 87.3547C4.0644 87.2401 4.06439 87.1255 4.00715 86.9537C3.89266 86.3809 6.3542 79.2207 6.23971 78.5906C3.66368 77.2731 2.11806 76.4712 1.6601 73.3207C1.20214 70.4566 1.20214 70.3993 1.31663 67.0197C1.48837 63.4682 2.97674 60.2604 4.75134 57.2245C6.3542 54.475 8.30054 51.8973 10.1324 49.2624C13.1091 44.8517 15.4562 40.2119 16.6011 34.9419C17.4025 31.4478 18.5474 28.0109 20.0358 24.7458C22.4973 19.4186 25.932 14.8934 30.3399 11.1128C33.7746 8.13411 37.61 5.84285 41.8461 4.06712C45.7388 2.46323 49.746 1.3176 53.8676 0.687497C56.4436 0.286525 59.0769 0.000116583 61.6529 -0.114447C65.9463 -0.22901 70.1825 0.0573983 74.4186 0.859342C78.8837 1.77585 83.2343 3.03605 87.356 4.92634C88.9588 5.671 90.5617 6.47295 92.1646 7.21761C92.7943 7.73314 93.5385 8.07683 94.2826 8.4778C94.3971 8.53509 94.4544 8.59237 94.5689 8.64965C98.9767 11.2846 102.812 14.5497 106.075 18.5594C110.14 23.5429 112.773 29.2138 114.433 35.3429C116.265 41.9303 118.497 48.2886 121.36 54.5323C123.134 58.3129 124.794 62.1507 125.996 66.1605C127.256 70.2274 127.886 74.3517 127.943 78.5906C127.943 80.6527 127.771 82.6576 127.428 84.7197C126.741 89.0158 125.424 93.1401 123.363 97.0353C120.844 101.618 117.467 105.398 113.174 108.377C109.224 111.127 104.873 113.131 100.236 114.449C97.9463 115.136 95.5993 115.766 93.2522 115.938C91.3631 116.11 89.7603 116.797 88.2147 117.886C85.5241 119.833 82.5474 121.265 79.2272 121.953C78.5975 121.666 76.0787 122.067 75.3918 121.953C71.8426 121.437 70.1825 120.177 68.0644 117.428C67.8354 117.141 67.6637 116.855 67.4347 116.511C67.4347 116.511 67.4347 116.511 67.3775 116.511C67.0912 116.683 66.805 116.74 66.5188 116.74C66.5188 116.74 66.5188 116.797 66.576 116.797C66.4615 116.797 66.4043 116.855 66.2898 116.855C62.7978 116.912 59.3059 116.626 55.8139 116.339C52.7227 116.053 49.6887 115.709 46.6547 115.136C41.2165 114.162 35.8927 112.845 30.7406 110.84C30.2254 110.668 29.8247 110.668 29.3667 110.84C26.39 111.871 23.2987 112.73 20.2075 113.189C19.0054 113.303 18.6619 113.131 17.9177 112.96C14.254 112.272 10.9911 111.069 8.24329 108.606C5.49552 106.143 3.49194 103.107 2.34704 99.6129C1.60286 97.3217 1.48837 94.6867 1.83184 92.3382C1.94633 91.4789 2.17531 90.677 2.51878 89.9323C2.9195 89.0731 3.72092 88.3285 4.00715 87.5265Z" fill="#B0DFD1"/>
<path d="M74.7621 40.0973C74.4186 45.8255 79.8569 50.6371 85.1807 50.5799C90.9624 50.5226 95.8282 45.94 95.8282 39.9828C95.8282 34.3119 90.7334 29.5575 85.1234 29.6148C79.5134 29.6721 74.4758 34.3691 74.7621 40.0973Z" fill="#FFB4B4"/>
<path d="M22.898 32.3071V32.2498C22.9553 32.0207 23.0698 31.8489 23.127 31.6197C24.5581 28.2974 27.1342 26.2925 30.7406 25.777C34.4043 25.2615 37.4955 26.4071 39.8426 29.2712C40.415 30.0159 40.873 30.7605 41.2164 31.5625C42.1324 33.6819 42.2469 36.0877 41.5599 38.2644V38.3217C41.4454 38.6081 41.3882 38.8945 41.2737 39.1236C39.8426 42.446 37.2093 44.3936 33.6029 44.8518C29.9392 45.3673 26.8479 44.1644 24.5581 41.2431C24.0429 40.5557 23.585 39.8683 23.2987 39.1236C22.2683 37.0615 22.1538 34.5411 22.898 32.3071Z" fill="#FFB4B4"/>
<path d="M44.5939 26.9799C46.254 25.8915 46.8837 24.2876 46.1968 22.6838C45.6816 21.4808 44.7656 20.7935 43.449 20.6789C42.0179 20.5643 40.9302 21.1372 40.2433 22.3401C39.5563 23.543 39.6708 24.8032 40.415 25.8915C40.7585 26.4071 41.2165 26.9226 41.9034 27.1517C42.5903 27.3236 43.2773 27.3236 43.907 27.2663C44.0215 27.0945 44.1932 27.0945 44.3077 27.1517C44.3649 27.0372 44.4794 27.0372 44.5939 26.9799Z" fill="#475251"/>
<path d="M73.5027 26.4644C73.5027 28.2974 74.9338 29.7295 76.8229 29.6722C78.6547 29.6722 80.0859 28.1829 80.0286 26.3498C79.9714 24.2877 78.7692 23.1994 76.5367 23.1994C74.8766 23.1421 73.5027 24.6314 73.5027 26.4644Z" fill="#475251"/>
<path d="M70.0065 39.9551C70.2033 39.8889 70.3362 39.7956 70.5037 39.6421C70.8092 39.2478 70.7461 38.7344 70.3334 38.4845C68.7319 37.4681 68.3391 37.1143 67.8487 36.3074C66.7598 34.5355 66.3289 33.417 66.926 32.0985C67.3851 31.0208 68.1334 30.4776 68.1334 30.4776C68.5322 30.1977 68.6167 29.6347 68.337 29.2915C68.0572 28.9482 67.4771 28.8518 67.0438 29.1919C66.9109 29.2852 65.8622 30.0752 65.1762 31.6179C64.2925 33.7131 65.1552 35.4639 66.1948 37.2523C66.8373 38.3483 67.4511 38.8707 69.1951 39.985C69.4212 40.0061 69.7113 40.0543 70.0065 39.9551Z" fill="#475251"/>
<path d="M61.9509 37.6821C63.5654 37.2957 65.3226 36.5218 66.3521 34.9207C66.6485 34.4375 66.4885 33.769 66.0055 33.4723C65.5224 33.1756 64.8544 33.3355 64.558 33.8187C63.3301 35.8206 59.6204 36.0606 58.3023 35.9638C53.9715 35.8223 52.6878 33.6558 52.6054 33.5577C52.3184 33.0963 51.6817 32.8953 51.2206 33.1823C50.7039 33.4827 50.5455 34.0507 50.7902 34.5811C50.8859 34.7349 52.6323 37.8509 58.2122 38.0468C58.3369 38.0759 60.058 38.1351 61.9509 37.6821Z" fill="#475251"/>
<path d="M24.7274 69.3178C24.7768 69.1695 24.9252 69.1201 25.024 69.0212C25.0735 68.9718 25.1724 68.9224 25.2218 68.8729C25.2218 68.8235 25.2218 68.8235 25.2218 68.774C25.1229 68.6752 25.1229 68.5269 25.0735 68.3786C25.024 68.2303 24.9746 68.1314 25.024 67.9831C25.0735 67.8348 25.1724 67.7359 25.2713 67.6865C25.3207 67.6371 25.3701 67.5382 25.469 67.4888C25.5185 67.3899 25.5679 67.2416 25.5679 67.1427C25.5185 67.0933 25.4196 66.9944 25.4196 66.945C25.3701 66.7967 25.3701 66.6484 25.4196 66.5001C25.469 66.3518 25.5679 66.2529 25.6668 66.154C25.7657 66.1046 25.8646 66.0552 25.9635 66.0057C25.9635 65.9563 25.914 65.9068 25.914 65.8574C25.8646 65.7091 25.7657 65.5608 25.8151 65.4125C25.8646 65.2642 26.0623 65.2148 26.1612 65.1159C26.2601 65.017 26.359 64.9182 26.5073 64.9182C26.5568 64.9182 26.5568 64.9182 26.6062 64.9182C26.6557 64.8193 26.7051 64.7204 26.7545 64.671C26.7545 64.671 26.7545 64.671 26.7051 64.6216C26.6062 64.5227 26.6557 64.3744 26.6062 64.2261C26.5568 64.0778 26.5568 63.9295 26.6062 63.8306C26.6557 63.6823 26.7545 63.5834 26.8534 63.534C26.9523 63.4351 27.0512 63.3857 27.1995 63.3363C27.1995 63.2374 27.1501 63.1385 27.1995 63.0397C27.249 62.8913 27.3479 62.7925 27.4467 62.6936C27.5456 62.5947 27.6939 62.4959 27.7928 62.4959C27.8423 62.4959 27.8423 62.4959 27.8917 62.4959C27.7928 62.397 27.7434 62.2487 27.7434 62.1004C27.6939 61.9521 27.7928 61.8038 27.8423 61.7049C27.8917 61.5566 27.9412 61.4577 28.04 61.3589C28.1389 61.26 28.2873 61.26 28.4356 61.26C28.5345 61.26 28.5839 61.2106 28.6828 61.2106C28.6334 61.0623 28.6828 60.914 28.7322 60.7657C28.7817 60.6174 28.8806 60.5185 28.9795 60.4196C29.0783 60.3208 29.2267 60.2713 29.3256 60.2219C29.4244 60.2219 29.4739 60.2219 29.5728 60.2219C29.6717 60.123 29.7211 60.0241 29.82 59.8758C29.7705 59.777 29.7211 59.7275 29.7211 59.6287C29.7211 59.4804 29.7705 59.3815 29.82 59.2332C29.8694 59.1343 29.9189 58.9366 30.0672 58.8872C30.1661 58.8377 30.3639 58.8377 30.5122 58.8377H30.5616C30.6111 58.7883 30.6111 58.7883 30.6605 58.7389C30.6111 58.64 30.4627 58.5411 30.4627 58.3928C30.4627 58.2445 30.5616 58.0962 30.6111 57.9973C30.6605 57.8985 30.8088 57.7996 30.9077 57.7007C31.0066 57.6513 31.0561 57.6513 31.1549 57.6019C31.1549 57.6019 31.1549 57.6019 31.1549 57.5524C31.1549 57.4041 31.1549 57.2558 31.2044 57.1075C31.2538 57.0086 31.4021 56.8603 31.501 56.7615C31.5999 56.712 31.7977 56.7615 31.946 56.7615C31.9955 56.7615 32.0449 56.7615 32.0449 56.7615C32.1438 56.6626 32.1932 56.5637 32.2921 56.4649C32.2921 56.4649 32.2921 56.4649 32.2921 56.4154C32.2427 56.3166 32.1932 56.1683 32.1932 56.02C32.1932 55.8717 32.2921 55.7728 32.3416 55.6739C32.391 55.575 32.4899 55.4762 32.5888 55.3773C32.6877 55.3279 32.7865 55.229 32.9349 55.229C32.9349 55.1301 32.9349 55.0313 32.9843 54.9818C33.0338 54.883 33.1821 54.7841 33.281 54.6852C33.3799 54.6358 33.5282 54.5369 33.6765 54.5369H33.726C33.726 54.4875 33.7754 54.4875 33.7754 54.4381C33.726 54.3392 33.7754 54.1909 33.7754 54.092C33.7754 53.9437 33.726 53.7954 33.7754 53.6471C33.8248 53.5482 33.9732 53.3999 34.0721 53.3505C34.1709 53.3011 34.2698 53.2516 34.4182 53.2022C34.4182 53.1528 34.4182 53.1033 34.4182 53.0045C34.4182 52.8561 34.517 52.7078 34.5665 52.609C34.6159 52.5101 34.7148 52.3618 34.8631 52.2629C34.962 52.2135 35.1598 52.2629 35.3081 52.2629C35.3576 52.2629 35.407 52.2629 35.407 52.2629C35.407 52.2135 35.407 52.1146 35.407 52.0652C35.407 51.9169 35.5059 51.818 35.5553 51.7192C35.6048 51.6203 35.7037 51.5214 35.8025 51.4225C35.852 51.4225 35.852 51.3731 35.9014 51.3237C35.9014 51.2248 35.9509 51.1259 36.0003 51.0271C36.0498 50.9282 36.1486 50.7799 36.297 50.7305C36.3959 50.681 36.5442 50.6316 36.6925 50.6316H36.742C36.6925 50.5822 36.6925 50.5327 36.6925 50.4833C36.6925 50.335 36.742 50.1867 36.7914 50.0878C36.8408 49.9889 36.9892 49.8901 37.0881 49.8406C37.1869 49.7912 37.3353 49.6923 37.4836 49.6923C37.533 49.6923 37.5825 49.6923 37.6319 49.7418C37.6814 49.6429 37.7803 49.5935 37.8297 49.4946C37.8297 49.4452 37.8297 49.3957 37.8297 49.3463C37.8297 49.198 37.7308 49.0497 37.8297 48.9014C37.8791 48.8025 38.0769 48.7531 38.2252 48.7037C38.3241 48.6542 38.423 48.5554 38.5219 48.5059C38.5219 48.4565 38.5219 48.3576 38.5219 48.3082C38.5219 48.1599 38.6208 48.061 38.6702 47.9127C38.7197 47.8138 38.8186 47.6655 38.9174 47.6161C39.0163 47.5667 39.1646 47.5172 39.313 47.5172C39.4119 47.5172 39.5602 47.5667 39.6591 47.6161C39.7085 47.5667 39.758 47.5172 39.8568 47.4184C39.8568 47.3195 39.8074 47.1712 39.8568 47.0723C39.9063 46.9734 40.1041 46.924 40.2029 46.8251C40.3018 46.7757 40.4007 46.7263 40.4996 46.7263C40.5985 46.6274 40.7468 46.4791 40.8457 46.3802C40.8457 46.3308 40.8457 46.3308 40.8457 46.2814C40.8457 46.1331 40.8951 46.0342 40.9446 45.9353C40.994 45.8365 41.0929 45.7376 41.1918 45.6387C41.2907 45.5893 41.439 45.5398 41.5873 45.5398C41.6368 45.5398 41.6862 45.5398 41.7357 45.5893C41.8346 45.4904 41.9334 45.441 42.0323 45.3421C42.0323 45.2927 42.0323 45.2927 42.0323 45.2432C42.0323 45.0949 42.0818 44.9961 42.1312 44.8478C42.1807 44.7489 42.2301 44.5512 42.3784 44.5017C42.4773 44.4523 42.6751 44.5017 42.8234 44.5017C42.9223 44.5017 43.0706 44.4523 43.1695 44.4523C43.2684 44.4029 43.3178 44.3534 43.4167 44.304C43.4167 44.2051 43.4662 44.1062 43.5156 44.0568C43.565 43.9579 43.6639 43.8591 43.8123 43.7602C43.7628 43.8096 43.9111 43.8096 44.0595 43.8096C44.2078 43.8096 44.3067 43.7602 44.455 43.8096C44.5045 43.7602 44.5539 43.7602 44.6528 43.7602C44.7022 43.6613 44.7517 43.6119 44.8011 43.513C44.8506 43.4142 44.9 43.2659 45.0483 43.167C45.1472 43.1176 45.2955 43.0681 45.4439 43.0681C45.5922 43.0681 45.7405 43.0681 45.8889 43.1176C45.9383 43.167 45.9877 43.2164 46.0866 43.2659C46.1855 43.2659 46.2844 43.2164 46.3833 43.2164C46.4327 43.1176 46.4822 43.0187 46.581 42.9693C46.6799 42.9198 46.8777 42.9693 47.026 42.9693C47.1744 42.9693 47.3227 42.9198 47.4216 43.0187C47.471 43.0187 47.471 43.0681 47.5205 43.1176C47.6193 43.1176 47.7182 43.1176 47.8666 43.1176C47.916 43.0681 48.0149 43.0187 48.1138 42.9693C48.0643 42.821 48.2127 42.821 48.361 42.821C48.5093 42.821 48.6576 42.7715 48.806 42.8704C48.9049 42.9198 49.0037 43.1176 49.0532 43.2164H49.1026C49.1521 43.2164 49.2015 43.167 49.251 43.167C49.3498 43.1176 49.4487 43.0187 49.5971 43.0187C49.7454 43.0187 49.8937 43.0187 49.9926 43.1176C50.0915 43.167 50.1409 43.3153 50.2398 43.4636C50.2398 43.513 50.2892 43.513 50.2892 43.5625C50.3881 43.513 50.5365 43.513 50.6848 43.513C50.8331 43.513 50.9814 43.4636 51.0803 43.513C51.1792 43.5625 51.3275 43.6613 51.4264 43.8096C51.4759 43.8591 51.4759 43.9579 51.4264 44.0074C51.4759 44.0074 51.5748 43.9579 51.6242 43.9579C51.7725 43.9579 51.8714 44.0568 52.0197 44.1062C52.2175 44.1557 52.3658 44.2051 52.4153 44.304C52.4647 44.304 52.5142 44.2546 52.5636 44.2546C52.7119 44.2546 52.8603 44.3534 52.9592 44.4523C53.058 44.5017 53.1075 44.65 53.2064 44.7983C53.2558 44.8478 53.2558 44.8972 53.3053 44.9466C53.3547 44.9466 53.3547 44.9466 53.4041 44.9466C53.1569 45.5893 53.058 46.2319 53.0086 47.1218C53.0086 47.715 53.1075 48.3082 53.2064 48.852C53.2558 49.1486 53.4536 49.4946 53.5525 49.6923C53.6514 49.9395 53.7502 50.335 53.948 50.5822C54.2447 51.0765 54.6402 51.5214 54.9863 51.9663C55.5302 52.5595 56.1729 52.955 56.9146 53.2022C57.409 53.4988 57.9034 53.5977 58.4473 53.5977C58.8428 53.6965 59.2384 53.746 59.6834 53.6965H59.7328C60.1778 53.6965 60.6228 53.6471 61.0183 53.5482C61.0183 53.6965 61.0678 53.8448 61.0183 53.9437C61.0183 53.9437 61.0678 53.9437 61.0678 53.9931C61.1666 54.092 61.2161 54.2403 61.2655 54.3392C61.2655 54.3886 61.315 54.4381 61.315 54.5369C61.4633 54.5369 61.5622 54.6852 61.6611 54.7841C61.7599 54.883 61.9083 54.9818 61.9577 55.0807C62.0072 55.229 62.0072 55.3773 62.0072 55.5256C62.0072 55.6739 61.8588 55.7728 61.7599 55.8717C61.7599 55.8717 61.7599 55.9211 61.7105 55.9211C61.7599 56.02 61.8588 56.1188 61.9083 56.1683C61.9577 56.1683 62.0072 56.1188 62.0566 56.1683C62.2049 56.1683 62.3038 56.3166 62.4027 56.366C62.5016 56.4649 62.6005 56.5637 62.6499 56.6626C62.6994 56.8109 62.7982 56.9098 62.7982 57.0581C62.8971 57.0581 62.9466 57.0581 62.996 57.1075C63.0949 57.2064 63.0949 57.4041 63.1443 57.503C63.1938 57.6513 63.2432 57.7502 63.2432 57.8985C63.2432 58.0468 63.2432 58.1951 63.1443 58.3434L63.0949 58.3928C63.1443 58.3928 63.1443 58.3928 63.1938 58.3928C63.3421 58.3928 63.441 58.4917 63.5399 58.5905C63.6388 58.6894 63.7871 58.7389 63.8365 58.8872C63.886 59.0355 63.8365 59.1343 63.8365 59.2826C63.8365 59.4309 63.8365 59.5792 63.7871 59.6781C63.7871 59.6781 63.7377 59.6781 63.7377 59.7275C63.7377 59.777 63.7871 59.777 63.7871 59.8264C63.9354 59.8264 64.0838 59.8758 64.1826 59.9253C64.331 59.9747 64.4299 60.0736 64.4793 60.2219C64.5782 60.3208 64.6771 60.4196 64.6771 60.5679C64.7265 60.7162 64.7265 60.8645 64.6771 61.0128C64.776 60.9634 64.8748 60.9634 64.9243 61.0128C65.0726 61.0623 65.2209 61.1611 65.2704 61.26C65.3693 61.3589 65.3198 61.5566 65.3198 61.7049C65.3693 61.8532 65.4187 62.0015 65.3693 62.1004C65.3198 62.2487 65.1715 62.2981 65.0726 62.397L65.0232 62.4464C65.0726 62.4464 65.1715 62.4959 65.2209 62.4959C65.3693 62.5453 65.4681 62.6442 65.567 62.743C65.6659 62.8419 65.6659 62.9902 65.7154 63.1385C65.7154 63.188 65.7648 63.2868 65.7648 63.3363C66.012 63.3857 66.1603 63.4846 66.2592 63.5834C66.3581 63.6823 66.457 63.8306 66.457 63.9789C66.5064 64.1272 66.4076 64.2755 66.3581 64.4238C66.3087 64.5721 66.2098 64.671 66.1109 64.7699C66.012 64.8193 65.9131 64.8687 65.8142 64.9182C65.8142 64.9676 65.8637 65.017 65.8637 65.1159C66.012 65.0665 66.1603 65.1159 66.2592 65.1159C66.4076 65.1653 66.5064 65.2642 66.6053 65.3631C66.7537 65.3631 66.7537 65.5114 66.8031 65.6597C66.8525 65.808 66.8525 65.9068 66.8031 66.0552C66.7537 66.154 66.7537 66.2035 66.7042 66.2529C66.7537 66.3023 66.8525 66.3518 66.902 66.4012C67.0009 66.5001 67.0503 66.5989 67.0998 66.7472C67.1492 66.8955 67.1986 67.0438 67.1492 67.1921C67.0998 67.3404 66.9514 67.4393 66.8525 67.4888C66.902 67.5876 66.902 67.6371 66.9514 67.7359C67.0503 67.7359 67.1986 67.7854 67.2481 67.8348C67.347 67.9337 67.347 68.1314 67.347 68.2797C67.3964 68.428 67.3964 68.5763 67.347 68.6752C67.347 68.7246 67.2975 68.774 67.2975 68.8235C67.3964 68.8729 67.4459 68.9224 67.5447 68.9718C67.6436 69.0212 67.7425 69.1201 67.8414 69.2684C67.8908 69.3673 67.9897 69.5156 67.9897 69.6639C67.9897 69.8122 67.9403 69.9605 67.8414 70.0593C67.792 70.1582 67.6931 70.2076 67.5942 70.2571V70.3065C67.6931 70.3559 67.8414 70.4054 67.9403 70.5537C67.9897 70.6526 68.0392 70.8009 68.0392 70.9492C68.0392 71.0975 68.0392 71.2458 67.9403 71.3941C67.8908 71.4929 67.792 71.5424 67.7425 71.5918C67.8414 71.6412 68.0392 71.6412 68.1381 71.7895C68.1875 71.8884 68.2369 72.0862 68.2369 72.185C68.2369 72.3333 68.0886 72.4322 68.0392 72.5805C67.9897 72.6794 67.9403 72.8277 67.792 72.8771C67.7425 72.9265 67.6931 72.976 67.5942 72.976C67.5942 73.0254 67.5942 73.0748 67.5942 73.1243C67.6436 73.1737 67.6931 73.2231 67.7425 73.2726C67.8414 73.3715 67.9403 73.4703 67.9403 73.6186C67.9403 73.7669 67.8908 73.8658 67.8414 74.0141C67.7425 74.1624 67.7425 74.3601 67.6436 74.4096C67.6931 74.459 67.6931 74.5084 67.7425 74.5579C67.792 74.6567 67.8414 74.8051 67.8414 74.9534C67.8414 75.1017 67.8414 75.2005 67.7425 75.3488C67.6931 75.4477 67.5447 75.5466 67.4459 75.596C67.347 75.6454 67.2481 75.6454 67.0998 75.6454C67.0998 75.7937 67.0998 75.8926 67.0503 76.0409C67.0009 76.1892 66.8525 76.2387 66.7537 76.3375C66.6548 76.4364 66.5064 76.4858 66.3581 76.4858H66.3087C66.3087 76.4858 66.3087 76.4858 66.2592 76.5353C66.3087 76.5847 66.3087 76.6341 66.3087 76.733C66.3087 76.8813 66.2592 76.9802 66.2098 77.1285C66.1603 77.2768 66.0615 77.3262 65.9131 77.4251C65.8142 77.5239 65.7154 77.6723 65.567 77.7217C65.4187 77.7217 65.2209 77.7217 65.1221 77.6228C65.1221 77.6228 65.1221 77.6228 65.0726 77.6228V77.6723C65.0232 77.7711 64.9243 77.9194 64.776 78.0183C64.6771 78.1172 64.4793 78.0183 64.331 78.0677C64.1826 78.0677 64.0343 78.1172 63.9354 78.0677C63.9354 77.9194 63.8365 77.87 63.7871 77.8206C63.7871 77.87 63.7871 77.87 63.7377 77.9194C63.6388 78.0183 63.4904 78.0677 63.3421 78.0677C63.1938 78.0677 63.0949 77.9689 62.9466 77.9194C62.8477 77.87 62.7488 77.8206 62.6994 77.7217C62.6499 77.7217 62.6499 77.7217 62.6005 77.7217C62.551 77.7711 62.5016 77.87 62.4521 77.9194C62.3533 78.0183 62.2049 78.0183 62.0566 78.0677C61.9083 78.0677 61.8094 78.0183 61.6611 77.9689C61.5622 77.9194 61.3644 77.9194 61.2655 77.8206V77.7711C61.2161 77.87 61.0678 77.9689 60.9194 78.0677C60.8205 78.1666 60.6722 78.1172 60.5239 78.1666C60.3756 78.1666 60.2272 78.216 60.1283 78.1666C60.0295 78.1172 59.8811 78.0183 59.7822 77.9194C59.6834 77.8206 59.6834 77.6723 59.6339 77.5734C59.6339 77.6228 59.5845 77.6723 59.5845 77.6723C59.535 77.7711 59.4361 77.87 59.2878 77.9689C59.1395 78.0677 59.0406 78.1666 58.8923 78.1666C58.7439 78.1666 58.5956 78.1172 58.4473 78.0677C58.3484 78.0183 58.299 77.8206 58.2001 77.7217C58.1506 77.6723 58.1506 77.6228 58.1012 77.5239C58.0517 77.6228 57.9034 77.6722 57.8045 77.7711C57.6562 77.87 57.6068 77.9689 57.4584 77.9689C57.3101 77.9689 57.1618 77.9194 57.0629 77.87C56.964 77.8206 56.8651 77.6723 56.8157 77.5734C56.8157 77.5239 56.7662 77.4745 56.7662 77.4745C56.7168 77.5734 56.6179 77.6228 56.4696 77.7217C56.3213 77.8206 56.2224 77.9194 56.074 77.9194C55.9257 77.9194 55.7774 77.87 55.6291 77.7711C55.5302 77.7217 55.4313 77.6228 55.3818 77.5239C55.3324 77.5734 55.283 77.6228 55.2335 77.6723C55.0852 77.7711 54.9863 77.7711 54.838 77.7711C54.6896 77.7711 54.5908 77.7217 54.4424 77.6723C54.393 77.6228 54.2941 77.6228 54.2447 77.5734C54.1458 77.6228 54.0469 77.6228 53.8986 77.6228C53.7502 77.6228 53.6514 77.5734 53.503 77.5239C53.4041 77.4745 53.3053 77.4251 53.2064 77.3262C53.1075 77.3262 53.0086 77.3262 52.9592 77.3262C52.8603 77.4251 52.8108 77.4745 52.7119 77.5239C52.5636 77.6228 52.4647 77.5734 52.3164 77.5734C52.1681 77.5734 52.0197 77.6228 51.9209 77.5239C51.822 77.4745 51.7725 77.3756 51.7231 77.2273C51.6242 77.2273 51.5748 77.2273 51.4759 77.2273C51.4264 77.2768 51.377 77.3262 51.3275 77.3262C51.1792 77.4251 51.0803 77.4745 50.932 77.4745C50.7837 77.4745 50.6353 77.4745 50.5365 77.4251C50.4376 77.3756 50.3881 77.3262 50.2892 77.2273C50.1904 77.3262 50.1409 77.3756 50.042 77.4251C49.8937 77.4745 49.7454 77.5239 49.5971 77.5239C49.4487 77.5239 49.3004 77.4745 49.1521 77.3756C49.0532 77.3262 49.0037 77.2273 48.9049 77.079C48.806 77.1285 48.7071 77.2273 48.6082 77.2768C48.4599 77.3262 48.3115 77.4251 48.1632 77.4251C48.0149 77.4251 47.8666 77.3262 47.7677 77.2273C47.6688 77.1779 47.5699 77.079 47.5205 76.9802C47.471 76.9802 47.471 76.9802 47.4216 76.9802C47.3721 77.079 47.2732 77.1779 47.1744 77.2273C47.026 77.2768 46.9271 77.3756 46.7788 77.3756C46.6305 77.3756 46.5316 77.2273 46.4327 77.1285C46.3338 77.0296 46.1361 77.0296 46.0372 76.9307C46.0372 76.8813 46.0372 76.8813 46.0372 76.8319C45.9383 76.9307 45.79 76.9802 45.6416 77.0296C45.4933 77.079 45.3944 77.1779 45.2461 77.1779C45.0978 77.1779 44.9494 77.1285 44.8506 77.0296C44.7517 76.9307 44.7022 76.8319 44.6033 76.6836C44.6033 76.6836 44.6033 76.6341 44.5539 76.6341C44.5045 76.6341 44.455 76.6341 44.455 76.6341C44.455 76.6341 44.455 76.6836 44.4056 76.6836C44.3067 76.7824 44.2572 76.9802 44.1584 77.0296C44.01 77.079 43.8617 77.1285 43.7134 77.079C43.565 77.079 43.4662 76.9307 43.3178 76.8813C43.2189 76.7824 43.0706 76.733 43.0212 76.5847C43.0212 76.5353 43.0212 76.5353 42.9717 76.4858C42.8728 76.5353 42.774 76.5353 42.6751 76.5847C42.5267 76.6341 42.4279 76.7824 42.2795 76.7824C42.1312 76.7824 42.0323 76.6341 41.9334 76.5353C41.8346 76.4364 41.7357 76.387 41.6862 76.2387C41.6862 76.2387 41.6862 76.1892 41.6368 76.1892C41.5379 76.2881 41.439 76.3375 41.2907 76.387C41.1424 76.4364 41.0435 76.4858 40.8951 76.4364C40.7468 76.4364 40.6479 76.3375 40.549 76.2387C40.4502 76.1892 40.4007 76.1398 40.3018 76.0409C40.2524 76.1398 40.1535 76.1892 40.0546 76.2387C39.9063 76.2881 39.758 76.3375 39.6096 76.3375C39.4613 76.3375 39.3624 76.1892 39.2141 76.0903C39.1646 76.0409 39.1152 76.0409 39.0658 75.9915C38.9174 76.0409 38.8186 76.0409 38.6702 76.0409C38.5219 76.0409 38.3736 76.0409 38.2747 75.942C38.1758 75.8432 38.0275 75.7443 37.978 75.596V75.5466C37.9286 75.5466 37.8297 75.5466 37.7803 75.4971C37.7308 75.596 37.6814 75.7443 37.533 75.7937C37.3847 75.8432 37.2364 75.8926 37.0881 75.8926C36.9397 75.8926 36.8408 75.6949 36.742 75.596C36.6431 75.4971 36.4453 75.4971 36.3464 75.3983V75.3488C36.2475 75.3983 36.1486 75.3983 36.0498 75.4477C35.9014 75.4971 35.8025 75.6454 35.6542 75.596C35.5059 75.596 35.3576 75.4971 35.2587 75.4477C35.1598 75.3488 35.0115 75.2994 34.962 75.1511C34.9126 75.1017 34.9126 75.0028 34.962 74.9039H34.9126C34.8631 74.9534 34.8137 74.9534 34.7643 75.0028C34.6159 75.0522 34.517 75.0028 34.3687 74.9534C34.2204 74.9039 34.0721 74.9039 33.9732 74.8051C33.9237 74.7556 33.8743 74.6567 33.8743 74.5579C33.7754 74.5084 33.6765 74.5084 33.5776 74.459C33.4787 74.5084 33.3799 74.5084 33.281 74.5084C33.1326 74.5579 33.0338 74.5084 32.8854 74.459C32.7371 74.4096 32.5888 74.4096 32.4899 74.3107C32.391 74.2118 32.3416 74.0635 32.3416 73.9152C32.2921 73.9152 32.2921 73.9152 32.2427 73.8658C32.1932 73.8658 32.1438 73.8164 32.0943 73.8164C32.0449 73.8658 31.9955 73.8658 31.946 73.8658C31.7977 73.9152 31.6494 73.9647 31.5505 73.9647C31.4022 73.9152 31.3527 73.7669 31.2538 73.6186C31.2044 73.5692 31.2044 73.5692 31.1549 73.5198C31.1055 73.5198 31.056 73.5198 31.0066 73.4703C31.0066 73.6186 31.0066 73.7669 30.9077 73.8164C30.8088 73.9152 30.6605 73.9647 30.5122 73.9647C30.3639 74.0141 30.2155 73.9647 30.0672 73.9152C29.9189 73.8658 29.7705 73.8164 29.6717 73.7175C29.6222 73.6186 29.6222 73.5198 29.5728 73.4209C29.4739 73.4703 29.375 73.4703 29.2267 73.4703C29.0783 73.5198 28.9795 73.5198 28.8311 73.4703C28.6828 73.4209 28.6334 73.322 28.5345 73.2231C28.5345 73.2231 28.5345 73.2231 28.5345 73.1737C28.485 73.1737 28.4356 73.1737 28.3861 73.1737C28.3367 73.2231 28.3367 73.2231 28.2873 73.2726C28.1884 73.3715 28.04 73.3715 27.9412 73.4209C27.7928 73.4703 27.6939 73.5198 27.5456 73.4703C27.3973 73.4209 27.249 73.4209 27.1501 73.2726C27.0512 73.1737 27.0018 73.0254 27.0018 72.8771V72.8277C26.9523 72.8771 26.9029 72.8771 26.8534 72.8771C26.7051 72.9265 26.6062 72.8771 26.4579 72.8277C26.3096 72.7782 26.1612 72.7782 26.0623 72.6794C25.9635 72.5805 25.8646 72.4322 25.8646 72.2839C25.8151 72.185 25.914 72.0367 25.9635 71.9379C25.8646 71.7896 25.7657 71.6412 25.6174 71.4929C25.5185 71.4435 25.4196 71.4435 25.3207 71.3446C25.2218 71.2458 25.1724 71.1469 25.1229 70.9986C25.0735 70.8503 25.1724 70.7514 25.2218 70.6031C25.1724 70.5043 25.1724 70.356 25.1229 70.2571H25.0735C24.9252 70.2076 24.8757 70.0593 24.7768 69.9605C24.6779 69.8616 24.5791 69.7627 24.5296 69.6144C24.6779 69.565 24.6779 69.4661 24.7274 69.3178Z" fill="white"/>
<path d="M53.4536 59.0849C53.4536 59.3321 53.5031 59.777 53.6019 60.2713C53.6514 60.6174 53.8986 61.0129 53.9975 61.4083C54.0469 61.8038 54.0469 62.2487 54.0469 62.5948C54.0964 63.1385 54.0469 63.4846 53.8492 63.6823C53.3053 64.325 53.7503 64.4238 53.8492 65.2642C53.948 65.8574 54.0469 66.2035 54.0469 66.5001C54.0469 66.9944 54.0964 67.291 54.0469 67.7854C53.9975 68.082 54.0964 68.4775 54.0964 69.0707C54.0964 69.2684 53.948 69.7133 53.8986 70.1582C53.8492 70.5043 53.8986 70.8997 53.8492 71.2458C53.7997 71.7401 53.5525 72.1356 53.6019 72.3333C53.6514 72.7288 53.1075 73.9152 53.3547 74.2613C53.6514 74.7556 53.5031 74.9534 53.5525 75.4477C53.6019 75.7938 53.7503 76.1398 53.8986 76.4858C54.0469 76.8319 54.0469 77.2768 54.0964 77.6228C54.0964 77.5734 53.0581 77.5734 53.0086 77.5734C52.5637 77.5734 52.1681 77.6228 51.7231 77.5734C51.2781 77.5734 50.8826 77.4745 50.4376 77.4745C49.9926 77.4745 49.5971 77.524 49.1521 77.524C48.7071 77.524 48.3116 77.3262 47.916 77.2768C47.4711 77.2274 47.0755 77.3262 46.6305 77.3262C46.1855 77.2768 45.79 77.2274 45.3945 77.2274C44.9989 77.1779 44.5539 77.2768 44.109 77.2768C43.7134 77.2274 43.2684 77.0296 42.8729 76.9802C42.4773 76.9307 42.0324 76.9802 41.5874 76.9308C41.1424 76.8813 40.6974 76.733 40.3019 76.6341C39.8569 76.5847 39.4119 76.4858 38.9669 76.4364C38.5219 76.3375 38.0769 76.3375 37.632 76.2387C37.187 76.1398 36.742 76.0904 36.3465 75.9421C35.9015 75.8432 35.5059 75.5466 35.1104 75.4477C34.8632 75.3488 34.2204 75.3488 33.6766 75.1511C33.1327 74.9534 32.6383 74.5579 32.4899 74.3107C32.4405 74.1624 32.391 73.6681 32.4899 73.1737C32.5888 72.7288 32.6877 72.2839 32.6877 72.0862C32.7371 71.6413 32.7866 71.2458 32.836 70.8009C32.8855 70.356 32.9844 69.9605 33.0338 69.5156C33.0832 68.9224 33.1327 68.3292 33.281 67.7359C33.4788 67.1922 33.5777 66.6484 33.726 66.1046C33.8249 65.7586 33.9238 65.3631 33.9732 65.017C34.0226 64.6216 34.2204 64.2755 34.2699 63.8801C34.3193 63.4846 34.171 63.0891 34.2699 62.7431C34.4182 62.2981 34.5665 61.9027 34.8137 61.5072C35.0609 61.1117 35.3576 60.7657 35.5554 60.3702C35.7531 59.9747 35.852 59.5298 35.852 59.0849C35.852 58.8377 35.8026 58.4423 35.852 58.0962C35.9015 57.7502 36.0498 57.3053 36.1487 57.0581C37.0881 57.0087 37.0881 57.2064 38.0275 57.3053C38.423 57.4041 38.8186 57.4041 39.2636 57.4041C39.6591 57.4536 40.1041 57.4041 40.4996 57.4041C40.9446 57.4536 41.3402 57.6019 41.7357 57.6513C42.2301 57.7502 42.6751 57.9479 43.1695 58.0468C43.664 58.1457 44.1584 58.1457 44.6528 58.2445C45.1473 58.3434 45.6417 58.3928 46.1361 58.4423C46.5316 58.4917 46.8777 58.5411 47.2733 58.5411C47.6688 58.5411 48.0149 58.3434 48.4105 58.3928C48.5588 58.3928 49.0038 58.64 49.6465 58.7389C50.0421 58.7883 50.4871 58.7389 50.8826 58.7883C51.3276 58.8377 51.7231 59.0355 52.1187 59.0849C52.9592 59.0849 53.4536 59.0849 53.4536 59.0849Z" fill="#231815"/>
<path d="M96.7442 57.4538C96.7442 57.4538 85.1234 57.912 81.517 57.8547C81.517 57.8547 72.4723 56.2509 70.6404 56.2509C70.6404 56.2509 65.7746 55.9644 64.5724 57.0528C64.5724 57.0528 61.3667 58.5994 60.5653 60.2606C60.5653 60.2606 57.8175 64.9004 60.279 69.7693C60.279 69.7693 63.4275 77.3878 71.6136 80.7101C71.6136 80.7101 86.6118 85.8082 90.9624 83.9179C95.313 82.0276 110.769 57.0528 96.7442 57.4538Z" fill="#B0DFD1"/>
<path d="M12.0787 55.4486C13.5098 55.5058 14.9982 55.5631 15.9141 55.5058C15.9141 55.5058 21.7531 54.1311 22.898 54.1311C22.898 54.1311 26.0465 53.8447 26.8479 54.8185C26.8479 54.8185 28.9088 56.1359 29.424 57.568C29.424 57.568 31.1986 61.5204 29.6529 65.702C29.6529 65.702 27.6494 72.2321 22.3256 75.0962C22.3256 75.0962 12.6511 79.4496 9.7889 77.8457C7.78532 76.7001 7.61358 65.8738 7.67083 59.6301C7.72807 57.2243 9.67441 55.3913 12.0787 55.4486Z" fill="#B0DFD1"/>
<path d="M79.4562 121.953C78.8265 121.667 78.0823 121.838 77.4526 121.781C73.9034 121.266 71.2129 119.375 69.0948 116.626C66.9195 113.762 65.7173 110.554 65.3739 107.003C65.0877 104.196 65.3739 101.446 66.5188 98.8112C67.9499 95.6035 70.297 93.3695 73.8462 92.8539C76.7657 92.3957 79.3989 93.3122 81.6315 95.2598C83.4061 96.8064 84.78 98.6967 86.0394 100.644C86.1538 100.816 86.2683 100.988 86.3828 101.16C86.4973 101.332 86.6118 101.561 86.8408 101.446C87.0698 101.389 87.0698 101.102 87.0698 100.931C87.0698 100.014 86.7835 99.2122 86.4401 98.4103C84.8945 94.9734 82.5474 92.3384 78.9982 91.0209C75.1055 89.5889 71.3846 90.1617 68.0644 92.7967C65.0304 95.2025 63.5993 98.5248 63.1413 102.305C62.6261 106.602 63.3131 110.726 65.3739 114.564C65.7746 115.366 66.2898 116.11 66.7478 116.855C67.7782 117.943 68.8086 119.089 70.068 120.005C72.9302 121.953 76.0787 122.526 79.4562 121.953Z" fill="#96BFB2"/>
<path d="M59.5349 71.6024C60.7943 74.2374 62.8551 76.2995 65.0876 78.1325C67.0912 79.5073 69.0948 80.7102 71.2701 81.684C73.9606 82.8869 76.8229 83.6316 79.7424 84.0326C81.3452 84.2617 82.8909 84.3763 84.4937 84.319C85.2951 84.2617 86.1538 84.1471 86.9553 83.9753C87.1842 83.918 87.4705 83.918 87.4705 83.5743C87.4705 83.2879 87.127 83.2879 86.898 83.2306C85.8676 83.1161 84.7799 83.0015 83.7495 82.9442C78.0823 82.486 72.9302 80.6529 68.1789 77.5597C65.3166 75.6694 62.9123 73.3782 61.4239 70.1704C60.279 67.7073 59.9356 65.0723 60.737 62.4374C61.6529 59.516 63.8855 57.9694 66.805 57.5112C69.0375 57.1102 71.2129 57.5112 73.3882 57.7403C75.3917 57.9694 77.3381 58.1412 79.3417 58.3704C80.9445 58.5422 82.5474 58.5422 84.1502 58.4849C84.6655 58.4849 85.4096 58.5995 85.5241 57.9694C85.5814 57.282 84.7799 57.282 84.322 57.1102C81.8032 56.4801 79.2272 56.3082 76.7084 55.9645C74.8765 55.7354 73.0447 55.5063 71.1556 55.2772C69.6672 55.1053 68.1216 55.1626 66.6333 55.3917C63.542 55.9073 60.966 57.282 59.3631 60.0888C59.0197 60.7189 58.7907 61.4063 58.5045 62.0937C58.2182 63.583 57.932 65.1296 58.1037 66.6762C58.4472 68.3374 58.8479 69.9986 59.5349 71.6024Z" fill="#96BFB2"/>
<path d="M25.4168 74.0081C26.6762 72.9197 27.8783 71.7741 28.9088 70.3993C29.424 69.6547 29.8819 68.8527 30.3399 68.0508C31.6565 65.1294 31.9428 62.0935 31.2558 58.943C30.7406 57.5682 30.1109 56.1935 29.0233 55.1624C27.4204 53.6158 25.5313 52.6993 23.2987 52.4129C21.6959 52.1265 20.2075 52.5274 18.6619 52.9284C17.4597 53.2148 16.3148 53.6158 15.2272 54.1313C15.1127 54.1886 14.9982 54.1886 14.941 54.2459C14.5975 54.475 14.1395 54.6469 14.254 55.1624C14.3685 55.7352 14.8837 55.5061 15.2272 55.5061C17.0018 55.3342 18.7764 55.1051 20.551 54.876C24.9016 54.4177 28.5653 56.5944 29.195 61.1197C29.5957 63.8692 28.7943 66.3323 27.2487 68.6236C26.2182 70.1129 24.9589 71.4304 23.585 72.5187C21.9249 73.7217 20.093 74.7527 18.2039 75.5547C17.059 76.0129 15.8569 76.4712 14.6547 76.9294C14.3685 77.044 14.025 77.1586 14.0823 77.5023C14.1395 77.9032 14.5402 77.8459 14.7692 77.8459C15.9714 77.9032 17.1163 77.6741 18.2612 77.3877C20.0358 76.9294 21.6959 76.2421 23.2987 75.3828C23.9857 74.9819 24.7299 74.4663 25.4168 74.0081Z" fill="#96BFB2"/>
<path d="M0.114454 91.6508C0.286189 90.1042 0.801391 88.7295 1.77456 87.4693C3.32017 85.4071 6.46865 84.0896 9.90336 85.0634C10.7048 85.2926 11.5062 85.5217 12.1932 85.9799C15.4561 88.0994 17.4025 91.0207 18.4329 94.5722C18.4901 94.8586 18.7763 95.3169 18.3756 95.4887C17.9177 95.6605 17.6887 95.145 17.517 94.8586C16.7155 93.5411 15.7996 92.2809 14.7692 91.1353C13.5098 89.7033 12.1932 88.3858 10.3613 87.5838C10.2468 87.5838 10.1896 87.5266 10.0751 87.5266C8.8157 86.8392 7.55631 86.7819 6.29692 87.1829C5.15201 88.0421 4.2361 89.0159 3.66365 90.3333C2.40426 93.0256 2.34701 95.7751 3.0912 98.5819C3.43467 99.8421 3.89263 101.045 4.40783 102.248C4.8658 103.164 5.43824 104.081 6.01069 104.997C6.75488 106.029 7.55631 107.06 8.47223 107.976C11.1055 110.611 14.254 112.215 17.9177 112.902C18.6619 113.074 19.635 112.845 20.322 113.189C19.9785 113.189 19.4633 113.303 19.1198 113.303C18.1467 113.303 17.2307 113.303 16.2576 113.246C14.483 113.189 12.8229 112.73 11.22 111.986C8.12876 110.611 5.83896 108.32 3.94987 105.513C2.57599 103.508 1.54558 101.389 0.97313 99.1547C0.171699 96.7489 -0.171772 94.2858 0.114454 91.6508Z" fill="#96BFB2"/>
</g>
<defs>
<clipPath id="clip0_18514_26843">
<rect width="128" height="122.182" fill="white" transform="matrix(-1 0 0 1 128 0)"/>
</clipPath>
</defs>
</svg>
