<svg width="40" height="40" viewBox="0 0 40 40" fill="none" xmlns="http://www.w3.org/2000/svg">
<g clip-path="url(#clip0_24515_48969)">
<path fill-rule="evenodd" clip-rule="evenodd" d="M19.9999 3.33337C29.2049 3.33337 36.6666 10.795 36.6666 20C36.6666 29.205 29.2049 36.6667 19.9999 36.6667C10.7949 36.6667 3.33325 29.205 3.33325 20C3.33325 10.795 10.7949 3.33337 19.9999 3.33337ZM24.6666 23.095C23.4219 24.3187 21.7454 25.0031 19.9999 25C18.2544 25.0031 16.578 24.3187 15.3333 23.095C15.1778 22.9382 14.9926 22.8138 14.7886 22.7291C14.5847 22.6444 14.3659 22.6011 14.145 22.6017C13.9241 22.6023 13.7056 22.6468 13.502 22.7326C13.2985 22.8185 13.1141 22.9439 12.9595 23.1016C12.8048 23.2593 12.6831 23.4462 12.6013 23.6514C12.5196 23.8566 12.4794 24.0759 12.4832 24.2968C12.4869 24.5176 12.5345 24.7355 12.6233 24.9378C12.712 25.1401 12.84 25.3227 12.9999 25.475C14.8676 27.3097 17.3819 28.3363 19.9999 28.3334C22.618 28.3363 25.1322 27.3097 26.9999 25.475C27.3082 25.164 27.4817 24.7442 27.4829 24.3063C27.4841 23.8684 27.3129 23.4476 27.0064 23.1349C26.6998 22.8222 26.2825 22.6427 25.8447 22.6353C25.4068 22.6278 24.9836 22.793 24.6666 23.095ZM14.1666 13.3334C13.5035 13.3334 12.8677 13.5968 12.3988 14.0656C11.93 14.5344 11.6666 15.1703 11.6666 15.8334C11.6666 16.4964 11.93 17.1323 12.3988 17.6011C12.8677 18.07 13.5035 18.3334 14.1666 18.3334C14.8296 18.3334 15.4655 18.07 15.9344 17.6011C16.4032 17.1323 16.6666 16.4964 16.6666 15.8334C16.6666 15.1703 16.4032 14.5344 15.9344 14.0656C15.4655 13.5968 14.8296 13.3334 14.1666 13.3334ZM25.8333 13.3334C25.1702 13.3334 24.5343 13.5968 24.0655 14.0656C23.5966 14.5344 23.3333 15.1703 23.3333 15.8334C23.3333 16.4964 23.5966 17.1323 24.0655 17.6011C24.5343 18.07 25.1702 18.3334 25.8333 18.3334C26.4963 18.3334 27.1322 18.07 27.601 17.6011C28.0699 17.1323 28.3333 16.4964 28.3333 15.8334C28.3333 15.1703 28.0699 14.5344 27.601 14.0656C27.1322 13.5968 26.4963 13.3334 25.8333 13.3334Z" fill="#D3DFD3"/>
</g>
<defs>
<clipPath id="clip0_24515_48969">
<rect width="40" height="40" fill="white"/>
</clipPath>
</defs>
</svg>
