<svg width="24" height="24" viewBox="0 0 24 24" fill="none" xmlns="http://www.w3.org/2000/svg">
<g clip-path="url(#clip0_18765_34866)">
<path d="M9.88901 19.656C9.95771 19.3998 10.1254 19.1814 10.3551 19.0488C10.5848 18.9162 10.8578 18.8803 11.114 18.949C11.3702 19.0177 11.5886 19.1853 11.7212 19.4151C11.8538 19.6448 11.8897 19.9178 11.821 20.174L11.562 21.14C11.4933 21.3962 11.3257 21.6146 11.0959 21.7472C10.8662 21.8798 10.5932 21.9157 10.337 21.847C10.0808 21.7783 9.8624 21.6107 9.72981 21.3809C9.59722 21.1512 9.56132 20.8782 9.63001 20.622L9.88901 19.656ZM7.69401 17.794C7.95001 17.8627 8.16827 18.0302 8.30084 18.2597C8.4334 18.4892 8.46944 18.7619 8.40101 19.018L8.14201 19.984C8.10856 20.1114 8.05027 20.2309 7.97048 20.3357C7.8907 20.4405 7.791 20.5285 7.67711 20.5947C7.56322 20.6609 7.43738 20.7039 7.30682 20.7213C7.17625 20.7386 7.04354 20.7301 6.91631 20.696C6.78907 20.662 6.66981 20.6031 6.56538 20.5228C6.46095 20.4426 6.37341 20.3425 6.30778 20.2283C6.24215 20.1141 6.19973 19.988 6.18296 19.8574C6.16618 19.7267 6.17537 19.5941 6.21001 19.467L6.46901 18.501C6.50301 18.3741 6.56167 18.2552 6.64164 18.151C6.7216 18.0468 6.82131 17.9594 6.93507 17.8938C7.04882 17.8281 7.1744 17.7855 7.30462 17.7684C7.43484 17.7513 7.56716 17.76 7.69401 17.794ZM15.027 17.794C15.283 17.8627 15.5013 18.0302 15.6338 18.2597C15.7664 18.4892 15.8024 18.7619 15.734 19.018L15.476 19.984C15.4426 20.1114 15.3843 20.2309 15.3045 20.3357C15.2247 20.4405 15.125 20.5285 15.0111 20.5947C14.8972 20.6609 14.7714 20.7039 14.6408 20.7213C14.5103 20.7386 14.3775 20.7301 14.2503 20.696C14.1231 20.662 14.0038 20.6031 13.8994 20.5228C13.795 20.4426 13.7074 20.3425 13.6418 20.2283C13.5762 20.1141 13.5337 19.988 13.517 19.8574C13.5002 19.7267 13.5094 19.5941 13.544 19.467L13.802 18.501C13.836 18.3741 13.8947 18.2552 13.9746 18.151C14.0546 18.0468 14.1543 17.9594 14.2681 17.8938C14.3818 17.8281 14.5074 17.7855 14.6376 17.7684C14.7678 17.7513 14.9002 17.76 15.027 17.794ZM12.149 15.085C12.2759 15.119 12.3948 15.1777 12.499 15.2576C12.6032 15.3376 12.6906 15.4373 12.7563 15.5511C12.8219 15.6648 12.8645 15.7904 12.8816 15.9206C12.8987 16.0508 12.89 16.1831 12.856 16.31L12.597 17.276C12.563 17.4029 12.5043 17.5218 12.4244 17.626C12.3444 17.7301 12.2447 17.8176 12.1309 17.8832C12.0172 17.9489 11.8916 17.9915 11.7614 18.0086C11.6312 18.0257 11.4989 18.017 11.372 17.983C11.2452 17.949 11.1262 17.8903 11.0221 17.8104C10.9179 17.7304 10.8305 17.6307 10.7648 17.5169C10.6992 17.4032 10.6566 17.2776 10.6394 17.1474C10.6223 17.0172 10.631 16.8849 10.665 16.758L10.925 15.792C10.9937 15.536 11.1612 15.3177 11.3907 15.1852C11.6202 15.0526 11.893 15.0166 12.149 15.085ZM11.5 2C12.8224 1.99987 14.1134 2.40298 15.2008 3.15554C16.2882 3.9081 17.1203 4.97433 17.586 6.212C18.8247 6.55172 19.9217 7.27984 20.7159 8.28935C21.51 9.29886 21.9594 10.5365 21.9979 11.8204C22.0364 13.1042 21.662 14.3665 20.9298 15.4218C20.1976 16.4771 19.1461 17.2697 17.93 17.683C18.1675 17.3716 18.3414 17.0165 18.442 16.638L18.702 15.672C18.8906 14.9717 18.8192 14.2267 18.5008 13.575C18.1825 12.9234 17.6388 12.4091 16.9705 12.1274C16.3021 11.8457 15.5544 11.8156 14.8656 12.0428C14.1768 12.2699 13.5936 12.739 13.224 13.363C12.5155 13.0128 11.6976 12.9553 10.947 13.203C10.6231 12.729 10.1701 12.3579 9.6416 12.1337C9.11312 11.9095 8.53141 11.8417 7.96552 11.9382C7.39963 12.0348 6.87332 12.2917 6.44906 12.6784C6.02481 13.0651 5.72041 13.5654 5.57201 14.12L5.31301 15.085C5.17604 15.5936 5.17604 16.1294 5.31301 16.638C5.07412 16.8759 4.87762 17.1529 4.73201 17.457C3.88705 17.0273 3.18166 16.3662 2.69807 15.5509C2.21449 14.7356 1.97264 13.7996 2.00073 12.8521C2.02882 11.9045 2.32569 10.9845 2.85673 10.1993C3.38776 9.41401 4.13108 8.7959 5.00001 8.417C5.02184 6.70752 5.71629 5.07546 6.93292 3.87437C8.14955 2.67327 9.79039 1.99986 11.5 2ZM8.72901 13.93C8.85588 13.964 8.9748 14.0227 9.079 14.1026C9.18319 14.1826 9.27061 14.2823 9.33626 14.3961C9.40192 14.5098 9.44452 14.6354 9.46163 14.7656C9.47875 14.8958 9.47004 15.0281 9.43601 15.155L9.17701 16.121C9.143 16.2479 9.08434 16.3668 9.00437 16.471C8.9244 16.5751 8.82469 16.6626 8.71094 16.7282C8.59719 16.7939 8.47162 16.8365 8.3414 16.8536C8.21119 16.8707 8.07887 16.862 7.95201 16.828C7.82516 16.794 7.70624 16.7353 7.60206 16.6554C7.49787 16.5754 7.41046 16.4757 7.34481 16.3619C7.27916 16.2482 7.23655 16.1226 7.21943 15.9924C7.20231 15.8622 7.211 15.7299 7.24501 15.603L7.50501 14.637C7.57369 14.381 7.74118 14.1627 7.97069 14.0302C8.2002 13.8976 8.47295 13.8616 8.72901 13.93ZM16.063 13.93C16.1899 13.964 16.3088 14.0227 16.413 14.1026C16.5172 14.1826 16.6046 14.2823 16.6703 14.3961C16.7359 14.5098 16.7785 14.6354 16.7956 14.7656C16.8127 14.8958 16.804 15.0281 16.77 15.155L16.51 16.121C16.4789 16.2509 16.4221 16.3733 16.3429 16.4809C16.2637 16.5885 16.1637 16.6791 16.0489 16.7474C15.9341 16.8157 15.8068 16.8604 15.6745 16.8787C15.5421 16.8969 15.4075 16.8885 15.2784 16.8539C15.1494 16.8193 15.0286 16.7592 14.9232 16.6771C14.8178 16.5951 14.7299 16.4927 14.6647 16.3761C14.5995 16.2595 14.5583 16.131 14.5436 15.9982C14.5289 15.8654 14.5409 15.7311 14.579 15.603L14.838 14.637C14.872 14.5101 14.9307 14.3912 15.0106 14.287C15.0906 14.1828 15.1903 14.0954 15.3041 14.0298C15.4178 13.9641 15.5434 13.9215 15.6736 13.9044C15.8038 13.8873 15.9362 13.896 16.063 13.93Z" fill="#2F7265"/>
</g>
<defs>
<clipPath id="clip0_18765_34866">
<rect width="24" height="24" fill="white"/>
</clipPath>
</defs>
</svg>
