<svg width="40" height="40" viewBox="0 0 40 40" fill="none" xmlns="http://www.w3.org/2000/svg">
<g clip-path="url(#clip0_24515_48994)">
<path fill-rule="evenodd" clip-rule="evenodd" d="M19.9999 36.6667C29.2049 36.6667 36.6666 29.205 36.6666 20C36.6666 10.795 29.2049 3.33337 19.9999 3.33337C10.7949 3.33337 3.33325 10.795 3.33325 20C3.33325 29.205 10.7949 36.6667 19.9999 36.6667ZM14.1666 18.3334C14.8296 18.3334 15.4655 18.07 15.9344 17.6011C16.4032 17.1323 16.6666 16.4964 16.6666 15.8334C16.6666 15.1703 16.4032 14.5344 15.9344 14.0656C15.4655 13.5968 14.8296 13.3334 14.1666 13.3334C13.5035 13.3334 12.8677 13.5968 12.3988 14.0656C11.93 14.5344 11.6666 15.1703 11.6666 15.8334C11.6666 16.4964 11.93 17.1323 12.3988 17.6011C12.8677 18.07 13.5035 18.3334 14.1666 18.3334ZM14.9999 21.6667C14.5579 21.6667 14.134 21.8423 13.8214 22.1549C13.5088 22.4674 13.3333 22.8913 13.3333 23.3334C13.3333 23.7754 13.5088 24.1993 13.8214 24.5119C14.134 24.8244 14.5579 25 14.9999 25V26.6667C14.9999 27.9928 15.5267 29.2646 16.4644 30.2022C17.4021 31.1399 18.6738 31.6667 19.9999 31.6667C21.326 31.6667 22.5978 31.1399 23.5355 30.2022C24.4731 29.2646 24.9999 27.9928 24.9999 26.6667V25C25.4419 25 25.8659 24.8244 26.1784 24.5119C26.491 24.1993 26.6666 23.7754 26.6666 23.3334C26.6666 22.8913 26.491 22.4674 26.1784 22.1549C25.8659 21.8423 25.4419 21.6667 24.9999 21.6667H14.9999ZM28.2483 12.8067C28.1791 12.599 28.0698 12.4069 27.9264 12.2414C27.783 12.076 27.6084 11.9404 27.4127 11.8424C27.2169 11.7444 27.0037 11.686 26.7853 11.6704C26.5669 11.6549 26.3476 11.6825 26.1399 11.7517C24.979 12.1423 23.9465 12.8418 23.1533 13.775C22.5395 14.4665 22.0642 15.2694 21.7533 16.14C21.6698 16.3905 21.6471 16.6571 21.6869 16.918C21.7267 17.179 21.8279 17.4267 21.9822 17.6409C22.1365 17.855 22.3394 18.0295 22.5743 18.1499C22.8092 18.2703 23.0693 18.3332 23.3333 18.3334C24.1666 18.3767 24.9199 18.945 25.4883 19.5117C25.642 19.6709 25.8259 19.7979 26.0292 19.8852C26.2326 19.9726 26.4513 20.0185 26.6726 20.0205C26.8939 20.0224 27.1133 19.9802 27.3182 19.8964C27.523 19.8126 27.7091 19.6889 27.8656 19.5324C28.0221 19.3759 28.1458 19.1898 28.2296 18.985C28.3134 18.7801 28.3556 18.5607 28.3537 18.3394C28.3517 18.1181 28.3058 17.8994 28.2184 17.696C28.1311 17.4927 28.0041 17.3088 27.8449 17.155C27.2583 16.595 26.6349 16.0867 25.9166 15.7017C26.3483 15.31 26.8333 15.0584 27.3749 14.8417C27.7444 14.6683 28.0375 14.3653 28.1984 13.9902C28.3594 13.6151 28.3771 13.194 28.2483 12.8067Z" fill="#F3ECD2"/>
</g>
<defs>
<clipPath id="clip0_24515_48994">
<rect width="40" height="40" fill="white"/>
</clipPath>
</defs>
</svg>
