<svg xmlns="http://www.w3.org/2000/svg" width="24" height="24" fill="currentColor" viewBox="0 0 24 24">
  <g clip-path="url(#a)">
    <path fill-rule="evenodd" d="M12 22c5.523 0 10-4.477 10-10S17.523 2 12 2 2 6.477 2 12s4.477 10 10 10ZM8.5 11a1.5 1.5 0 1 0 0-3 1.5 1.5 0 0 0 0 3Zm.5 2a1 1 0 0 0 0 2v1a3 3 0 0 0 6 0v-1a1 1 0 0 0 0-2H9Zm7.949-5.316a1 1 0 0 0-1.265-.633 4.045 4.045 0 0 0-1.792 1.214 4.332 4.332 0 0 0-.84 1.419A1 1 0 0 0 14 11c.5.026.952.367 1.293.707a1 1 0 1 0 1.414-1.414c-.352-.336-.726-.641-1.157-.872.259-.235.55-.386.875-.516a1 1 0 0 0 .524-1.221Z" clip-rule="evenodd"/>
  </g>
  <defs>
    <clipPath id="a">
      <path d="M0 0h24v24H0z"/>
    </clipPath>
  </defs>
</svg>
