<svg xmlns="http://www.w3.org/2000/svg" width="24" height="24" fill="currentColor" viewBox="0 0 24 24">
  <g clip-path="url(#a)">
    <path fill-rule="evenodd" d="M12 2c5.523 0 10 4.477 10 10s-4.477 10-10 10S2 17.523 2 12 6.477 2 12 2Zm2 10h-4a1 1 0 0 0-1 1v3a3 3 0 0 0 6 0v-3a1 1 0 0 0-1-1Zm-4-5H8a1 1 0 0 0 0 2h2a1 1 0 1 0 0-2Zm6 0h-2a1 1 0 0 0-.117 1.993L14 9h2a1 1 0 0 0 .117-1.993L16 7Z" clip-rule="evenodd"/>
  </g>
  <defs>
    <clipPath id="a">
      <path d="M0 0h24v24H0z"/>
    </clipPath>
  </defs>
</svg>
