<svg width="40" height="40" viewBox="0 0 40 40" fill="none" xmlns="http://www.w3.org/2000/svg">
<g clip-path="url(#clip0_24515_48974)">
<path fill-rule="evenodd" clip-rule="evenodd" d="M19.9999 3.33337C29.2049 3.33337 36.6666 10.795 36.6666 20C36.6666 29.205 29.2049 36.6667 19.9999 36.6667C10.7949 36.6667 3.33325 29.205 3.33325 20C3.33325 10.795 10.7949 3.33337 19.9999 3.33337ZM23.3333 20H16.6666C16.2246 20 15.8006 20.1756 15.4881 20.4882C15.1755 20.8008 14.9999 21.2247 14.9999 21.6667V26.6667C14.9999 27.9928 15.5267 29.2646 16.4644 30.2022C17.4021 31.1399 18.6738 31.6667 19.9999 31.6667C21.326 31.6667 22.5978 31.1399 23.5355 30.2022C24.4731 29.2646 24.9999 27.9928 24.9999 26.6667V21.6667C24.9999 21.2247 24.8243 20.8008 24.5118 20.4882C24.1992 20.1756 23.7753 20 23.3333 20ZM16.6666 11.6667H13.3333C12.8912 11.6667 12.4673 11.8423 12.1547 12.1549C11.8422 12.4674 11.6666 12.8913 11.6666 13.3334C11.6666 13.7754 11.8422 14.1993 12.1547 14.5119C12.4673 14.8244 12.8912 15 13.3333 15H16.6666C17.1086 15 17.5325 14.8244 17.8451 14.5119C18.1577 14.1993 18.3333 13.7754 18.3333 13.3334C18.3333 12.8913 18.1577 12.4674 17.8451 12.1549C17.5325 11.8423 17.1086 11.6667 16.6666 11.6667ZM26.6666 11.6667H23.3333C22.9085 11.6672 22.4999 11.8298 22.191 12.1215C21.8821 12.4131 21.6962 12.8116 21.6713 13.2357C21.6464 13.6598 21.7844 14.0773 22.057 14.4031C22.3297 14.7289 22.7164 14.9382 23.1383 14.9884L23.3333 15H26.6666C27.0914 14.9996 27.5 14.8369 27.8089 14.5453C28.1178 14.2537 28.3036 13.8551 28.3285 13.431C28.3534 13.007 28.2155 12.5894 27.9428 12.2637C27.6702 11.9379 27.2834 11.7285 26.8616 11.6784L26.6666 11.6667Z" fill="#F3ECD2"/>
</g>
<defs>
<clipPath id="clip0_24515_48974">
<rect width="40" height="40" fill="white"/>
</clipPath>
</defs>
</svg>
