<svg width="20" height="20" viewBox="0 0 20 20" fill="none" xmlns="http://www.w3.org/2000/svg">
<g clip-path="url(#clip0_22648_21896)">
<path fill-rule="evenodd" clip-rule="evenodd" d="M3.33341 10C3.33341 7.755 4.91841 5.6525 7.03758 4.40333C9.19092 3.13416 11.4876 2.965 12.8251 3.99333C13.2184 4.29583 13.4359 4.79333 13.6134 5.535C13.6567 5.715 13.6951 5.89833 13.7351 6.09083L13.7476 6.15416C13.7826 6.32416 13.8192 6.50167 13.8592 6.675C13.9467 7.06 14.0626 7.485 14.2542 7.87083C14.5417 8.45 14.9542 8.94166 15.3126 9.35833L15.4109 9.47166C15.7484 9.86333 16.0392 10.2008 16.2692 10.5758C16.5092 10.9658 16.6651 11.3708 16.6917 11.855C16.7184 12.3458 16.6159 12.98 16.2384 13.8275C15.1634 16.2475 12.0676 17.1933 8.96175 16.4508C5.91008 15.7208 3.33341 13.4533 3.33341 10ZM13.8417 2.6725C11.7067 1.03083 8.58675 1.55583 6.19175 2.9675C3.76258 4.39916 1.66675 6.96583 1.66675 10C1.66675 14.4625 5.03092 17.225 8.57508 18.0717C12.0642 18.9058 16.2184 17.9767 17.7617 14.505C18.2176 13.4775 18.4001 12.5783 18.3559 11.7642C18.3109 10.9433 18.0392 10.2725 17.6892 9.7025C17.3842 9.20666 17.0059 8.7675 16.6809 8.3925L16.5776 8.2725C16.2117 7.8475 15.9301 7.49917 15.7459 7.12917C15.6459 6.92583 15.5651 6.65833 15.4842 6.30416C15.4478 6.14203 15.4131 5.97952 15.3801 5.81666L15.3667 5.75333C15.3267 5.56 15.2834 5.35416 15.2342 5.1475C15.0426 4.34416 14.7184 3.3475 13.8417 2.6725ZM8.33342 10C8.33342 9.55797 8.50901 9.13405 8.82157 8.82149C9.13413 8.50893 9.55805 8.33333 10.0001 8.33333C10.4421 8.33333 10.866 8.50893 11.1786 8.82149C11.4912 9.13405 11.6667 9.55797 11.6667 10C11.6667 10.442 11.4912 10.8659 11.1786 11.1785C10.866 11.4911 10.4421 11.6667 10.0001 11.6667C9.55805 11.6667 9.13413 11.4911 8.82157 11.1785C8.50901 10.8659 8.33342 10.442 8.33342 10ZM10.0001 6.66666C9.11603 6.66666 8.26818 7.01785 7.64306 7.64298C7.01794 8.2681 6.66675 9.11594 6.66675 10C6.66675 10.8841 7.01794 11.7319 7.64306 12.357C8.26818 12.9821 9.11603 13.3333 10.0001 13.3333C10.8841 13.3333 11.732 12.9821 12.3571 12.357C12.9822 11.7319 13.3334 10.8841 13.3334 10C13.3334 9.11594 12.9822 8.2681 12.3571 7.64298C11.732 7.01785 10.8841 6.66666 10.0001 6.66666Z" fill="#454545"/>
</g>
<defs>
<clipPath id="clip0_22648_21896">
<rect width="20" height="20" fill="white"/>
</clipPath>
</defs>
</svg>
