<svg width="66" height="66" viewBox="0 0 66 66" fill="none" xmlns="http://www.w3.org/2000/svg">
<path d="M32.9458 47.1869C25.6213 47.2542 18.7946 41.3989 18.7744 33.0437C18.7542 24.6683 25.6079 18.7523 33.0265 18.813C40.889 18.8736 47.2113 25.2006 47.1777 33.1043C47.1373 41.0957 40.5258 47.2947 32.9458 47.1869Z" fill="#B0DFD1"/>
<path d="M35.5302 12.1971C35.5302 12.7833 35.5437 13.3763 35.5302 13.9625C35.4898 15.2495 34.4473 16.3275 33.1963 16.3949C31.8108 16.4623 30.6472 15.5931 30.4858 14.2792C30.3244 12.9046 30.3244 11.5098 30.4858 10.1285C30.6405 8.78767 31.8243 7.91847 33.2367 8.00606C34.4608 8.08692 35.4831 9.15827 35.5235 10.425C35.5437 11.018 35.5302 11.6109 35.5302 12.1971Z" fill="#B0DFD1"/>
<path d="M35.5272 53.7987C35.5272 54.3849 35.5407 54.9778 35.5272 55.5641C35.4869 56.851 34.4444 57.9291 33.2001 57.9965C31.8146 58.0706 30.6443 57.2014 30.4896 55.8807C30.3281 54.5062 30.3281 53.1114 30.4896 51.7301C30.6443 50.3892 31.828 49.52 33.2404 49.6076C34.4645 49.6885 35.4936 50.7598 35.534 52.0266C35.5407 52.6195 35.5272 53.2125 35.5272 53.7987Z" fill="#B0DFD1"/>
<path d="M19.5666 22.0208C18.7528 22.0073 18.1676 21.7849 17.6833 21.32C16.8695 20.5182 16.049 19.7231 15.262 18.8943C14.2868 17.8769 14.2935 16.3271 15.2553 15.3299C16.1969 14.3596 17.7439 14.2788 18.7729 15.2221C19.6675 16.0374 20.5284 16.8931 21.3422 17.7893C22.0821 18.6113 22.2098 19.5883 21.7189 20.5923C21.2615 21.5289 20.4679 21.9938 19.5666 22.0208Z" fill="#B0DFD1"/>
<path d="M14.5521 48.872C14.5319 48.1645 14.8077 47.585 15.292 47.0998C16.0722 46.3115 16.8456 45.5232 17.646 44.755C18.702 43.7376 20.222 43.7376 21.2376 44.7415C22.2532 45.7455 22.2869 47.2616 21.2712 48.3329C20.4978 49.1482 19.7041 49.95 18.8836 50.7182C18.063 51.4863 17.0945 51.6952 16.052 51.2235C15.0566 50.7721 14.5723 49.9568 14.5521 48.872Z" fill="#B0DFD1"/>
<path d="M43.9764 19.1845C43.9495 18.7735 44.2253 18.1738 44.723 17.6685C45.5032 16.8801 46.2767 16.0918 47.0703 15.3236C48.1196 14.3062 49.6531 14.3129 50.6619 15.3034C51.6708 16.2939 51.6977 17.8369 50.6956 18.8948C49.9221 19.7101 49.1284 20.5119 48.3079 21.2801C47.4873 22.0482 46.5188 22.2436 45.4763 21.7854C44.5011 21.3542 44.0033 20.5726 43.9764 19.1845Z" fill="#B0DFD1"/>
<path d="M46.2626 43.9941C47.2378 43.9941 47.8431 44.2704 48.3409 44.7555C49.1211 45.5169 49.8945 46.2851 50.6546 47.0667C51.6903 48.1448 51.6836 49.681 50.6613 50.6985C49.6389 51.7092 48.0987 51.6957 47.0293 50.6513C46.2222 49.863 45.4151 49.0814 44.6484 48.2593C43.8816 47.444 43.7673 46.467 44.2112 45.463C44.6484 44.486 45.4756 44.0548 46.2626 43.9941Z" fill="#B0DFD1"/>
<path d="M53.8215 35.5382C53.2296 35.5382 52.6445 35.5517 52.0526 35.5382C50.6469 35.5046 49.5977 34.3995 49.6044 32.9778C49.6111 31.5965 50.6873 30.4982 52.0728 30.4847C53.2364 30.4712 54.3932 30.4712 55.5568 30.4847C56.9356 30.5049 57.9915 31.61 57.9983 33.0047C58.005 34.4063 56.9625 35.5113 55.5904 35.545C54.9985 35.5517 54.4134 35.5382 53.8215 35.5382Z" fill="#B0DFD1"/>
<path d="M12.1835 35.537C11.5916 35.537 11.0065 35.5505 10.4146 35.537C9.04251 35.5033 8 34.405 8 33.0035C8 31.6087 9.05596 30.5037 10.4348 30.4835C11.5983 30.4632 12.7552 30.47 13.9187 30.4835C15.3245 30.4969 16.4006 31.6155 16.3939 33.0237C16.3939 34.4117 15.3312 35.51 13.9524 35.537C13.3605 35.5505 12.7686 35.537 12.1835 35.537Z" fill="#B0DFD1"/>
</svg>
