<svg width="66" height="66" viewBox="0 0 66 66" fill="none" xmlns="http://www.w3.org/2000/svg">
<path d="M8 29.0294C8 27.7987 8 26.5582 8 25.3275C8.01955 25.2006 8.04887 25.0736 8.05864 24.9466C8.34206 22.5341 9.04572 20.2485 10.2087 18.1094C14.3916 10.3736 23.1775 6.39821 31.7778 8.60565C43.828 11.7117 49.7113 25.0052 43.9843 36.0425C39.1271 45.3997 27.2431 49.0234 17.988 43.9443C17.5287 43.6904 17.128 43.6611 16.6491 43.7978C14.0202 44.5401 11.3912 45.2629 8.7623 45.9857C8.51797 46.0541 8.27365 46.1811 8 46.0834C8 46.0541 8 46.015 8 45.9857C8.05864 45.8197 8.12705 45.6536 8.17591 45.4778C8.91867 42.8015 9.65164 40.135 10.4042 37.4587C10.5312 36.9997 10.5019 36.6187 10.2478 36.2085C10.0035 35.808 9.81779 35.3783 9.61255 34.9485C8.74275 33.0731 8.28342 31.0806 8 29.0294ZM25.6794 29.4592C25.6794 30.1527 25.6794 30.6215 25.6794 31.0904C25.6794 31.3638 25.7967 31.5201 26.0801 31.5201C26.7349 31.5201 27.3799 31.5201 28.0347 31.5201C28.3572 31.5201 28.455 31.3541 28.455 31.061C28.4452 30.641 28.4745 30.2113 28.4452 29.7913C28.4257 29.4201 28.5625 29.1466 28.8361 28.9024C29.618 28.2089 30.39 27.5252 31.1328 26.7927C33.0776 24.8685 33.4001 21.8601 31.9342 19.5843C30.4682 17.2792 27.6047 16.3024 25.0637 17.2792C22.9234 18.0996 21.7018 19.7015 21.3207 21.948C21.2229 22.5438 21.3109 22.6415 21.907 22.6513C22.4152 22.6513 22.9137 22.622 23.4219 22.661C23.8812 22.6903 24.0767 22.5243 24.1646 22.0652C24.5067 20.4243 26.1485 19.3987 27.7513 19.7992C28.8654 20.0824 29.6082 20.7857 29.9307 21.8796C30.263 23.0127 29.9698 24.0089 29.1391 24.8294C28.4257 25.5327 27.7025 26.2555 26.9108 26.8708C25.9629 27.6034 25.3569 28.4238 25.6794 29.4592ZM28.455 35.9643C28.455 35.6225 28.455 35.2806 28.455 34.9485C28.455 34.6652 28.3182 34.5383 28.0445 34.5383C27.3995 34.5383 26.7447 34.5383 26.0997 34.5383C25.8163 34.5383 25.6794 34.6652 25.6892 34.9485C25.6892 35.3001 25.6892 35.6615 25.6892 36.0132C25.6892 37.3708 25.6892 37.3708 27.0574 37.3708C28.455 37.3708 28.455 37.3708 28.455 35.9643Z" fill="#B0DFD1"/>
<path d="M40.0947 57.9807C38.0717 57.6974 36.1268 57.1602 34.3091 56.1932C31.4553 54.6793 29.2368 52.5402 27.6438 49.737C27.2627 49.0728 27.2822 49.0337 28.0445 49.0044C33.2633 48.7797 37.8273 46.9044 41.6975 43.4174C45.8217 39.7058 48.2161 35.0565 48.8416 29.5281C48.9002 29.0104 48.9198 28.4927 48.9491 27.975C48.9882 27.3988 49.0468 27.3499 49.5355 27.6332C53.9138 30.1141 56.6698 33.816 57.6666 38.7486C58.4387 42.5481 57.8621 46.1816 56.0052 49.5904C55.8195 49.9323 55.7902 50.2449 55.8977 50.616C56.4939 52.7258 57.0705 54.8356 57.6569 56.9551C57.6959 57.1114 57.7448 57.2677 57.7839 57.4239C57.8914 57.9026 57.8425 57.9612 57.3734 57.8439C56.5525 57.6291 55.7413 57.4044 54.9302 57.1798C53.474 56.7793 52.0178 56.3788 50.5616 55.9686C50.288 55.8905 50.0241 55.8123 49.7602 55.9686C47.8154 57.0723 45.7044 57.6974 43.4957 58.0002C42.362 57.9807 41.2284 57.9807 40.0947 57.9807Z" fill="#B0DFD1"/>
</svg>
