<svg width="66" height="55" viewBox="0 0 66 55" fill="none" xmlns="http://www.w3.org/2000/svg">
<path d="M57.9804 19.8673C57.6774 21.8375 57.3158 23.7879 56.7293 25.6888C55.4001 30.0649 53.3671 34.035 50.0048 37.1834C47.1997 39.8169 43.8766 41.5396 40.2602 42.7079C39.5174 42.9455 38.7648 43.1435 38.0122 43.3613C37.846 43.4108 37.6799 43.49 37.4942 43.4108C37.4746 43.1831 37.6408 43.0445 37.7385 42.8861C40.094 39.2625 41.8436 35.3815 42.6744 31.1044C43.1337 28.7481 43.2706 26.372 42.9676 23.9859C42.9187 23.5998 43.124 23.4513 43.3781 23.283C45.6261 21.7682 48.0696 20.6593 50.6402 19.8475C52.7513 19.1743 54.9114 18.7287 57.1105 18.4713C57.4331 18.4317 57.7263 18.4515 57.9804 18.6792C57.9804 19.0753 57.9804 19.4713 57.9804 19.8673Z" fill="#B0DFD1"/>
<path d="M57.9804 38.3417C56.915 39.9852 55.7617 41.5495 54.3836 42.9356C52.5265 44.7969 50.4544 46.3315 47.8937 47.0641C44.9615 47.9056 42.1368 47.4403 39.3805 46.2919C39.2926 46.2522 39.1557 46.2225 39.1655 46.1235C39.1851 45.9453 39.3708 45.9552 39.5076 45.9156C41.7849 45.282 43.9938 44.4602 46.0952 43.3613C49.5259 41.5792 52.4776 39.1932 54.7843 36.0448C55.0384 35.6983 55.2339 35.6785 55.576 35.9161C56.4068 36.5002 57.2278 37.0843 57.9999 37.7477C57.9804 37.9457 57.9804 38.1437 57.9804 38.3417Z" fill="#B0DFD1"/>
<path d="M40.3286 26.3517C40.2797 30.0248 39.4587 33.3019 38.061 36.4503C36.8881 39.0938 35.4025 41.5392 33.6041 43.7965C33.1838 44.3212 32.8613 44.3509 32.4605 43.846C29.7727 40.4402 27.7202 36.6879 26.5375 32.4802C25.218 27.7675 25.5112 23.144 27.163 18.5699C28.3946 15.174 30.1637 12.0751 32.4117 9.26338C32.8417 8.72875 33.174 8.71885 33.5943 9.25348C36.7904 13.3424 39.1166 17.8571 40.0256 23.0351C40.2211 24.1934 40.2797 25.3815 40.3286 26.3517Z" fill="#B0DFD1"/>
<path d="M8.00585 19.293C7.99608 18.6198 8.20133 18.4019 8.78777 18.4712C13.6454 19.0356 18.2197 20.4415 22.3834 23.1047C22.8721 23.4116 23.0773 23.7185 23.0089 24.3621C22.5788 28.5599 23.3803 32.5795 24.9148 36.4705C25.8238 38.7674 26.9869 40.9356 28.3357 42.9949C28.4139 43.1137 28.5801 43.2325 28.5019 43.381C28.4139 43.5494 28.238 43.4207 28.1011 43.391C23.8006 42.3118 19.8226 40.5693 16.4408 37.5991C13.8605 35.3319 12.0034 32.5399 10.6253 29.4114C9.24715 26.2729 8.41636 22.9859 8.00585 19.59C8.01563 19.4613 8.00585 19.3524 8.00585 19.293Z" fill="#B0DFD1"/>
<path d="M26.8894 46.1222C26.8405 46.1618 26.8014 46.2212 26.7526 46.241C23.9474 47.4191 21.0739 47.9142 18.0928 47.0528C15.7764 46.3796 13.8411 45.0331 12.1014 43.3797C10.606 41.954 9.31579 40.3402 8.22111 38.5779C7.8888 38.0532 7.91812 37.8255 8.39704 37.4394C9.09099 36.8651 9.82404 36.3503 10.5669 35.8454C10.821 35.6771 10.9774 35.6771 11.1729 35.9345C14.6817 40.7263 19.4514 43.6371 24.9737 45.4291C25.4819 45.5974 26 45.7459 26.5082 45.9043C26.6353 45.9538 26.7917 45.9538 26.8894 46.1222Z" fill="#B0DFD1"/>
<path d="M17.8094 17.4218C17.9952 15.9368 18.2884 14.4913 18.6793 13.0656C18.8846 12.3033 19.1289 11.5508 19.3831 10.8083C19.5785 10.234 19.8815 10.135 20.3898 10.442C22.2175 11.5508 23.9084 12.8577 25.5016 14.2933C25.7264 14.4913 25.7361 14.6794 25.6189 14.9368C24.8565 16.5902 24.2212 18.303 23.7618 20.0752C23.6738 20.4217 23.5468 20.5009 23.2242 20.3029C21.6213 19.3129 19.9402 18.5109 18.1906 17.8278C17.8192 17.6793 17.8094 17.6595 17.8094 17.4218Z" fill="#B0DFD1"/>
<path d="M48.2162 17.421C48.2456 17.6587 48.0794 17.7379 47.9035 17.8072C46.1051 18.4903 44.3751 19.3319 42.7331 20.3318C42.4887 20.4803 42.3421 20.4407 42.2737 20.1536C41.8045 18.322 41.1399 16.5498 40.3482 14.837C40.2407 14.6093 40.3189 14.4707 40.485 14.3222C42.0977 12.8668 43.818 11.5401 45.675 10.4114C46.0757 10.1639 46.4081 10.2332 46.5644 10.6392C47.3855 12.8272 47.8839 15.1043 48.2162 17.421Z" fill="#B0DFD1"/>
</svg>
