<svg width="66" height="66" viewBox="0 0 66 66" fill="none" xmlns="http://www.w3.org/2000/svg">
<g clip-path="url(#clip0_22680_5589)">
<path d="M22.3498 8C23.0248 8.29343 23.4944 8.74335 23.4651 9.5356C23.4357 10.3572 22.7803 10.9245 21.89 10.9245C18.4269 10.9245 14.9638 10.9343 11.5007 10.9147C11.0311 10.9147 10.9137 11.0223 10.9137 11.5016C10.9333 14.964 10.9333 18.4264 10.9235 21.8889C10.9235 22.9941 9.99411 23.7179 9.00604 23.4049C8.47777 23.2387 8.21364 22.8181 7.99841 22.3584C7.99841 17.9276 7.99841 13.4969 7.99841 9.0759C8.2332 8.58685 8.58538 8.23474 9.07452 8C13.4964 8 17.928 8 22.3498 8Z" fill="#B0DFD1"/>
<path d="M56.9125 8C57.7636 8.39124 58.0082 9.05634 57.9984 9.96596C57.969 13.937 57.9788 17.9081 57.9886 21.8693C57.9886 22.4953 57.7636 22.9844 57.2158 23.2876C56.7168 23.5614 56.2081 23.5321 55.7288 23.2289C55.2396 22.9061 55.0538 22.4366 55.0538 21.8498C55.0635 18.3873 55.0538 14.9249 55.0635 11.4527C55.0635 11.0419 54.9853 10.9049 54.5353 10.9049C51.0624 10.9343 47.5797 10.9343 44.097 10.9245C43.1285 10.9245 42.4437 10.23 42.522 9.33998C42.5807 8.63576 43.0404 8.2543 43.6372 8C48.059 8 52.4907 8 56.9125 8Z" fill="#B0DFD1"/>
<path d="M7.99841 43.6327C8.02776 43.574 8.06689 43.5251 8.09624 43.4664C8.42886 42.7329 9.05496 42.3905 9.77889 42.547C10.4637 42.6937 10.9235 43.2708 10.9235 44.0435C10.9235 47.5255 10.9333 51.0075 10.9137 54.4895C10.9137 54.9785 11.0507 55.0666 11.5104 55.0666C14.9638 55.047 18.4073 55.0568 21.8607 55.0568C22.6629 55.0568 23.24 55.4578 23.4259 56.1229C23.6803 57.0717 23.0053 57.9617 21.9781 57.9813C20.7943 58.0008 19.6008 57.9813 18.4171 57.9813C15.5997 57.9813 12.792 57.9617 9.97454 57.9911C9.05496 58.0106 8.38973 57.7465 7.99841 56.9054C7.99841 52.4844 7.99841 48.0537 7.99841 43.6327Z" fill="#B0DFD1"/>
<path d="M33.0424 50.0688C32.6119 51.5555 31.7608 52.6216 30.2836 53.0911C27.7499 53.9029 25.2748 52.0348 25.265 49.2961C25.2553 43.5352 25.265 37.7742 25.2553 32.023C25.2553 31.221 25.3629 31.3384 24.5509 31.3286C22.4182 31.3188 20.2856 31.3481 18.1529 31.3188C16.617 31.2992 15.4235 30.6048 14.7094 29.2257C14.0148 27.8857 14.0931 26.5457 14.9344 25.2938C15.7268 24.1103 16.8812 23.5723 18.2997 23.5821C20.9704 23.5919 23.6411 23.5821 26.302 23.5821C28.2194 23.5821 30.1369 23.5821 32.0739 23.5528C30.3032 23.1322 28.9238 22.1834 28.1021 20.5305C27.5542 19.4154 27.3977 18.2417 27.6618 17.0191C28.2194 14.4956 30.3521 12.7449 32.9348 12.7057C35.3609 12.6666 37.6305 14.3783 38.2273 16.7453C38.6186 18.2906 38.3936 19.748 37.5327 21.088C36.6718 22.428 35.4196 23.1909 33.9033 23.5821C38.4718 23.5821 43.0502 23.5821 47.6188 23.5821C49.5362 23.5821 51.0134 24.6189 51.5221 26.3012C52.2852 28.8051 50.4656 31.2895 47.7949 31.3188C45.6133 31.3481 43.4317 31.3384 41.2502 31.309C40.8002 31.2992 40.6925 31.4264 40.6925 31.8763C40.7121 37.6666 40.7023 43.4569 40.7023 49.2472C40.7023 51.1056 39.6653 52.5629 38.0316 53.0813C35.9087 53.7562 33.6978 52.5434 33.1011 50.372C33.0913 50.284 33.0619 50.1764 33.0424 50.0688Z" fill="#B0DFD1"/>
<path d="M50.2211 57.9799C48.2059 57.9799 46.1906 57.9799 44.1656 57.9799C43.1775 57.9799 42.5123 57.3832 42.5123 56.5225C42.5123 55.6618 43.1775 55.0554 44.1656 55.0554C47.6287 55.0554 51.0918 55.0456 54.5647 55.0652C54.9756 55.0652 55.0734 54.9576 55.0734 54.5566C55.0538 51.055 55.0636 47.5632 55.0636 44.0616C55.0636 43.3476 55.4452 42.7999 56.0517 42.5847C56.6289 42.3891 57.2843 42.5847 57.6756 43.0738C57.8909 43.3476 57.9887 43.6704 57.9887 44.0225C57.9887 48.1696 57.9887 52.3167 57.9887 56.4638C57.9887 57.3637 57.3528 57.9701 56.4234 57.9701C54.3593 57.9799 52.2951 57.9799 50.2211 57.9799Z" fill="#B0DFD1"/>
</g>
<defs>
<clipPath id="clip0_22680_5589">
<rect width="50" height="50" fill="white" transform="translate(8 8)"/>
</clipPath>
</defs>
</svg>
