<svg width="40" height="40" viewBox="0 0 40 40" fill="none" xmlns="http://www.w3.org/2000/svg">
<g clip-path="url(#clip0_24515_49014)">
<path d="M19.9999 3.33337C29.2049 3.33337 36.6666 10.795 36.6666 20C36.6666 29.205 29.2049 36.6667 19.9999 36.6667C10.7949 36.6667 3.33325 29.205 3.33325 20C3.33325 10.795 10.7949 3.33337 19.9999 3.33337ZM25.2783 20H14.7216C13.1183 20 11.8049 21.2334 11.6766 22.805L11.6666 23.055V23.3334C11.6694 25.5103 12.524 27.5997 14.0475 29.1547C15.5711 30.7097 17.6426 31.6067 19.819 31.654C21.9955 31.7012 24.104 30.8949 25.6936 29.4076C27.2832 27.9202 28.2276 25.8698 28.3249 23.695L28.3333 23.3334V23.055C28.3333 21.4517 27.0999 20.1384 25.5283 20.01L25.2783 20ZM24.9999 23.3334C25.0012 24.6349 24.4949 25.8856 23.5886 26.8197C22.6824 27.7539 21.4476 28.2978 20.1466 28.336C18.8457 28.3742 17.5811 27.9036 16.6216 27.0243C15.6621 26.1449 15.0834 24.926 15.0083 23.6267L14.9999 23.3334H24.9999ZM14.9999 10C14.5579 10 14.134 10.1756 13.8214 10.4882C13.5088 10.8008 13.3333 11.2247 13.3333 11.6667V15C13.3333 15.4421 13.5088 15.866 13.8214 16.1786C14.134 16.4911 14.5579 16.6667 14.9999 16.6667C15.4419 16.6667 15.8659 16.4911 16.1784 16.1786C16.491 15.866 16.6666 15.4421 16.6666 15V11.6667C16.6666 11.2247 16.491 10.8008 16.1784 10.4882C15.8659 10.1756 15.4419 10 14.9999 10ZM23.8216 10.4884L22.1549 12.155C21.8425 12.4676 21.6669 12.8914 21.6669 13.3334C21.6669 13.7753 21.8425 14.1992 22.1549 14.5117L23.8216 16.1784C24.1359 16.482 24.5569 16.65 24.9939 16.6462C25.4309 16.6424 25.8489 16.4671 26.158 16.1581C26.467 15.8491 26.6422 15.431 26.646 14.994C26.6498 14.557 26.4818 14.136 26.1783 13.8217L25.6899 13.3334L26.1783 12.845C26.4818 12.5307 26.6498 12.1097 26.646 11.6727C26.6422 11.2357 26.467 10.8177 26.158 10.5087C25.8489 10.1997 25.4309 10.0244 24.9939 10.0206C24.5569 10.0168 24.1359 10.1848 23.8216 10.4884Z" fill="#F3ECD2"/>
</g>
<defs>
<clipPath id="clip0_24515_49014">
<rect width="40" height="40" fill="white"/>
</clipPath>
</defs>
</svg>
