<svg width="40" height="40" viewBox="0 0 40 40" fill="none" xmlns="http://www.w3.org/2000/svg">
<g clip-path="url(#clip0_24515_49009)">
<path fill-rule="evenodd" clip-rule="evenodd" d="M19.9999 3.33337C29.2049 3.33337 36.6666 10.795 36.6666 20C36.6666 29.205 29.2049 36.6667 19.9999 36.6667C10.7949 36.6667 3.33325 29.205 3.33325 20C3.33325 10.795 10.7949 3.33337 19.9999 3.33337ZM23.3066 23.75C22.4233 24.53 21.2683 25 19.9999 25C18.7818 25.0022 17.6053 24.5575 16.6933 23.75C16.3617 23.4574 15.9275 23.3085 15.4862 23.336C15.0449 23.3635 14.6325 23.5652 14.3399 23.8967C14.0473 24.2282 13.8984 24.6624 13.9259 25.1038C13.9534 25.5451 14.1551 25.9574 14.4866 26.25C16.0082 27.5946 17.9694 28.3357 19.9999 28.3334C22.0306 28.3362 23.9919 27.595 25.5133 26.25C25.8448 25.9574 26.0465 25.5451 26.074 25.1038C26.1015 24.6624 25.9525 24.2282 25.6599 23.8967C25.3673 23.5652 24.955 23.3635 24.5136 23.336C24.0723 23.3085 23.6381 23.4574 23.3066 23.75ZM14.1666 13.3334C12.3549 13.3334 10.9033 14.4667 10.1766 15.92C9.98555 16.3003 9.94719 16.7392 10.0694 17.1468C10.1915 17.5544 10.465 17.8998 10.8337 18.1123C11.2023 18.3248 11.6383 18.3882 12.0523 18.2895C12.4662 18.1909 12.8267 17.9376 13.0599 17.5817L13.1566 17.4134C13.4266 16.8734 13.8399 16.6667 14.1666 16.6667C14.4499 16.6667 14.8033 16.825 15.0683 17.2267L15.1766 17.4134C15.3767 17.805 15.7234 18.1017 16.1413 18.2388C16.5592 18.3759 17.0143 18.3422 17.4075 18.1452C17.8007 17.9482 18.1 17.6037 18.2404 17.1869C18.3807 16.7701 18.3506 16.3147 18.1566 15.92C17.4283 14.4667 15.9783 13.3334 14.1666 13.3334ZM25.8333 13.3334C24.0216 13.3334 22.5716 14.4667 21.8433 15.92C21.6522 16.3003 21.6139 16.7392 21.736 17.1468C21.8582 17.5544 22.1317 17.8998 22.5003 18.1123C22.869 18.3248 23.305 18.3882 23.7189 18.2895C24.1329 18.1909 24.4934 17.9376 24.7266 17.5817L24.8233 17.4134C25.0933 16.8734 25.5066 16.6667 25.8333 16.6667C26.1166 16.6667 26.4699 16.825 26.7349 17.2267L26.8433 17.4134C26.9403 17.6108 27.0754 17.787 27.2409 17.932C27.4063 18.0769 27.5988 18.1876 27.8073 18.2578C28.0157 18.328 28.236 18.3562 28.4555 18.3408C28.6749 18.3255 28.8891 18.2668 29.0857 18.1683C29.2824 18.0698 29.4576 17.9333 29.6012 17.7667C29.7449 17.6001 29.8541 17.4067 29.9227 17.1978C29.9912 16.9888 30.0177 16.7683 30.0007 16.549C29.9836 16.3297 29.9233 16.1159 29.8233 15.92C29.0966 14.4667 27.6449 13.3334 25.8333 13.3334Z" fill="#D3DFD3"/>
</g>
<defs>
<clipPath id="clip0_24515_49009">
<rect width="40" height="40" fill="white"/>
</clipPath>
</defs>
</svg>
