<svg width="30" height="30" viewBox="0 0 30 30" fill="none" xmlns="http://www.w3.org/2000/svg">
<g clip-path="url(#clip0_22626_20514)">
<path fill-rule="evenodd" clip-rule="evenodd" d="M15 5C12.3478 5 9.8043 6.05357 7.92893 7.92893C6.05357 9.8043 5 12.3478 5 15C5 17.6522 6.05357 20.1957 7.92893 22.0711C9.8043 23.9464 12.3478 25 15 25C17.6522 25 20.1957 23.9464 22.0711 22.0711C23.9464 20.1957 25 17.6522 25 15C25 12.3478 23.9464 9.8043 22.0711 7.92893C20.1957 6.05357 17.6522 5 15 5ZM2.5 15C2.5 8.09625 8.09625 2.5 15 2.5C21.9037 2.5 27.5 8.09625 27.5 15C27.5 21.9037 21.9037 27.5 15 27.5C8.09625 27.5 2.5 21.9037 2.5 15ZM8.75 10C8.75 9.66848 8.8817 9.35054 9.11612 9.11612C9.35054 8.8817 9.66848 8.75 10 8.75H12.5C12.8315 8.75 13.1495 8.8817 13.3839 9.11612C13.6183 9.35054 13.75 9.66848 13.75 10C13.75 10.3315 13.6183 10.6495 13.3839 10.8839C13.1495 11.1183 12.8315 11.25 12.5 11.25H10C9.66848 11.25 9.35054 11.1183 9.11612 10.8839C8.8817 10.6495 8.75 10.3315 8.75 10ZM16.25 10C16.25 9.66848 16.3817 9.35054 16.6161 9.11612C16.8505 8.8817 17.1685 8.75 17.5 8.75H20C20.3315 8.75 20.6495 8.8817 20.8839 9.11612C21.1183 9.35054 21.25 9.66848 21.25 10C21.25 10.3315 21.1183 10.6495 20.8839 10.8839C20.6495 11.1183 20.3315 11.25 20 11.25H17.5C17.1685 11.25 16.8505 11.1183 16.6161 10.8839C16.3817 10.6495 16.25 10.3315 16.25 10ZM11.25 15C11.25 14.6685 11.3817 14.3505 11.6161 14.1161C11.8505 13.8817 12.1685 13.75 12.5 13.75H17.5C17.8315 13.75 18.1495 13.8817 18.3839 14.1161C18.6183 14.3505 18.75 14.6685 18.75 15V18.75C18.75 19.7446 18.3549 20.6984 17.6517 21.4017C16.9484 22.1049 15.9946 22.5 15 22.5C14.0054 22.5 13.0516 22.1049 12.3483 21.4017C11.6451 20.6984 11.25 19.7446 11.25 18.75V15ZM13.75 16.25V18.75C13.75 19.0815 13.8817 19.3995 14.1161 19.6339C14.3505 19.8683 14.6685 20 15 20C15.3315 20 15.6495 19.8683 15.8839 19.6339C16.1183 19.3995 16.25 19.0815 16.25 18.75V16.25H13.75Z" fill="#B0B0B0"/>
</g>
<defs>
<clipPath id="clip0_22626_20514">
<rect width="30" height="30" fill="white"/>
</clipPath>
</defs>
</svg>
