<svg width="32" height="32" viewBox="0 0 32 32" fill="none" xmlns="http://www.w3.org/2000/svg">
<g clip-path="url(#clip0_22549_19793)">
<path d="M17.6 3.53333C17.1384 3.18714 16.577 3 16 3C15.423 3 14.8616 3.18714 14.4 3.53333L5.06667 10.5333C4.73548 10.7817 4.46667 11.1038 4.28153 11.4741C4.09639 11.8444 4 12.2527 4 12.6667V25.3333C4 26.0406 4.28095 26.7189 4.78105 27.219C5.28115 27.719 5.95942 28 6.66667 28H11.8667C12.2557 28 12.6287 27.8455 12.9038 27.5704C13.1788 27.2954 13.3333 26.9223 13.3333 26.5333V20C13.3333 19.2928 13.6143 18.6145 14.1144 18.1144C14.6145 17.6143 15.2928 17.3333 16 17.3333C16.7072 17.3333 17.3855 17.6143 17.8856 18.1144C18.3857 18.6145 18.6667 19.2928 18.6667 20V26.5333C18.6667 26.9223 18.8212 27.2954 19.0962 27.5704C19.3713 27.8455 19.7444 28 20.1333 28H25.3333C26.0406 28 26.7189 27.719 27.219 27.219C27.719 26.7189 28 26.0406 28 25.3333V12.6667C28 12.2527 27.9036 11.8444 27.7185 11.4741C27.5333 11.1038 27.2645 10.7817 26.9333 10.5333L17.6 3.53333Z" fill="#B0B0B0"/>
</g>
<defs>
<clipPath id="clip0_22549_19793">
<rect width="32" height="32" fill="white"/>
</clipPath>
</defs>
</svg>
