<?xml version="1.0" encoding="utf-8"?>
<!-- Generator: Adobe Illustrator 25.0.0, SVG Export Plug-In . SVG Version: 6.00 Build 0)  -->
<svg version="1.1" xmlns="http://www.w3.org/2000/svg" xmlns:xlink="http://www.w3.org/1999/xlink" x="0px" y="0px"
	 viewBox="0 0 450 920" style="enable-background:new 0 0 450 920;" xml:space="preserve">
<style type="text/css">
	.st0{opacity:0.7;}
	.st1{fill:#FFFFFF;}
	.st2{fill:#1A1A1A;}
	.st3{opacity:0.5;}
	.st4{fill:url(#SVGID_1_);}
	.st5{fill:url(#SVGID_2_);}
	.st6{fill:url(#SVGID_3_);}
	.st7{fill:url(#SVGID_4_);}
	.st8{fill:url(#SVGID_5_);}
	.st9{fill:url(#SVGID_6_);}
	.st10{fill:url(#SVGID_7_);}
	.st11{fill:url(#SVGID_8_);}
	.st12{fill:url(#SVGID_9_);}
	.st13{fill:url(#SVGID_10_);}
	.st14{fill:url(#SVGID_11_);}
	.st15{display:none;}
	.st16{display:inline;}
	.st17{fill:url(#SVGID_12_);}
	.st18{fill:url(#SVGID_13_);}
	.st19{fill:url(#SVGID_14_);}
	.st20{fill:url(#SVGID_15_);}
	.st21{fill:url(#SVGID_16_);}
</style>
<g id="圖層_1">
	<g>
		<g>
			<path d="M382.3,1h-315C33,1,5.2,28.9,5.2,63.2c0,12.7,0,782.3,0,793.6C5.2,891.1,33,919,67.4,919h315c34.3,0,62.2-27.9,62.2-62.2
				c0-11.2,0-780.9,0-793.6C444.5,28.9,416.7,1,382.3,1z M438.5,854.6c0,32.2-26.1,58.4-58.3,58.4H69.5c-32.2,0-58.3-26.1-58.3-58.4
				c0-11.2,0-776.6,0-789.2C11.2,33.2,37.4,7,69.5,7h310.6c32.2,0,58.3,26.1,58.3,58.4C438.5,78,438.5,843.4,438.5,854.6z"/>
			<g class="st0">
				<path class="st1" d="M21.8,22.5C34.5,11.2,50.8,2.4,70,2.6l298.7,0.6c38.9,2.3,73.1,23.6,74.4,68.9c0,5,2.7-37.9-25.1-56.7
					c-13.2-9.5-32.7-13.6-44.4-13.8c-19.2-0.4-272.2-0.7-303.2,0C44.4,2.1,32.2,12.6,21.8,22.5z"/>
			</g>
			<g>
				<path class="st2" d="M380.2,7H69.5C37.4,7,11.2,33.2,11.2,65.4c0,12.6,0,778,0,789.2c0,32.2,26.1,58.4,58.3,58.4h310.6
					c32.2,0,58.3-26.1,58.3-58.4c0-11.2,0-776.6,0-789.2C438.5,33.2,412.4,7,380.2,7z M435.4,852.8c0,31.5-25.5,57.1-57,57.1H71.3
					c-31.5,0-57-25.6-57-57.1c0-11.1,0-773.1,0-785.7c0-31.5,25.5-57.1,57-57.1h307.1c31.5,0,57,25.6,57,57.1
					C435.4,79.7,435.4,841.7,435.4,852.8z"/>
				<path d="M380.2,913.3H69.5c-32.3,0-58.6-26.3-58.6-58.7V65.4C11,33.1,37.2,6.7,69.5,6.7h310.6c32.3,0,58.6,26.3,58.6,58.7v789.2
					C438.8,886.9,412.5,913.3,380.2,913.3z M69.5,7.3c-32,0-58,26-58,58.1v789.2c0,32,26,58.1,58,58.1h310.6c32,0,58-26,58-58.1
					V65.4c0-32-26-58.1-58-58.1C380.1,7.3,69.5,7.3,69.5,7.3z M378.4,910.2H71.3c-31.6,0-57.3-25.7-57.3-57.4V67.2
					C14,35.5,39.7,9.8,71.3,9.8h307.1c31.6,0,57.3,25.7,57.3,57.4v785.7C435.7,884.5,410,910.2,378.4,910.2z M71.3,10.4
					c-31.3,0-56.7,25.5-56.7,56.8v785.7c0,31.3,25.5,56.8,56.7,56.8h307.1c31.3,0,56.8-25.5,56.8-56.8V67.2
					c0-31.3-25.5-56.8-56.8-56.8C378.4,10.4,71.3,10.4,71.3,10.4z"/>
			</g>
			<g class="st3">
				<path class="st1" d="M21.8,897.5c12.7,11.3,29,20.1,48.2,19.9l298.7-0.6c38.9-2.3,73.1-23.6,74.4-68.9c0-5,2.7,37.9-25.1,56.7
					c-13.2,9.5-32.7,13.6-44.4,13.8c-19.2,0.4-272.2,0.7-303.2,0C44.4,917.9,32.2,907.4,21.8,897.5z"/>
			</g>
			<g>
				
					<linearGradient id="SVGID_1_" gradientUnits="userSpaceOnUse" x1="-2450.7778" y1="2305.9453" x2="-2352.5776" y2="2305.9453" gradientTransform="matrix(0 1 1 0 -1860.7454 2643.7778)">
					<stop  offset="0" style="stop-color:#3B3B3B"/>
					<stop  offset="1.850530e-02" style="stop-color:#E6E6E6"/>
					<stop  offset="3.819530e-02" style="stop-color:#333333"/>
					<stop  offset="8.205520e-02" style="stop-color:#000000"/>
					<stop  offset="0.1053" style="stop-color:#666666"/>
					<stop  offset="0.9049" style="stop-color:#313131"/>
					<stop  offset="0.9391" style="stop-color:#000000"/>
					<stop  offset="0.9646" style="stop-color:#333333"/>
					<stop  offset="0.9829" style="stop-color:#CCCCCC"/>
					<stop  offset="1" style="stop-color:#2C2C2C"/>
				</linearGradient>
				<rect x="444.5" y="193" class="st4" width="1.4" height="98.2"/>
				
					<linearGradient id="SVGID_2_" gradientUnits="userSpaceOnUse" x1="-2450.7776" y1="2306.9954" x2="-2352.5776" y2="2306.9954" gradientTransform="matrix(0 1 1 0 -1860.7454 2643.7778)">
					<stop  offset="0" style="stop-color:#A0A0A0"/>
					<stop  offset="6.402420e-02" style="stop-color:#333333"/>
					<stop  offset="0.186" style="stop-color:#8A8A8A"/>
					<stop  offset="0.8064" style="stop-color:#8A8A8A"/>
					<stop  offset="0.9191" style="stop-color:#333333"/>
					<stop  offset="1" style="stop-color:#A0A0A0"/>
				</linearGradient>
				<path class="st5" d="M445.9,291.2V193l0.7,0.9c-0.4,7-0.3,89.5,0,96.5L445.9,291.2z"/>
			</g>
			<g>
				
					<linearGradient id="SVGID_3_" gradientUnits="userSpaceOnUse" x1="-2450.7778" y1="-2022.5771" x2="-2384.7778" y2="-2022.5771" gradientTransform="matrix(0 1 -1 0 -2019.5771 2643.7778)">
					<stop  offset="0" style="stop-color:#3B3B3B"/>
					<stop  offset="1.850530e-02" style="stop-color:#E6E6E6"/>
					<stop  offset="3.819530e-02" style="stop-color:#333333"/>
					<stop  offset="8.205520e-02" style="stop-color:#000000"/>
					<stop  offset="0.1053" style="stop-color:#666666"/>
					<stop  offset="0.9049" style="stop-color:#313131"/>
					<stop  offset="0.9391" style="stop-color:#000000"/>
					<stop  offset="0.9646" style="stop-color:#333333"/>
					<stop  offset="0.9829" style="stop-color:#CCCCCC"/>
					<stop  offset="1" style="stop-color:#2C2C2C"/>
				</linearGradient>
				<rect x="2.3" y="193" class="st6" width="1.4" height="66"/>
				
					<linearGradient id="SVGID_4_" gradientUnits="userSpaceOnUse" x1="-2450.7778" y1="-2021.5271" x2="-2384.7778" y2="-2021.5271" gradientTransform="matrix(0 1 -1 0 -2019.5771 2643.7778)">
					<stop  offset="0" style="stop-color:#A0A0A0"/>
					<stop  offset="6.402420e-02" style="stop-color:#333333"/>
					<stop  offset="0.186" style="stop-color:#8A8A8A"/>
					<stop  offset="0.8064" style="stop-color:#8A8A8A"/>
					<stop  offset="0.9191" style="stop-color:#333333"/>
					<stop  offset="1" style="stop-color:#A0A0A0"/>
				</linearGradient>
				<path class="st7" d="M2.3,259v-66l-0.7,0.9c0.4,7,0.3,57.3,0,64.3L2.3,259z"/>
				
					<linearGradient id="SVGID_5_" gradientUnits="userSpaceOnUse" x1="4.45" y1="662.9" x2="4.45" y2="728.9" gradientTransform="matrix(1 0 0 -1 0 922)">
					<stop  offset="0" style="stop-color:#353540"/>
					<stop  offset="5.306120e-02" style="stop-color:#000000"/>
					<stop  offset="0.5184" style="stop-color:#333333"/>
					<stop  offset="0.9646" style="stop-color:#000000"/>
					<stop  offset="1" style="stop-color:#262C31"/>
				</linearGradient>
				<rect x="3.7" y="193.1" class="st8" width="1.5" height="66"/>
			</g>
			<g>
				
					<linearGradient id="SVGID_6_" gradientUnits="userSpaceOnUse" x1="-2367.9778" y1="-2022.5771" x2="-2301.9778" y2="-2022.5771" gradientTransform="matrix(0 1 -1 0 -2019.5771 2643.7778)">
					<stop  offset="0" style="stop-color:#3B3B3B"/>
					<stop  offset="1.850530e-02" style="stop-color:#E6E6E6"/>
					<stop  offset="3.819530e-02" style="stop-color:#333333"/>
					<stop  offset="8.205520e-02" style="stop-color:#000000"/>
					<stop  offset="0.1053" style="stop-color:#666666"/>
					<stop  offset="0.9049" style="stop-color:#313131"/>
					<stop  offset="0.9391" style="stop-color:#000000"/>
					<stop  offset="0.9646" style="stop-color:#333333"/>
					<stop  offset="0.9829" style="stop-color:#CCCCCC"/>
					<stop  offset="1" style="stop-color:#2C2C2C"/>
				</linearGradient>
				<rect x="2.3" y="275.8" class="st9" width="1.4" height="66"/>
				
					<linearGradient id="SVGID_7_" gradientUnits="userSpaceOnUse" x1="-2367.9778" y1="-2021.5271" x2="-2301.9778" y2="-2021.5271" gradientTransform="matrix(0 1 -1 0 -2019.5771 2643.7778)">
					<stop  offset="0" style="stop-color:#A0A0A0"/>
					<stop  offset="6.402420e-02" style="stop-color:#333333"/>
					<stop  offset="0.186" style="stop-color:#8A8A8A"/>
					<stop  offset="0.8064" style="stop-color:#8A8A8A"/>
					<stop  offset="0.9191" style="stop-color:#333333"/>
					<stop  offset="1" style="stop-color:#A0A0A0"/>
				</linearGradient>
				<path class="st10" d="M2.3,341.8v-66l-0.7,0.9c0.4,7,0.3,57.3,0,64.3L2.3,341.8z"/>
				
					<linearGradient id="SVGID_8_" gradientUnits="userSpaceOnUse" x1="4.45" y1="580.2" x2="4.45" y2="646.2" gradientTransform="matrix(1 0 0 -1 0 922)">
					<stop  offset="0" style="stop-color:#353540"/>
					<stop  offset="5.306120e-02" style="stop-color:#000000"/>
					<stop  offset="0.5184" style="stop-color:#333333"/>
					<stop  offset="0.9646" style="stop-color:#000000"/>
					<stop  offset="1" style="stop-color:#262C31"/>
				</linearGradient>
				<rect x="3.7" y="275.8" class="st11" width="1.5" height="66"/>
			</g>
			<g>
				
					<linearGradient id="SVGID_9_" gradientUnits="userSpaceOnUse" x1="-2528.8777" y1="-2022.5771" x2="-2493.0776" y2="-2022.5771" gradientTransform="matrix(0 1 -1 0 -2019.5771 2643.7778)">
					<stop  offset="0" style="stop-color:#3B3B3B"/>
					<stop  offset="1.850530e-02" style="stop-color:#E6E6E6"/>
					<stop  offset="3.819530e-02" style="stop-color:#333333"/>
					<stop  offset="8.205520e-02" style="stop-color:#000000"/>
					<stop  offset="0.1053" style="stop-color:#666666"/>
					<stop  offset="0.9049" style="stop-color:#313131"/>
					<stop  offset="0.9391" style="stop-color:#000000"/>
					<stop  offset="0.9646" style="stop-color:#333333"/>
					<stop  offset="0.9829" style="stop-color:#CCCCCC"/>
					<stop  offset="1" style="stop-color:#2C2C2C"/>
				</linearGradient>
				<rect x="2.3" y="114.9" class="st12" width="1.4" height="35.8"/>
				
					<linearGradient id="SVGID_10_" gradientUnits="userSpaceOnUse" x1="-2528.8777" y1="-2021.5271" x2="-2493.0776" y2="-2021.5271" gradientTransform="matrix(0 1 -1 0 -2019.5771 2643.7778)">
					<stop  offset="0" style="stop-color:#A0A0A0"/>
					<stop  offset="6.402420e-02" style="stop-color:#333333"/>
					<stop  offset="0.186" style="stop-color:#8A8A8A"/>
					<stop  offset="0.8064" style="stop-color:#8A8A8A"/>
					<stop  offset="0.9191" style="stop-color:#333333"/>
					<stop  offset="1" style="stop-color:#A0A0A0"/>
				</linearGradient>
				<path class="st13" d="M2.3,150.7v-35.8l-0.7,0.9c0.4,7,0.3,27.1,0,34.1L2.3,150.7z"/>
				
					<linearGradient id="SVGID_11_" gradientUnits="userSpaceOnUse" x1="4.45" y1="771.3" x2="4.45" y2="807.1" gradientTransform="matrix(1 0 0 -1 0 922)">
					<stop  offset="0" style="stop-color:#353540"/>
					<stop  offset="5.306120e-02" style="stop-color:#000000"/>
					<stop  offset="0.5184" style="stop-color:#333333"/>
					<stop  offset="0.9646" style="stop-color:#000000"/>
					<stop  offset="1" style="stop-color:#262C31"/>
				</linearGradient>
				<rect x="3.7" y="114.9" class="st14" width="1.5" height="35.8"/>
			</g>
			<path d="M246.6,917.4h-43.5c-0.9,0-1.7,0.1-1.9,0.3l-1.9,0.8c-0.4,0.2,0.6,0.5,1.9,0.5h47.3c1.3,0,2.3-0.2,1.9-0.5l-1.9-0.8
				C248.2,917.5,247.5,917.4,246.6,917.4z"/>
		</g>
	</g>
</g>
<g id="圖層_2" class="st15">
	<path class="st16" d="M263.7,51.9h-79.1c-8.9,0-16.1-7.2-16.1-16.1l0,0c0-8.9,7.2-16.1,16.1-16.1h79.1c8.9,0,16.1,7.2,16.1,16.1
		l0,0C279.8,44.7,272.6,51.9,263.7,51.9z"/>
	<g class="st16">
		
			<linearGradient id="SVGID_12_" gradientUnits="userSpaceOnUse" x1="259.2" y1="879.6228" x2="259.2" y2="893.4998" gradientTransform="matrix(1 0 0 -1 0 922)">
			<stop  offset="0" style="stop-color:#666666"/>
			<stop  offset="1" style="stop-color:#010104"/>
		</linearGradient>
		<ellipse class="st17" cx="259.2" cy="35.8" rx="7" ry="7"/>
		
			<image style="overflow:visible;enable-background:new    ;" width="14" height="14" xlink:href="4244A04EBAC2BF79.png"  transform="matrix(1 0 0 1 252.5221 29)">
		</image>
		
			<linearGradient id="SVGID_13_" gradientUnits="userSpaceOnUse" x1="-3659.8943" y1="805.1783" x2="-3659.8943" y2="813.1075" gradientTransform="matrix(-1 0 0 1 -3400.6943 -773.1865)">
			<stop  offset="0" style="stop-color:#0B131C"/>
			<stop  offset="1" style="stop-color:#354039"/>
		</linearGradient>
		<ellipse class="st18" cx="259.2" cy="35.8" rx="4" ry="4"/>
		<g id="Camera_1_">
			
				<linearGradient id="SVGID_14_" gradientUnits="userSpaceOnUse" x1="261.6834" y1="883.7353" x2="256.7019" y2="888.7168" gradientTransform="matrix(1 0 0 -1 0 922)">
				<stop  offset="0" style="stop-color:#231F20"/>
				<stop  offset="8.317667e-02" style="stop-color:#222326"/>
				<stop  offset="0.1958" style="stop-color:#1F2C37"/>
				<stop  offset="0.3254" style="stop-color:#1A3D54"/>
				<stop  offset="0.4675" style="stop-color:#13537C"/>
				<stop  offset="0.62" style="stop-color:#0B71AE"/>
				<stop  offset="0.7788" style="stop-color:#0094EC"/>
				<stop  offset="0.7847" style="stop-color:#0095EE"/>
				<stop  offset="0.7998" style="stop-color:#0488D6"/>
				<stop  offset="0.8384" style="stop-color:#0D689F"/>
				<stop  offset="0.8761" style="stop-color:#154E72"/>
				<stop  offset="0.912" style="stop-color:#1B394E"/>
				<stop  offset="0.9455" style="stop-color:#1F2B35"/>
				<stop  offset="0.9758" style="stop-color:#222225"/>
				<stop  offset="1" style="stop-color:#231F20"/>
			</linearGradient>
			<path class="st19" d="M262.7,35.8c0,1.9-1.6,3.5-3.5,3.5c-2,0-3.5-1.6-3.5-3.5c0-2,1.6-3.5,3.5-3.5
				C261.1,32.2,262.7,33.8,262.7,35.8z"/>
			
				<radialGradient id="SVGID_15_" cx="259.2" cy="885.8465" r="3.5178" gradientTransform="matrix(1 0 0 -1.001 0 922.502)" gradientUnits="userSpaceOnUse">
				<stop  offset="0" style="stop-color:#231F20"/>
				<stop  offset="0.2019" style="stop-color:#175168"/>
				<stop  offset="0.3838" style="stop-color:#0D78A2"/>
				<stop  offset="0.5384" style="stop-color:#0695CB"/>
				<stop  offset="0.6597" style="stop-color:#02A7E5"/>
				<stop  offset="0.7326" style="stop-color:#00ADEE"/>
				<stop  offset="0.7594" style="stop-color:#02A6E4"/>
				<stop  offset="0.8055" style="stop-color:#0693C8"/>
				<stop  offset="0.8651" style="stop-color:#0E749C"/>
				<stop  offset="0.9352" style="stop-color:#184A5F"/>
				<stop  offset="1" style="stop-color:#231F20"/>
			</radialGradient>
			<path class="st20" d="M262.7,35.8c0,1.9-1.6,3.5-3.5,3.5c-2,0-3.5-1.6-3.5-3.5c0-2,1.6-3.5,3.5-3.5
				C261.1,32.2,262.7,33.8,262.7,35.8z"/>
		</g>
		
			<radialGradient id="SVGID_16_" cx="261.1317" cy="884.011" r="1.2565" gradientTransform="matrix(1 0 0 -1.001 0 922.502)" gradientUnits="userSpaceOnUse">
			<stop  offset="0" style="stop-color:#CCCCCC"/>
			<stop  offset="2.412361e-02" style="stop-color:#C4C4C4"/>
			<stop  offset="0.2198" style="stop-color:#898989"/>
			<stop  offset="0.4085" style="stop-color:#585858"/>
			<stop  offset="0.5855" style="stop-color:#323232"/>
			<stop  offset="0.7482" style="stop-color:#161616"/>
			<stop  offset="0.8915" style="stop-color:#060606"/>
			<stop  offset="1" style="stop-color:#000000"/>
		</radialGradient>
		<path class="st21" d="M262.4,37.6c0-0.7-0.6-1.3-1.3-1.3s-1.3,0.6-1.3,1.3s0.6,1.3,1.3,1.3S262.4,38.3,262.4,37.6z"/>
	</g>
</g>
</svg>
