<svg width="24" height="24" viewBox="0 0 24 24" fill="none" xmlns="http://www.w3.org/2000/svg">
<g clip-path="url(#clip0_15072_10264)">
<path fill-rule="evenodd" clip-rule="evenodd" d="M11.9999 1C12.1748 1.00005 12.3466 1.04597 12.4982 1.13318C12.6498 1.22039 12.7759 1.34584 12.8639 1.497L14.9049 5L18.8689 5.859C19.0397 5.89608 19.1978 5.97729 19.3274 6.09452C19.4571 6.21175 19.5537 6.36091 19.6078 6.52714C19.6618 6.69336 19.6713 6.87085 19.6354 7.04189C19.5994 7.21294 19.5193 7.37158 19.4029 7.502L16.7009 10.526L17.1089 14.561C17.1265 14.735 17.0982 14.9106 17.0268 15.0702C16.9554 15.2298 16.8434 15.368 16.7019 15.4708C16.5604 15.5736 16.3945 15.6375 16.2206 15.6561C16.0467 15.6748 15.8709 15.6475 15.7109 15.577L14.6689 15.118L15.9739 20.774C16.0079 20.9206 16.0084 21.073 15.9753 21.2199C15.9422 21.3667 15.8764 21.5042 15.7828 21.622C15.6891 21.7399 15.5701 21.8351 15.4345 21.9005C15.299 21.966 15.1504 22 14.9999 22H8.9999C8.84948 21.9999 8.70101 21.966 8.56556 21.9006C8.4301 21.8352 8.31113 21.7401 8.21752 21.6224C8.12391 21.5046 8.05806 21.3673 8.02488 21.2206C7.99171 21.0739 7.99205 20.9216 8.0259 20.775L9.3299 15.12L8.2879 15.58C8.12777 15.6506 7.95193 15.6779 7.77794 15.6592C7.60396 15.6405 7.43792 15.5765 7.29642 15.4736C7.15491 15.3706 7.0429 15.2323 6.97156 15.0726C6.90023 14.9128 6.87207 14.7371 6.8899 14.563L7.2979 10.528L4.5959 7.504C4.47928 7.37359 4.39891 7.21488 4.36282 7.04369C4.32673 6.87251 4.33618 6.69486 4.39022 6.52847C4.44427 6.36208 4.54102 6.21278 4.67081 6.09548C4.80061 5.97818 4.9589 5.89699 5.1299 5.86L9.0949 5L11.1349 1.496C11.2231 1.34488 11.3494 1.21954 11.5012 1.1325C11.653 1.04546 11.8249 0.999774 11.9999 1ZM11.6159 14.112L10.2569 20H13.7429L12.3839 14.112L11.9999 13.942L11.6159 14.112ZM11.9999 3.987L10.5999 6.389C10.5301 6.50893 10.436 6.613 10.3238 6.69461C10.2115 6.77621 10.0835 6.83356 9.9479 6.863L7.2309 7.451L9.0829 9.523C9.17568 9.62659 9.24583 9.7484 9.28888 9.88064C9.33193 10.0129 9.34692 10.1526 9.3329 10.291L9.0529 13.056L11.5959 11.935C11.7229 11.8791 11.8601 11.8502 11.9989 11.8502C12.1377 11.8502 12.2749 11.8791 12.4019 11.935L14.9459 13.055L14.6659 10.29C14.6519 10.1519 14.6668 10.0123 14.7097 9.88029C14.7525 9.74824 14.8224 9.62656 14.9149 9.523L16.7669 7.451L14.0499 6.863C13.9143 6.83356 13.7863 6.77621 13.674 6.69461C13.5618 6.613 13.4677 6.50893 13.3979 6.389L11.9999 3.987Z" fill="#2F7265"/>
</g>
<defs>
<clipPath id="clip0_15072_10264">
<rect width="24" height="24" fill="white"/>
</clipPath>
</defs>
</svg>
