<svg width="24" height="24" viewBox="0 0 24 24" fill="none" xmlns="http://www.w3.org/2000/svg">
<g clip-path="url(#clip0_15072_10262)">
<path fill-rule="evenodd" clip-rule="evenodd" d="M10.586 2.807C10.9401 2.4532 11.4139 2.245 11.914 2.22352C12.414 2.20205 12.904 2.36885 13.287 2.691L13.414 2.807L21.192 10.586C21.5457 10.9399 21.7539 11.4134 21.7756 11.9132C21.7972 12.4131 21.6308 12.9029 21.309 13.286L21.192 13.414L13.414 21.192C13.0602 21.5457 12.5866 21.7539 12.0868 21.7755C11.587 21.7972 11.0972 21.6307 10.714 21.309L10.586 21.192L2.80803 13.414C2.45408 13.0601 2.2457 12.5863 2.22404 12.0863C2.20238 11.5862 2.36901 11.0962 2.69103 10.713L2.80803 10.586L10.586 2.807ZM12 4.222L4.22203 12L12 19.778L19.778 12L12 4.222ZM12.386 7.755C12.641 7.46 13.025 7.427 13.184 7.625C13.268 7.728 13.264 7.867 13.236 8.01L13.196 8.18C13.178 8.25 13.161 8.318 13.152 8.379C13.142 8.453 13.208 8.466 13.322 8.458L13.715 8.416C13.928 8.4 14.173 8.407 14.398 8.51C14.973 8.773 14.875 9.284 14.589 9.56C14.451 9.695 14.236 9.737 14.012 9.764L13.877 9.779C13.683 9.799 13.491 9.82 13.344 9.889C12.993 10.053 12.993 10.349 13.152 10.447L13.352 10.575L13.479 10.65L13.667 10.748L13.791 10.808C14.206 11.005 14.174 11.398 13.951 11.595C13.8977 11.6357 13.84 11.6702 13.779 11.698L13.591 11.785L13.235 11.935C13.65 11.835 14.071 11.777 14.398 11.796L14.809 11.827L15.023 11.852L15.236 11.887L15.442 11.933C16.079 12.1 16.534 12.477 16.043 13.385C15.751 13.9236 15.4187 14.4394 15.049 14.928L14.786 15.265L14.548 15.553L14.11 16.059C13.79 16.436 13.305 16.666 12.801 16.355C12.297 16.044 11.651 15.633 11.236 14.976C10.932 14.494 10.911 14.207 10.928 14.024L10.948 13.86C10.964 13.695 11.172 13.434 11.428 13.63C11.516 13.698 11.578 13.81 11.642 13.948L11.692 14.058C11.789 14.271 11.907 14.532 12.13 14.801C12.31 14.875 12.423 14.841 12.356 14.797L12.322 14.779C12.162 14.714 11.843 14.419 12.162 13.926C12.214 13.8398 12.2839 13.7658 12.367 13.709L12.455 13.664L12.45 13.661L12.322 13.616L12.182 13.553C11.69 13.31 11.476 12.991 11.611 12.659C11.685 12.475 11.909 12.339 12.131 12.222L12.241 12.165C12.344 12.112 12.441 12.061 12.514 12.012L12.818 11.798L12.988 11.67C13.112 11.571 13.191 11.495 13.184 11.464C13.169 11.399 13.121 11.401 13.048 11.422L12.988 11.44C12.8975 11.4745 12.8019 11.4938 12.705 11.497C12.45 11.497 12.258 11.235 12.385 10.841C12.4399 10.6959 12.5131 10.5584 12.603 10.432L12.798 10.14C12.844 10.062 12.858 10.014 12.808 10.014L12.769 10.02C12.514 10.086 12.29 9.987 12.13 9.79C11.97 9.593 11.843 9.167 11.907 8.74C11.971 8.313 12.13 8.05 12.386 7.755ZM10.246 10.381C10.757 10.348 11.076 10.906 11.14 11.301C11.158 11.407 11.15 11.524 11.13 11.664L11.073 11.978L11.025 12.235C11.0159 12.2832 11.0075 12.3315 11 12.38L10.952 12.706C10.9267 12.904 10.908 13.1028 10.896 13.302L10.876 13.785L10.815 15.532L10.796 15.854C10.794 15.8787 10.7917 15.9034 10.789 15.928C10.757 16.223 10.661 16.453 10.31 16.486C9.98603 16.516 9.79803 16.155 9.77003 15.66L9.76703 15.534C9.76703 15.194 9.69703 15.184 9.58303 15.308L9.51103 15.397L9.32103 15.665C9.06503 16.026 8.29803 15.698 8.45803 15.108C8.51103 14.912 8.64403 14.637 8.80503 14.338L9.29303 13.462L9.45603 13.16C9.55603 12.969 9.63403 12.802 9.67103 12.679C9.74303 12.442 9.66203 12.433 9.53803 12.507L9.43803 12.575L9.28003 12.707L9.09703 12.876C8.80903 13.138 8.50703 13.211 8.17103 13.006C7.83403 12.803 7.72303 12.547 7.75503 12.318C7.78703 12.088 8.07503 11.727 8.20203 11.694C8.24203 11.684 8.25503 11.709 8.25703 11.746L8.25303 11.829C8.24603 11.898 8.24003 11.959 8.29803 11.924L8.36203 11.869L8.88803 11.359L9.14803 11.118C9.55003 10.752 9.99503 10.398 10.246 10.381ZM13.471 14.753L13.448 14.766L13.36 14.842C13.195 14.972 12.858 15.189 12.508 15.175C12.859 15.455 13.09 15.418 13.413 15.178L13.503 15.108L13.572 15.038L13.562 14.973L13.539 14.859C13.521 14.792 13.499 14.748 13.471 14.753ZM13.102 13.965C13.027 13.844 12.795 13.851 12.586 13.982C12.376 14.113 12.268 14.318 12.344 14.439C12.42 14.56 12.651 14.553 12.861 14.422C13.07 14.291 13.178 14.086 13.102 13.965ZM14.557 12.875C14.004 12.819 13.642 12.984 13.307 13.157C13.235 13.194 13.167 13.24 13.1 13.289L13.001 13.364C12.8846 13.4622 12.755 13.5437 12.616 13.606C12.795 13.558 12.976 13.564 13.104 13.579L13.229 13.599L13.266 13.607C13.29 13.612 13.316 13.582 13.343 13.534L13.457 13.306C13.546 13.138 13.655 12.996 13.791 13.171C13.8766 13.2756 13.935 13.3997 13.961 13.5323C13.987 13.6649 13.9798 13.8019 13.94 13.931L13.919 13.991C13.885 14.079 13.887 14.121 13.949 14.21L14.161 14.49C14.456 14.183 14.721 13.86 14.813 13.663L14.903 13.469C15.027 13.188 15.077 12.929 14.557 12.876V12.875ZM9.97603 8.01L10.119 8.019C11.473 8.145 11.819 9.367 10.987 9.692L10.886 9.726C10.4337 9.85291 10.0046 10.0514 9.61503 10.314L9.48703 10.397C9.32703 10.502 9.19103 10.591 9.06603 10.645C9.10256 10.5734 9.14682 10.506 9.19803 10.444L9.52303 10.035L9.63903 9.874C9.80203 9.634 9.89503 9.409 9.73503 9.299L9.67203 9.266C9.18003 9.076 8.74603 7.971 9.97603 8.01Z" fill="#2F7265"/>
</g>
<defs>
<clipPath id="clip0_15072_10262">
<rect width="24" height="24" fill="white"/>
</clipPath>
</defs>
</svg>
