<svg width="24" height="24" viewBox="0 0 24 24" fill="none" xmlns="http://www.w3.org/2000/svg">
<g clip-path="url(#clip0_15072_10282)">
<path d="M9.49805 5.793C10.9181 3.889 13.0531 3.333 15.0171 3.868C17.1371 4.445 19.0011 6.266 19.6201 8.802C19.6521 8.932 19.68 9.062 19.7031 9.192C18.8094 8.8738 17.8376 8.84928 16.9291 9.122C15.6421 8.17 14.0481 8.01 12.6311 8.532C10.8561 9.187 9.47005 10.848 9.14905 12.938C8.73905 15.614 10.3691 18.018 12.6741 20.062L13.0621 20.398C12.7491 20.42 12.4311 20.371 12.1271 20.306C11.9708 20.2726 11.8154 20.2353 11.6611 20.194L11.1241 20.044C6.35005 18.701 3.15405 16.6 2.23705 13.46C1.50505 10.954 2.20905 8.445 3.75705 6.885C5.19105 5.44 7.31705 4.854 9.49805 5.793ZM11.1261 13.241C11.5541 10.449 14.7831 9.073 16.4411 11.469C16.4569 11.4913 16.481 11.5064 16.5079 11.5111C16.5349 11.5157 16.5626 11.5096 16.5851 11.494C18.9621 9.81 21.5251 12.207 20.9721 14.977C20.6521 16.583 19.1621 17.917 16.5021 18.977L16.0671 19.147L15.8041 19.255C15.5771 19.344 15.3371 19.415 15.1201 19.377C14.9041 19.339 14.7031 19.189 14.5201 19.029L14.2101 18.749C11.8971 16.758 10.8691 14.922 11.1261 13.241Z" fill="#2F7265"/>
</g>
<defs>
<clipPath id="clip0_15072_10282">
<rect width="24" height="24" fill="white"/>
</clipPath>
</defs>
</svg>
