<svg width="24" height="24" viewBox="0 0 24 24" fill="none" xmlns="http://www.w3.org/2000/svg">
<g clip-path="url(#clip0_15072_10266)">
<path d="M9.8891 19.656C9.96337 19.4063 10.1322 19.1954 10.3596 19.0682C10.587 18.9411 10.8551 18.9077 11.1067 18.9752C11.3583 19.0427 11.5737 19.2058 11.7069 19.4297C11.8402 19.6536 11.8808 19.9206 11.8201 20.174L11.5621 21.14C11.4934 21.3962 11.3258 21.6146 11.096 21.7472C10.8663 21.8798 10.5933 21.9157 10.3371 21.847C10.0809 21.7783 9.86248 21.6107 9.72989 21.3809C9.5973 21.1512 9.5614 20.8782 9.6301 20.622L9.8891 19.656ZM7.6931 17.794C7.94927 17.8625 8.16777 18.0299 8.30054 18.2594C8.43331 18.4889 8.46948 18.7618 8.4011 19.018L8.1411 19.984C8.11053 20.1144 8.05407 20.2374 7.97507 20.3456C7.89606 20.4538 7.79612 20.545 7.68119 20.6138C7.56625 20.6826 7.43865 20.7277 7.30598 20.7462C7.1733 20.7648 7.03825 20.7565 6.90884 20.7218C6.77943 20.6872 6.6583 20.6269 6.55265 20.5445C6.44699 20.4622 6.35896 20.3594 6.29379 20.2424C6.22861 20.1253 6.18762 19.9964 6.17324 19.8632C6.15887 19.73 6.1714 19.5953 6.2101 19.467L6.4691 18.501C6.53777 18.245 6.70526 18.0267 6.93477 17.8942C7.16428 17.7616 7.43703 17.7256 7.6931 17.794ZM15.0271 17.794C15.2831 17.8627 15.5013 18.0302 15.6339 18.2597C15.7665 18.4892 15.8025 18.7619 15.7341 19.018L15.4751 19.984C15.4416 20.1114 15.3833 20.2309 15.3036 20.3357C15.2238 20.4405 15.1241 20.5285 15.0102 20.5947C14.8963 20.6609 14.7705 20.7039 14.6399 20.7213C14.5093 20.7386 14.3766 20.7301 14.2494 20.696C14.1222 20.662 14.0029 20.6031 13.8985 20.5228C13.794 20.4426 13.7065 20.3425 13.6409 20.2283C13.5752 20.1141 13.5328 19.988 13.516 19.8574C13.4993 19.7267 13.5085 19.5941 13.5431 19.467L13.8031 18.501C13.8718 18.245 14.0393 18.0267 14.2688 17.8942C14.4983 17.7616 14.771 17.7256 15.0271 17.794ZM12.1491 15.085C12.276 15.119 12.3949 15.1777 12.4991 15.2576C12.6033 15.3376 12.6907 15.4373 12.7563 15.5511C12.822 15.6648 12.8646 15.7904 12.8817 15.9206C12.8988 16.0508 12.8901 16.1831 12.8561 16.31L12.5971 17.276C12.5284 17.5322 12.3608 17.7506 12.131 17.8832C11.9013 18.0158 11.6283 18.0517 11.3721 17.983C11.1159 17.9143 10.8975 17.7467 10.7649 17.5169C10.6323 17.2872 10.5964 17.0142 10.6651 16.758L10.9241 15.792C10.9581 15.6651 11.0168 15.5462 11.0967 15.442C11.1767 15.3378 11.2764 15.2504 11.3901 15.1848C11.5039 15.1191 11.6295 15.0765 11.7597 15.0594C11.8899 15.0423 12.0222 15.051 12.1491 15.085ZM11.5001 2C12.8225 1.99987 14.1135 2.40298 15.2009 3.15554C16.2883 3.9081 17.1203 4.97433 17.5861 6.212C18.6683 6.50933 19.6455 7.10414 20.4067 7.9289C21.1679 8.75366 21.6825 9.77533 21.8923 10.8779C22.102 11.9804 21.9984 13.1197 21.5933 14.1664C21.1881 15.213 20.4976 16.1251 19.6001 16.799C19.4954 16.8811 19.3754 16.9414 19.2472 16.9765C19.1189 17.0116 18.9849 17.0208 18.853 17.0035C18.7211 16.9862 18.594 16.9427 18.4792 16.8757C18.3643 16.8087 18.2639 16.7194 18.184 16.6131C18.104 16.5068 18.0461 16.3857 18.0136 16.2567C17.981 16.1277 17.9745 15.9936 17.9945 15.8621C18.0144 15.7306 18.0604 15.6044 18.1297 15.4909C18.199 15.3774 18.2902 15.2788 18.3981 15.201C18.8964 14.8294 19.3008 14.3464 19.5789 13.7906C19.8571 13.2348 20.0013 12.6216 20.0001 12C20.0004 11.0525 19.6645 10.1357 19.0521 9.41275C18.4397 8.68978 17.5907 8.20758 16.6561 8.052C16.4651 8.02043 16.2873 7.93465 16.1437 7.80487C16.0001 7.6751 15.8968 7.5068 15.8461 7.32C15.5547 6.21938 14.8569 5.27013 13.8934 4.66356C12.9299 4.05698 11.7723 3.83818 10.6539 4.05124C9.53546 4.26429 8.53937 4.89338 7.86635 5.8117C7.19334 6.73003 6.89344 7.86933 7.0271 9C7.05369 9.24288 6.99133 9.48716 6.85159 9.68758C6.71185 9.888 6.50419 10.031 6.2671 10.09C5.73748 10.2239 5.25444 10.4998 4.87002 10.8879C4.4856 11.276 4.21437 11.7617 4.08556 12.2926C3.95675 12.8234 3.97524 13.3794 4.13904 13.9006C4.30284 14.4217 4.60574 14.8883 5.0151 15.25C5.21401 15.4256 5.33503 15.673 5.35153 15.9378C5.36803 16.2026 5.27867 16.4631 5.1031 16.662C4.92752 16.8609 4.68012 16.9819 4.41532 16.9984C4.15052 17.0149 3.89001 16.9256 3.6911 16.75C3.06022 16.1938 2.57985 15.4874 2.29446 14.6962C2.00906 13.905 1.92786 13.0546 2.05836 12.2238C2.18887 11.3929 2.52686 10.6083 3.04107 9.94274C3.55527 9.27716 4.22907 8.75204 5.0001 8.416C5.02219 6.70669 5.71675 5.07489 6.93335 3.87401C8.14995 2.67313 9.79064 1.99986 11.5001 2ZM8.7291 13.93C8.85596 13.964 8.97489 14.0227 9.07908 14.1026C9.18327 14.1826 9.27069 14.2823 9.33634 14.3961C9.402 14.5098 9.4446 14.6354 9.46171 14.7656C9.47883 14.8958 9.47012 15.0281 9.4361 15.155L9.1771 16.121C9.1084 16.3772 8.94075 16.5956 8.71102 16.7282C8.48129 16.8608 8.20829 16.8967 7.9521 16.828C7.6959 16.7593 7.47748 16.5917 7.34489 16.3619C7.2123 16.1322 7.1764 15.8592 7.2451 15.603L7.5041 14.637C7.53809 14.5101 7.59675 14.3912 7.67672 14.287C7.75668 14.1828 7.85639 14.0954 7.97015 14.0298C8.0839 13.9641 8.20948 13.9215 8.3397 13.9044C8.46992 13.8873 8.60224 13.896 8.7291 13.93ZM16.0621 13.93C16.189 13.964 16.3079 14.0227 16.4121 14.1026C16.5163 14.1826 16.6037 14.2823 16.6693 14.3961C16.735 14.5098 16.7776 14.6354 16.7947 14.7656C16.8118 14.8958 16.8031 15.0281 16.7691 15.155L16.5111 16.121C16.4424 16.3772 16.2748 16.5956 16.045 16.7282C15.8153 16.8608 15.5423 16.8967 15.2861 16.828C15.0299 16.7593 14.8115 16.5917 14.6789 16.3619C14.5463 16.1322 14.5104 15.8592 14.5791 15.603L14.8371 14.637C14.8711 14.5101 14.9298 14.3912 15.0097 14.287C15.0897 14.1828 15.1894 14.0954 15.3031 14.0298C15.4169 13.9641 15.5425 13.9215 15.6727 13.9044C15.8029 13.8873 15.9352 13.896 16.0621 13.93Z" fill="#2F7265"/>
</g>
<defs>
<clipPath id="clip0_15072_10266">
<rect width="24" height="24" fill="white"/>
</clipPath>
</defs>
</svg>
