<svg width="24" height="24" viewBox="0 0 24 24" fill="none" xmlns="http://www.w3.org/2000/svg">
<g clip-path="url(#clip0_18765_34926)">
<path fill-rule="evenodd" clip-rule="evenodd" d="M8.07606 7.25993L8.17105 7.34293L16.6571 15.8279C16.7683 15.939 16.8517 16.0748 16.9007 16.2242C16.9496 16.3736 16.9626 16.5325 16.9386 16.6878C16.9147 16.8432 16.8544 16.9907 16.7627 17.1185C16.6711 17.2462 16.5506 17.3505 16.4111 17.4229L16.2951 17.4729L5.91006 21.2999C3.95806 22.0199 2.05706 20.1849 2.65006 18.2359L2.70006 18.0899L6.52606 7.70493C6.57664 7.56737 6.65684 7.4426 6.76099 7.33947C6.86514 7.23634 6.99068 7.15736 7.12874 7.10813C7.26679 7.0589 7.41398 7.04062 7.55989 7.05458C7.70579 7.06855 7.84684 7.11441 7.97306 7.18893L8.07606 7.25993ZM7.86206 9.86193L4.57706 18.7819C4.54651 18.8649 4.53853 18.9545 4.55392 19.0416C4.5693 19.1287 4.60751 19.2101 4.66464 19.2776C4.72177 19.3451 4.79578 19.3963 4.87912 19.4258C4.96247 19.4554 5.05216 19.4623 5.13906 19.4459L5.21906 19.4229L14.1371 16.1369L7.86206 9.86193ZM17.1071 11.6039C18.0181 11.6519 19.2671 11.8439 20.3531 12.4959C20.5732 12.6265 20.735 12.8364 20.805 13.0826C20.875 13.3288 20.8479 13.5925 20.7294 13.8193C20.6108 14.0461 20.4098 14.2189 20.1677 14.302C19.9256 14.3851 19.6609 14.3722 19.4281 14.2659L19.3241 14.2109C18.6421 13.8009 17.7701 13.6409 17.0021 13.6009C16.6856 13.5826 16.3683 13.584 16.0521 13.6049L15.7361 13.6359C15.4752 13.6696 15.2116 13.5991 15.0023 13.4398C14.793 13.2805 14.6549 13.0451 14.618 12.7847C14.581 12.5243 14.6482 12.2598 14.8048 12.0485C14.9615 11.8372 15.1951 11.6962 15.4551 11.6559C16.0027 11.5852 16.556 11.5674 17.1071 11.6029M19.1321 8.81693C19.3869 8.81747 19.6318 8.91524 19.817 9.09029C20.0021 9.26534 20.1135 9.50446 20.1283 9.75883C20.1431 10.0132 20.0602 10.2636 19.8966 10.459C19.7331 10.6543 19.5011 10.7798 19.2481 10.8099L19.1321 10.8169H18.4241C18.1693 10.8164 17.9243 10.7186 17.7391 10.5436C17.554 10.3685 17.4426 10.1294 17.4278 9.87504C17.413 9.62068 17.4959 9.37025 17.6595 9.17491C17.8231 8.97956 18.055 8.85402 18.3081 8.82393L18.4241 8.81693H19.1321ZM15.9501 8.04993C16.1222 8.22213 16.2257 8.45123 16.2409 8.69425C16.2562 8.93728 16.1823 9.17753 16.0331 9.36993L15.9501 9.46393L14.8901 10.5249C14.7105 10.7062 14.4685 10.812 14.2135 10.8206C13.9585 10.8293 13.7099 10.7401 13.5185 10.5715C13.3271 10.4028 13.2074 10.1673 13.1839 9.91331C13.1603 9.65927 13.2348 9.40586 13.3921 9.20493L13.4751 9.11093L14.5351 8.05093C14.6279 7.95796 14.7382 7.8842 14.8596 7.83387C14.981 7.78355 15.1111 7.75765 15.2426 7.75765C15.374 7.75765 15.5041 7.78355 15.6255 7.83387C15.7469 7.8842 15.8572 7.95696 15.9501 8.04993ZM13.3631 2.78493C13.8111 4.13093 13.5711 5.60493 13.2911 6.63493C13.1228 7.27708 12.8917 7.90109 12.6011 8.49793C12.4826 8.7353 12.2748 8.91591 12.0232 9.00002C11.7716 9.08413 11.4969 9.06485 11.2596 8.94643C11.0222 8.82801 10.8416 8.62015 10.7575 8.36857C10.6734 8.11699 10.6926 7.8423 10.8111 7.60493C11.0429 7.12549 11.2272 6.62441 11.3611 6.10893C11.5881 5.27693 11.7021 4.37393 11.5271 3.63393L11.4661 3.41793C11.4225 3.29287 11.4042 3.1604 11.4122 3.02821C11.4202 2.89602 11.4544 2.76674 11.5129 2.64787C11.5713 2.52901 11.6527 2.42293 11.7524 2.3358C11.8522 2.24866 11.9682 2.1822 12.0938 2.14028C12.2195 2.09836 12.3522 2.08182 12.4842 2.0916C12.6163 2.10138 12.7451 2.13731 12.8632 2.19728C12.9813 2.25725 13.0863 2.34008 13.1721 2.44096C13.2579 2.54184 13.3228 2.65876 13.3631 2.78493ZM18.7781 5.22293C18.9655 5.41046 19.0708 5.66477 19.0708 5.92993C19.0708 6.1951 18.9655 6.44941 18.7781 6.63693L18.0711 7.34393C17.9788 7.43944 17.8685 7.51563 17.7465 7.56804C17.6245 7.62044 17.4932 7.64803 17.3605 7.64918C17.2277 7.65034 17.096 7.62504 16.9731 7.57476C16.8502 7.52447 16.7386 7.45022 16.6447 7.35633C16.5508 7.26244 16.4765 7.15078 16.4262 7.02789C16.376 6.90499 16.3507 6.77331 16.3518 6.64053C16.353 6.50775 16.3805 6.37653 16.433 6.25453C16.4854 6.13253 16.5615 6.02218 16.6571 5.92993L17.3641 5.22293C17.5516 5.03546 17.8059 4.93015 18.0711 4.93015C18.3362 4.93015 18.5905 5.03546 18.7781 5.22293Z" fill="#2F7265"/>
</g>
<defs>
<clipPath id="clip0_18765_34926">
<rect width="24" height="24" fill="white"/>
</clipPath>
</defs>
</svg>
