<svg width="24" height="24" viewBox="0 0 24 24" fill="none" xmlns="http://www.w3.org/2000/svg">
<g clip-path="url(#clip0_18765_35229)">
<path d="M12 8C12.3034 7.99997 12.6029 8.06898 12.8757 8.2018C13.1485 8.33462 13.3875 8.52777 13.5746 8.76663C13.7617 9.00549 13.892 9.28379 13.9557 9.58047C14.0193 9.87714 14.0147 10.1844 13.942 10.479C16.768 13.51 18 17.268 18 21C18 21.2652 17.8946 21.5196 17.7071 21.7071C17.5196 21.8946 17.2652 22 17 22C16.7348 22 16.4804 21.8946 16.2929 21.7071C16.1053 21.5196 16 21.2652 16 21C16 17.758 14.951 14.539 12.553 11.923C12.2776 12.0028 11.9883 12.0224 11.7047 11.9806C11.4211 11.9389 11.1497 11.8366 10.9091 11.6809C10.6684 11.5251 10.464 11.3194 10.3097 11.0778C10.1555 10.8362 10.0549 10.5642 10.0149 10.2803C9.97487 9.99643 9.99632 9.70726 10.0778 9.4324C10.1592 9.15753 10.2988 8.90338 10.4871 8.68715C10.6753 8.47092 10.9078 8.29766 11.1688 8.17911C11.4299 8.06055 11.7133 7.99947 12 8ZM12 2C13.1667 1.99897 14.3194 2.2536 15.3771 2.74599C16.4348 3.23838 17.3717 3.95656 18.122 4.85C19.3371 6.29071 20.0024 8.11531 20 10C20.0017 11.1864 19.7386 12.3582 19.23 13.43C19.1159 13.6696 18.9114 13.8541 18.6613 13.9429C18.4112 14.0317 18.1361 14.0175 17.8965 13.9035C17.6569 13.7895 17.4724 13.5849 17.3836 13.3348C17.2948 13.0847 17.3089 12.8096 17.423 12.57C17.8046 11.7671 18.0017 10.889 18 10C18.0024 8.58661 17.5035 7.21816 16.592 6.138C15.9194 5.33817 15.0495 4.72788 14.0685 4.36757C13.0876 4.00726 12.0295 3.90942 10.9991 4.08374C9.96865 4.25806 9.00163 4.69849 8.19376 5.36142C7.38589 6.02436 6.76518 6.88681 6.39308 7.86338C6.02099 8.83995 5.91042 9.89677 6.07232 10.9292C6.23422 11.9616 6.66298 12.9339 7.31614 13.7497C7.9693 14.5655 8.82422 15.1965 9.79624 15.5804C10.7683 15.9642 11.8237 16.0875 12.858 15.938C13.1207 15.9003 13.3876 15.9686 13.6 16.1277C13.8124 16.2868 13.9528 16.5238 13.9905 16.7865C14.0281 17.0492 13.9599 17.3161 13.8008 17.5285C13.6417 17.7409 13.4047 17.8813 13.142 17.919C12.0548 18.0749 10.9473 18.0053 9.8882 17.7145C8.82914 17.4237 7.8413 16.9179 6.98621 16.2287C6.13112 15.5395 5.42709 14.6817 4.91797 13.7085C4.40886 12.7354 4.10556 11.6679 4.02698 10.5724C3.94839 9.47699 4.0962 8.3771 4.4612 7.34127C4.82619 6.30544 5.40056 5.35585 6.14852 4.55166C6.89648 3.74747 7.80201 3.1059 8.80871 2.6669C9.81542 2.22791 10.9017 2.00089 12 2Z" fill="#0F2422"/>
</g>
<defs>
<clipPath id="clip0_18765_35229">
<rect width="24" height="24" fill="white"/>
</clipPath>
</defs>
</svg>
