<svg width="40" height="40" viewBox="0 0 40 40" fill="none" xmlns="http://www.w3.org/2000/svg">
<g clip-path="url(#clip0_24515_48984)">
<path fill-rule="evenodd" clip-rule="evenodd" d="M19.9999 3.33337C29.2049 3.33337 36.6666 10.795 36.6666 20C36.6666 29.205 29.2049 36.6667 19.9999 36.6667C10.7949 36.6667 3.33325 29.205 3.33325 20C3.33325 10.795 10.7949 3.33337 19.9999 3.33337ZM21.6666 26.6667H18.3333C17.8912 26.6667 17.4673 26.8423 17.1547 27.1549C16.8422 27.4674 16.6666 27.8913 16.6666 28.3334C16.6666 28.7754 16.8422 29.1993 17.1547 29.5119C17.4673 29.8244 17.8912 30 18.3333 30H21.6666C22.1086 30 22.5325 29.8244 22.8451 29.5119C23.1577 29.1993 23.3333 28.7754 23.3333 28.3334C23.3333 27.8913 23.1577 27.4674 22.8451 27.1549C22.5325 26.8423 22.1086 26.6667 21.6666 26.6667ZM14.1666 18.3334C13.8383 18.3334 13.5132 18.398 13.2099 18.5237C12.9066 18.6493 12.631 18.8335 12.3988 19.0656C12.1667 19.2978 11.9825 19.5734 11.8569 19.8767C11.7312 20.18 11.6666 20.5051 11.6666 20.8334C11.6666 21.1617 11.7312 21.4868 11.8569 21.7901C11.9825 22.0934 12.1667 22.369 12.3988 22.6011C12.631 22.8333 12.9066 23.0174 13.2099 23.1431C13.5132 23.2687 13.8383 23.3334 14.1666 23.3334C14.8296 23.3334 15.4655 23.07 15.9344 22.6011C16.4032 22.1323 16.6666 21.4964 16.6666 20.8334C16.6666 20.1703 16.4032 19.5344 15.9344 19.0656C15.4655 18.5968 14.8296 18.3334 14.1666 18.3334ZM25.8333 18.3334C25.5049 18.3334 25.1799 18.398 24.8765 18.5237C24.5732 18.6493 24.2976 18.8335 24.0655 19.0656C23.8333 19.2978 23.6492 19.5734 23.5236 19.8767C23.3979 20.18 23.3333 20.5051 23.3333 20.8334C23.3333 21.1617 23.3979 21.4868 23.5236 21.7901C23.6492 22.0934 23.8333 22.369 24.0655 22.6011C24.2976 22.8333 24.5732 23.0174 24.8765 23.1431C25.1799 23.2687 25.5049 23.3334 25.8333 23.3334C26.4963 23.3334 27.1322 23.07 27.601 22.6011C28.0699 22.1323 28.3333 21.4964 28.3333 20.8334C28.3333 20.1703 28.0699 19.5344 27.601 19.0656C27.1322 18.5968 26.4963 18.3334 25.8333 18.3334Z" fill="#CBDFE6"/>
</g>
<defs>
<clipPath id="clip0_24515_48984">
<rect width="40" height="40" fill="white"/>
</clipPath>
</defs>
</svg>
