<svg width="25" height="24" viewBox="0 0 25 24" fill="none" xmlns="http://www.w3.org/2000/svg">
<g clip-path="url(#clip0_22631_19096)">
<path d="M6.51075 4.566C8.11275 3.643 10.2857 3 12.6667 3C15.0477 3 17.2207 3.643 18.8227 4.566C19.6227 5.028 20.3107 5.576 20.8097 6.181C21.2997 6.776 21.6667 7.499 21.6667 8.286C21.6667 9.078 21.2867 9.698 20.6767 10.107C20.1327 10.472 19.4267 10.66 18.6957 10.774C18.1157 10.864 17.4367 10.919 16.6767 10.951L15.8907 10.977L15.0537 10.992L14.1687 10.998H11.1647L10.2797 10.992L9.44275 10.977L8.65675 10.951C7.98103 10.9288 7.30703 10.8697 6.63775 10.774C5.90775 10.66 5.20075 10.472 4.65675 10.107C4.04675 9.697 3.66675 9.077 3.66675 8.286C3.66675 7.499 4.03275 6.776 4.52375 6.181C5.02275 5.577 5.70975 5.028 6.51075 4.566ZM5.00275 11.908C5.49553 11.5795 6.07451 11.4042 6.66675 11.4042C7.25898 11.4042 7.83797 11.5795 8.33075 11.908L9.11175 12.428C9.27608 12.5376 9.4692 12.5961 9.66675 12.5961C9.8643 12.5961 10.0574 12.5376 10.2217 12.428L11.0017 11.908C11.4947 11.5791 12.0741 11.4036 12.6667 11.4036C13.2594 11.4036 13.8388 11.5791 14.3317 11.908L15.1117 12.428C15.2761 12.5376 15.4692 12.5961 15.6667 12.5961C15.8643 12.5961 16.0574 12.5376 16.2217 12.428L17.0017 11.908C17.4947 11.5791 18.0741 11.4036 18.6667 11.4036C19.2594 11.4036 19.8388 11.5791 20.3317 11.908L21.2557 12.524C21.365 12.5969 21.4588 12.6906 21.5319 12.7997C21.6049 12.9089 21.6558 13.0313 21.6815 13.1601C21.7072 13.2889 21.7073 13.4215 21.6818 13.5504C21.6563 13.6792 21.6056 13.8017 21.5327 13.911C21.4599 14.0203 21.3662 14.1141 21.257 14.1871C21.1479 14.2602 21.0254 14.311 20.8966 14.3368C20.7678 14.3625 20.6352 14.3626 20.5064 14.3371C20.3776 14.3115 20.255 14.2609 20.1457 14.188L19.2217 13.572C19.0574 13.4624 18.8643 13.4039 18.6667 13.4039C18.4692 13.4039 18.2761 13.4624 18.1117 13.572L17.3317 14.092C16.8388 14.4209 16.2594 14.5964 15.6667 14.5964C15.0741 14.5964 14.4947 14.4209 14.0017 14.092L13.2217 13.572C13.0574 13.4624 12.8643 13.4039 12.6667 13.4039C12.4692 13.4039 12.2761 13.4624 12.1117 13.572L11.3317 14.092C10.8388 14.4209 10.2594 14.5964 9.66675 14.5964C9.0741 14.5964 8.49474 14.4209 8.00175 14.092L7.22175 13.572C7.05742 13.4624 6.8643 13.4039 6.66675 13.4039C6.4692 13.4039 6.27608 13.4624 6.11175 13.572L5.75475 13.818C5.56475 13.948 5.34475 14.093 5.13275 14.205C4.89887 14.3216 4.62864 14.342 4.3799 14.2618C4.13117 14.1817 3.92369 14.0074 3.80188 13.7762C3.68007 13.545 3.65361 13.2752 3.72815 13.0248C3.8027 12.7743 3.97234 12.563 4.20075 12.436C4.27275 12.398 4.33875 12.359 4.40475 12.316L5.00275 11.908ZM4.66675 15C4.40153 15 4.14718 15.1054 3.95964 15.2929C3.7721 15.4804 3.66675 15.7348 3.66675 16V17C3.66675 18.0609 4.08818 19.0783 4.83832 19.8284C5.58847 20.5786 6.60588 21 7.66675 21H17.6667C18.7276 21 19.745 20.5786 20.4952 19.8284C21.2453 19.0783 21.6667 18.0609 21.6667 17V16C21.6667 15.7348 21.5614 15.4804 21.3739 15.2929C21.1863 15.1054 20.932 15 20.6667 15H4.66675Z" fill="white"/>
</g>
<defs>
<clipPath id="clip0_22631_19096">
<rect width="24" height="24" fill="white" transform="translate(0.666748)"/>
</clipPath>
</defs>
</svg>
