<svg width="32" height="32" viewBox="0 0 32 32" fill="none" xmlns="http://www.w3.org/2000/svg">
<g clip-path="url(#clip0_22549_19812)">
<path d="M16 17.3333C19.1947 17.3333 22.1 18.2587 24.2373 19.5627C25.304 20.2133 26.216 20.9813 26.8747 21.816C27.5227 22.636 28 23.6173 28 24.6667C28 25.7933 27.452 26.6813 26.6627 27.3147C25.916 27.9147 24.9307 28.312 23.884 28.5893C21.78 29.1453 18.972 29.3333 16 29.3333C13.028 29.3333 10.22 29.1467 8.116 28.5893C7.06933 28.312 6.084 27.9147 5.33733 27.3147C4.54667 26.68 4 25.7933 4 24.6667C4 23.6173 4.47733 22.636 5.12533 21.8147C5.784 20.9813 6.69467 20.2147 7.76267 19.5613C9.9 18.26 12.8067 17.3333 16 17.3333ZM16 2.66667C17.7681 2.66667 19.4638 3.36905 20.714 4.61929C21.9643 5.86953 22.6667 7.56522 22.6667 9.33333C22.6667 11.1014 21.9643 12.7971 20.714 14.0474C19.4638 15.2976 17.7681 16 16 16C14.2319 16 12.5362 15.2976 11.286 14.0474C10.0357 12.7971 9.33333 11.1014 9.33333 9.33333C9.33333 7.56522 10.0357 5.86953 11.286 4.61929C12.5362 3.36905 14.2319 2.66667 16 2.66667Z" fill="#B0B0B0"/>
</g>
<defs>
<clipPath id="clip0_22549_19812">
<rect width="32" height="32" fill="white"/>
</clipPath>
</defs>
</svg>
