<svg width="20" height="20" viewBox="0 0 20 20" fill="none" xmlns="http://www.w3.org/2000/svg">
<g clip-path="url(#clip0_20523_39739)">
<g clip-path="url(#clip1_20523_39739)">
<path d="M10.0003 1.66667C14.6028 1.66667 18.3337 5.3975 18.3337 10C18.3337 14.6025 14.6028 18.3333 10.0003 18.3333C5.39783 18.3333 1.66699 14.6025 1.66699 10C1.66699 5.3975 5.39783 1.66667 10.0003 1.66667ZM10.0003 3.33333C8.23222 3.33333 6.53652 4.03571 5.28628 5.28596C4.03604 6.5362 3.33366 8.23189 3.33366 10C3.33366 11.7681 4.03604 13.4638 5.28628 14.714C6.53652 15.9643 8.23222 16.6667 10.0003 16.6667C11.7684 16.6667 13.4641 15.9643 14.7144 14.714C15.9646 13.4638 16.667 11.7681 16.667 10C16.667 8.23189 15.9646 6.5362 14.7144 5.28596C13.4641 4.03571 11.7684 3.33333 10.0003 3.33333ZM12.3337 11.5475C12.4114 11.4691 12.504 11.4069 12.606 11.3645C12.708 11.3222 12.8174 11.3005 12.9278 11.3008C13.0382 11.3011 13.1475 11.3234 13.2493 11.3663C13.351 11.4092 13.4432 11.4719 13.5206 11.5508C13.5979 11.6296 13.6587 11.7231 13.6996 11.8257C13.7405 11.9283 13.7606 12.0379 13.7587 12.1484C13.7568 12.2588 13.733 12.3677 13.6887 12.4689C13.6443 12.57 13.5803 12.6613 13.5003 12.7375C12.5665 13.6548 11.3094 14.1681 10.0003 14.1667C8.6913 14.1681 7.43419 13.6548 6.50033 12.7375C6.34618 12.582 6.25943 12.3721 6.25883 12.1531C6.25822 11.9342 6.34382 11.7238 6.4971 11.5674C6.65038 11.4111 6.85904 11.3214 7.07796 11.3176C7.29688 11.3139 7.50847 11.3965 7.66699 11.5475C8.28934 12.1593 9.12759 12.5015 10.0003 12.5C10.9087 12.5 11.7312 12.1375 12.3337 11.5475ZM7.08366 6.66667C7.41518 6.66667 7.73312 6.79836 7.96754 7.03278C8.20196 7.26721 8.33366 7.58515 8.33366 7.91667C8.33366 8.24819 8.20196 8.56613 7.96754 8.80055C7.73312 9.03497 7.41518 9.16667 7.08366 9.16667C6.75214 9.16667 6.4342 9.03497 6.19978 8.80055C5.96535 8.56613 5.83366 8.24819 5.83366 7.91667C5.83366 7.58515 5.96535 7.26721 6.19978 7.03278C6.4342 6.79836 6.75214 6.66667 7.08366 6.66667ZM12.917 6.66667C13.2485 6.66667 13.5665 6.79836 13.8009 7.03278C14.0353 7.26721 14.167 7.58515 14.167 7.91667C14.167 8.24819 14.0353 8.56613 13.8009 8.80055C13.5665 9.03497 13.2485 9.16667 12.917 9.16667C12.5855 9.16667 12.2675 9.03497 12.0331 8.80055C11.7987 8.56613 11.667 8.24819 11.667 7.91667C11.667 7.58515 11.7987 7.26721 12.0331 7.03278C12.2675 6.79836 12.5855 6.66667 12.917 6.66667Z" fill="#57AA98"/>
</g>
</g>
<defs>
<clipPath id="clip0_20523_39739">
<rect width="20" height="20" fill="white"/>
</clipPath>
<clipPath id="clip1_20523_39739">
<rect width="20" height="20" fill="white"/>
</clipPath>
</defs>
</svg>
