<svg width="20" height="20" viewBox="0 0 20 20" fill="none" xmlns="http://www.w3.org/2000/svg">
<g clip-path="url(#clip0_20523_39743)">
<g clip-path="url(#clip1_20523_39743)">
<path d="M10.0003 1.66666C14.6028 1.66666 18.3337 5.3975 18.3337 10C18.3337 14.6025 14.6028 18.3333 10.0003 18.3333C5.39783 18.3333 1.66699 14.6025 1.66699 10C1.66699 5.3975 5.39783 1.66666 10.0003 1.66666ZM10.0003 3.33333C8.23222 3.33333 6.53652 4.03571 5.28628 5.28595C4.03604 6.5362 3.33366 8.23189 3.33366 10C3.33366 11.7681 4.03604 13.4638 5.28628 14.714C6.53652 15.9643 8.23222 16.6667 10.0003 16.6667C11.7684 16.6667 13.4641 15.9643 14.7144 14.714C15.9646 13.4638 16.667 11.7681 16.667 10C16.667 8.23189 15.9646 6.5362 14.7144 5.28595C13.4641 4.03571 11.7684 3.33333 10.0003 3.33333ZM10.0003 10.8333C11.057 10.8333 12.0228 11.2275 12.757 11.875C12.9228 12.0213 13.0236 12.2275 13.0374 12.4481C13.0511 12.6688 12.9766 12.8859 12.8303 13.0517C12.684 13.2174 12.4778 13.3183 12.2572 13.332C12.0365 13.3458 11.8194 13.2713 11.6537 13.125C11.1976 12.7213 10.6094 12.4989 10.0003 12.5C9.36616 12.5 8.78783 12.735 8.34699 13.125C8.26492 13.1974 8.16939 13.2529 8.06585 13.2884C7.96232 13.3238 7.85282 13.3386 7.74359 13.3317C7.63437 13.3249 7.52756 13.2966 7.42927 13.2485C7.33098 13.2003 7.24313 13.1333 7.17074 13.0512C7.09835 12.9692 7.04284 12.8736 7.00736 12.7701C6.97189 12.6666 6.95716 12.5571 6.96401 12.4478C6.97086 12.3386 6.99915 12.2318 7.04728 12.1335C7.0954 12.0352 7.16242 11.9474 7.24449 11.875C8.005 11.2028 8.9853 10.8322 10.0003 10.8333ZM6.95033 6.71666L7.03949 6.755L8.70616 7.58833C8.89642 7.68333 9.04317 7.84747 9.11635 8.04715C9.18953 8.24682 9.1836 8.46692 9.09977 8.66237C9.01595 8.85781 8.86058 9.01382 8.66547 9.09843C8.47037 9.18304 8.2503 9.18987 8.05033 9.1175L7.96116 9.07833L6.29449 8.245C6.11234 8.15328 5.97014 7.99795 5.89483 7.80843C5.81951 7.6189 5.81632 7.40834 5.88584 7.21661C5.95536 7.02488 6.09278 6.86531 6.27206 6.7681C6.45135 6.6709 6.66005 6.64281 6.85866 6.68916L6.95033 6.71583V6.71666ZM12.9612 6.755C13.1512 6.66063 13.37 6.6423 13.5731 6.70372C13.7762 6.76515 13.9482 6.90172 14.054 7.08558C14.1599 7.26944 14.1916 7.48675 14.1428 7.69321C14.0939 7.89967 13.9682 8.07972 13.7912 8.19666L13.7062 8.245L12.0395 9.07833C11.8495 9.17269 11.6306 9.19103 11.4276 9.1296C11.2245 9.06818 11.0525 8.93161 10.9466 8.74775C10.8408 8.56389 10.8091 8.34658 10.8579 8.14012C10.9067 7.93366 11.0325 7.75361 11.2095 7.63666L11.2945 7.58833L12.9612 6.755Z" fill="#FF6666"/>
</g>
</g>
<defs>
<clipPath id="clip0_20523_39743">
<rect width="20" height="20" fill="white"/>
</clipPath>
<clipPath id="clip1_20523_39743">
<rect width="20" height="20" fill="white"/>
</clipPath>
</defs>
</svg>
