<svg width="20" height="20" viewBox="0 0 20 20" fill="none" xmlns="http://www.w3.org/2000/svg">
<g clip-path="url(#clip0_20523_39737)">
<g clip-path="url(#clip1_20523_39737)">
<path fill-rule="evenodd" clip-rule="evenodd" d="M10.0003 3.33333C8.23222 3.33333 6.53652 4.03571 5.28628 5.28595C4.03604 6.5362 3.33366 8.23189 3.33366 10C3.33366 11.7681 4.03604 13.4638 5.28628 14.714C6.53652 15.9643 8.23222 16.6667 10.0003 16.6667C11.7684 16.6667 13.4641 15.9643 14.7144 14.714C15.9646 13.4638 16.667 11.7681 16.667 10C16.667 8.23189 15.9646 6.5362 14.7144 5.28595C13.4641 4.03571 11.7684 3.33333 10.0003 3.33333ZM1.66699 10C1.66699 5.3975 5.39783 1.66667 10.0003 1.66667C14.6028 1.66667 18.3337 5.3975 18.3337 10C18.3337 14.6025 14.6028 18.3333 10.0003 18.3333C5.39783 18.3333 1.66699 14.6025 1.66699 10ZM5.83366 6.66667C5.83366 6.44565 5.92146 6.23369 6.07774 6.07741C6.23402 5.92113 6.44598 5.83333 6.66699 5.83333H8.33366C8.55467 5.83333 8.76663 5.92113 8.92291 6.07741C9.0792 6.23369 9.16699 6.44565 9.16699 6.66667C9.16699 6.88768 9.0792 7.09964 8.92291 7.25592C8.76663 7.4122 8.55467 7.5 8.33366 7.5H6.66699C6.44598 7.5 6.23402 7.4122 6.07774 7.25592C5.92146 7.09964 5.83366 6.88768 5.83366 6.66667ZM10.8337 6.66667C10.8337 6.44565 10.9215 6.23369 11.0777 6.07741C11.234 5.92113 11.446 5.83333 11.667 5.83333H13.3337C13.5547 5.83333 13.7666 5.92113 13.9229 6.07741C14.0792 6.23369 14.167 6.44565 14.167 6.66667C14.167 6.88768 14.0792 7.09964 13.9229 7.25592C13.7666 7.4122 13.5547 7.5 13.3337 7.5H11.667C11.446 7.5 11.234 7.4122 11.0777 7.25592C10.9215 7.09964 10.8337 6.88768 10.8337 6.66667ZM7.50033 10C7.50033 9.77899 7.58812 9.56702 7.7444 9.41074C7.90068 9.25446 8.11265 9.16667 8.33366 9.16667H11.667C11.888 9.16667 12.1 9.25446 12.2562 9.41074C12.4125 9.56702 12.5003 9.77899 12.5003 10V12.5C12.5003 13.163 12.2369 13.7989 11.7681 14.2678C11.2993 14.7366 10.6634 15 10.0003 15C9.33728 15 8.7014 14.7366 8.23256 14.2678C7.76372 13.7989 7.50033 13.163 7.50033 12.5V10ZM9.16699 10.8333V12.5C9.16699 12.721 9.25479 12.933 9.41107 13.0893C9.56735 13.2455 9.77931 13.3333 10.0003 13.3333C10.2213 13.3333 10.4333 13.2455 10.5896 13.0893C10.7459 12.933 10.8337 12.721 10.8337 12.5V10.8333H9.16699Z" fill="#F7BA00"/>
</g>
</g>
<defs>
<clipPath id="clip0_20523_39737">
<rect width="20" height="20" fill="white"/>
</clipPath>
<clipPath id="clip1_20523_39737">
<rect width="20" height="20" fill="white"/>
</clipPath>
</defs>
</svg>
