<svg width="20" height="20" viewBox="0 0 20 20" fill="none" xmlns="http://www.w3.org/2000/svg">
<g clip-path="url(#clip0_20523_39741)">
<g clip-path="url(#clip1_20523_39741)">
<path d="M10.0003 1.66666C14.6028 1.66666 18.3337 5.3975 18.3337 10C18.3337 14.6025 14.6028 18.3333 10.0003 18.3333C5.39783 18.3333 1.66699 14.6025 1.66699 10C1.66699 5.3975 5.39783 1.66666 10.0003 1.66666ZM10.0003 3.33333C8.23222 3.33333 6.53652 4.03571 5.28628 5.28595C4.03604 6.5362 3.33366 8.23189 3.33366 10C3.33366 11.7681 4.03604 13.4638 5.28628 14.714C6.53652 15.9643 8.23222 16.6667 10.0003 16.6667C11.7684 16.6667 13.4641 15.9643 14.7144 14.714C15.9646 13.4638 16.667 11.7681 16.667 10C16.667 8.23189 15.9646 6.5362 14.7144 5.28595C13.4641 4.03571 11.7684 3.33333 10.0003 3.33333ZM10.0003 11.6667C11.0562 11.6667 12.0228 12.0608 12.757 12.7083C12.9228 12.8546 13.0236 13.0608 13.0374 13.2815C13.0511 13.5021 12.9766 13.7192 12.8303 13.885C12.684 14.0508 12.4778 14.1516 12.2572 14.1654C12.0365 14.1791 11.8194 14.1046 11.6537 13.9583C11.1976 13.5546 10.6094 13.3322 10.0003 13.3333C9.36616 13.3333 8.78783 13.5683 8.34699 13.9583C8.26492 14.0307 8.16939 14.0862 8.06585 14.1217C7.96232 14.1572 7.85282 14.1719 7.74359 14.1651C7.63437 14.1582 7.52756 14.1299 7.42927 14.0818C7.33098 14.0337 7.24313 13.9667 7.17074 13.8846C7.09835 13.8025 7.04284 13.707 7.00736 13.6034C6.97189 13.4999 6.95716 13.3904 6.96401 13.2812C6.97086 13.172 6.99915 13.0652 7.04728 12.9669C7.0954 12.8686 7.16242 12.7807 7.24449 12.7083C8.005 12.0361 8.9853 11.6655 10.0003 11.6667ZM7.53449 8.05333L7.58866 7.96C7.63717 7.8613 7.70473 7.77317 7.78746 7.70071C7.87019 7.62824 7.96644 7.57287 8.07067 7.53778C8.1749 7.50269 8.28505 7.48858 8.39476 7.49626C8.50447 7.50394 8.61157 7.53327 8.7099 7.58254C8.80822 7.63181 8.89582 7.70006 8.96764 7.78334C9.03946 7.86663 9.09409 7.96331 9.12837 8.06781C9.16265 8.17231 9.1759 8.28256 9.16737 8.39221C9.15884 8.50185 9.12869 8.60873 9.07866 8.70666C8.71449 9.43333 7.98949 10 7.08366 10C6.17783 10 5.45199 9.43333 5.08866 8.70666C4.99314 8.51655 4.97396 8.2971 5.03505 8.0933C5.09613 7.88949 5.23286 7.71677 5.4172 7.61054C5.60154 7.5043 5.81953 7.4726 6.0265 7.52192C6.23346 7.57125 6.41372 7.69787 6.53033 7.87583L6.57866 7.96C6.71366 8.23 6.92033 8.33333 7.08366 8.33333C7.22533 8.33333 7.40199 8.25416 7.53449 8.05333ZM14.5403 7.58833C14.7379 7.68735 14.8881 7.8608 14.9578 8.07053C15.0275 8.28025 15.011 8.50908 14.912 8.70666C14.5487 9.43333 13.8228 10 12.917 10C12.0112 10 11.2862 9.43333 10.922 8.70666C10.8265 8.51655 10.8073 8.2971 10.8684 8.0933C10.9295 7.88949 11.0662 7.71677 11.2505 7.61054C11.4349 7.5043 11.6529 7.4726 11.8598 7.52192C12.0668 7.57125 12.2471 7.69787 12.3637 7.87583L12.412 7.96C12.547 8.23 12.7537 8.33333 12.917 8.33333C13.0587 8.33333 13.2353 8.25416 13.3678 8.05333L13.422 7.96C13.521 7.76242 13.6945 7.61226 13.9042 7.54256C14.1139 7.47286 14.3427 7.48932 14.5403 7.58833Z" fill="#109CCA"/>
</g>
</g>
<defs>
<clipPath id="clip0_20523_39741">
<rect width="20" height="20" fill="white"/>
</clipPath>
<clipPath id="clip1_20523_39741">
<rect width="20" height="20" fill="white"/>
</clipPath>
</defs>
</svg>
