<svg width="32" height="32" viewBox="0 0 32 32" fill="none" xmlns="http://www.w3.org/2000/svg">
<path fill-rule="evenodd" clip-rule="evenodd" d="M16 2.66667C23.364 2.66667 29.3333 8.636 29.3333 16C29.3333 23.364 23.364 29.3333 16 29.3333C8.63599 29.3333 2.66666 23.364 2.66666 16C2.66666 8.636 8.63599 2.66667 16 2.66667ZM19.7333 18.476C18.7376 19.455 17.3964 20.0024 16 20C14.6036 20.0024 13.2624 19.455 12.2667 18.476C12.1423 18.3505 11.9942 18.251 11.831 18.1832C11.6678 18.1155 11.4927 18.0809 11.316 18.0813C11.1393 18.0818 10.9645 18.1174 10.8017 18.1861C10.6389 18.2547 10.4913 18.3551 10.3676 18.4812C10.2439 18.6074 10.1465 18.7569 10.0811 18.9211C10.0157 19.0852 9.98357 19.2607 9.98659 19.4374C9.9896 19.6141 10.0277 19.7884 10.0987 19.9502C10.1696 20.112 10.2721 20.2581 10.4 20.38C11.8942 21.8477 13.9055 22.669 16 22.6667C18.0944 22.669 20.1058 21.8477 21.6 20.38C21.8466 20.1312 21.9854 19.7953 21.9864 19.445C21.9874 19.0947 21.8504 18.7581 21.6052 18.5079C21.3599 18.2577 21.0261 18.1142 20.6758 18.1082C20.3255 18.1022 19.987 18.2343 19.7333 18.476ZM11.3333 10.6667C10.8029 10.6667 10.2942 10.8774 9.91911 11.2525C9.54404 11.6275 9.33332 12.1362 9.33332 12.6667C9.33332 13.1971 9.54404 13.7058 9.91911 14.0809C10.2942 14.456 10.8029 14.6667 11.3333 14.6667C11.8638 14.6667 12.3725 14.456 12.7475 14.0809C13.1226 13.7058 13.3333 13.1971 13.3333 12.6667C13.3333 12.1362 13.1226 11.6275 12.7475 11.2525C12.3725 10.8774 11.8638 10.6667 11.3333 10.6667ZM20.6667 10.6667C20.1362 10.6667 19.6275 10.8774 19.2524 11.2525C18.8774 11.6275 18.6667 12.1362 18.6667 12.6667C18.6667 13.1971 18.8774 13.7058 19.2524 14.0809C19.6275 14.456 20.1362 14.6667 20.6667 14.6667C21.1971 14.6667 21.7058 14.456 22.0809 14.0809C22.4559 13.7058 22.6667 13.1971 22.6667 12.6667C22.6667 12.1362 22.4559 11.6275 22.0809 11.2525C21.7058 10.8774 21.1971 10.6667 20.6667 10.6667Z" fill="#B0B0B0"/>
</svg>
