<svg width="30" height="30" viewBox="0 0 30 30" fill="none" xmlns="http://www.w3.org/2000/svg">
<path fill-rule="evenodd" clip-rule="evenodd" d="M15 2.5C21.9037 2.5 27.5 8.09625 27.5 15C27.5 21.9037 21.9037 27.5 15 27.5C8.09625 27.5 2.5 21.9037 2.5 15C2.5 8.09625 8.09625 2.5 15 2.5ZM18.6475 18.2137L18.625 18.1938C18.3904 17.952 18.1097 17.7597 17.7995 17.6284C17.4893 17.4971 17.1559 17.4294 16.819 17.4293C16.4822 17.4292 16.1487 17.4966 15.8384 17.6277C15.5281 17.7588 15.2472 17.9509 15.0125 18.1925C15.011 18.1943 15.0091 18.1958 15.0069 18.1968C15.0047 18.1978 15.0024 18.1984 15 18.1984C14.9976 18.1984 14.9953 18.1978 14.9931 18.1968C14.9909 18.1958 14.989 18.1943 14.9875 18.1925C14.5388 17.7302 13.93 17.4575 13.2864 17.4306C12.6428 17.4036 12.0133 17.6244 11.5275 18.0475L11.375 18.1938C11.355 18.2138 11.33 18.24 11.3025 18.2362L11.2738 18.2225L10.845 17.8287C10.6109 17.6124 10.3029 17.4936 9.98415 17.4968C9.66537 17.4999 9.35984 17.6248 9.13006 17.8458C8.90029 18.0668 8.76364 18.3672 8.74806 18.6856C8.73248 19.004 8.83915 19.3164 9.04625 19.5588L9.155 19.6713L9.585 20.065C10.0476 20.4888 10.65 20.7275 11.2773 20.7356C11.9046 20.7436 12.5129 20.5205 12.9862 20.1087L13.1512 19.9513C13.1625 19.9375 13.1788 19.9175 13.1938 19.9325C14.1813 20.9525 15.8187 20.9525 16.8062 19.9325L16.8212 19.93L16.8562 19.96C17.7687 20.9 19.2313 20.9913 20.25 20.2038L20.415 20.065L20.845 19.6713C21.0794 19.4564 21.2231 19.1603 21.2469 18.8432C21.2706 18.5261 21.1727 18.2119 20.9729 17.9645C20.7731 17.7171 20.4866 17.5551 20.1716 17.5116C19.8567 17.468 19.5369 17.5461 19.2775 17.73L19.155 17.8287L18.7262 18.2225C18.6975 18.2475 18.67 18.235 18.6475 18.2137ZM10.625 10C10.1277 10 9.65081 10.1975 9.29917 10.5492C8.94754 10.9008 8.75 11.3777 8.75 11.875C8.75 12.3723 8.94754 12.8492 9.29917 13.2008C9.65081 13.5525 10.1277 13.75 10.625 13.75C11.1223 13.75 11.5992 13.5525 11.9508 13.2008C12.3025 12.8492 12.5 12.3723 12.5 11.875C12.5 11.3777 12.3025 10.9008 11.9508 10.5492C11.5992 10.1975 11.1223 10 10.625 10ZM19.375 10C18.8777 10 18.4008 10.1975 18.0492 10.5492C17.6975 10.9008 17.5 11.3777 17.5 11.875C17.5 12.3723 17.6975 12.8492 18.0492 13.2008C18.4008 13.5525 18.8777 13.75 19.375 13.75C19.8723 13.75 20.3492 13.5525 20.7008 13.2008C21.0525 12.8492 21.25 12.3723 21.25 11.875C21.25 11.3777 21.0525 10.9008 20.7008 10.5492C20.3492 10.1975 19.8723 10 19.375 10Z" fill="#FF6666"/>
</svg>
