<svg width="40" height="40" viewBox="0 0 40 40" fill="none" xmlns="http://www.w3.org/2000/svg">
<g clip-path="url(#clip0_24515_48979)">
<path fill-rule="evenodd" clip-rule="evenodd" d="M19.9999 3.33337C29.2049 3.33337 36.6666 10.795 36.6666 20C36.6666 29.205 29.2049 36.6667 19.9999 36.6667C10.7949 36.6667 3.33325 29.205 3.33325 20C3.33325 10.795 10.7949 3.33337 19.9999 3.33337ZM24.8633 24.285L24.8333 24.2584C24.5205 23.936 24.1462 23.6797 23.7326 23.5046C23.319 23.3295 22.8744 23.2392 22.4253 23.2391C21.9761 23.2389 21.5315 23.3289 21.1178 23.5037C20.704 23.6785 20.3296 23.9346 20.0166 24.2567C20.0146 24.2592 20.012 24.2611 20.0091 24.2625C20.0062 24.2638 20.0031 24.2645 19.9999 24.2645C19.9967 24.2645 19.9936 24.2638 19.9907 24.2625C19.9878 24.2611 19.9853 24.2592 19.9833 24.2567C19.385 23.6404 18.5733 23.2768 17.7151 23.2408C16.8569 23.2048 16.0176 23.4992 15.3699 24.0634L15.1666 24.2584C15.1399 24.285 15.1066 24.32 15.0699 24.315L15.0316 24.2967L14.4599 23.7717C14.1478 23.4832 13.7372 23.3249 13.3121 23.3291C12.8871 23.3333 12.4797 23.4998 12.1733 23.7944C11.867 24.0891 11.6848 24.4896 11.664 24.9142C11.6432 25.3388 11.7854 25.7552 12.0616 26.0784L12.2066 26.2284L12.7799 26.7534C13.3967 27.3184 14.1999 27.6367 15.0363 27.6475C15.8727 27.6582 16.6838 27.3607 17.3149 26.8117L17.5349 26.6017C17.5499 26.5834 17.5716 26.5567 17.5916 26.5767C18.9083 27.9367 21.0916 27.9367 22.4083 26.5767L22.4283 26.5734L22.4749 26.6134C23.6916 27.8667 25.6416 27.9884 26.9999 26.9384L27.2199 26.7534L27.7933 26.2284C28.1058 25.9419 28.2974 25.5471 28.3291 25.1243C28.3608 24.7015 28.2301 24.2826 27.9638 23.9527C27.6974 23.6228 27.3154 23.4069 26.8954 23.3488C26.4755 23.2907 26.0491 23.3949 25.7033 23.64L25.5399 23.7717L24.9683 24.2967C24.9299 24.33 24.8933 24.3134 24.8633 24.285ZM14.1666 13.3334C13.5035 13.3334 12.8677 13.5968 12.3988 14.0656C11.93 14.5344 11.6666 15.1703 11.6666 15.8334C11.6666 16.4964 11.93 17.1323 12.3988 17.6011C12.8677 18.07 13.5035 18.3334 14.1666 18.3334C14.8296 18.3334 15.4655 18.07 15.9344 17.6011C16.4032 17.1323 16.6666 16.4964 16.6666 15.8334C16.6666 15.1703 16.4032 14.5344 15.9344 14.0656C15.4655 13.5968 14.8296 13.3334 14.1666 13.3334ZM25.8333 13.3334C25.1702 13.3334 24.5343 13.5968 24.0655 14.0656C23.5966 14.5344 23.3333 15.1703 23.3333 15.8334C23.3333 16.4964 23.5966 17.1323 24.0655 17.6011C24.5343 18.07 25.1702 18.3334 25.8333 18.3334C26.4963 18.3334 27.1322 18.07 27.601 17.6011C28.0699 17.1323 28.3333 16.4964 28.3333 15.8334C28.3333 15.1703 28.0699 14.5344 27.601 14.0656C27.1322 13.5968 26.4963 13.3334 25.8333 13.3334Z" fill="#E5D2D2"/>
</g>
<defs>
<clipPath id="clip0_24515_48979">
<rect width="40" height="40" fill="white"/>
</clipPath>
</defs>
</svg>
