<svg width="11" height="18" viewBox="0 0 11 18" fill="none" xmlns="http://www.w3.org/2000/svg">
<path d="M10.2598 8.94922C10.2598 9.11849 10.2272 9.27474 10.1621 9.41797C10.097 9.5612 9.99935 9.69792 9.86914 9.82812L2.26172 17.2695C2.04688 17.4909 1.77995 17.6016 1.46094 17.6016C1.2526 17.6016 1.06055 17.5495 0.884766 17.4453C0.708984 17.3477 0.56901 17.2109 0.464844 17.0352C0.367188 16.8659 0.318359 16.6771 0.318359 16.4688C0.318359 16.1562 0.435547 15.8796 0.669922 15.6387L7.52539 8.94922L0.669922 2.25977C0.435547 2.01888 0.318359 1.74544 0.318359 1.43945C0.318359 1.22461 0.367188 1.03255 0.464844 0.863281C0.56901 0.69401 0.708984 0.560547 0.884766 0.462891C1.06055 0.358724 1.2526 0.306641 1.46094 0.306641C1.77995 0.306641 2.04688 0.414062 2.26172 0.628906L9.86914 8.07031C9.99935 8.20052 10.097 8.33724 10.1621 8.48047C10.2272 8.6237 10.2598 8.77995 10.2598 8.94922Z" fill="#2F7265"/>
</svg>
