<svg width="25" height="24" viewBox="0 0 25 24" fill="none" xmlns="http://www.w3.org/2000/svg">
<g clip-path="url(#clip0_18765_32449)">
<path d="M12.5001 2C13.2699 1.99921 14.0345 2.12558 14.7631 2.374C14.0726 3.08786 13.6377 4.01009 13.5261 4.99697C13.4145 5.98384 13.6325 6.97991 14.1461 7.82994C14.6598 8.67996 15.4402 9.33618 16.3657 9.69633C17.2913 10.0565 18.31 10.1003 19.2631 9.821L19.5001 9.743V12.527C19.5002 12.643 19.5205 12.758 19.5601 12.867L19.6061 12.974L21.3221 16.407C21.4016 16.566 21.4414 16.7419 21.4381 16.9196C21.4347 17.0974 21.3884 17.2717 21.3029 17.4276C21.2175 17.5835 21.0956 17.7164 20.9476 17.8148C20.7996 17.9133 20.6299 17.9744 20.4531 17.993L20.3381 17.999H4.66209C4.48426 17.9991 4.30906 17.956 4.15151 17.8735C3.99397 17.791 3.85877 17.6715 3.75751 17.5254C3.65625 17.3792 3.59194 17.2106 3.5701 17.0341C3.54825 16.8576 3.56953 16.6785 3.63209 16.512L3.67809 16.407L5.39509 12.974C5.4467 12.8702 5.47986 12.7582 5.49309 12.643L5.50009 12.528V9C5.50009 7.14349 6.23759 5.36301 7.55035 4.05026C8.8631 2.7375 10.6436 2 12.5001 2ZM18.0001 3C18.6631 3 19.299 3.2634 19.7679 3.73224C20.2367 4.20108 20.5001 4.83696 20.5001 5.5C20.5001 6.16304 20.2367 6.79893 19.7679 7.26777C19.299 7.73661 18.6631 8 18.0001 8C17.3371 8 16.7012 7.73661 16.2323 7.26777C15.7635 6.79893 15.5001 6.16304 15.5001 5.5C15.5001 4.83696 15.7635 4.20108 16.2323 3.73224C16.7012 3.2634 17.3371 3 18.0001 3ZM12.5001 21C11.8795 21.0002 11.2741 20.8079 10.7672 20.4498C10.2604 20.0916 9.8771 19.5851 9.67009 19H15.3301C15.1231 19.5851 14.7398 20.0916 14.2329 20.4498C13.7261 20.8079 13.1207 21.0002 12.5001 21Z" fill="#2f7265ff"/>
</g>
<defs>
<clipPath id="clip0_18765_32449">
<rect width="24" height="24" fill="white" transform="translate(0.5)"/>
</clipPath>
</defs>
</svg>
