<svg width="11" height="18" viewBox="0 0 11 18" fill="none" xmlns="http://www.w3.org/2000/svg">
<path d="M0.75 8.94922C0.75 8.77995 0.779297 8.6237 0.837891 8.48047C0.902995 8.33724 1.00065 8.20052 1.13086 8.07031L8.73828 0.628906C8.95964 0.414062 9.22656 0.306641 9.53906 0.306641C9.75391 0.306641 9.94596 0.358724 10.1152 0.462891C10.291 0.560547 10.431 0.69401 10.5352 0.863281C10.6393 1.03255 10.6914 1.22461 10.6914 1.43945C10.6914 1.74544 10.571 2.01888 10.3301 2.25977L3.47461 8.94922L10.3301 15.6387C10.571 15.8796 10.6914 16.1562 10.6914 16.4688C10.6914 16.6771 10.6393 16.8659 10.5352 17.0352C10.431 17.2109 10.291 17.3477 10.1152 17.4453C9.94596 17.5495 9.75391 17.6016 9.53906 17.6016C9.22656 17.6016 8.95964 17.4909 8.73828 17.2695L1.13086 9.82812C1.00065 9.69792 0.902995 9.5612 0.837891 9.41797C0.779297 9.27474 0.75 9.11849 0.75 8.94922Z" fill="#2F7265"/>
</svg>
