<svg width="80" height="16" viewBox="0 0 80 16" fill="none" xmlns="http://www.w3.org/2000/svg">
<rect opacity="0.66" y="7" width="2" height="2" rx="1" fill="#454545"/>
<rect opacity="0.66" x="5.57129" y="4" width="2" height="8" rx="1" fill="#454545"/>
<rect opacity="0.66" x="11.1431" y="1" width="2" height="14" rx="1" fill="#454545"/>
<rect opacity="0.66" x="16.7144" y="6" width="2" height="4" rx="1" fill="#454545"/>
<rect opacity="0.66" x="22.2856" width="2" height="16" rx="1" fill="#454545"/>
<rect opacity="0.66" x="27.8569" y="1" width="2" height="14" rx="1" fill="#454545"/>
<rect opacity="0.66" x="33.4287" y="3" width="2" height="10" rx="1" fill="#454545"/>
<rect opacity="0.66" x="39" y="3" width="2" height="10" rx="1" fill="#454545"/>
<rect opacity="0.66" x="44.5713" y="3" width="2" height="10" rx="1" fill="#454545"/>
<rect opacity="0.66" x="50.1431" y="1" width="2" height="14" rx="1" fill="#454545"/>
<rect opacity="0.66" x="55.7144" y="3" width="2" height="10" rx="1" fill="#454545"/>
<rect opacity="0.66" x="61.2856" width="2" height="16" rx="1" fill="#454545"/>
<rect opacity="0.66" x="66.8569" y="3" width="2" height="10" rx="1" fill="#454545"/>
<rect opacity="0.66" x="72.4287" y="6" width="2" height="4" rx="1" fill="#454545"/>
<rect opacity="0.66" x="78" y="7" width="2" height="2" rx="1" fill="#454545"/>
</svg>
