<svg width="25" height="24" viewBox="0 0 25 24" fill="none" xmlns="http://www.w3.org/2000/svg">
<g clip-path="url(#clip0_22602_22098)">
<path fill-rule="evenodd" clip-rule="evenodd" d="M3.5 5C3.5 4.46957 3.71071 3.96086 4.08579 3.58579C4.46086 3.21071 4.96957 3 5.5 3H7.5C7.76522 3 8.01957 3.10536 8.20711 3.29289C8.39464 3.48043 8.5 3.73478 8.5 4C8.5 4.26522 8.39464 4.51957 8.20711 4.70711C8.01957 4.89464 7.76522 5 7.5 5H5.5V7C5.5 7.26522 5.39464 7.51957 5.20711 7.70711C5.01957 7.89464 4.76522 8 4.5 8C4.23478 8 3.98043 7.89464 3.79289 7.70711C3.60536 7.51957 3.5 7.26522 3.5 7V5ZM16.5 4C16.5 3.73478 16.6054 3.48043 16.7929 3.29289C16.9804 3.10536 17.2348 3 17.5 3H19.5C20.0304 3 20.5391 3.21071 20.9142 3.58579C21.2893 3.96086 21.5 4.46957 21.5 5V7C21.5 7.26522 21.3946 7.51957 21.2071 7.70711C21.0196 7.89464 20.7652 8 20.5 8C20.2348 8 19.9804 7.89464 19.7929 7.70711C19.6054 7.51957 19.5 7.26522 19.5 7V5H17.5C17.2348 5 16.9804 4.89464 16.7929 4.70711C16.6054 4.51957 16.5 4.26522 16.5 4ZM8.5 9C8.76522 9 9.01957 9.10536 9.20711 9.29289C9.39464 9.48043 9.5 9.73478 9.5 10C9.5 9.73478 9.60536 9.48043 9.79289 9.29289C9.98043 9.10536 10.2348 9 10.5 9C10.7652 9 11.0196 9.10536 11.2071 9.29289C11.3946 9.48043 11.5 9.73478 11.5 10V14C11.5 14.2652 11.3946 14.5196 11.2071 14.7071C11.0196 14.8946 10.7652 15 10.5 15C10.2348 15 9.98043 14.8946 9.79289 14.7071C9.60536 14.5196 9.5 14.2652 9.5 14C9.5 14.2652 9.39464 14.5196 9.20711 14.7071C9.01957 14.8946 8.76522 15 8.5 15C8.23478 15 7.98043 14.8946 7.79289 14.7071C7.60536 14.5196 7.5 14.2652 7.5 14V10C7.5 9.73478 7.60536 9.48043 7.79289 9.29289C7.98043 9.10536 8.23478 9 8.5 9ZM13.5 9C13.7652 9 14.0196 9.10536 14.2071 9.29289C14.3946 9.48043 14.5 9.73478 14.5 10V14C14.5 14.2652 14.3946 14.5196 14.2071 14.7071C14.0196 14.8946 13.7652 15 13.5 15C13.2348 15 12.9804 14.8946 12.7929 14.7071C12.6054 14.5196 12.5 14.2652 12.5 14V10C12.5 9.73478 12.6054 9.48043 12.7929 9.29289C12.9804 9.10536 13.2348 9 13.5 9ZM17 9.134C16.848 9.04623 16.6755 9.00003 16.5 9.00003C16.3245 9.00002 16.152 9.04623 16 9.13399C15.848 9.22176 15.7218 9.34799 15.634 9.50001C15.5462 9.65202 15.5 9.82447 15.5 10V14C15.5 14.1755 15.5462 14.348 15.634 14.5C15.7218 14.652 15.848 14.7782 16 14.866C16.152 14.9538 16.3245 15 16.5 15C16.6755 15 16.848 14.9538 17 14.866C17.152 14.9538 17.3245 15 17.5 15C17.6755 15 17.848 14.9538 18 14.866C18.152 14.7782 18.2782 14.652 18.366 14.5C18.4538 14.348 18.5 14.1755 18.5 14V10C18.5 9.82447 18.4538 9.65202 18.366 9.50001C18.2782 9.34799 18.152 9.22176 18 9.13399C17.848 9.04623 17.6755 9.00002 17.5 9.00003C17.3245 9.00003 17.152 9.04623 17 9.134ZM4.5 10C4.76522 10 5.01957 10.1054 5.20711 10.2929C5.39464 10.4804 5.5 10.7348 5.5 11V13C5.5 13.2652 5.39464 13.5196 5.20711 13.7071C5.01957 13.8946 4.76522 14 4.5 14C4.23478 14 3.98043 13.8946 3.79289 13.7071C3.60536 13.5196 3.5 13.2652 3.5 13V11C3.5 10.7348 3.60536 10.4804 3.79289 10.2929C3.98043 10.1054 4.23478 10 4.5 10ZM20.5 10C20.7652 10 21.0196 10.1054 21.2071 10.2929C21.3946 10.4804 21.5 10.7348 21.5 11V13C21.5 13.2652 21.3946 13.5196 21.2071 13.7071C21.0196 13.8946 20.7652 14 20.5 14C20.2348 14 19.9804 13.8946 19.7929 13.7071C19.6054 13.5196 19.5 13.2652 19.5 13V11C19.5 10.7348 19.6054 10.4804 19.7929 10.2929C19.9804 10.1054 20.2348 10 20.5 10ZM4.5 16C4.76522 16 5.01957 16.1054 5.20711 16.2929C5.39464 16.4804 5.5 16.7348 5.5 17V19H7.5C7.76522 19 8.01957 19.1054 8.20711 19.2929C8.39464 19.4804 8.5 19.7348 8.5 20C8.5 20.2652 8.39464 20.5196 8.20711 20.7071C8.01957 20.8946 7.76522 21 7.5 21H5.5C4.96957 21 4.46086 20.7893 4.08579 20.4142C3.71071 20.0391 3.5 19.5304 3.5 19V17C3.5 16.7348 3.60536 16.4804 3.79289 16.2929C3.98043 16.1054 4.23478 16 4.5 16ZM20.5 16C20.7652 16 21.0196 16.1054 21.2071 16.2929C21.3946 16.4804 21.5 16.7348 21.5 17V19C21.5 19.5304 21.2893 20.0391 20.9142 20.4142C20.5391 20.7893 20.0304 21 19.5 21H17.5C17.2348 21 16.9804 20.8946 16.7929 20.7071C16.6054 20.5196 16.5 20.2652 16.5 20C16.5 19.7348 16.6054 19.4804 16.7929 19.2929C16.9804 19.1054 17.2348 19 17.5 19H19.5V17C19.5 16.7348 19.6054 16.4804 19.7929 16.2929C19.9804 16.1054 20.2348 16 20.5 16Z" fill="#6D6D6D"/>
</g>
<defs>
<clipPath id="clip0_22602_22098">
<rect width="24" height="24" fill="white" transform="translate(0.5)"/>
</clipPath>
</defs>
</svg>
