<svg width="30" height="30" viewBox="0 0 30 30" fill="none" xmlns="http://www.w3.org/2000/svg">
<g clip-path="url(#clip0_22631_21745)">
<path d="M15 2.5C21.9037 2.5 27.5 8.09625 27.5 15C27.5 21.9037 21.9037 27.5 15 27.5C8.09625 27.5 2.5 21.9037 2.5 15C2.5 8.09625 8.09625 2.5 15 2.5ZM15 5C12.3478 5 9.8043 6.05357 7.92893 7.92893C6.05357 9.8043 5 12.3478 5 15C5 17.6522 6.05357 20.1957 7.92893 22.0711C9.8043 23.9464 12.3478 25 15 25C17.6522 25 20.1957 23.9464 22.0711 22.0711C23.9464 20.1957 25 17.6522 25 15C25 12.3478 23.9464 9.8043 22.0711 7.92893C20.1957 6.05357 17.6522 5 15 5ZM15 17.5C16.5837 17.5 18.0337 18.0913 19.135 19.0625C19.3836 19.282 19.5349 19.5912 19.5555 19.9222C19.5762 20.2532 19.4645 20.5789 19.245 20.8275C19.0255 21.0761 18.7163 21.2274 18.3853 21.248C18.0543 21.2687 17.7286 21.157 17.48 20.9375C16.796 20.3319 15.9136 19.9984 15 20C14.0487 20 13.1812 20.3525 12.52 20.9375C12.3969 21.0461 12.2536 21.1294 12.0983 21.1826C11.943 21.2358 11.7787 21.2579 11.6149 21.2476C11.4511 21.2373 11.2909 21.1949 11.1434 21.1227C10.996 21.0505 10.8642 20.95 10.7556 20.8269C10.647 20.7038 10.5638 20.5605 10.5106 20.4052C10.4573 20.2499 10.4353 20.0856 10.4455 19.9218C10.4558 19.7579 10.4982 19.5977 10.5704 19.4503C10.6426 19.3029 10.7431 19.1711 10.8663 19.0625C12.007 18.0541 13.4775 17.4983 15 17.5ZM11.3013 12.08L11.3825 11.94C11.4553 11.7919 11.5566 11.6598 11.6807 11.5511C11.8048 11.4424 11.9492 11.3593 12.1055 11.3067C12.2619 11.254 12.4271 11.2329 12.5916 11.2444C12.7562 11.2559 12.9169 11.2999 13.0644 11.3738C13.2118 11.4477 13.3432 11.5501 13.451 11.675C13.5587 11.7999 13.6406 11.945 13.6921 12.1017C13.7435 12.2585 13.7634 12.4238 13.7506 12.5883C13.7378 12.7528 13.6925 12.9131 13.6175 13.06C13.0712 14.15 11.9838 15 10.625 15C9.26625 15 8.1775 14.15 7.6325 13.06C7.48923 12.7748 7.46046 12.4457 7.55208 12.1399C7.64371 11.8342 7.8488 11.5752 8.12531 11.4158C8.40182 11.2565 8.72881 11.2089 9.03925 11.2829C9.3497 11.3569 9.62009 11.5468 9.795 11.8138L9.8675 11.94C10.07 12.345 10.38 12.5 10.625 12.5C10.8375 12.5 11.1025 12.3812 11.3013 12.08ZM21.81 11.3825C22.1064 11.531 22.3316 11.7912 22.4362 12.1058C22.5407 12.4204 22.516 12.7636 22.3675 13.06C21.8225 14.15 20.7337 15 19.375 15C18.0162 15 16.9288 14.15 16.3825 13.06C16.2392 12.7748 16.2105 12.4457 16.3021 12.1399C16.3937 11.8342 16.5988 11.5752 16.8753 11.4158C17.1518 11.2565 17.4788 11.2089 17.7893 11.2829C18.0997 11.3569 18.3701 11.5468 18.545 11.8138L18.6175 11.94C18.82 12.345 19.13 12.5 19.375 12.5C19.5875 12.5 19.8525 12.3812 20.0513 12.08L20.1325 11.94C20.281 11.6436 20.5412 11.4184 20.8558 11.3138C21.1704 11.2093 21.5136 11.234 21.81 11.3825Z" fill="#B0B0B0"/>
</g>
<defs>
<clipPath id="clip0_22631_21745">
<rect width="30" height="30" fill="white"/>
</clipPath>
</defs>
</svg>
