<svg width="175" height="158" viewBox="0 0 175 158" fill="none" xmlns="http://www.w3.org/2000/svg">
<g clip-path="url(#clip0_18765_48292)">
<rect width="175" height="158" fill="white" fill-opacity="0.05"/>
<path d="M175.135 106.187C174.917 100.68 173.466 95.6441 170.999 90.8256C167.481 83.9421 163.309 77.5296 158.666 71.3707C156.961 69.0883 155.474 66.6247 154.495 63.9076C153.225 60.4658 152.79 56.8067 151.992 53.2563C151.339 50.4304 150.904 47.5684 150.142 44.7063C149.054 40.5037 147.603 36.4099 145.535 32.6421C142.307 26.6281 138.171 21.3024 133.202 16.5564C128.885 12.4264 123.916 9.31067 118.692 6.48482C115.573 4.78206 112.163 3.62274 108.826 2.5721C105.67 1.59392 102.333 1.05049 99.0319 0.615745C95.2594 0.0723119 91.4869 -0.00014583 87.7144 0.0723119C82.7086 0.14477 77.7391 0.543287 72.8421 1.95621C69.65 2.89816 66.4578 3.87634 63.4471 5.14435C55.5757 8.47741 49.1914 13.9842 43.2425 19.962C41.4288 21.7734 40.0504 23.9834 38.4543 25.9397C35.6613 29.3452 33.6299 33.2217 31.4535 36.9895C27.7535 43.4383 25.1781 50.4667 21.0428 56.698C18.6488 60.2847 15.9645 63.6178 13.4253 67.0595C10.0518 71.6606 6.7509 76.3341 4.03036 81.3699C1.70882 85.6449 0.511783 90.3547 0.0764953 95.1369C-0.24997 98.7235 0.910796 102.274 2.65195 105.353C4.57447 108.795 7.25874 111.693 11.3214 112.961C13.9694 113.795 16.5449 114.845 19.3742 114.447C20.3174 114.338 20.4987 115.099 20.535 115.715C20.6438 118.831 21.1154 121.91 21.6958 124.989C22.0585 126.982 22.4575 129.047 23.0742 130.895C24.2712 134.445 24.9967 138.104 26.5928 141.546C27.8986 144.372 29.2045 147.198 31.3084 149.553C33.3397 151.763 35.8063 153.357 38.4543 154.77C40.9572 156.074 43.7141 156.726 46.3621 157.269C49.0826 157.813 52.0571 157.342 54.7776 156.472C59.0942 155.096 62.8667 152.705 66.1677 149.48C67.5098 148.176 68.9608 146.799 69.7225 145.314C70.7019 143.357 72.0078 143.394 73.495 143.575C76.1793 143.901 78.8635 144.191 81.5841 144.082C86.8075 143.865 91.9584 144.988 97.1819 144.77C100.193 144.662 100.301 144.734 101.535 147.488C101.607 147.633 101.607 147.85 101.68 147.995C104.038 152.342 107.846 155.023 112.381 156.545C115.972 157.74 119.781 158.139 123.626 157.921C125.149 157.849 126.636 157.414 128.051 157.052C129.901 156.617 131.606 155.494 133.383 154.588C137.011 152.741 139.405 149.806 141.364 146.437C142.996 143.611 144.302 140.604 145.209 137.452C146.079 134.481 146.877 131.511 147.204 128.793C147.204 128.033 147.167 127.67 147.204 127.308C147.385 124.845 147.929 124.555 150.251 125.388C151.158 125.714 152.101 126.221 153.008 126.149C156.635 125.859 160.299 126.33 163.89 124.953C168.206 123.287 171.471 120.497 173.357 116.476C174.736 113.251 175.28 109.81 175.135 106.187Z" fill="#B0DFD1"/>
<path d="M27.2041 6.63086C28.5463 8.11624 29.0178 9.52917 29.5619 10.8334C30.7952 13.8042 33.008 15.4707 35.9099 16.4851C36.2726 16.5938 36.6716 16.63 36.7079 17.0648C36.7442 17.7894 36.1275 17.4633 35.801 17.5358C30.9766 18.6226 29.4894 20.2167 28.9453 24.854C28.8727 25.5786 28.4374 26.0858 27.9296 26.1945C27.2404 26.3394 27.2404 25.5786 27.0953 25.1076C26.0796 21.2673 23.6855 18.9125 19.7317 18.2241C19.2601 18.1516 18.8974 17.9343 18.8974 17.4633C18.8611 16.7749 19.4778 17.0648 19.8042 16.9199C23.3591 15.3983 25.9345 13.1158 26.4786 9.0582C26.5875 8.33362 27.2767 7.82641 27.2041 6.63086Z" fill="#FFCC66"/>
<path d="M21.6198 38.5491C19.3708 38.5491 17.7748 40.2519 17.1581 43.3313C17.0856 43.7299 17.3758 44.2733 16.7954 44.382C16.215 44.4907 16.0699 43.9472 15.8523 43.4763C15.1268 42.0271 14.9454 40.2157 13.2043 39.3824C12.4062 39.0201 11.7896 38.2955 10.7376 38.5491C10.3024 38.6578 9.79452 38.1868 9.64942 37.7521C9.50433 37.3536 10.0484 37.1362 10.3386 37.0638C13.3856 36.0131 15.0542 33.8032 15.7797 30.7599C15.8523 30.4339 15.816 29.9629 16.3238 29.9629C16.7591 29.9629 16.9768 30.3976 16.9768 30.7237C17.013 34.093 19.4071 35.5784 21.91 36.9913C22.309 37.2087 23.0345 37.426 22.8169 38.1506C22.5992 38.7665 22.0914 38.6941 21.6198 38.5491Z" fill="#FFCC66"/>
<path d="M122.755 68.8364C117.459 68.764 113.179 64.6701 113.215 59.7792C113.287 54.5985 117.713 50.5771 123.335 50.6857C128.341 50.7582 132.73 54.9608 132.658 59.5981C132.585 64.9962 128.377 68.9089 122.755 68.8364Z" fill="#FFB4B4"/>
<path d="M37.3993 54.2356C37.4356 49.0549 41.3169 45.2508 46.5041 45.3233C51.6187 45.3595 56.0442 49.6708 55.9716 54.5254C55.8991 59.4163 51.9452 63.3653 47.0482 63.329C41.2081 63.329 37.3631 59.7062 37.3993 54.2356Z" fill="#FFB4B4"/>
<path d="M86.8385 61.4097C81.4337 61.3372 77.0445 60.033 73.6348 56.1927C72.7279 55.1783 73.127 54.3088 73.8524 53.4756C74.6867 52.5336 75.4485 53.0046 76.1377 53.7292C80.2366 58.0766 87.7091 59.1273 93.4041 55.7942C94.6011 55.0696 95.508 54.9609 96.3423 56.1203C97.2129 57.3158 96.2335 58.0766 95.508 58.6925C92.8237 60.83 89.6316 61.2648 86.8385 61.4097Z" fill="#404948"/>
<path d="M67.9769 39.1999C69.174 39.1274 70.9151 39.9244 72.3661 41.446C72.9102 42.0257 73.3092 42.7141 73.2729 43.5473C73.2729 44.1994 72.9465 44.7066 72.4386 45.1052C71.8582 45.5399 71.3867 45.1052 71.0239 44.7429C68.2309 42.0257 65.3652 42.4605 62.3545 44.3806C61.5202 44.924 60.432 45.395 59.5977 44.3081C58.7996 43.185 59.6339 42.3518 60.3594 41.6634C62.2456 39.852 64.5672 39.3085 67.9769 39.1999Z" fill="#404948"/>
<path d="M104.546 41.4844C107.992 41.5931 110.277 43.006 112.055 45.3246C112.817 46.3028 112.309 47.1361 111.511 47.8244C110.713 48.5128 110.205 48.0418 109.588 47.3897C106.795 44.3465 105.453 44.0929 102.66 45.9768C102.079 46.3753 101.463 46.7738 100.846 47.1723C100.266 47.5708 99.7216 47.5346 99.1775 47.1361C98.5971 46.7013 98.3069 46.1579 98.452 45.4333C98.5609 44.8174 98.9236 44.3465 99.3589 43.9117C100.628 42.535 103.023 41.4844 104.546 41.4844Z" fill="#404948"/>
<path d="M18.2084 91.4432C17.8094 96.0805 16.83 107.964 16.83 107.964C16.7937 110.5 16.8663 112.673 16.9751 114.485C17.7368 114.557 18.5349 114.593 19.3329 114.485C19.8407 114.412 20.1309 114.63 20.3123 114.92L20.3848 114.666C19.4417 102.239 22.7064 78.9805 22.7064 78.9805C18.8976 84.2699 18.2084 91.4432 18.2084 91.4432Z" fill="#96BFB2"/>
<path d="M146.441 114.556C146.006 113.506 145.534 112.491 145.026 111.441C142.596 106.405 139.766 101.55 136.611 96.9492C139.222 104.449 141.907 111.948 144.555 119.411C145.57 121.838 146.513 123.904 147.384 125.715C147.747 124.701 148.472 124.664 150.177 125.316C150.576 125.461 151.011 125.642 151.41 125.787V125.715C151.011 123.433 149.053 120.86 148.146 118.687C147.602 117.31 147.058 115.933 146.441 114.556Z" fill="#96BFB2"/>
</g>
<defs>
<clipPath id="clip0_18765_48292">
<rect width="175" height="158" fill="white"/>
</clipPath>
</defs>
</svg>
