<svg width="20" height="20" viewBox="0 0 20 20" fill="none" xmlns="http://www.w3.org/2000/svg">
<path d="M9.99984 1.66666C14.6023 1.66666 18.3332 5.39749 18.3332 9.99999C18.3332 14.6025 14.6023 18.3333 9.99984 18.3333C5.39734 18.3333 1.6665 14.6025 1.6665 9.99999C1.6665 5.39749 5.39734 1.66666 9.99984 1.66666ZM9.99984 3.33332C8.23173 3.33332 6.53604 4.0357 5.28579 5.28594C4.03555 6.53619 3.33317 8.23188 3.33317 9.99999C3.33317 11.7681 4.03555 13.4638 5.28579 14.714C6.53604 15.9643 8.23173 16.6667 9.99984 16.6667C11.7679 16.6667 13.4636 15.9643 14.7139 14.714C15.9641 13.4638 16.6665 11.7681 16.6665 9.99999C16.6665 8.23188 15.9641 6.53619 14.7139 5.28594C13.4636 4.0357 11.7679 3.33332 9.99984 3.33332ZM12.3332 11.5475C12.4109 11.4691 12.5035 11.4069 12.6055 11.3645C12.7075 11.3222 12.8169 11.3005 12.9273 11.3008C13.0377 11.3011 13.147 11.3234 13.2488 11.3663C13.3505 11.4092 13.4428 11.4719 13.5201 11.5508C13.5974 11.6296 13.6582 11.7231 13.6991 11.8257C13.74 11.9282 13.7601 12.0379 13.7582 12.1484C13.7563 12.2588 13.7325 12.3677 13.6882 12.4689C13.6438 12.57 13.5798 12.6613 13.4998 12.7375C12.566 13.6548 11.3089 14.1681 9.99984 14.1667C8.69081 14.1681 7.4337 13.6548 6.49984 12.7375C6.3457 12.582 6.25894 12.3721 6.25834 12.1531C6.25774 11.9342 6.34333 11.7238 6.49661 11.5674C6.64989 11.4111 6.85855 11.3213 7.07747 11.3176C7.29639 11.3139 7.50798 11.3965 7.6665 11.5475C8.28886 12.1593 9.1271 12.5015 9.99984 12.5C10.9082 12.5 11.7307 12.1375 12.3332 11.5475ZM7.08317 6.66666C7.41469 6.66666 7.73263 6.79835 7.96705 7.03277C8.20148 7.26719 8.33317 7.58514 8.33317 7.91666C8.33317 8.24818 8.20148 8.56612 7.96705 8.80054C7.73263 9.03496 7.41469 9.16666 7.08317 9.16666C6.75165 9.16666 6.43371 9.03496 6.19929 8.80054C5.96487 8.56612 5.83317 8.24818 5.83317 7.91666C5.83317 7.58514 5.96487 7.26719 6.19929 7.03277C6.43371 6.79835 6.75165 6.66666 7.08317 6.66666ZM12.9165 6.66666C13.248 6.66666 13.566 6.79835 13.8004 7.03277C14.0348 7.26719 14.1665 7.58514 14.1665 7.91666C14.1665 8.24818 14.0348 8.56612 13.8004 8.80054C13.566 9.03496 13.248 9.16666 12.9165 9.16666C12.585 9.16666 12.267 9.03496 12.0326 8.80054C11.7982 8.56612 11.6665 8.24818 11.6665 7.91666C11.6665 7.58514 11.7982 7.26719 12.0326 7.03277C12.267 6.79835 12.585 6.66666 12.9165 6.66666Z" fill="#454545"/>
</svg>
