<svg width="20" height="20" viewBox="0 0 20 20" fill="none" xmlns="http://www.w3.org/2000/svg">
<g clip-path="url(#clip0_22631_4007)">
<path d="M11.0498 2.75C11.1803 2.6567 11.3329 2.59925 11.4925 2.58338C11.652 2.56751 11.813 2.59378 11.9592 2.65957C12.1055 2.72535 12.2319 2.82835 12.3259 2.95828C12.4199 3.0882 12.4781 3.24051 12.4948 3.4L12.4998 3.495V16.505C12.4999 16.6654 12.4579 16.8229 12.378 16.962C12.2981 17.101 12.1831 17.2167 12.0445 17.2974C11.906 17.3781 11.7486 17.4211 11.5883 17.422C11.4279 17.4229 11.2701 17.3817 11.1307 17.3025L11.0507 17.2508L5.5665 13.3333H3.33317C2.91269 13.3335 2.5077 13.1747 2.19938 12.8888C1.89106 12.6028 1.70221 12.211 1.67067 11.7917L1.6665 11.6667V8.33333C1.66637 7.91285 1.82518 7.50786 2.11108 7.19954C2.39699 6.89123 2.78887 6.70237 3.20817 6.67083L3.33317 6.66667H5.5665L11.0498 2.75ZM16.389 5.6525C17.0013 6.19913 17.491 6.86906 17.8261 7.61832C18.1611 8.36758 18.3339 9.17923 18.3332 10C18.3339 10.8208 18.1611 11.6324 17.8261 12.3817C17.491 13.1309 17.0013 13.8009 16.389 14.3475C16.3077 14.4217 16.2124 14.479 16.1088 14.5162C16.0052 14.5534 15.8953 14.5697 15.7853 14.5641C15.6754 14.5585 15.5676 14.5312 15.4683 14.4838C15.3689 14.4364 15.28 14.3697 15.2066 14.2877C15.1331 14.2057 15.0767 14.1099 15.0405 14.0059C15.0042 13.902 14.989 13.7919 14.9956 13.682C15.0022 13.5721 15.0304 13.4646 15.0788 13.3657C15.1272 13.2668 15.1946 13.1785 15.2773 13.1058C15.715 12.7155 16.065 12.237 16.3045 11.7017C16.5439 11.1664 16.6673 10.5864 16.6665 10C16.6665 8.76667 16.1315 7.65833 15.2773 6.89417C15.1946 6.8215 15.1272 6.73317 15.0788 6.63428C15.0304 6.53538 15.0022 6.42789 14.9956 6.318C14.989 6.20811 15.0042 6.09801 15.0405 5.99405C15.0767 5.89009 15.1331 5.79434 15.2066 5.71232C15.28 5.6303 15.3689 5.56365 15.4683 5.51621C15.5676 5.46876 15.6754 5.44147 15.7853 5.43591C15.8953 5.43035 16.0052 5.44662 16.1088 5.4838C16.2124 5.52098 16.3077 5.57831 16.389 5.6525ZM14.7223 7.51583C15.072 7.82812 15.3518 8.21079 15.5432 8.63876C15.7346 9.06673 15.8335 9.53033 15.8332 9.99917C15.8337 10.4683 15.7351 10.9322 15.5436 11.3605C15.3522 11.7888 15.0723 12.1717 14.7223 12.4842C14.5643 12.6245 14.3588 12.6996 14.1476 12.6941C13.9363 12.6887 13.7349 12.6032 13.5843 12.4549C13.4337 12.3066 13.3451 12.1067 13.3363 11.8955C13.3276 11.6843 13.3995 11.4777 13.5373 11.3175L13.6107 11.2425C13.9523 10.9358 14.1665 10.4933 14.1665 10C14.1675 9.57326 14.0039 9.16256 13.7098 8.85333L13.6107 8.7575C13.528 8.68483 13.4605 8.5965 13.4121 8.49761C13.3638 8.39872 13.3355 8.29122 13.3289 8.18133C13.3223 8.07145 13.3376 7.96134 13.3738 7.85738C13.41 7.75342 13.4665 7.65767 13.5399 7.57565C13.6133 7.49364 13.7023 7.42698 13.8016 7.37954C13.9009 7.3321 14.0087 7.30481 14.1186 7.29924C14.2286 7.29368 14.3385 7.30996 14.4422 7.34713C14.5458 7.38431 14.641 7.44165 14.7223 7.51583Z" fill="#6D6D6D"/>
</g>
<defs>
<clipPath id="clip0_22631_4007">
<rect width="20" height="20" fill="white"/>
</clipPath>
</defs>
</svg>
