<svg width="38" height="22" viewBox="0 0 38 22" fill="none" xmlns="http://www.w3.org/2000/svg">
<path d="M37.6139 16.2445C37.3378 15.296 36.6279 14.6306 35.8864 14.0187C35.421 13.6362 34.9793 13.2462 34.6796 12.7413C34.2536 12.0223 34.0248 11.2192 33.6935 10.462C33.2124 9.35289 32.5498 8.40444 31.6663 7.57837C30.9721 6.93586 30.1912 6.44634 29.292 6.10214C28.6688 5.87267 28.0378 5.71205 27.3831 5.57437C26.7441 5.44434 26.1052 5.3908 25.4663 5.28371C24.8668 5.18428 24.2594 5.10014 23.6914 4.89362C22.7291 4.54943 21.9245 3.92222 21.1278 3.32561C20.3942 2.78254 19.6369 2.27772 18.8481 1.81879C16.2056 0.296672 12.9163 -0.238747 9.9188 0.464946C9.19309 0.63322 8.49894 0.939174 7.82056 1.26043C7.09486 1.60462 6.40859 2.02531 5.8091 2.53778C5.13072 3.11909 4.51545 3.76924 4.00272 4.50353C3.27702 5.54377 2.74062 6.6758 2.4251 7.88432C2.24367 8.57271 2.13324 9.28406 2.0938 10.003C2.05436 10.7832 2.08591 11.5711 2.21212 12.3283C2.29889 12.8408 2.35411 13.3915 2.58286 13.881C2.67752 14.0875 2.59075 14.2023 2.45665 14.3399C2.00703 14.7912 1.47064 15.166 1.13145 15.7244C0.55562 16.6499 0.76071 18.1261 2.03858 18.4856C2.74851 18.6845 3.45844 18.8298 4.19204 18.8986C5.17805 18.9904 6.16406 18.8833 7.15796 18.9828C7.97833 19.0593 8.66459 19.2658 9.3193 19.7094C10.2185 20.3213 11.2519 20.5431 12.3168 20.6579C12.9399 20.7267 13.5552 20.7497 14.1863 20.6655C14.77 20.589 15.3616 20.4896 15.9374 20.4667C16.529 20.4437 17.097 20.2754 17.6728 20.2066C18.2644 20.1301 18.8481 20.0077 19.4476 20.0001C20.4021 19.9848 21.3644 20.0001 22.3189 20.0383C23.3522 20.0842 24.3777 20.1837 25.4031 20.2525C26.4917 20.329 27.5724 20.1454 28.653 20.0919C29.0632 20.0689 29.4971 20.1072 29.8915 19.9924C30.3648 19.8548 30.8459 19.8471 31.3192 19.8165C31.9503 19.7706 32.5655 19.6712 33.1729 19.5259C34.1826 19.2811 35.1765 19.0057 36.2256 18.9828C36.7936 18.9751 37.2274 18.6692 37.4956 18.1644C37.8348 17.5372 37.7954 16.887 37.6139 16.2445Z" fill="#B0DFD1"/>
<path d="M18.3248 8.06759C18.3169 8.98545 17.5202 9.71209 16.5263 9.70444C15.5797 9.69679 14.8146 8.97015 14.8224 8.06759C14.8303 7.14208 15.5955 6.46898 16.6446 6.47663C17.6069 6.48428 18.3248 7.16502 18.3248 8.06759Z" fill="#FFB4B4"/>
<path d="M7.7859 12.6494C8.7167 12.6494 9.48184 13.3684 9.48184 14.2404C9.48184 15.0359 8.55894 15.9308 7.76224 15.9078C6.87088 15.8849 6.03474 15.0435 6.02686 14.1792C6.02686 13.3608 6.83144 12.6494 7.7859 12.6494Z" fill="#FFB4B4"/>
<path d="M12.1734 7.68511C11.8342 7.68511 11.4871 7.58567 11.1874 7.36386C10.9981 7.22618 10.8876 7.02731 11.0375 6.80549C11.2032 6.55308 11.3767 6.73665 11.5345 6.83609C12.2128 7.28737 13.0805 6.98141 13.3172 6.21653C13.3724 6.04825 13.4355 5.87998 13.5065 5.71936C13.5775 5.55873 13.6485 5.35221 13.8693 5.3981C14.0744 5.43635 14.1139 5.62757 14.1218 5.81879C14.1612 6.85903 13.1673 7.68511 12.1734 7.68511Z" fill="#404948"/>
<path d="M10.3815 11.5323C11.3201 11.5858 12.2983 11.0121 12.4402 9.97955C12.4639 9.79598 12.5743 9.54357 12.8268 9.58946C13.0871 9.63535 13.0319 9.86482 13.024 10.079C12.9609 11.364 11.6041 12.2589 10.413 12.1824C10.2789 12.1748 10.1527 12.1518 10.0344 12.0983C9.86084 12.0141 9.77407 11.8841 9.82139 11.7005C9.86872 11.517 10.0186 11.5323 10.1685 11.5323C10.2474 11.5323 10.3262 11.5323 10.3815 11.5323Z" fill="#404948"/>
<path d="M8.21378 10.0105C8.22167 11.043 7.10945 11.7391 6.13133 11.3108C5.91835 11.219 5.80002 11.0277 5.6817 10.8442C5.65804 10.8136 5.64226 10.7753 5.63437 10.7371C5.60282 10.5382 5.84735 10.5535 5.97356 10.6071C6.21021 10.7065 6.4153 10.7906 6.6756 10.7753C7.23566 10.76 7.5433 10.4694 7.5433 9.92631C7.5433 9.66625 7.49597 9.29911 7.85882 9.30676C8.15068 9.31441 8.22956 9.6586 8.22167 9.94161C8.21378 9.96456 8.21378 9.98751 8.21378 10.0105Z" fill="#404948"/>
<path d="M2.62122 13.9961C2.99196 14.5009 3.35481 15.0057 3.73344 15.4876C3.93064 15.7247 4.12784 15.9618 4.34082 16.1684C4.39604 16.2143 4.44337 16.2678 4.50647 16.3137L4.6879 16.459L5.05075 16.7497L6.51794 17.9123C7.007 18.3024 7.50395 18.6925 7.98513 19.0979C7.4093 18.8225 6.86502 18.5013 6.33651 18.1494C5.80801 17.8052 5.29528 17.4304 4.79833 17.0403C4.67212 16.9409 4.5538 16.8415 4.43548 16.742L4.25405 16.5891C4.19095 16.5355 4.13573 16.4743 4.07263 16.4208C3.84387 16.1837 3.65456 15.9236 3.48102 15.6635C3.13394 15.1281 2.84208 14.5774 2.62122 13.9961Z" fill="#96BFB2"/>
<path d="M33.6924 18.7377C33.6136 18.7071 33.5268 18.6918 33.4479 18.6841C31.5705 18.447 30.0481 17.4756 29.7484 17.2691C29.7089 17.2461 29.6695 17.2232 29.6301 17.2002C28.6993 16.6801 27.6501 14.7832 27.6501 14.7832C28.5257 17.2767 30.7581 18.5694 31.1051 18.7606C31.1288 18.7759 31.1604 18.7912 31.1919 18.7988C31.7835 19.0666 32.3988 19.3266 32.9825 19.5637C33.0456 19.5484 33.1166 19.5331 33.1797 19.5178C33.7792 19.3725 34.3787 19.2119 34.9782 19.1048C34.8993 19.0666 34.8125 19.036 34.7179 19.013C34.2052 18.9059 33.8581 18.7988 33.6924 18.7377Z" fill="#96BFB2"/>
<path d="M11.4797 15.8173C11.4797 15.8173 10.5173 16.1768 8.83717 17.8443C8.83717 17.8443 8.45065 18.3491 8.23767 19.1675C8.45065 19.244 8.66363 19.3358 8.86872 19.4505C8.86872 19.2746 8.87661 18.6857 9.08959 18.3032C9.08959 18.3032 9.7443 17.4236 10.5016 16.98C10.5016 16.98 12.2369 15.825 15.0924 15.4273C15.0845 15.4273 12.6708 15.1825 11.4797 15.8173Z" fill="#96BFB2"/>
</svg>
