<svg width="29" height="25" viewBox="0 0 29 25" fill="none" xmlns="http://www.w3.org/2000/svg">
<path d="M28.4669 15.0231C28.2508 14.2311 27.9095 13.5004 27.4829 12.8087C27.0222 12.0557 26.5445 11.3139 26.0781 10.5664C26.0383 10.4939 25.9928 10.427 25.9644 10.3489C25.7823 9.8413 25.6174 9.33371 25.5378 8.79266C25.4638 8.27392 25.2648 7.77191 25.1112 7.26432C24.9463 6.71769 24.7301 6.19337 24.4913 5.66905C24.4856 5.67463 24.4799 5.68579 24.4799 5.69137C24.4856 5.68579 24.4913 5.67463 24.4913 5.66905C24.4685 5.51845 24.3377 5.42921 24.2808 5.29534C23.9964 4.65946 23.604 4.07378 23.1376 3.56062C22.4437 2.79645 21.6816 2.1048 20.7545 1.59163C20.0436 1.20118 19.3212 0.855354 18.5477 0.609928C18.161 0.487215 17.7515 0.431436 17.3761 0.303145C16.8073 0.113498 16.2272 0.0744526 15.6471 0.0242518C15.1579 -0.0203712 14.6574 0.00194031 14.1683 0.0186739C13.5768 0.0409854 12.9853 0.130231 12.4051 0.2641C11.8023 0.403547 11.2164 0.576461 10.642 0.777264C9.68078 1.11751 8.7992 1.60279 8.00294 2.22193C7.44556 2.66258 6.91092 3.1367 6.46161 3.70564C6.0066 4.28574 5.58572 4.88257 5.19896 5.50172C4.89752 5.97026 4.74395 6.50573 4.50507 7.00216C4.27757 7.48186 4.14107 8.00618 3.98182 8.51377C3.83963 8.97115 3.72019 9.44527 3.45856 9.84688C2.86705 10.7616 2.25279 11.6597 1.71247 12.6079C1.27452 13.3832 0.927581 14.1865 0.728515 15.051C0.586325 15.6646 0.592013 16.2949 0.711452 16.9252C0.853642 17.6782 1.27452 18.2248 1.95703 18.5818C2.45754 18.8105 2.97511 18.883 3.50975 18.7324C3.67469 18.6878 3.7145 18.7715 3.73156 18.8942C3.76 19.0504 3.76 19.2121 3.81119 19.3571C4.00457 19.9149 4.24913 20.4504 4.59039 20.9413C4.7212 21.1309 4.85771 21.3205 4.90889 21.566C4.9999 22.0234 5.08521 22.4807 5.26721 22.9158C5.48334 23.4457 5.81322 23.9031 6.26254 24.2378C6.59811 24.4888 6.98486 24.6784 7.42281 24.7844C7.99157 24.9239 8.56601 24.9127 9.0779 24.7509C10.096 24.4386 10.8695 23.786 11.2733 22.7764C11.3359 22.6146 11.4041 22.4082 11.6714 22.5644C11.7283 22.5979 11.8193 22.5756 11.8933 22.5756C12.9 22.5644 13.9067 22.5588 14.9134 22.5365C15.6812 22.5142 16.449 22.6035 17.2112 22.5309C17.3477 22.5198 17.45 22.5588 17.5012 22.7262C17.7742 23.5907 18.3487 24.2155 19.1506 24.6505C19.6056 24.8513 20.0663 25.0075 20.5839 25.0019C21.0218 24.9964 21.437 25.0075 21.8636 24.8458C22.9897 24.4218 23.6495 23.6019 24.0306 22.5254C24.1841 22.0903 24.2353 21.6329 24.5197 21.2257C24.952 20.6066 25.2989 19.9317 25.3672 19.1563C25.3728 19.0671 25.4525 19.0002 25.5548 19.0448C26.0212 19.24 26.5047 19.1284 26.9369 19.0169C27.6706 18.8217 28.1199 18.2639 28.3986 17.5778C28.4726 17.338 28.5977 17.1037 28.6091 16.8638C28.6489 16.2447 28.6318 15.6311 28.4669 15.0231Z" fill="#B0DFD1"/>
<path d="M14.2766 9.25C14.8055 9.26116 15.3231 9.37271 15.7895 9.66834C15.926 9.75759 16.0454 9.85799 16.1307 9.99186C16.2104 10.1201 16.1705 10.2261 16.0682 10.3154C15.9772 10.3935 15.8691 10.466 15.7383 10.3823C15.7042 10.36 15.67 10.3433 15.6473 10.321C14.8396 9.58467 13.6339 9.72412 12.8092 10.254C12.6215 10.3712 12.4395 10.5608 12.2177 10.3154C12.0869 10.1648 12.1949 9.94166 12.4907 9.76316C13.0367 9.42849 13.6225 9.25 14.2766 9.25Z" fill="#404948"/>
<path d="M9.70376 8.3687C9.60138 8.33523 9.45351 8.36312 9.41369 8.21252C9.36819 8.05634 9.44782 7.94478 9.59001 7.87227C9.6412 7.84996 9.69807 7.8388 9.74926 7.82764C10.227 7.72724 10.665 7.55991 11.0233 7.21966C11.1655 7.08579 11.3475 6.97423 11.5124 7.1583C11.683 7.34795 11.5238 7.50971 11.3873 7.63242C10.9209 8.06191 10.3351 8.25156 9.70376 8.3687Z" fill="#404948"/>
<path d="M18.622 8.39633C18.0475 8.32939 17.5299 8.12859 17.0863 7.75487C17.0238 7.70467 16.9839 7.621 16.9441 7.54849C16.8816 7.43136 16.8759 7.31422 16.9896 7.2194C17.1034 7.12457 17.2171 7.15804 17.3309 7.23055C17.4901 7.33095 17.6039 7.48713 17.7688 7.58196C18.0589 7.75487 18.366 7.85527 18.6959 7.8999C18.7357 7.90547 18.7755 7.8999 18.8097 7.91105C18.9348 7.97241 19.1623 7.93336 19.1452 8.13417C19.1282 8.34613 18.9405 8.4019 18.7414 8.39075C18.6959 8.39075 18.6561 8.39633 18.622 8.39633Z" fill="#404948"/>
<path d="M5.19324 5.50151C5.19874 5.50711 5.20975 5.50711 5.21525 5.51271C5.20975 5.50711 5.20425 5.50151 5.19324 5.50151Z" fill="#FEFEFE"/>
<path d="M24.4851 5.66309C24.4796 5.66868 24.4741 5.67988 24.4741 5.68548C24.4796 5.67988 24.4851 5.67428 24.4851 5.66309Z" fill="#FEFEFE"/>
<path d="M26.072 10.5605C26.0665 10.5661 26.0665 10.5773 26.061 10.5829C26.0665 10.5773 26.072 10.5717 26.072 10.5605Z" fill="#FEFEFE"/>
<path d="M28.4036 17.5727C28.3981 17.5671 28.3871 17.5671 28.3816 17.5615C28.3871 17.5671 28.3926 17.5671 28.4036 17.5727Z" fill="#FEFEFE"/>
<path d="M1.96253 18.5761C1.96803 18.5705 1.96803 18.5593 1.97354 18.5537C1.96803 18.5593 1.96253 18.5649 1.96253 18.5761Z" fill="#FEFEFE"/>
<path d="M19.156 24.6396C19.1615 24.634 19.1615 24.6228 19.167 24.6172C19.1615 24.6228 19.156 24.6284 19.156 24.6396Z" fill="#FEFEFE"/>
<path d="M20.362 11.8329C19.5316 11.8218 18.8604 11.1915 18.8661 10.4385C18.8775 9.64083 19.5714 9.02168 20.453 9.03842C21.2378 9.04957 21.926 9.69661 21.9147 10.4106C21.9033 11.2417 21.2435 11.8441 20.362 11.8329Z" fill="#FFB4B4"/>
<path d="M6.98478 10.4163C6.99047 9.61862 7.59904 9.03295 8.41237 9.0441C9.21432 9.04968 9.9082 9.71345 9.89683 10.4609C9.88545 11.2139 9.2655 11.8219 8.49768 11.8163C7.57629 11.8163 6.97909 11.2641 6.98478 10.4163Z" fill="#FFB4B4"/>
<path d="M19.6397 10.3321C19.6397 10.8062 19.2927 11.0182 18.8662 11.0182C18.4396 11.0182 18.0927 10.8006 18.0927 10.3321C18.0927 9.86357 18.468 9.3002 18.8662 9.25C19.3382 9.30578 19.6397 9.85799 19.6397 10.3321Z" fill="#66CCFF"/>
<path d="M3.31626 16.1164C3.22526 16.4343 3.15132 17.271 3.10582 17.8734C3.08307 18.1802 3.10013 18.487 3.15701 18.7826C3.27645 18.7714 3.39589 18.7491 3.51533 18.7156C3.68027 18.671 3.72008 18.7547 3.73714 18.8774C3.73714 18.883 3.73714 18.8886 3.73714 18.8941C3.74283 18.8941 3.74852 18.8886 3.74852 18.8886C3.23663 17.6168 3.93621 14.5713 3.93621 14.5713C3.5267 15.3633 3.31626 16.1164 3.31626 16.1164Z" fill="#96BFB2"/>
<path d="M25.5547 19.0388C25.6742 19.089 25.7993 19.1169 25.9187 19.1336C25.913 19.0556 25.9017 18.983 25.8846 18.905C25.7822 18.3081 25.623 17.477 25.5035 17.1702C25.5035 17.1702 25.2135 16.434 24.7073 15.6865C24.7073 15.6865 25.3727 17.6276 25.4012 19.0667C25.4353 19.0277 25.4922 19.0109 25.5547 19.0388Z" fill="#96BFB2"/>
</svg>
