<svg width="29" height="25" viewBox="0 0 29 25" fill="none" xmlns="http://www.w3.org/2000/svg">
<path d="M28.6185 16.8041C28.5837 15.932 28.3518 15.1344 27.9575 14.3713C27.395 13.2811 26.7282 12.2655 25.986 11.29C25.7135 10.9285 25.4758 10.5384 25.3192 10.108C25.1163 9.56293 25.0467 8.9834 24.9192 8.42109C24.8148 7.97353 24.7452 7.52024 24.6234 7.06694C24.4495 6.40135 24.2176 5.75297 23.8871 5.15623C23.371 4.20374 22.71 3.36027 21.9156 2.6086C21.2256 1.95448 20.4313 1.46102 19.5963 1.01347C19.0977 0.743786 18.5526 0.560173 18.0192 0.393775C17.5147 0.238851 16.9813 0.152783 16.4536 0.0839284C15.8506 -0.00214004 15.2476 -0.0136158 14.6446 -0.00214004C13.8444 0.00933575 13.05 0.0724526 12.2673 0.29623C11.757 0.445416 11.2468 0.600339 10.7655 0.801165C9.50727 1.32905 8.48677 2.20121 7.53585 3.14796C7.24593 3.43486 7.0256 3.78487 6.77047 4.09472C6.324 4.63408 5.9993 5.24803 5.6514 5.84477C5.05997 6.86612 4.64829 7.97927 3.98729 8.96619C3.6046 9.53424 3.17552 10.0621 2.76964 10.6072C2.2304 11.3359 1.70276 12.0761 1.26788 12.8737C0.896792 13.5508 0.705448 14.2967 0.635869 15.0541C0.583684 15.6221 0.76923 16.1845 1.04755 16.6722C1.35486 17.2173 1.78393 17.6763 2.43334 17.8771C2.85662 18.0091 3.2683 18.1755 3.72057 18.1124C3.87132 18.0952 3.90031 18.2157 3.90611 18.3132C3.92351 18.8067 3.99888 19.2944 4.09166 19.7821C4.14964 20.0977 4.21342 20.4248 4.31199 20.7174C4.50334 21.2797 4.6193 21.8592 4.87443 22.4043C5.08317 22.8519 5.29191 23.2994 5.62821 23.6724C5.95291 24.0224 6.3472 24.2749 6.77047 24.4987C7.17056 24.7052 7.61123 24.8085 8.0345 24.8946C8.46938 24.9806 8.94484 24.906 9.37971 24.7683C10.0697 24.5503 10.6727 24.1716 11.2004 23.6609C11.4149 23.4544 11.6468 23.2363 11.7686 23.0011C11.9252 22.6912 12.1339 22.697 12.3716 22.7257C12.8007 22.7773 13.2298 22.8232 13.6647 22.806C14.4996 22.7716 15.323 22.9494 16.1579 22.915C16.6392 22.8978 16.6566 22.9093 16.8537 23.3453C16.8653 23.3683 16.8653 23.4027 16.8769 23.4257C17.2538 24.1142 17.8626 24.5388 18.5874 24.7798C19.1614 24.9692 19.7703 25.0323 20.3849 24.9979C20.6284 24.9864 20.8661 24.9175 21.0923 24.8601C21.388 24.7913 21.6605 24.6134 21.9446 24.47C22.5245 24.1773 22.9071 23.7126 23.2203 23.1789C23.4812 22.7314 23.6899 22.2551 23.8349 21.7559C23.974 21.2854 24.1016 20.8149 24.1538 20.3846C24.1538 20.2641 24.148 20.2067 24.1538 20.1493C24.1828 19.7592 24.2697 19.7133 24.6408 19.8452C24.7858 19.8969 24.9366 19.9772 25.0815 19.9657C25.6613 19.9198 26.247 19.9944 26.821 19.7764C27.511 19.5124 28.0328 19.0706 28.3344 18.4337C28.5547 17.923 28.6417 17.3779 28.6185 16.8041Z" fill="#B0DFD1"/>
<path d="M4.97466 1.03711C5.1892 1.27236 5.26458 1.49614 5.35155 1.7027C5.54869 2.17321 5.90239 2.43716 6.36626 2.59782C6.42424 2.61503 6.48802 2.62077 6.49382 2.68962C6.49962 2.80438 6.40104 2.75274 6.34886 2.76422C5.57769 2.93635 5.33996 3.18882 5.25298 3.92327C5.24138 4.03803 5.17181 4.11836 5.09063 4.13557C4.98046 4.15852 4.98046 4.03803 4.95727 3.96343C4.79492 3.35522 4.41223 2.98226 3.78021 2.87324C3.70483 2.86176 3.64685 2.82733 3.64685 2.75274C3.64105 2.64372 3.73962 2.68962 3.79181 2.66667C4.36004 2.42568 4.77172 2.06419 4.8587 1.42155C4.87609 1.30679 4.98626 1.22646 4.97466 1.03711Z" fill="#FFCC66"/>
<path d="M4.08148 6.09133C3.72199 6.09133 3.46686 6.36101 3.36829 6.84873C3.3567 6.91184 3.40308 6.99791 3.31031 7.01513C3.21754 7.03234 3.19434 6.94627 3.15955 6.87168C3.04359 6.64216 3.0146 6.35527 2.73628 6.2233C2.60872 6.16592 2.51014 6.05116 2.34199 6.09133C2.27241 6.10854 2.19124 6.03395 2.16804 5.96509C2.14485 5.90198 2.23183 5.86755 2.27821 5.85607C2.76527 5.68967 3.03199 5.33966 3.14796 4.85768C3.15955 4.80604 3.15376 4.73145 3.23493 4.73145C3.30451 4.73145 3.3393 4.8003 3.3393 4.85194C3.3451 5.38557 3.72779 5.62082 4.12787 5.8446C4.19165 5.87902 4.30762 5.91345 4.27283 6.02821C4.23804 6.12575 4.15686 6.11428 4.08148 6.09133Z" fill="#FFCC66"/>
<path d="M20.2458 10.8887C19.3993 10.8772 18.7151 10.2288 18.7209 9.45422C18.7325 8.63371 19.4399 7.9968 20.3386 8.01401C21.1388 8.02549 21.8403 8.69108 21.8288 9.42553C21.8172 10.2805 21.1446 10.9002 20.2458 10.8887Z" fill="#FFB4B4"/>
<path d="M6.60368 8.57575C6.60948 7.75523 7.22989 7.15275 8.05905 7.16422C8.87661 7.16996 9.58401 7.85277 9.57241 8.62165C9.56081 9.39626 8.9288 10.0217 8.14603 10.016C7.2125 10.016 6.59788 9.44217 6.60368 8.57575Z" fill="#FFB4B4"/>
<path d="M14.507 9.71203C13.6431 9.70055 12.9415 9.49399 12.3964 8.88577C12.2515 8.72511 12.3153 8.5874 12.4312 8.45543C12.5646 8.30625 12.6864 8.38084 12.7965 8.4956C13.4517 9.18414 14.6462 9.35054 15.5565 8.82266C15.7479 8.7079 15.8928 8.69068 16.0262 8.8743C16.1653 9.06365 16.0088 9.18414 15.8928 9.28169C15.4637 9.62022 14.9535 9.68908 14.507 9.71203Z" fill="#404948"/>
<path d="M11.4911 6.19408C11.6824 6.1826 11.9607 6.30884 12.1927 6.54983C12.2796 6.64163 12.3434 6.75065 12.3376 6.88263C12.3376 6.98591 12.2854 7.06624 12.2043 7.12936C12.1115 7.19821 12.0361 7.12936 11.9781 7.07198C11.5317 6.64163 11.0736 6.71049 10.5923 7.0146C10.459 7.10067 10.285 7.17526 10.1517 7.00312C10.0241 6.82525 10.1575 6.69328 10.2734 6.58426C10.5749 6.29736 10.946 6.21129 11.4911 6.19408Z" fill="#404948"/>
<path d="M17.3356 6.55664C17.8865 6.57385 18.2517 6.79763 18.5359 7.16486C18.6576 7.31978 18.5765 7.45175 18.4489 7.56077C18.3213 7.66979 18.2402 7.5952 18.1416 7.49192C17.6951 7.00993 17.4806 6.96977 17.0341 7.26814C16.9413 7.33126 16.8428 7.39437 16.7442 7.45749C16.6514 7.52061 16.5644 7.51487 16.4775 7.45175C16.3847 7.3829 16.3383 7.29683 16.3615 7.18207C16.3789 7.08453 16.4369 7.00993 16.5065 6.94108C16.7094 6.72304 17.0921 6.55664 17.3356 6.55664Z" fill="#404948"/>
<path d="M3.53642 14.469C3.47264 15.2034 3.31608 17.0854 3.31608 17.0854C3.31029 17.4871 3.32188 17.8314 3.33928 18.1183C3.46104 18.1297 3.5886 18.1355 3.71617 18.1183C3.79734 18.1068 3.84373 18.1412 3.87272 18.1871L3.88432 18.1469C3.73356 16.1788 4.25541 12.4951 4.25541 12.4951C3.64659 13.3328 3.53642 14.469 3.53642 14.469Z" fill="#96BFB2"/>
<path d="M24.0324 18.1294C23.9628 17.963 23.8874 17.8024 23.8063 17.636C23.4178 16.8384 22.9655 16.0695 22.4611 15.3408C22.8785 16.5286 23.3076 17.7163 23.7309 18.8983C23.8932 19.2828 24.044 19.6098 24.1832 19.8967C24.2411 19.736 24.3571 19.7303 24.6296 19.8336C24.6934 19.8565 24.763 19.8852 24.8268 19.9082V19.8967C24.763 19.5352 24.4499 19.1278 24.3049 18.7836C24.2179 18.5655 24.131 18.3475 24.0324 18.1294Z" fill="#96BFB2"/>
</svg>
