<svg width="30" height="27" viewBox="0 0 30 27" fill="none" xmlns="http://www.w3.org/2000/svg">
<path d="M29.3346 17.284C29.3204 16.8589 29.2354 16.4267 29.1007 16.0229C28.7889 15.0805 28.236 14.2445 27.7329 13.3871C26.8611 11.8992 26.1311 10.3263 25.5642 8.6967C25.061 7.27256 24.579 5.86259 23.5018 4.73603C22.4458 3.63073 21.1913 2.71673 19.7951 2.07197C18.5052 1.46973 17.1091 1.10129 15.6845 1.01627C15.5357 1.00919 15.3939 1.0021 15.2451 1.0021C11.4109 0.924162 7.56251 3.0214 5.68439 6.37273C4.79848 7.95274 4.35199 9.74532 3.50152 11.3395C2.88492 12.4944 2.06989 13.5359 1.52417 14.7263C0.978452 15.9166 0.709136 17.3265 1.26194 18.5169C1.80766 19.7072 3.38103 20.4441 4.50082 19.771C5.08906 20.9684 5.6773 22.1658 6.27263 23.3632C6.61991 24.0646 6.97427 24.7802 7.55543 25.2975C8.88074 26.4736 11.2479 26.1194 12.1692 24.6102C12.311 24.3764 12.4315 24.1142 12.6512 23.9584C12.8992 23.7812 13.2323 23.7741 13.5371 23.7671C14.6852 23.76 15.8333 23.7529 16.9815 23.7387C17.1799 23.7387 17.3925 23.7387 17.5697 23.8308C17.8178 23.9584 17.9524 24.2276 18.1013 24.4685C18.9801 25.9068 21.1417 26.5232 22.4599 25.4746C22.9702 25.0707 23.3033 24.4897 23.6222 23.9229C24.2672 22.7822 24.9121 21.6486 25.5571 20.5078C25.635 20.3661 25.8476 20.1181 25.9256 19.9552C25.9894 19.9835 26.1595 20.0756 26.3367 20.1394C26.3508 20.1465 26.3721 20.1465 26.3863 20.1536C27.3927 20.2953 28.4628 19.771 28.966 18.8924C29.2495 18.4177 29.3558 17.8509 29.3346 17.284Z" fill="#B0DFD1"/>
<path d="M10.3405 9.4766C10.3263 10.3127 9.58216 11.0991 8.76004 11.0495C7.79617 10.9858 7.14415 10.4544 7.10871 9.37032C7.07327 8.52718 7.94501 7.7478 8.80257 7.77614C9.68139 7.7974 10.3547 8.54843 10.3405 9.4766Z" fill="#FFB4B4"/>
<path d="M22.9066 9.41959C22.9066 10.2911 22.1483 11.035 21.2836 11.0705C20.5536 11.0917 19.611 10.121 19.6465 9.40542C19.6819 8.71107 20.3056 7.88209 20.8584 7.88209C22.1412 7.86792 22.9066 8.44891 22.9066 9.41959Z" fill="#FFB4B4"/>
<path d="M11.2969 7.87498C11.657 7.87498 11.949 7.58314 11.949 7.22313C11.949 6.86313 11.657 6.57129 11.2969 6.57129C10.9368 6.57129 10.6449 6.86313 10.6449 7.22313C10.6449 7.58314 10.9368 7.87498 11.2969 7.87498Z" fill="#404948"/>
<path d="M18.4903 7.87498C18.8504 7.87498 19.1423 7.58314 19.1423 7.22313C19.1423 6.86313 18.8504 6.57129 18.4903 6.57129C18.1302 6.57129 17.8383 6.86313 17.8383 7.22313C17.8383 7.58314 18.1302 7.87498 18.4903 7.87498Z" fill="#404948"/>
<path d="M14.7283 8.51978C15.2244 8.51978 15.7134 8.51978 16.2095 8.51978C16.5001 8.51978 16.6489 8.64732 16.656 8.88821C16.6631 9.11494 16.5001 9.27082 16.2095 9.27082C15.2315 9.2779 14.2605 9.2779 13.2825 9.27082C12.9706 9.27082 12.8005 9.12203 12.8005 8.88821C12.8005 8.64023 12.9706 8.5127 13.3108 8.5127C13.7857 8.51978 14.2534 8.51978 14.7283 8.51978Z" fill="#404948"/>
<path d="M4.52178 15.2646C4.05402 16.1078 3.8414 16.9084 3.8414 16.9084C3.74926 17.2414 3.69965 18.1271 3.6713 18.7577C3.65004 19.1828 3.72092 19.6079 3.86975 20.0118C4.08945 19.9763 4.29498 19.9055 4.49343 19.7921C3.82722 18.4743 4.52178 15.2646 4.52178 15.2646Z" fill="#9EC9BC"/>
<path d="M26.1367 20.075C26.0375 20.0325 25.9595 19.99 25.917 19.9688C25.995 20.0113 26.0658 20.0467 26.1367 20.075Z" fill="#9EC9BC"/>
<path d="M26.7477 18.9413C26.7193 18.3107 26.6697 17.425 26.5776 17.092C26.5776 17.092 26.365 16.2914 25.8972 15.4482C25.8972 15.4482 26.5918 18.6579 25.9185 19.9757C25.961 19.9899 26.039 20.0324 26.1382 20.082C26.1949 20.1103 26.2658 20.1387 26.3295 20.1599C26.3437 20.167 26.365 20.167 26.3792 20.1741C26.4075 20.1812 26.4429 20.1812 26.4713 20.1812C26.4925 20.1812 26.5209 20.1883 26.5422 20.1883C26.6981 19.7915 26.7689 19.3664 26.7477 18.9413Z" fill="#9EC9BC"/>
<path d="M15.5143 23.7523C13.2677 23.8303 9.07202 23.4264 9.07202 23.4264C10.1635 24.0428 11.2265 24.4113 12.1692 24.6238C12.1692 24.6238 12.1692 24.6238 12.1692 24.6167C12.3109 24.3829 12.4314 24.1208 12.6511 23.9649C12.8991 23.7878 13.2322 23.7807 13.537 23.7736C14.6851 23.7665 15.8333 23.7594 16.9814 23.7452C17.1798 23.7452 17.3925 23.7452 17.5696 23.8373C17.8177 23.9649 17.9524 24.2341 18.1012 24.475C18.1154 24.5034 18.1366 24.5246 18.1508 24.553C20.3195 24.1208 21.7936 23.2422 21.7936 23.2422C20.5676 23.6602 15.5143 23.7523 15.5143 23.7523Z" fill="#9EC9BC"/>
</svg>
