<svg width="29" height="25" viewBox="0 0 29 25" fill="none" xmlns="http://www.w3.org/2000/svg">
<path d="M28.6188 16.2757C28.601 15.8506 28.5184 15.4196 28.3826 15.0181C28.0697 14.0792 27.5147 13.2408 27.0187 12.3846C26.1508 10.8967 25.4246 9.32605 24.8519 7.69639C24.35 6.26748 23.8659 4.86219 22.7913 3.74032C21.7345 2.63616 20.4828 1.72686 19.0953 1.07735C17.8082 0.480989 16.4089 0.109001 14.9919 0.0204319C14.8443 0.0145273 14.7026 0.00862275 14.555 0.00271817C10.7173 -0.0681368 6.87372 2.02799 5.0021 5.37589C4.52386 6.22615 4.17552 7.14136 3.82127 8.04476C3.48473 8.91864 3.12458 9.78071 2.69948 10.6073C2.1681 11.6525 1.35923 12.5381 0.910514 13.6187C0.160685 15.4373 -0.193565 17.994 2.04411 18.862C2.61682 19.0804 3.27808 19.0922 3.81536 18.7675C4.40578 19.9661 4.99619 21.1647 5.58071 22.3575C5.92315 23.0542 6.2833 23.7746 6.86191 24.2942C8.18444 25.4751 10.5461 25.1208 11.4672 23.6033C11.6089 23.3731 11.7269 23.1133 11.9454 22.9538C12.1934 22.7767 12.524 22.7649 12.831 22.7649C13.9764 22.759 15.1218 22.7472 16.2672 22.7413C16.468 22.7413 16.6805 22.7413 16.8577 22.8298C17.1056 22.9597 17.2414 23.2313 17.389 23.4675C18.2688 24.9023 20.4238 25.5223 21.7404 24.4772C22.2482 24.0757 22.5788 23.4911 22.8976 22.9302C23.5412 21.7906 24.1847 20.6569 24.8283 19.5174C24.9109 19.3757 25.1176 19.1336 25.2002 18.9682C25.2652 18.9978 25.4305 19.0922 25.6076 19.1513C25.6253 19.1572 25.6431 19.1631 25.6608 19.1631C26.6645 19.3048 27.7331 18.7852 28.2409 17.9054C28.5361 17.4094 28.6424 16.8485 28.6188 16.2757Z" fill="#B0DFD1"/>
<path d="M3.84591 14.2617C3.37948 15.1061 3.16693 15.9032 3.16693 15.9032C3.07837 16.2338 3.02523 17.1195 2.99571 17.7513C2.978 18.1765 3.04885 18.6016 3.19645 19.0031C3.41491 18.9677 3.62746 18.8968 3.82229 18.7846C3.14922 17.4679 3.84591 14.2617 3.84591 14.2617Z" fill="#96BFB2"/>
<path d="M25.4289 19.0692C25.3344 19.0219 25.2518 18.9806 25.2104 18.9629C25.2813 19.0042 25.3581 19.0396 25.4289 19.0692Z" fill="#96BFB2"/>
<path d="M26.037 17.9349C26.0134 17.3031 25.9602 16.4174 25.8657 16.0868C25.8657 16.0868 25.6532 15.2897 25.1868 14.4453C25.1868 14.4453 25.8835 17.6574 25.2104 18.9682C25.2517 18.9859 25.3285 19.0273 25.4288 19.0745C25.4879 19.104 25.5528 19.1276 25.6178 19.1513C25.6355 19.1572 25.6532 19.1631 25.6709 19.1631C25.7004 19.169 25.7359 19.169 25.7654 19.1749C25.789 19.1749 25.8126 19.1808 25.8362 19.1808C25.9897 18.7852 26.0547 18.3601 26.037 17.9349Z" fill="#96BFB2"/>
<path d="M14.8212 22.7353C12.5776 22.812 8.38562 22.4105 8.38562 22.4105C9.47789 23.0305 10.5347 23.3966 11.4735 23.6033C11.4735 23.6033 11.4735 23.6033 11.4735 23.5974C11.6152 23.3671 11.7333 23.1073 11.9517 22.9479C12.1997 22.7707 12.5303 22.7589 12.8374 22.7589C13.9828 22.753 15.1282 22.7412 16.2736 22.7353C16.4743 22.7353 16.6869 22.7353 16.864 22.8239C17.112 22.9538 17.2478 23.2254 17.3954 23.4616C17.4131 23.4911 17.4308 23.5147 17.4485 23.5383C19.6153 23.1073 21.0855 22.2334 21.0855 22.2334C19.8633 22.6526 14.8212 22.7353 14.8212 22.7353Z" fill="#96BFB2"/>
<path d="M9.65431 8.47571C9.6425 9.30825 8.89858 10.0995 8.07199 10.0463C7.10962 9.98138 6.46016 9.45587 6.41883 8.36942C6.38931 7.52507 7.25131 6.75157 8.11332 6.78109C8.99304 6.79881 9.66612 7.54869 9.65431 8.47571Z" fill="#FFB4B4"/>
<path d="M22.2003 8.41614C22.2062 9.28411 21.4445 10.034 20.5825 10.0635C19.8563 10.0871 18.9116 9.11288 18.953 8.39843C18.9884 7.70759 19.6142 6.87504 20.1633 6.87504C21.4327 6.86914 22.2003 7.44779 22.2003 8.41614Z" fill="#FFB4B4"/>
<path d="M18.4397 6.23171C18.4457 6.5978 18.1209 6.93436 17.7549 6.95207C17.3829 6.96388 17.0346 6.65094 17.0168 6.29076C16.9991 5.89515 17.3061 5.5763 17.7194 5.5704C18.1091 5.56449 18.4338 5.85972 18.4397 6.23171Z" fill="#404948"/>
<path d="M11.3734 6.2611C11.3734 6.66261 11.0723 6.95784 10.6531 6.95194C10.2811 6.94603 9.93868 6.60947 9.95049 6.2552C9.9623 5.88911 10.2929 5.57617 10.6708 5.57617C11.0546 5.57617 11.3675 5.88911 11.3734 6.2611Z" fill="#404948"/>
<path d="M16.3091 9.17254C15.9962 8.216 15.022 7.63735 13.9887 7.77906C12.9673 7.92077 12.2529 8.7297 12.2352 9.77481C12.2293 10.2058 12.5068 10.3653 12.9378 10.4125C13.1799 10.4361 13.5991 9.81614 14.2013 9.81614C14.5555 9.81614 14.9688 9.88699 15.2109 10.0818C15.5061 10.3239 15.8604 10.5129 16.191 10.318C16.5098 10.1291 16.5157 9.79252 16.3091 9.17254Z" fill="#404948"/>
</svg>
