<svg width="24" height="27" viewBox="0 0 24 27" fill="none" xmlns="http://www.w3.org/2000/svg">
<path d="M23.8923 16.5391C23.8174 16.0497 23.7474 15.5503 23.5875 15.0658C23.2926 14.2018 22.9478 13.3778 22.7579 12.4738C22.513 11.3202 22.3731 10.1266 22.2232 8.95791C22.1582 8.47347 22.0183 7.99901 21.8733 7.53455C21.5885 6.64059 21.1287 5.82653 20.6589 5.02745C20.3141 4.43813 19.8543 3.92373 19.3596 3.44928C18.7399 2.86495 18.0852 2.31559 17.3205 1.92604C15.1666 0.827309 12.8227 0.36784 10.4289 0.747401C10.0591 0.807332 9.67927 0.892234 9.30945 1.00211C8.77471 1.15693 8.24496 1.31175 7.74021 1.54648C7.02556 1.88109 6.3309 2.24067 5.72119 2.75009C5.08151 3.27947 4.52178 3.87379 4.04201 4.54801C3.52726 5.26717 3.10747 6.05127 2.79762 6.87531C2.51775 7.61945 2.40281 8.4435 2.22789 9.21761C2.22789 9.88683 1.89306 10.6909 1.74813 11.3451C1.6032 11.9794 1.37831 12.6187 1.06846 13.193C0.918532 13.4677 0.868557 13.8123 0.743618 14.102C0.588693 14.4565 0.458756 14.8211 0.34881 15.1957C0.0789413 16.1246 -0.150947 17.1884 0.123919 18.1373C0.358805 18.9364 0.793593 19.5557 1.48825 19.9752C1.72814 20.12 1.77811 20.2998 1.8131 20.5345C1.85308 20.7992 1.8131 21.0639 1.88806 21.3386C1.95303 21.5833 2.02799 21.843 2.03299 22.1027C2.03299 22.2925 2.08297 22.4773 2.13294 22.6471C2.23289 22.9967 2.36283 23.3413 2.51775 23.6759C2.90257 24.5249 3.47729 25.2041 4.24191 25.7285C4.8866 26.173 5.64123 26.2779 6.38587 26.3678C6.88063 26.4277 7.37039 26.2829 7.84516 26.158C8.52483 25.9782 9.08456 25.5687 9.57432 25.0693C9.87417 24.7646 10.0791 24.6548 10.4639 24.5998C10.8187 24.5449 11.1835 24.5798 11.5334 24.5998C12.0581 24.6298 12.5779 24.6548 13.0876 24.5699C13.3725 24.5199 13.5074 24.5948 13.6223 24.8146C13.8322 25.2091 14.1621 25.4938 14.5069 25.7585C14.7818 25.9682 15.0966 26.0881 15.4365 26.188C15.8313 26.3078 16.2011 26.4127 16.6109 26.3778C16.9207 26.3528 17.2206 26.3778 17.5404 26.3078C18.0302 26.198 18.445 25.9732 18.8448 25.7135C19.4445 25.324 19.8543 24.7546 20.2041 24.1403C20.569 23.5011 20.8038 22.8219 20.9538 22.1027C20.9838 21.9679 20.9588 21.7581 21.1637 21.7082C21.9583 21.5034 22.518 20.984 23.0078 20.3697C23.4725 19.7904 23.7074 19.1162 23.8574 18.397C23.9873 17.7677 23.9823 17.1434 23.8923 16.5391Z" fill="#B0DFD1"/>
<path d="M12.7328 11.8099C12.5029 11.7849 12.273 11.735 12.0432 11.735C11.4634 11.73 10.8787 11.715 10.299 11.7549C9.86422 11.7849 9.63433 11.5402 9.59435 11.1007C9.52938 10.3665 9.96917 9.68234 10.6688 9.4576C11.4534 9.20789 12.2281 9.21787 12.9577 9.65737C13.4625 9.96201 13.7523 10.6312 13.6274 11.2106C13.5474 11.6001 13.2826 11.7699 12.7328 11.8099Z" fill="#404948"/>
<path d="M15.6565 7.20504C15.6565 7.73942 15.3167 8.13896 14.8569 8.12897C14.3322 8.12397 13.9773 7.74441 13.9673 7.19505C13.9623 6.61572 14.2922 6.24614 14.8169 6.24614C15.3367 6.24115 15.6565 6.60573 15.6565 7.20504Z" fill="#404948"/>
<path d="M10.0043 6.74561C10.0043 7.28498 9.64945 7.66954 9.1447 7.67453C8.63494 7.67953 8.3101 7.32993 8.30011 6.77058C8.29511 6.18625 8.60996 5.81169 9.10472 5.80669C9.65445 5.8017 9.99928 6.16628 10.0043 6.74561Z" fill="#404948"/>
<path d="M8.14996 9.98143C8.13497 10.8704 7.34035 11.7144 6.46078 11.6545C5.43628 11.5896 4.74162 11.0202 4.69664 9.86656C4.66166 8.9676 5.58621 8.14355 6.50576 8.16852C7.4453 8.19349 8.16495 8.99257 8.14996 9.98143Z" fill="#FFB4B4"/>
<path d="M18.855 10.2361C18.86 11.16 18.0503 11.9591 17.1258 11.9891C16.3512 12.014 15.3417 10.9752 15.3816 10.2111C15.4216 9.47198 16.0863 8.588 16.671 8.58301C18.0354 8.588 18.855 9.20229 18.855 10.2361Z" fill="#FFB4B4"/>
<path d="M10.634 12.2588C10.8489 12.1939 11.0538 12.094 11.2787 12.0541C11.4586 12.0191 11.6435 11.9941 11.8284 11.9941C11.9634 11.9941 12.0283 12.074 12.0333 12.1939C12.0583 12.5036 12.1383 12.7932 12.2682 13.0679C12.3082 13.1478 12.3382 13.2377 12.4231 13.2876C12.5231 13.3925 12.648 13.4525 12.783 13.4824C12.8629 13.4974 12.8829 13.5324 12.8929 13.6123C12.9279 14.0468 13.3227 14.4663 13.7625 14.4163C13.8574 14.4064 13.8924 14.4513 13.9124 14.5412C14.0573 15.1105 14.4921 15.3902 15.0419 15.2654C15.1118 15.2504 15.1418 15.2654 15.1568 15.3253C15.2068 15.5201 15.3167 15.6849 15.3867 15.8697C15.2767 15.9096 15.1918 15.8297 15.0918 15.8147C14.727 15.7698 14.4022 15.8347 14.1673 16.1493C13.8324 16.6038 13.8524 17.1182 14.0074 17.6226C14.1573 18.1121 14.4372 18.5216 14.822 18.8562C14.9619 18.9761 15.1268 19.071 15.2568 19.2108C14.857 19.6303 14.3272 19.7352 13.7975 19.8351C13.5526 19.88 13.3027 19.885 13.0528 19.905C13.0578 19.8301 13.0678 19.7552 13.0628 19.6753C13.0228 19.2208 13.0578 18.7613 13.1028 18.3068C13.1628 17.6876 13.1528 17.0683 13.1728 16.444C13.1778 16.3092 13.1178 16.1843 12.9729 16.1543C12.713 16.1094 12.4531 16.0594 12.1982 15.9945C11.8634 15.9146 11.5186 15.9246 11.1837 15.8846C10.729 15.8297 10.2792 15.8047 9.8244 15.7947C9.70446 15.7947 9.58952 15.8397 9.46458 15.8247C9.22469 15.7997 9.18471 15.8247 9.08476 16.0594C8.83488 16.6438 8.64498 17.2481 8.52503 17.8773C8.44008 18.3318 8.35512 18.7813 8.50005 19.2408C8.36511 19.1958 8.22518 19.1609 8.09524 19.1109C7.66045 18.9411 7.40558 18.6065 7.28064 18.152C7.75541 18.0222 8.01028 17.6276 8.26016 17.2431C8.40009 17.0233 8.51504 16.7836 8.52503 16.5139C8.55002 15.9645 8.33013 15.4701 7.76041 15.2704C7.79039 15.1954 7.82038 15.1255 7.85536 15.0556C7.96531 14.8458 8.11024 14.6561 8.26016 14.4763C8.71994 13.9119 9.22969 13.3975 9.76443 12.9131C10.0443 12.6684 10.3691 12.5036 10.634 12.2588Z" fill="#FEFEFE"/>
<path d="M8.50482 19.2462C8.35989 18.7867 8.44485 18.3372 8.52981 17.8827C8.64475 17.2535 8.83966 16.6492 9.08954 16.0649C9.18949 15.8301 9.22947 15.8052 9.46935 15.8301C9.59429 15.8451 9.70924 15.7952 9.82918 15.8002C10.284 15.8101 10.7337 15.8351 11.1885 15.8901C11.5234 15.93 11.8682 15.92 12.203 15.9999C12.4579 16.0599 12.7178 16.1098 12.9776 16.1597C13.1276 16.1847 13.1825 16.3146 13.1775 16.4494C13.1526 17.0687 13.1676 17.688 13.1076 18.3123C13.0626 18.7617 13.0276 19.2212 13.0676 19.6807C13.0726 19.7606 13.0676 19.8355 13.0576 19.9104C12.9377 20.0003 12.7977 20.0053 12.6628 19.9953C11.9481 19.9554 11.2335 19.9454 10.5238 19.8405C9.88915 19.7456 9.26945 19.5608 8.65975 19.361C8.59478 19.3361 8.5498 19.2961 8.50482 19.2462Z" fill="#485F5C"/>
<path d="M5.73607 19.531C6.81054 19.4461 7.29031 19.1914 7.29031 19.1914C7.30031 19.1864 7.3053 19.1864 7.3153 19.1814C7.7201 19.0016 8.04494 18.667 8.27983 18.2924C8.52471 17.9029 8.77459 17.4883 8.82456 17.0189C8.85955 16.6643 8.76459 16.3047 8.60967 15.9851C8.26484 15.2659 7.7251 14.5917 6.88551 14.5018C6.5007 14.4618 6.0909 14.5268 5.73607 14.6766L1.9729 17.0089L2.60759 19.526H4.49667H5.73607V19.531Z" fill="#B0DFD1"/>
<path d="M5.56165 14.6813C5.69658 14.6014 5.83651 14.5365 5.99144 14.4865C6.14136 14.4366 6.30129 14.4066 6.46121 14.3866C6.78105 14.3517 7.13088 14.4016 7.43074 14.5515C7.58066 14.6264 7.72559 14.7163 7.85553 14.8261C7.98547 14.936 8.10041 15.0509 8.20536 15.1807C8.31031 15.3106 8.40526 15.4404 8.49022 15.5803C8.57518 15.7201 8.65014 15.8549 8.72011 16.0148C8.85504 16.3194 8.935 16.669 8.90502 17.0286C8.88503 17.2034 8.84505 17.3782 8.78508 17.538C8.72511 17.6978 8.65014 17.8476 8.57018 17.9875C8.49022 18.1273 8.40026 18.2622 8.3153 18.392C8.22535 18.5269 8.1204 18.6567 8.01045 18.7766C7.78556 19.0163 7.5007 19.2211 7.18585 19.3359L7.19585 19.3309C7.17086 19.3409 7.15587 19.3459 7.14088 19.3559L7.0909 19.3759C7.05592 19.3859 7.02093 19.3959 6.99095 19.4058C6.92098 19.4258 6.85602 19.4408 6.78605 19.4558C6.65112 19.4857 6.51618 19.5057 6.38125 19.5157C6.24631 19.5307 6.11138 19.5357 5.97644 19.5407C5.84151 19.5457 5.70657 19.5407 5.57164 19.5307C5.63661 19.5157 5.70158 19.5007 5.76655 19.4857C5.83151 19.4708 5.89648 19.4558 5.96145 19.4408C6.09139 19.4058 6.21633 19.3709 6.34127 19.3359C6.4662 19.296 6.59114 19.256 6.71109 19.2111C6.77106 19.1861 6.83103 19.1661 6.886 19.1362L6.97096 19.0962L7.01094 19.0762C7.02093 19.0712 7.04093 19.0612 7.04592 19.0562L7.05592 19.0513C7.3058 18.9214 7.51569 18.7316 7.69061 18.5069C7.78056 18.397 7.85553 18.2771 7.93049 18.1523C8.01045 18.0224 8.08042 17.8926 8.15039 17.7627C8.28532 17.508 8.38027 17.2433 8.40526 16.9886C8.41526 16.8638 8.41026 16.7289 8.38527 16.5991C8.36028 16.4692 8.3203 16.3344 8.27033 16.2045C8.24534 16.1396 8.21535 16.0747 8.18537 16.0098C8.15538 15.9448 8.1204 15.8799 8.08542 15.815L8.03044 15.7201L7.97547 15.6252C7.95548 15.5952 7.93549 15.5653 7.9205 15.5353C7.90051 15.5054 7.88052 15.4754 7.86053 15.4454C7.78057 15.3256 7.68561 15.2207 7.59066 15.1208C7.49071 15.0209 7.38576 14.931 7.26582 14.8561C7.15087 14.7812 7.02093 14.7213 6.886 14.6763C6.75107 14.6364 6.61113 14.6064 6.46121 14.5964C6.31628 14.5814 6.16635 14.5864 6.01642 14.5964C5.8615 14.6164 5.71157 14.6414 5.56165 14.6813Z" fill="#9EC9BC"/>
<path d="M16.8859 20.0123C15.8214 19.8624 15.3567 19.5678 15.3567 19.5678C15.3467 19.5628 15.3417 19.5578 15.3317 19.5528C14.9369 19.338 14.637 18.9685 14.4221 18.5639C14.1972 18.1394 13.9724 17.685 13.9524 17.1905C13.9374 16.816 14.0523 16.4414 14.2272 16.1068C14.612 15.3676 15.1918 14.6834 16.0313 14.6385C16.4162 14.6185 16.821 14.7084 17.1658 14.8882L20.789 17.5601L20.0094 20.1871L18.1203 20.0822L16.8859 20.0123Z" fill="#B0DFD1"/>
<path d="M17.1659 14.888C17.016 14.8381 16.8611 14.7981 16.7061 14.7732C16.5512 14.7482 16.3963 14.7432 16.2464 14.7482C15.9415 14.7582 15.6616 14.8431 15.4218 14.9979C15.3018 15.0728 15.1919 15.1677 15.0869 15.2676C14.987 15.3725 14.892 15.4824 14.8071 15.6022C14.7221 15.7221 14.6421 15.8469 14.5672 15.9768C14.5322 16.0417 14.4972 16.1066 14.4622 16.1766C14.4272 16.2415 14.3973 16.3064 14.3673 16.3763C14.2573 16.641 14.1924 16.9207 14.2023 17.1854C14.2123 17.4551 14.2973 17.7348 14.4122 18.0094C14.4672 18.1493 14.5372 18.2841 14.6022 18.429C14.6671 18.5638 14.7371 18.6936 14.817 18.8135C14.977 19.0582 15.1769 19.273 15.4218 19.4278L15.4317 19.4328C15.4367 19.4378 15.4517 19.4478 15.4617 19.4528L15.5017 19.4777C15.5267 19.4927 15.5567 19.5077 15.5817 19.5227C15.6367 19.5527 15.6966 19.5826 15.7516 19.6076C15.8665 19.6625 15.9915 19.7125 16.1114 19.7574C16.2364 19.8024 16.3613 19.8473 16.4862 19.8873C16.5512 19.9072 16.6162 19.9272 16.6761 19.9472C16.7411 19.9672 16.8061 19.9822 16.871 20.0021C16.7361 20.0021 16.6012 19.9971 16.4662 19.9871C16.3313 19.9722 16.1964 19.9622 16.0614 19.9372C15.9265 19.9122 15.7916 19.8873 15.6616 19.8473C15.5967 19.8273 15.5267 19.8074 15.4617 19.7824C15.4268 19.7724 15.3968 19.7574 15.3618 19.7424L15.3118 19.7225C15.2918 19.7125 15.2818 19.7075 15.2568 19.6925L15.2668 19.6975C14.947 19.5576 14.6771 19.3179 14.4672 19.0532C14.3623 18.9184 14.2673 18.7736 14.1874 18.6337C14.1074 18.4939 14.0324 18.349 13.9575 18.1992C13.8875 18.0494 13.8225 17.8896 13.7726 17.7248C13.7226 17.56 13.6926 17.3802 13.6826 17.2004C13.6726 17.0156 13.6926 16.8358 13.7326 16.661C13.7726 16.4862 13.8325 16.3214 13.9025 16.1666C13.9375 16.0867 13.9775 16.0117 14.0174 15.9368C14.0574 15.8669 14.1024 15.792 14.1474 15.7221C14.2373 15.5822 14.3323 15.4424 14.4422 15.3126C14.5522 15.1827 14.6721 15.0628 14.8021 14.948C14.937 14.8381 15.0819 14.7432 15.2368 14.6683C15.5517 14.5135 15.9165 14.4685 16.2464 14.5185C16.4113 14.5434 16.5712 14.5834 16.7261 14.6433C16.891 14.7182 17.036 14.7932 17.1659 14.888Z" fill="#9EC9BC"/>
</svg>
