<svg width="25" height="25" viewBox="0 0 25 25" fill="none" xmlns="http://www.w3.org/2000/svg">
<path d="M24.9391 16.3303C24.8785 15.0138 24.3783 13.6035 23.9033 12.4744C23.6355 11.8325 23.3172 11.2094 23.0444 10.5676C22.1703 8.47797 22.1753 5.99484 20.8313 4.10672C19.3661 2.04525 17.2793 0.611594 14.6166 0.147763C11.5497 -0.386345 8.34123 0.503835 6.18376 2.60279C3.83428 4.87977 3.59176 8.15001 2.18207 10.8768C1.60102 11.9965 1.04523 13.1725 0.964388 14.4281C0.863335 15.9508 1.62123 17.2158 3.1067 17.867C3.23807 17.9232 3.28355 17.9842 3.2886 18.1013C3.29365 18.2559 3.25828 18.4152 3.32397 18.5651C3.96565 20.1159 3.69281 21.7698 4.79934 23.2409C5.73407 24.4778 7.52776 25.1665 9.0587 24.459C9.88228 24.0795 10.5139 23.508 10.8625 22.6927C10.8878 22.6365 10.913 22.4913 11.0697 22.5662C12.348 23.1706 14.1871 22.7302 15.5513 22.6834C15.6625 22.6787 15.713 22.6834 15.7585 22.7818C16.0617 23.3955 16.4911 23.9203 17.0671 24.3325C17.6381 24.7402 18.2949 24.951 19.0023 24.9978C19.361 25.0213 19.7299 24.9744 20.0937 24.9276C20.5585 24.8667 20.9526 24.6933 21.3518 24.5106C24.2469 23.1706 25.0654 19.0336 24.9391 16.3303Z" fill="#B0DFD1"/>
<path d="M13.4146 10.3569C13.4196 10.4131 13.4196 10.4693 13.3994 10.5209C13.3489 10.6708 13.1518 10.7786 13.0053 10.6989C12.9143 10.6474 12.879 10.5537 12.8335 10.4647C12.6112 10.043 12.1211 9.79468 11.6259 9.70098C10.9287 9.56979 10.1809 9.70098 9.58466 10.057C9.46845 10.1273 9.34719 10.207 9.21077 10.1976C8.83182 10.1789 9.07435 9.80405 9.20571 9.68224C9.42298 9.48078 9.71603 9.35428 10.0091 9.26994C10.5699 9.10596 11.1762 9.07317 11.7522 9.17155C12.3687 9.27931 12.9851 9.56511 13.2983 10.0711C13.359 10.1601 13.4045 10.2585 13.4146 10.3569Z" fill="#404948"/>
<path d="M8.25073 5.64394C8.24063 5.64394 8.23052 5.63926 8.22042 5.63457C7.96273 5.55493 8.01831 5.29256 8.1901 5.17543C8.3821 5.04424 8.64484 5.0255 8.86715 4.97397C9.46842 4.82873 9.93831 4.41175 10.4739 4.12127C10.5143 4.09784 10.5598 4.0791 10.6053 4.07442C10.7013 4.06973 10.7872 4.14938 10.8124 4.2384C10.8933 4.47734 10.681 4.70691 10.4638 4.85684C9.9181 5.23633 9.25621 5.44248 8.60442 5.61115C8.49326 5.63926 8.36694 5.67205 8.25073 5.64394Z" fill="#404948"/>
<path d="M15.2739 6.26757C15.1425 6.25819 15.0111 6.23008 14.8848 6.1926C14.5059 6.07547 14.1471 5.89275 13.8339 5.65849C13.6722 5.53668 13.5156 5.39613 13.4145 5.22278C13.3286 5.07754 13.1821 4.50126 13.5004 4.47784C13.5914 4.47315 13.6722 4.52469 13.7278 4.59028C13.7834 4.65587 13.8137 4.73552 13.849 4.81048C14.1017 5.30242 14.6777 5.58822 15.2537 5.7194C15.476 5.77094 15.7236 5.8131 15.8751 5.9724C15.8954 5.99114 15.9105 6.01457 15.9105 6.04268C15.9105 6.0661 15.8903 6.08484 15.8701 6.10358C15.7185 6.24414 15.4962 6.28631 15.2739 6.26757Z" fill="#404948"/>
<path d="M9.42298 7.7567C9.24109 7.75202 9.05919 7.70048 8.88741 7.63489C8.70046 7.56461 8.51856 7.47091 8.38719 7.33036C8.27604 7.20854 8.05877 6.57604 8.45288 6.72597C8.53877 6.75877 8.59941 6.82904 8.66509 6.88995C8.95309 7.157 9.41288 7.24602 9.79183 7.11015C9.90298 7.07267 10.0344 7.01645 10.1253 7.08204C10.2011 7.13358 10.2061 7.24134 10.1758 7.32567C10.1 7.54587 9.86256 7.70048 9.61498 7.73796C9.55435 7.7567 9.48867 7.7567 9.42298 7.7567Z" fill="#404948"/>
<path d="M14.0562 8.03336C14.0157 8.03336 13.9753 8.02868 13.9349 8.02399C13.7176 7.99588 13.5004 7.90687 13.3488 7.76163C13.172 7.59296 12.9951 6.89019 13.4751 7.12913C13.5863 7.18535 13.6671 7.28374 13.7631 7.3587C13.9955 7.53674 14.3492 7.56016 14.612 7.41961C14.6776 7.38213 14.7383 7.33996 14.809 7.31185C14.8797 7.28842 14.9707 7.28374 15.0263 7.33059C15.1223 7.41024 15.0717 7.55548 14.996 7.64918C14.7787 7.91623 14.4099 8.04742 14.0562 8.03336Z" fill="#404948"/>
<path d="M8.09891 9.17096C8.08375 10.0049 7.28038 10.7967 6.39112 10.7405C5.35533 10.6796 4.65301 10.1455 4.60754 9.0632C4.57217 8.21987 5.50691 7.44682 6.43659 7.47025C7.38649 7.49367 8.11407 8.2433 8.09891 9.17096Z" fill="#FFB4B4"/>
<path d="M18.7197 9.55079C18.7247 10.4175 17.9062 11.1672 16.9714 11.1953C16.1883 11.2187 15.1677 10.2442 15.2081 9.52736C15.2485 8.83396 15.9205 8.00469 16.5117 8C17.891 8.00469 18.7146 8.58096 18.7197 9.55079Z" fill="#FFB4B4"/>
<path d="M4.88046 12.9004C4.89056 13.0128 4.91077 13.1253 4.94614 13.2377C4.97646 13.3455 5.02193 13.4532 5.07751 13.5469C5.13309 13.6453 5.20382 13.7297 5.28467 13.7999C5.30488 13.8187 5.33014 13.8327 5.35035 13.8468L5.36551 13.8562C5.37056 13.8608 5.37561 13.8608 5.38067 13.8655L5.42109 13.8843C5.47161 13.9124 5.52719 13.9358 5.58277 13.9592C5.68888 14.0108 5.80003 14.0529 5.91119 14.0951C6.02235 14.1373 6.13351 14.1748 6.24972 14.2122C6.47709 14.2825 6.70951 14.3294 6.93688 14.3528C6.94193 14.3528 6.94698 14.3528 6.94698 14.3528H6.95709C7.09351 14.3856 7.22993 14.4184 7.3613 14.4559C7.49267 14.4933 7.62909 14.5355 7.76046 14.5824C7.89182 14.6292 8.02319 14.6808 8.15456 14.7463C8.28593 14.8119 8.41225 14.8822 8.53856 15.0087L8.51835 14.99C8.53351 15.004 8.54361 15.0087 8.55372 15.0181C8.56382 15.0275 8.57393 15.0368 8.58403 15.0462C8.60425 15.0649 8.6194 15.0837 8.63456 15.0977C8.66993 15.1352 8.70024 15.168 8.73056 15.2055C8.79119 15.2805 8.84677 15.3554 8.90235 15.4351C8.92761 15.4725 8.95288 15.5147 8.97814 15.5569L9.04382 15.6787C9.08425 15.763 9.12467 15.8474 9.16003 15.9317C9.1954 16.016 9.22067 16.105 9.25098 16.1941C9.26614 16.2362 9.27625 16.2831 9.28635 16.3252C9.29646 16.3721 9.31161 16.4143 9.31667 16.4611L9.33688 16.597C9.34193 16.6204 9.34698 16.6438 9.34698 16.6626L9.35203 16.7282C9.36214 16.8172 9.37225 16.9109 9.36719 16.9999V17.1358C9.36719 17.1545 9.36719 17.1826 9.36719 17.2107C9.36719 17.2388 9.36214 17.2623 9.36214 17.2857C9.35203 17.3841 9.32677 17.4778 9.30151 17.5715C9.24088 17.7589 9.15498 17.9369 9.02867 18.0962C8.9074 18.2555 8.74067 18.3914 8.56888 18.4945C8.39203 18.6069 8.19498 18.6678 8.00298 18.724L8.02319 18.7194C7.87667 18.7662 7.73519 18.8084 7.59372 18.8412C7.45225 18.8787 7.30572 18.9114 7.15919 18.9396C6.87119 18.9958 6.57309 19.0379 6.27498 19.052C5.97688 19.0707 5.67372 19.0614 5.37561 19.0145C5.07751 18.9677 4.7794 18.8787 4.52677 18.7194L4.53688 18.724C4.42572 18.6725 4.32467 18.6116 4.21856 18.5507C4.11751 18.4898 4.02151 18.4195 3.92551 18.3492C3.83456 18.279 3.74361 18.1993 3.66277 18.1197C3.58193 18.0353 3.51119 17.9463 3.45056 17.8479C3.52635 17.9323 3.61225 18.0119 3.70319 18.0775C3.79414 18.1431 3.89014 18.2087 3.99119 18.2649C4.09225 18.3211 4.1933 18.3727 4.2994 18.4242C4.40046 18.471 4.51161 18.5179 4.61772 18.5554L4.62782 18.5601C4.74909 18.621 4.8754 18.6631 5.00677 18.6959C5.13814 18.7287 5.27456 18.7475 5.41098 18.7568C5.5474 18.7662 5.68888 18.7709 5.8253 18.7615C5.96172 18.7568 6.10319 18.7475 6.23961 18.7287C6.51751 18.6959 6.7954 18.6444 7.06319 18.5788C7.19961 18.546 7.33603 18.5085 7.4674 18.471C7.59877 18.4336 7.73519 18.3914 7.86151 18.3445C7.86656 18.3445 7.86656 18.3445 7.87161 18.3399L7.88172 18.3352C8.20004 18.2415 8.47793 18.0822 8.65982 17.8432C8.75077 17.7261 8.81646 17.5902 8.86193 17.445C8.88214 17.3747 8.8973 17.2998 8.9074 17.2295L8.91246 17.1779C8.91246 17.1639 8.91246 17.1451 8.91246 17.1264V17.0046C8.9074 16.6813 8.85688 16.3627 8.74067 16.0629C8.68509 15.9129 8.61435 15.7677 8.52846 15.6318C8.48803 15.5616 8.44256 15.496 8.39203 15.4351C8.36677 15.4023 8.34151 15.3742 8.31625 15.346C8.30109 15.332 8.29098 15.3179 8.27582 15.3039L8.25561 15.2851L8.24046 15.2711L8.22025 15.2523C8.16467 15.1867 8.06361 15.1212 7.95751 15.0602C7.8514 14.9993 7.73519 14.9478 7.61393 14.8963C7.49267 14.8447 7.3714 14.7979 7.24509 14.7557C7.12382 14.7135 6.99246 14.6714 6.87119 14.6339L6.8914 14.6386C6.63372 14.5964 6.38614 14.5215 6.15372 14.4324C5.9213 14.3434 5.69393 14.231 5.48172 14.1092C5.42614 14.0764 5.37561 14.0436 5.32509 14.0108L5.28467 13.9873C5.27961 13.9827 5.26951 13.978 5.26446 13.9733L5.24425 13.9546C5.21898 13.9311 5.19372 13.9124 5.16846 13.889C5.07751 13.7953 5.01688 13.6875 4.9714 13.5751C4.92593 13.4626 4.89561 13.3502 4.88551 13.233C4.87035 13.13 4.8653 13.0128 4.88046 12.9004Z" fill="#9EC9BC"/>
<path d="M18.6438 12.2256C18.5226 12.3989 18.3912 12.5723 18.2649 12.7456C18.1335 12.9143 18.0224 13.0923 17.896 13.2704C17.8354 13.3594 17.7697 13.4484 17.699 13.5327C17.6282 13.6171 17.5474 13.7014 17.4565 13.7717C17.2746 13.9169 17.0624 14.02 16.8653 14.1184C16.4611 14.3199 16.0215 14.4698 15.5718 14.5729C15.3495 14.6244 15.1221 14.6712 14.8948 14.704L14.728 14.7321C14.6725 14.7415 14.6219 14.7509 14.5664 14.7603C14.4602 14.779 14.3541 14.8024 14.248 14.8305C14.0409 14.8821 13.8337 14.943 13.6417 15.0226C13.5457 15.0601 13.4548 15.1023 13.3689 15.1538C13.283 15.2007 13.2021 15.2522 13.1314 15.3131C13.0607 15.374 12.9899 15.4396 12.9344 15.5099C12.8788 15.5802 12.8232 15.6551 12.7777 15.7348C12.7373 15.8144 12.7019 15.8987 12.6716 15.9831C12.6464 16.0674 12.6261 16.1611 12.616 16.2501C12.5756 16.6109 12.6615 16.9904 12.8485 17.3137C12.8939 17.3933 12.9495 17.473 13.0051 17.5479C13.0354 17.5854 13.0657 17.6182 13.096 17.6557C13.1314 17.6885 13.1617 17.7213 13.2021 17.7588L13.4346 17.9743C13.475 18.0071 13.5104 18.0492 13.5508 18.0773L13.667 18.1757C14.3087 18.6864 15.112 19.0331 15.9508 19.1456L16.0316 19.1549L16.1125 19.1643C16.168 19.169 16.2186 19.1784 16.2741 19.1784C16.3853 19.1877 16.4965 19.1971 16.6026 19.2018C16.8198 19.2158 17.0371 19.2205 17.2544 19.2158C17.6838 19.2065 18.1082 19.1502 18.5024 19.0144C18.6994 18.9488 18.8914 18.8645 19.0784 18.7614C19.2704 18.6583 19.4522 18.5459 19.6341 18.4334C19.9979 18.2038 20.3415 17.9415 20.6598 17.6557C21.2965 17.0888 21.8219 16.4001 22.115 15.6083C22.0695 15.8144 22.0089 16.0159 21.928 16.2127C21.8472 16.4094 21.7512 16.6015 21.6451 16.7889C21.4278 17.1637 21.155 17.5058 20.8569 17.829C20.5537 18.1476 20.2152 18.4381 19.8514 18.7005C19.6695 18.8317 19.4826 18.9582 19.2906 19.0753C19.0935 19.1971 18.8813 19.3049 18.664 19.3845C18.4417 19.4688 18.2144 19.5344 17.9819 19.5813C17.7495 19.6234 17.512 19.6516 17.2796 19.6609C17.0472 19.675 16.8148 19.675 16.5824 19.6656C16.4661 19.6609 16.355 19.6562 16.2388 19.6469C16.1832 19.6422 16.1226 19.6375 16.0619 19.6328L15.971 19.6234L15.8851 19.6141C15.4152 19.5579 14.9504 19.436 14.5158 19.258C14.0813 19.08 13.6771 18.8363 13.3133 18.5505L13.1819 18.4381C13.1365 18.4006 13.1011 18.3631 13.0556 18.3257L12.808 18.0961C12.7676 18.0586 12.7272 18.0164 12.6817 17.9696C12.6413 17.9227 12.6009 17.8806 12.5655 17.8337C12.4897 17.74 12.424 17.6416 12.3634 17.5386C12.131 17.1263 12.0299 16.6484 12.0956 16.1799C12.1108 16.0627 12.1411 15.9456 12.1765 15.8332C12.2169 15.7207 12.2674 15.6083 12.323 15.5052C12.3836 15.4021 12.4544 15.299 12.5402 15.21C12.6211 15.1163 12.7171 15.0367 12.8131 14.957C12.9141 14.8821 13.0202 14.8165 13.1264 14.7603C13.2375 14.704 13.3487 14.6572 13.4598 14.615C13.6821 14.5354 13.9146 14.4745 14.1419 14.4323C14.2581 14.4089 14.3693 14.3901 14.4855 14.3714C14.5411 14.362 14.6017 14.3573 14.6573 14.348L14.824 14.3292C15.0413 14.3058 15.2636 14.273 15.4758 14.2402C15.9104 14.1652 16.3247 14.0528 16.7289 13.8841C16.936 13.8045 17.1331 13.7248 17.3049 13.6077C17.4767 13.4953 17.6131 13.336 17.7546 13.1767C17.891 13.0174 18.0325 12.844 18.179 12.6894C18.3508 12.5442 18.4922 12.3849 18.6438 12.2256Z" fill="#9EC9BC"/>
</svg>
