<svg width="28" height="25" viewBox="0 0 28 25" fill="none" xmlns="http://www.w3.org/2000/svg">
<path d="M27.9975 16.2787C27.9855 15.8522 27.9013 15.4258 27.7689 15.0238C27.4561 14.0857 26.9146 13.245 26.4212 12.3922C25.5669 10.9058 24.845 9.33421 24.2794 7.70166C23.7861 6.27622 23.3048 4.86296 22.2459 3.74211C21.1991 2.63343 19.9597 1.71969 18.588 1.07398C17.3125 0.476999 15.9408 0.0993183 14.533 0.0140357C14.3886 0.00185242 14.2442 0.00185242 14.0998 0.00185242C10.3095 -0.071247 6.51923 2.02427 4.6662 5.37466C3.79984 6.95848 3.35464 8.73723 2.51235 10.3454C1.91072 11.5028 1.10453 12.5384 0.563059 13.7324C0.0215893 14.9263 -0.243129 16.3274 0.29834 17.5092C0.83981 18.6909 2.39202 19.4341 3.49903 18.764C4.0766 19.958 4.6662 21.1641 5.24376 22.3581C5.58068 23.0525 5.94166 23.7713 6.50719 24.2952C7.81875 25.477 10.1531 25.1237 11.0555 23.6008C11.1999 23.3693 11.3082 23.1134 11.5248 22.9551C11.7775 22.7723 12.1024 22.7723 12.4032 22.7601C13.5343 22.748 14.6653 22.748 15.7964 22.7358C15.9889 22.7358 16.2055 22.7358 16.374 22.8211C16.6267 22.9429 16.759 23.2231 16.9034 23.4546C17.7698 24.8922 19.8995 25.5135 21.1991 24.4658C21.7044 24.0637 22.0293 23.4789 22.3422 22.9185C22.9799 21.7855 23.6176 20.6403 24.2554 19.5072C24.3396 19.361 24.5442 19.1173 24.6163 18.959C24.6765 18.9833 24.845 19.0808 25.0134 19.1417C25.0255 19.1417 25.0495 19.1539 25.0616 19.1539C26.0603 19.3001 27.1071 18.7762 27.6125 17.899C27.9133 17.4117 28.0096 16.8513 27.9975 16.2787Z" fill="#B0DFD1"/>
<path d="M9.34707 9.28531C9.33503 10.1138 8.60104 10.9057 7.78282 10.8569C6.83224 10.796 6.19451 10.26 6.14638 9.17566C6.12231 8.33502 6.9646 7.55529 7.81892 7.57966C8.68527 7.61621 9.3591 8.35938 9.34707 9.28531Z" fill="#FFB4B4"/>
<path d="M21.1271 8.70059C21.1271 9.5656 20.381 10.321 19.5267 10.3453C18.8048 10.3697 17.8783 9.39504 17.9144 8.67622C17.9505 7.98178 18.5641 7.15332 19.1056 7.15332C20.369 7.15332 21.1271 7.72593 21.1271 8.70059Z" fill="#FFB4B4"/>
<path d="M3.51114 14.2559C3.05389 15.0965 2.83731 15.9006 2.83731 15.9006C2.75308 16.2295 2.69291 17.1189 2.66885 17.7524C2.65682 18.1789 2.71698 18.6053 2.8734 19.0073C3.08999 18.9708 3.29455 18.8977 3.48707 18.788C2.82527 17.4722 3.51114 14.2559 3.51114 14.2559Z" fill="#96BFB2"/>
<path d="M24.8448 19.0686C24.7485 19.0199 24.6643 18.9834 24.6282 18.959C24.7004 19.0077 24.7726 19.0443 24.8448 19.0686Z" fill="#96BFB2"/>
<path d="M25.4465 17.9351C25.4225 17.3015 25.3743 16.4243 25.2781 16.0832C25.2781 16.0832 25.0615 15.2791 24.6042 14.4385C24.6042 14.4385 25.2901 17.6427 24.6283 18.9585C24.6644 18.9706 24.7486 19.0194 24.8449 19.0681C24.9051 19.0925 24.9652 19.129 25.0374 19.1412C25.0495 19.1412 25.0735 19.1534 25.0856 19.1534C25.1217 19.1534 25.1457 19.1656 25.1818 19.1656C25.2059 19.1656 25.2299 19.1656 25.254 19.1778C25.3984 18.7879 25.4586 18.3615 25.4465 17.9351Z" fill="#96BFB2"/>
<path d="M14.3646 22.7353C12.1506 22.8206 8.01135 22.4064 8.01135 22.4064C9.09429 23.0277 10.1411 23.3932 11.0676 23.6003C11.212 23.3689 11.3203 23.113 11.5369 22.9546C11.7896 22.7719 12.1145 22.7719 12.4153 22.7597C13.5464 22.7475 14.6774 22.7475 15.8085 22.7353C16.001 22.7353 16.2176 22.7353 16.3861 22.8206C16.6388 22.9424 16.7711 23.2227 16.9155 23.4541C16.9276 23.4785 16.9516 23.5029 16.9637 23.5272C19.1055 23.0886 20.5494 22.2236 20.5494 22.2236C19.3461 22.65 14.3646 22.7353 14.3646 22.7353Z" fill="#96BFB2"/>
<path d="M13.9436 9.225C14.6776 9.16408 15.3033 9.49303 15.8327 10.0413C15.9891 10.1997 16.0132 10.3215 15.8568 10.4921C15.6883 10.6626 15.568 10.5895 15.4356 10.4555C14.6174 9.62704 13.3901 9.62704 12.5357 10.2971C12.4515 10.358 12.3793 10.419 12.2831 10.4677C12.1387 10.5408 11.9943 10.5286 11.886 10.4068C11.7777 10.2849 11.8017 10.1509 11.91 10.0291C12.2109 9.67578 12.62 9.49303 13.0411 9.33464C13.3179 9.225 13.6066 9.225 13.9436 9.225Z" fill="#404948"/>
<path d="M18.167 5.99619C17.445 5.87436 16.7712 5.61851 16.2417 5.07027C16.1335 4.96062 16.0974 4.8266 16.2056 4.70477C16.326 4.57076 16.4704 4.59512 16.6027 4.68041C16.8795 4.86315 17.1562 5.05809 17.4691 5.1921C17.6857 5.28957 17.9143 5.35048 18.1549 5.35048C18.3475 5.36267 18.5279 5.44795 18.5279 5.66725C18.5279 5.88655 18.3715 5.97183 18.167 5.99619Z" fill="#404948"/>
<path d="M9.29903 6.10567C9.13058 6.10567 8.98618 6.09349 8.96212 5.87419C8.92602 5.64271 9.05838 5.54524 9.2509 5.52088C9.74424 5.44778 10.1894 5.24066 10.6106 4.98481C10.9114 4.80206 11.14 4.7777 11.2122 4.96045C11.3446 5.24066 11.0919 5.33813 10.9355 5.44778C10.4301 5.78891 9.88863 6.02039 9.29903 6.10567Z" fill="#404948"/>
<path d="M10.057 7.50718C9.86452 7.1295 9.97281 6.94675 10.3699 6.93457C10.8873 6.93457 11.3325 7.1295 11.7536 7.38535C12.1507 7.62901 12.1628 7.76303 11.8499 8.10416C11.6935 8.12853 11.5732 8.05543 11.4528 7.95796C11.2362 7.7874 10.9956 7.65338 10.7309 7.61683C10.5383 7.59246 10.3338 7.61683 10.1533 7.55592C10.1292 7.54373 10.1052 7.51937 10.0691 7.50718C10.0811 7.50718 10.057 7.50718 10.057 7.50718Z" fill="#404948"/>
<path d="M17.4331 7.29969C17.397 7.47025 17.3369 7.60427 17.1323 7.59209C16.7232 7.5799 16.3622 7.71392 16.0494 7.96977C15.929 8.06723 15.7846 8.11597 15.6643 7.96977C15.544 7.82357 15.5681 7.66519 15.6884 7.54335C16.1095 7.11694 16.6149 6.93419 17.2045 7.01947C17.3609 7.03166 17.397 7.16567 17.4331 7.29969Z" fill="#404948"/>
</svg>
