<svg width="20" height="20" viewBox="0 0 20 20" fill="none" xmlns="http://www.w3.org/2000/svg">
<g clip-path="url(#clip0_22648_8093)">
<path d="M10.0001 1.66667C14.6026 1.66667 18.3334 5.3975 18.3334 10C18.3334 14.6025 14.6026 18.3333 10.0001 18.3333C5.39758 18.3333 1.66675 14.6025 1.66675 10C1.66675 5.3975 5.39758 1.66667 10.0001 1.66667ZM10.0001 3.33333C8.23197 3.33333 6.53628 4.03571 5.28604 5.28595C4.03579 6.5362 3.33341 8.23189 3.33341 10C3.33341 11.7681 4.03579 13.4638 5.28604 14.714C6.53628 15.9643 8.23197 16.6667 10.0001 16.6667C11.7682 16.6667 13.4639 15.9643 14.7141 14.714C15.9644 13.4638 16.6667 11.7681 16.6667 10C16.6667 8.23189 15.9644 6.5362 14.7141 5.28595C13.4639 4.03571 11.7682 3.33333 10.0001 3.33333ZM10.0001 5C10.2042 5.00003 10.4012 5.07496 10.5537 5.2106C10.7063 5.34623 10.8037 5.53312 10.8276 5.73583L10.8334 5.83333V9.655L13.0892 11.9108C13.2387 12.0608 13.3255 12.262 13.3319 12.4737C13.3384 12.6853 13.2641 12.8914 13.124 13.0502C12.984 13.209 12.7888 13.3086 12.578 13.3287C12.3673 13.3487 12.1567 13.2878 11.9892 13.1583L11.9109 13.0892L9.41092 10.5892C9.2814 10.4595 9.19822 10.2908 9.17425 10.1092L9.16675 10V5.83333C9.16675 5.61232 9.25455 5.40036 9.41083 5.24408C9.56711 5.0878 9.77907 5 10.0001 5Z" fill="#222222"/>
</g>
<defs>
<clipPath id="clip0_22648_8093">
<rect width="20" height="20" fill="white"/>
</clipPath>
</defs>
</svg>
