<svg width="80" height="20" viewBox="0 0 80 20" fill="none" xmlns="http://www.w3.org/2000/svg">
<rect y="9" width="2" height="2" rx="1" fill="#6D6D6D"/>
<rect x="5.57129" y="6" width="2" height="8" rx="1" fill="#6D6D6D"/>
<rect x="11.1431" y="3" width="2" height="14" rx="1" fill="#6D6D6D"/>
<rect x="16.7144" y="8" width="2" height="4" rx="1" fill="#6D6D6D"/>
<rect x="22.2856" y="2" width="2" height="16" rx="1" fill="#6D6D6D"/>
<rect x="27.8569" y="3" width="2" height="14" rx="1" fill="#6D6D6D"/>
<rect x="33.4287" y="5" width="2" height="10" rx="1" fill="#6D6D6D"/>
<rect x="39" y="5" width="2" height="10" rx="1" fill="#6D6D6D"/>
<rect x="44.5713" y="5" width="2" height="10" rx="1" fill="#6D6D6D"/>
<rect x="50.1431" y="3" width="2" height="14" rx="1" fill="#6D6D6D"/>
<rect x="55.7144" y="5" width="2" height="10" rx="1" fill="#6D6D6D"/>
<rect x="61.2856" y="2" width="2" height="16" rx="1" fill="#6D6D6D"/>
<rect x="66.8569" y="5" width="2" height="10" rx="1" fill="#6D6D6D"/>
<rect x="72.4287" y="8" width="2" height="4" rx="1" fill="#6D6D6D"/>
<rect x="78" y="9" width="2" height="2" rx="1" fill="#6D6D6D"/>
</svg>
