<svg width="18" height="13" viewBox="0 0 18 13" fill="none" xmlns="http://www.w3.org/2000/svg">
<path fill-rule="evenodd" clip-rule="evenodd" d="M9.20564 3.10404C11.6928 3.10414 14.0848 4.02623 15.8873 5.67971C16.023 5.80736 16.24 5.80575 16.3736 5.6761L17.6711 4.41263C17.7388 4.34687 17.7766 4.25779 17.776 4.16511C17.7754 4.07243 17.7366 3.98379 17.6681 3.91879C12.9371 -0.455922 5.47341 -0.455922 0.742394 3.91879C0.673862 3.98374 0.634978 4.07235 0.634346 4.16504C0.633714 4.25772 0.671387 4.34682 0.739027 4.41263L2.03689 5.6761C2.17049 5.80595 2.38761 5.80756 2.52326 5.67971C4.326 4.02612 6.71829 3.10403 9.20564 3.10404ZM9.20229 7.32431C10.5596 7.32423 11.8685 7.83597 12.8746 8.7601C13.0107 8.89125 13.2251 8.88841 13.3577 8.75369L14.645 7.43438C14.7128 7.36518 14.7504 7.2713 14.7494 7.17375C14.7484 7.0762 14.709 6.98312 14.6398 6.91533C11.576 4.02448 6.83122 4.02448 3.76739 6.91533C3.69818 6.98312 3.65869 7.07625 3.65778 7.17383C3.65688 7.27141 3.69462 7.36528 3.76255 7.43438L5.04946 8.75369C5.18212 8.88841 5.39648 8.89125 5.53257 8.7601C6.53802 7.83658 7.84586 7.32488 9.20229 7.32431ZM11.7267 10.1179C11.7286 10.2232 11.6916 10.3248 11.6243 10.3986L9.44761 12.8533C9.3838 12.9255 9.29681 12.9661 9.20604 12.9661C9.11527 12.9661 9.02828 12.9255 8.96447 12.8533L6.78744 10.3986C6.72019 10.3247 6.68319 10.2231 6.68519 10.1178C6.68718 10.0124 6.72799 9.91267 6.79798 9.84205C8.18808 8.52816 10.224 8.52816 11.6141 9.84205C11.684 9.91272 11.7248 10.0125 11.7267 10.1179Z" fill="#1C1B1F"/>
</svg>
