<svg width="20" height="20" viewBox="0 0 20 20" fill="none" xmlns="http://www.w3.org/2000/svg">
<g clip-path="url(#clip0_22631_3978)">
<path fill-rule="evenodd" clip-rule="evenodd" d="M11.6665 3.33333C12.3295 3.33333 12.9654 3.59672 13.4343 4.06557C13.9031 4.53441 14.1665 5.17029 14.1665 5.83333H16.6665C17.1085 5.83333 17.5325 6.00893 17.845 6.32149C18.1576 6.63405 18.3332 7.05797 18.3332 7.5V15.8333C18.3332 16.2754 18.1576 16.6993 17.845 17.0118C17.5325 17.3244 17.1085 17.5 16.6665 17.5H3.33317C2.89114 17.5 2.46722 17.3244 2.15466 17.0118C1.8421 16.6993 1.6665 16.2754 1.6665 15.8333V7.5C1.6665 7.05797 1.8421 6.63405 2.15466 6.32149C2.46722 6.00893 2.89114 5.83333 3.33317 5.83333H5.83317C5.83317 5.17029 6.09656 4.53441 6.5654 4.06557C7.03425 3.59672 7.67013 3.33333 8.33317 3.33333H11.6665ZM6.6665 6.66667C6.46239 6.66669 6.26539 6.74163 6.11286 6.87726C5.96033 7.01289 5.86288 7.19979 5.839 7.4025L5.83317 7.5V15.8333C5.83341 16.0457 5.91474 16.25 6.06054 16.4045C6.20635 16.5589 6.40563 16.6519 6.61767 16.6643C6.8297 16.6768 7.03849 16.6078 7.20136 16.4714C7.36424 16.3351 7.46892 16.1417 7.494 15.9308L7.49984 15.8333V7.5C7.49984 7.27899 7.41204 7.06702 7.25576 6.91074C7.09948 6.75446 6.88752 6.66667 6.6665 6.66667ZM13.3332 6.66667C13.1122 6.66667 12.9002 6.75446 12.7439 6.91074C12.5876 7.06702 12.4998 7.27899 12.4998 7.5V15.8333C12.4998 16.0543 12.5876 16.2663 12.7439 16.4226C12.9002 16.5789 13.1122 16.6667 13.3332 16.6667C13.5542 16.6667 13.7661 16.5789 13.9224 16.4226C14.0787 16.2663 14.1665 16.0543 14.1665 15.8333V7.5C14.1665 7.27899 14.0787 7.06702 13.9224 6.91074C13.7661 6.75446 13.5542 6.66667 13.3332 6.66667ZM11.6665 5H8.33317C8.12906 5.00003 7.93206 5.07496 7.77953 5.21059C7.627 5.34623 7.52955 5.53312 7.50567 5.73583L7.49984 5.83333H12.4998C12.4998 5.62922 12.4249 5.43222 12.2892 5.27969C12.1536 5.12716 11.9667 5.02971 11.764 5.00583L11.6665 5Z" fill="#454545"/>
</g>
<defs>
<clipPath id="clip0_22631_3978">
<rect width="20" height="20" fill="white"/>
</clipPath>
</defs>
</svg>
