<svg width="40" height="40" viewBox="0 0 40 40" fill="none" xmlns="http://www.w3.org/2000/svg">
<g clip-path="url(#clip0_24515_48964)">
<path fill-rule="evenodd" clip-rule="evenodd" d="M19.9999 3.33337C29.2049 3.33337 36.6666 10.795 36.6666 20C36.6666 29.205 29.2049 36.6667 19.9999 36.6667C10.7949 36.6667 3.33325 29.205 3.33325 20C3.33325 10.795 10.7949 3.33337 19.9999 3.33337ZM19.9999 21.6667C17.9699 21.6645 16.0093 22.4056 14.4883 23.75C14.1567 24.0424 13.9549 24.4546 13.9273 24.8957C13.8996 25.3369 14.0484 25.771 14.3408 26.1025C14.6332 26.4341 15.0453 26.6358 15.4865 26.6635C15.9276 26.6912 16.3617 26.5424 16.6933 26.25C17.6053 25.4426 18.7818 24.9979 19.9999 25C21.2181 24.9971 22.395 25.4419 23.3066 26.25C23.6381 26.5427 24.0723 26.6916 24.5136 26.6641C24.955 26.6366 25.3673 26.4349 25.6599 26.1034C25.9525 25.7719 26.1015 25.3377 26.074 24.8963C26.0465 24.455 25.8448 24.0427 25.5133 23.75C23.9918 22.4052 22.0305 21.6641 19.9999 21.6667ZM14.1666 13.3334C13.5035 13.3334 12.8677 13.5968 12.3988 14.0656C11.93 14.5344 11.6666 15.1703 11.6666 15.8334C11.6666 16.4964 11.93 17.1323 12.3988 17.6011C12.8677 18.07 13.5035 18.3334 14.1666 18.3334C14.8296 18.3334 15.4655 18.07 15.9344 17.6011C16.4032 17.1323 16.6666 16.4964 16.6666 15.8334C16.6666 15.1703 16.4032 14.5344 15.9344 14.0656C15.4655 13.5968 14.8296 13.3334 14.1666 13.3334ZM25.8333 13.3334C25.1702 13.3334 24.5343 13.5968 24.0655 14.0656C23.5966 14.5344 23.3333 15.1703 23.3333 15.8334C23.3333 16.4964 23.5966 17.1323 24.0655 17.6011C24.5343 18.07 25.1702 18.3334 25.8333 18.3334C26.4963 18.3334 27.1322 18.07 27.601 17.6011C28.0699 17.1323 28.3333 16.4964 28.3333 15.8334C28.3333 15.1703 28.0699 14.5344 27.601 14.0656C27.1322 13.5968 26.4963 13.3334 25.8333 13.3334Z" fill="#CBDFE6"/>
</g>
<defs>
<clipPath id="clip0_24515_48964">
<rect width="40" height="40" fill="white"/>
</clipPath>
</defs>
</svg>
